<svg width="80" height="80" viewBox="0 0 80 80" fill="none" xmlns="http://www.w3.org/2000/svg">
<path d="M56.6711 34.7657C56.1778 34.4119 55.705 34.0304 55.255 33.6228C55.4035 33.3714 55.6661 32.9714 55.906 32.6286C58.3818 29.4102 59.7733 25.4887 59.8802 21.4286C59.8882 19.7333 59.5488 18.0545 58.8829 16.4957C58.2171 14.9369 57.2389 13.5313 56.0088 12.3657C53.2793 9.79428 48.951 8 42.6128 8C36.0376 8.16638 29.6188 10.0411 23.9863 13.44C21.6738 14.7597 19.5528 16.39 17.6824 18.2857C16.3786 19.4466 15.5321 21.0354 15.2955 22.7657C15.2959 23.0815 15.3599 23.394 15.4835 23.6846C15.6071 23.9752 15.7878 24.2379 16.015 24.4571C17.2614 25.3816 18.7691 25.8858 20.3204 25.8971C22.2505 26.1028 24.6145 26.1028 27.1726 26.1028H27.6294C30.4513 26.044 33.2741 26.1661 36.0804 26.4686C36.7374 26.5412 37.3801 26.7106 37.9876 26.9714C38.3873 27.1771 38.5129 27.3714 38.5129 27.6C38.4632 27.8128 38.3423 28.0023 38.1703 28.1371C36.547 29.3706 34.8582 30.5151 33.1111 31.5657C32.1588 32.1963 31.2712 32.9198 30.4616 33.7257C29.8109 34.3196 29.4039 35.1342 29.3196 36.0114C29.3366 36.4903 29.4666 36.9584 29.6988 37.3774C29.931 37.7965 30.2589 38.1547 30.6558 38.4228C33.0769 40.2857 38.1132 40.7771 40.7399 41.2571C41.8782 41.3573 42.9338 41.8937 43.6863 42.7543C44.0736 43.3215 44.266 43.9994 44.2345 44.6857C44.2588 45.6643 44.0901 46.6381 43.7382 47.5515C43.3863 48.4648 42.858 49.2999 42.1835 50.0088C41.5089 50.7178 40.7014 51.2868 39.8071 51.6834C38.9128 52.0799 37.9491 52.2962 36.9712 52.32H36.3316C36.3853 51.8839 36.412 51.445 36.4116 51.0057C36.445 49.7924 36.2105 48.5867 35.7249 47.4746C35.2393 46.3624 34.5145 45.3711 33.6022 44.5714C31.5611 42.9684 29.0103 42.1568 26.4189 42.2857C24.8402 42.2578 23.274 42.5711 21.8274 43.2042C20.3808 43.8373 19.0877 44.7753 18.0364 45.9543C16.0863 48.1623 15.01 51.0075 15.01 53.9542C15.052 56.3417 15.6192 58.6906 16.6713 60.8338C17.7233 62.9769 19.2344 64.8618 21.097 66.3542C25.1512 69.7142 31.1583 72 38.9811 72C45.2198 72.0114 51.3 70.0339 56.3399 66.3542C59.0653 64.377 61.2755 61.7729 62.7841 58.7614C64.2927 55.75 65.0554 52.4197 65.0079 49.0514C65.0079 40.9143 59.5376 36.8914 56.6711 34.7657ZM31.8206 35.3371C33.0706 34.2335 34.4158 33.2429 35.8406 32.3771C37.0362 31.6693 38.181 30.8788 39.2666 30.0114C39.6623 29.7315 39.994 29.3709 40.2401 28.9532C40.4862 28.5356 40.6409 28.0705 40.6942 27.5886C40.6942 27.2411 40.6245 26.8971 40.4891 26.5771C40.3537 26.2571 40.1555 25.9676 39.9062 25.7257C38.5837 24.7417 36.9859 24.198 35.3381 24.1714C33.0099 23.9763 30.6734 23.9 28.3375 23.9428H27.5609C25.471 23.9428 23.815 23.9428 22.4903 23.8628C24.6436 22.948 26.7443 21.9141 28.7828 20.7657C32.5319 18.5723 36.5161 16.8088 40.6599 15.5086C39.8216 16.3847 39.3096 17.5225 39.2095 18.7314C39.2066 18.9975 39.3045 19.2548 39.4836 19.4514C39.5999 19.571 39.7409 19.6637 39.8968 19.7229C40.0526 19.7821 40.2196 19.8065 40.3858 19.7943C41.2042 19.7234 42.0081 19.5348 42.7727 19.2343C44.1178 18.7204 45.5369 18.4271 46.9753 18.3657C48.5526 18.3689 50.091 18.8555 51.3835 19.76C50.5123 19.7846 49.667 20.0626 48.951 20.56C48.7372 20.7053 48.5607 20.899 48.4357 21.1254C48.3107 21.3517 48.2407 21.6044 48.2316 21.8628C48.2316 22.4457 48.6427 22.88 49.1452 23.4514C50.2758 24.497 50.9488 25.9466 51.0181 27.4857C50.9822 28.9333 50.5171 30.3375 49.6819 31.52V31.2686C49.7226 30.309 49.45 29.3622 48.9053 28.5714C48.7533 28.3925 48.5643 28.2488 48.3514 28.1502C48.1384 28.0515 47.9066 28.0003 47.672 28C46.8497 28 46.1416 28.64 45.0796 29.5086C44.1764 30.2871 43.2226 31.0049 42.2245 31.6571C37.2681 34.7886 34.6072 36 32.7228 36.1485C32.0148 36.1485 30.9641 36.1486 31.8206 35.3486V35.3371ZM36.3887 54.48C38.9315 54.5676 41.4101 53.6712 43.3094 51.9771C44.2834 51.0518 45.0543 49.9338 45.5734 48.6943C46.0924 47.4548 46.3482 46.1208 46.3244 44.7771C46.3762 43.5607 45.9685 42.3693 45.1823 41.44C49.3393 42.4343 53.6676 44.5714 56.0659 47.7943C55.2322 47.5035 54.3563 47.3528 53.4735 47.3485C53.2586 47.3685 53.0499 47.431 52.8592 47.5322C52.6686 47.6334 52.5 47.7714 52.363 47.9383C52.226 48.1051 52.1234 48.2975 52.0612 48.5042C51.9989 48.711 51.9782 48.928 52.0002 49.1428C52.053 49.735 52.1915 50.3163 52.4114 50.8685C52.8989 52.1796 53.1689 53.5617 53.2108 54.96C53.1895 56.8114 52.6429 58.6188 51.6348 60.1714C51.6704 58.9296 51.3192 57.7074 50.6298 56.6742C50.4968 56.4786 50.318 56.3185 50.109 56.2078C49.9 56.0972 49.6671 56.0393 49.4307 56.0393C49.1942 56.0393 48.9614 56.0972 48.7524 56.2078C48.5434 56.3185 48.3646 56.4786 48.2316 56.6742C47.8816 57.132 47.5757 57.6218 47.3179 58.1371C46.4812 59.8613 45.278 61.3817 43.7925 62.5918C42.3071 63.802 40.5754 64.6726 38.7185 65.1428C39.1843 64.3875 39.4515 63.5265 39.4951 62.64C39.5011 62.3781 39.4545 62.1177 39.358 61.8742C39.2856 61.6744 39.1538 61.5015 38.9802 61.3789C38.8067 61.2563 38.5997 61.1898 38.3873 61.1885C37.6489 61.2571 36.9208 61.4105 36.2174 61.6457C34.7386 62.1208 33.2015 62.39 31.6493 62.4457C29.5565 62.4494 27.5239 61.7445 25.8821 60.4457C26.5297 60.3677 27.1427 60.1104 27.6522 59.7028C27.8281 59.566 27.973 59.3933 28.0773 59.1963C28.1817 58.9993 28.2431 58.7824 28.2575 58.56C28.2575 57.8971 27.7322 57.4171 27.1155 56.9028C26.5653 56.5077 26.1098 55.9951 25.7819 55.4021C25.454 54.8091 25.262 54.1506 25.2197 53.4743C25.2265 52.9326 25.323 52.3958 25.5052 51.8857C25.6846 52.385 25.9557 52.8462 26.3046 53.2457C26.5227 53.5098 26.792 53.727 27.0962 53.8841C27.4005 54.0412 27.7333 54.1351 28.0748 54.16C28.3142 54.1787 28.5535 54.1214 28.7585 53.9962C28.9635 53.8711 29.1239 53.6844 29.2168 53.4628C29.3425 53.0956 29.3968 52.7076 29.3767 52.32C29.3809 52.1196 29.4255 51.9221 29.508 51.7395C29.5904 51.5568 29.7089 51.3927 29.8564 51.2571C30.1604 50.9564 30.5709 50.788 30.9984 50.7885C31.4435 50.7976 31.8784 50.9239 32.2593 51.1546C32.6402 51.3853 32.9537 51.7124 33.1682 52.1028C33.6671 52.9355 33.9351 53.8863 33.9448 54.8571C33.9549 55.431 33.854 56.0015 33.6479 56.5371L33.4309 57.0628L33.8763 56.72C34.6477 56.1065 35.2688 55.3247 35.6921 54.4342L36.3887 54.48ZM17.9222 23.4057C17.6252 23.2343 17.4425 23.0514 17.4425 22.7657C17.7532 21.445 18.502 20.2686 19.5667 19.4286C25.9039 13.6803 34.086 10.3888 42.6356 10.1486C47.5349 10.1486 51.532 11.36 54.1815 13.5771C55.3139 14.5397 56.2203 15.7403 56.8362 17.0934C57.4521 18.4466 57.7622 19.9189 57.7446 21.4057C57.6415 25.0341 56.3809 28.5343 54.1473 31.3943C53.5529 32.0291 53.1561 32.8233 53.0052 33.68C53.0157 33.9468 53.0797 34.2088 53.1935 34.4503C53.3073 34.6918 53.4685 34.9079 53.6676 35.0857C54.2034 35.5886 54.7761 36.0509 55.3806 36.4685C58.2014 38.56 62.8495 41.9771 62.8495 49.04C62.9 52.0712 62.2207 55.0701 60.869 57.7834C59.5174 60.4966 57.5331 62.8444 55.0837 64.6285C50.4433 68.0237 44.8437 69.8529 39.0953 69.8514C24.6487 69.8514 17.1799 61.8514 17.1799 53.9314C17.1642 51.5395 18.0118 49.2223 19.5667 47.4057C20.4217 46.4362 21.4778 45.665 22.6612 45.1459C23.8447 44.6268 25.127 44.3722 26.4189 44.4C28.2847 44.3732 30.1193 44.8807 31.7064 45.8628C32.6346 46.487 33.3847 47.3419 33.8832 48.3437C34.3818 49.3455 34.6115 50.4597 34.5501 51.5771V51.8285C34.387 51.4594 34.1758 51.1136 33.922 50.8C33.5676 50.3688 33.1181 50.0257 32.6088 49.7976C32.0996 49.5696 31.5444 49.4628 30.987 49.4857C30.2393 49.4884 29.5221 49.7821 28.987 50.3047C28.452 50.8273 28.1412 51.5378 28.1205 52.2857C28.1306 52.4712 28.1074 52.657 28.052 52.8343C27.8149 52.7963 27.5893 52.7058 27.3917 52.5694C27.1941 52.4329 27.0295 52.254 26.9099 52.0457C26.4732 51.3654 26.2541 50.5681 26.2818 49.76C26.271 49.5544 26.271 49.3484 26.2818 49.1428V48.6857L25.9735 49.0285C24.7859 50.1818 24.0764 51.7407 23.9863 53.3943C24.0412 54.2276 24.2662 55.0408 24.6472 55.7838C25.0282 56.5268 25.5573 57.1838 26.2019 57.7142C26.3701 57.8616 26.5302 58.018 26.6815 58.1828L26.8642 58.3885V58.4571C26.8642 58.5371 26.7044 58.7314 26.3161 58.8914C25.668 59.1221 24.982 59.2268 24.2947 59.2C23.9143 59.2201 23.5331 59.2201 23.1527 59.2H22.7758L22.9814 59.5428C23.9743 60.8464 25.2545 61.9031 26.7223 62.6306C28.1901 63.358 29.8058 63.7367 31.4438 63.7371C33.1827 63.6926 34.906 63.3962 36.56 62.8571C37.0297 62.6856 37.5157 62.5631 38.0104 62.4914C38.1475 62.4914 38.2046 62.4914 38.2274 62.56C38.2529 62.6418 38.2529 62.7295 38.2274 62.8114C38.153 63.4452 37.9468 64.0564 37.6221 64.6057C37.2397 65.349 36.7382 66.0246 36.1375 66.6057L35.7835 66.9257H36.2517C44.3372 65.8857 47.0324 61.2114 48.3572 58.7771C48.543 58.4191 48.7489 58.0719 48.9739 57.7371C49.1566 57.4628 49.3393 57.3371 49.385 57.3485C49.5247 57.3973 49.6422 57.4946 49.7162 57.6228C50.2324 58.7496 50.4675 59.985 50.4014 61.2228C50.4058 61.8868 50.3407 62.5495 50.2073 63.2L50.1045 63.6685L50.4585 63.3371C51.6627 62.3188 52.633 61.0524 53.3031 59.6244C53.9733 58.1964 54.3274 56.6404 54.3414 55.0628C54.3163 53.5045 54.0386 51.9606 53.5191 50.4914C53.3538 50.0643 53.2388 49.6194 53.1765 49.1657C53.1639 49.0384 53.1919 48.9104 53.2565 48.8C53.3159 48.733 53.3965 48.6886 53.4849 48.6743C55.1119 48.7828 56.6967 49.2387 58.1329 50.0114L58.4984 50.1828L58.3956 49.8171C55.906 43.9885 50.4014 41.4857 44.9539 40.1143C42.4375 39.4946 39.8913 39.0026 37.3252 38.64C35.9496 38.4167 34.5939 38.0842 33.271 37.6457L32.7685 37.4171C35.852 37.0285 39.6207 34.8457 42.8869 32.7314C43.9295 32.0358 44.9252 31.2722 45.8676 30.4457C46.2264 30.1285 46.6081 29.8382 47.0096 29.5771C47.2091 29.4057 47.4488 29.2877 47.7062 29.2343C47.7655 29.2338 47.8242 29.247 47.8776 29.2727C47.9311 29.2985 47.9779 29.3361 48.0146 29.3828C48.3953 30.0562 48.5625 30.8294 48.4942 31.6C48.4936 32.3715 48.3938 33.1397 48.1973 33.8857L48.1174 34.2857L48.4485 34.0686C49.5927 33.372 50.5437 32.399 51.2142 31.2388C51.8847 30.0786 52.2531 28.7684 52.2858 27.4286C52.2234 25.5802 51.4355 23.831 50.0931 22.56C49.9674 22.4114 49.8076 22.24 49.6819 22.08C49.601 21.9655 49.5321 21.8429 49.4764 21.7143C49.5229 21.5923 49.6069 21.4883 49.7162 21.4171C50.4896 20.9398 51.3896 20.7087 52.2972 20.7543C52.8854 20.7576 53.4715 20.8266 54.0445 20.96L54.4556 21.0514L54.1929 20.72C53.3643 19.5887 52.2761 18.6732 51.02 18.0507C49.7639 17.4282 48.3768 17.1168 46.9753 17.1428C45.4162 17.1968 43.875 17.4937 42.4072 18.0229C41.8429 18.2352 41.2569 18.3846 40.6599 18.4686H40.5686C40.6816 17.765 40.9903 17.1076 41.4593 16.5714C42.1747 15.6556 43.0537 14.8805 44.0517 14.2857L44.4629 14.0457H43.3208C38.6728 14.0457 32.6772 17.4743 28.2575 19.76C25.4481 21.0743 19.6581 24.4343 17.9222 23.4057Z" fill="black"/>
</svg>
