<svg width="120" height="120" viewBox="0 0 120 120" fill="none" xmlns="http://www.w3.org/2000/svg">
<path d="M20.2274 99.7723V69.9428C20.2274 59.3944 24.4177 49.2781 31.8766 41.8192C39.3354 34.3604 49.4518 30.1701 60.0001 30.1701C70.5485 30.1701 80.6649 34.3604 88.1237 41.8192C95.5825 49.2781 99.7729 59.3944 99.7729 69.9428V99.7723H104.744V109.716H15.2558V99.7723H20.2274ZM30.1706 69.9428H40.1138C40.1138 64.6686 42.2089 59.6104 45.9384 55.881C49.6678 52.1516 54.7259 50.0564 60.0001 50.0564V40.1132C52.0888 40.1132 44.5016 43.256 38.9075 48.8501C33.3133 54.4442 30.1706 62.0315 30.1706 69.9428ZM55.0285 10.2837H64.9717V25.1985H55.0285V10.2837ZM98.6692 24.2439L105.699 31.2738L95.1592 41.8185L88.1244 34.7887L98.6692 24.2439ZM14.3013 31.2738L21.3311 24.2439L31.8758 34.7837L24.851 41.8235L14.3013 31.2738Z" fill="#C9C9C9"/>
</svg>
