<svg width="409" height="729" viewBox="0 0 409 729" fill="none" xmlns="http://www.w3.org/2000/svg">
<g clip-path="url(#clip0)">
<path d="M0.530273 50C0.530273 36.7392 5.79812 24.0215 15.1749 14.6447C24.5518 5.26784 37.2694 0 50.5303 0L358.53 0C365.096 0 371.598 1.29329 377.664 3.80602C383.731 6.31876 389.243 10.0017 393.886 14.6447C398.529 19.2876 402.212 24.7995 404.724 30.8658C407.237 36.9321 408.53 43.4339 408.53 50V678.42C408.53 684.986 407.237 691.488 404.724 697.554C402.212 703.62 398.529 709.132 393.886 713.775C389.243 718.418 383.731 722.101 377.664 724.614C371.598 727.127 365.096 728.42 358.53 728.42H50.5303C37.2694 728.42 24.5518 723.152 15.1749 713.775C5.79812 704.398 0.530273 691.681 0.530273 678.42V50Z" fill="#ABD0F2"/>
<path d="M50.5 728.37H358C364.632 728.37 371.199 727.064 377.326 724.526C383.452 721.988 389.02 718.268 393.709 713.579C398.398 708.89 402.118 703.323 404.656 697.196C407.194 691.069 408.5 684.502 408.5 677.87V185.34C348.382 144.028 277.137 121.944 204.192 122.01C131.248 122.076 60.0433 144.29 0 185.71L0 677.87C0 691.264 5.32052 704.108 14.7911 713.579C24.2617 723.05 37.1066 728.37 50.5 728.37Z" fill="#A0C6E8"/>
<path d="M94 728.37H315.12C350.927 712.25 382.801 688.535 408.53 658.87V305.12C383.139 275.836 351.741 252.362 316.47 236.293C281.199 220.224 242.882 211.938 204.123 211.996C165.364 212.055 127.073 220.458 91.8505 236.634C56.6284 252.809 25.3018 276.379 0 305.74L0 658.25C25.8379 688.206 57.9228 712.14 94 728.37Z" fill="#85B2DA"/>
<path d="M204.53 692C303.29 692 386.11 623.83 408.53 532V432C386.11 340.15 303.29 272 204.53 272C105 272 21.64 341.25 0 434.19V529.79C21.64 622.74 105 692 204.53 692Z" fill="#6495C1"/>
<path d="M204.53 641.99C292.896 641.99 364.53 570.356 364.53 481.99C364.53 393.625 292.896 321.99 204.53 321.99C116.165 321.99 44.5303 393.625 44.5303 481.99C44.5303 570.356 116.165 641.99 204.53 641.99Z" fill="#477AA9"/>
<path d="M204.53 601.99C270.804 601.99 324.53 548.264 324.53 481.99C324.53 415.716 270.804 361.99 204.53 361.99C138.256 361.99 84.5303 415.716 84.5303 481.99C84.5303 548.264 138.256 601.99 204.53 601.99Z" fill="#3A6B98"/>
<path d="M204.53 561.99C248.713 561.99 284.53 526.173 284.53 481.99C284.53 437.807 248.713 401.99 204.53 401.99C160.347 401.99 124.53 437.807 124.53 481.99C124.53 526.173 160.347 561.99 204.53 561.99Z" fill="#2F608C"/>
<path d="M204.53 531.99C232.145 531.99 254.53 509.604 254.53 481.99C254.53 454.376 232.145 431.99 204.53 431.99C176.916 431.99 154.53 454.376 154.53 481.99C154.53 509.604 176.916 531.99 204.53 531.99Z" fill="#27557E"/>
</g>
<defs>
<clipPath id="clip0">
<rect width="408.53" height="728.38" fill="white"/>
</clipPath>
</defs>
</svg>
