<svg width="198" height="160" viewBox="0 0 198 160" fill="none" xmlns="http://www.w3.org/2000/svg">
<circle opacity="0.2" cx="100" cy="80" r="80" fill="#134889"/>
<path opacity="0.4" d="M101.865 140.16L81.2762 128.753C79.7907 127.931 79.9781 126.492 81.6935 125.545L95.0315 118.153L121.007 132.524L107.669 139.916C105.957 140.88 103.365 140.981 101.865 140.16Z" fill="#D6D8E5"/>
<path d="M103.382 139.311L82.7936 127.904C81.308 127.083 81.4955 125.644 83.2109 124.697L96.5595 117.305L122.521 131.688L109.183 139.081C107.46 140.031 104.868 140.133 103.382 139.311Z" fill="#B1B4C4"/>
<path d="M122.514 131.692V130.935L121.315 131.6L122.514 131.692Z" fill="#B1B4C4"/>
<path d="M81.7926 126.543V125.779L83.0235 126.268L81.7926 126.543Z" fill="#B1B4C4"/>
<path d="M103.382 138.555L82.7936 127.151C81.308 126.326 81.4955 124.89 83.2109 123.94L96.5595 116.551L122.521 130.935L109.183 138.324C107.46 139.274 104.868 139.379 103.382 138.555Z" fill="#D6D8E5"/>
<path d="M96.6196 116.585L93.4045 106.355L119.652 120.8L122.514 130.935L96.6196 116.585Z" fill="#9EA1AF"/>
<path d="M121.75 131.356L122.51 130.935L121.382 130.069L121.75 131.356Z" fill="#9EA1AF"/>
<path d="M95.7884 116.969L92.5768 106.739L118.825 121.187L121.75 131.356L95.7884 116.969Z" fill="#B1B4C4"/>
<path d="M162.418 148.597L60.836 92.3113C59.4212 91.5239 58.254 89.4027 58.254 87.5801V12.1689C58.254 10.3463 59.4106 9.50803 60.836 10.2988L162.418 66.5849C163.833 67.3723 165 69.4901 165 71.3127V146.727C165 148.55 163.843 149.388 162.418 148.597Z" fill="#C4C7D6"/>
<path d="M162.941 149.375L164.066 148.754L163.582 145.55L162.941 149.375Z" fill="#C4C7D6"/>
<path d="M58.0595 10.7603L59.1666 10.1494L60.7582 11.0183C60.7582 11.0183 59.064 11.266 59.0216 11.2593C58.9791 11.2525 58.0595 10.7603 58.0595 10.7603Z" fill="#B1B4C4"/>
<path d="M161.487 149.113L59.8877 92.8134C58.4729 92.026 57.3092 89.9081 57.3092 88.0822V12.6845C57.3092 10.862 58.4658 10.0237 59.8877 10.8145L161.487 67.1005C162.902 67.8879 164.066 70.0057 164.066 71.8317V147.243C164.066 149.065 162.913 149.904 161.487 149.113Z" fill="#E4E7F2"/>
<path d="M161.307 149.212L59.7113 92.9256C58.2965 92.1348 57.1293 90.0169 57.1293 88.1944V12.7832C57.1293 10.9606 58.2859 10.1223 59.7113 10.9131L161.307 67.1991C162.722 67.9865 163.889 70.1044 163.889 71.9269V147.342C163.889 149.154 162.733 150.002 161.307 149.212Z" fill="#D6D8E5"/>
<path d="M162.492 144.626L58.4203 86.969L58.4733 13.0852C58.4733 12.3283 59.0287 12.0228 59.7113 12.4064L161.307 68.6856C161.667 68.9112 161.967 69.215 162.182 69.5723C162.397 69.9296 162.522 70.3304 162.545 70.7424L162.492 144.626Z" fill="white"/>
<path d="M73.1094 36.8299L63.6656 31.5896C63.502 31.4765 63.3683 31.3283 63.2749 31.1569C63.1816 30.9854 63.1313 30.7954 63.128 30.6019V20.3046C63.128 19.9244 63.3685 19.7513 63.6656 19.9142L73.1094 25.158C73.2733 25.27 73.4073 25.4174 73.5008 25.5884C73.5942 25.7594 73.6443 25.9492 73.647 26.1422V36.4396C73.647 36.813 73.4065 36.9962 73.1094 36.8299Z" fill="#E9EAF2"/>
<path d="M86.2244 44.096L76.7524 38.8489C76.5888 38.7358 76.4551 38.5876 76.3617 38.4162C76.2684 38.2447 76.2181 38.0547 76.2148 37.8613V27.5707C76.2148 27.1905 76.4553 27.0174 76.7524 27.1804L86.2138 32.4241C86.3811 32.536 86.5182 32.6846 86.6135 32.8576C86.7089 33.0305 86.7598 33.2229 86.762 33.4185V43.7057C86.762 44.0858 86.5215 44.2793 86.2244 44.096Z" fill="#E9EAF2"/>
<path d="M99.0354 51.1863L89.5563 45.9426C89.3924 45.8306 89.2583 45.6832 89.1649 45.5121C89.0715 45.3411 89.0214 45.1514 89.0187 44.9584V34.661C89.0187 34.2809 89.2592 34.1044 89.5563 34.2707L99.0354 39.528C99.1993 39.64 99.3334 39.7874 99.4268 39.9584C99.5202 40.1294 99.5703 40.3192 99.573 40.5122V50.796C99.5553 51.1762 99.3148 51.3493 99.0354 51.1863Z" fill="#E9EAF2"/>
<path d="M73.1094 51.3626L63.6656 46.1223C63.502 46.0092 63.3683 45.861 63.2749 45.6896C63.1816 45.5181 63.1313 45.3281 63.128 45.1346V34.8373C63.128 34.4571 63.3685 34.2841 63.6656 34.447L73.1094 39.6873C73.2729 39.8004 73.4067 39.9486 73.5 40.12C73.5934 40.2915 73.6437 40.4815 73.647 40.6749V50.9723C73.647 51.3524 73.4065 51.5289 73.1094 51.3626Z" fill="#E9EAF2"/>
<path d="M86.2244 58.6292L76.7524 53.3889C76.5888 53.2758 76.4551 53.1276 76.3617 52.9562C76.2684 52.7847 76.2181 52.5947 76.2148 52.4013V42.1039C76.2148 41.7237 76.4553 41.5507 76.7524 41.7136L86.2138 46.9539C86.3774 47.067 86.5112 47.2152 86.6045 47.3866C86.6978 47.5581 86.7482 47.7481 86.7514 47.9415V58.2389C86.7621 58.6191 86.5215 58.7955 86.2244 58.6292Z" fill="#E9EAF2"/>
<path d="M87.5155 57.9471L78.054 52.7034C77.8901 52.5914 77.756 52.4439 77.6626 52.2729C77.5692 52.1019 77.5191 51.9122 77.5164 51.7191V41.4217C77.5164 41.0416 77.7569 40.8651 78.054 41.0314L87.5155 46.2717C87.679 46.3848 87.8128 46.533 87.9061 46.7045C87.9995 46.8759 88.0498 47.066 88.0531 47.2594V57.5568C88.0708 57.9369 87.8126 58.11 87.5155 57.9471Z" fill="#169CD6"/>
<path d="M99.0354 65.7162L89.5563 60.4759C89.3924 60.3639 89.2583 60.2164 89.1649 60.0454C89.0715 59.8744 89.0214 59.6847 89.0187 59.4916V49.1908C89.0187 48.8141 89.2592 48.6376 89.5563 48.8039L99.0354 54.0443C99.1993 54.1562 99.3334 54.3037 99.4268 54.4747C99.5202 54.6457 99.5703 54.8355 99.573 55.0285V65.3225C99.5553 65.706 99.3148 65.8825 99.0354 65.7162Z" fill="#E9EAF2"/>
<path d="M73.1094 66.2016L63.6656 60.9612C63.5017 60.8492 63.3676 60.7018 63.2742 60.5308C63.1808 60.3597 63.1307 60.17 63.128 59.977V49.6762C63.128 49.2995 63.3685 49.123 63.6656 49.2893L73.1094 54.5296C73.2733 54.6416 73.4073 54.7891 73.5008 54.9601C73.5942 55.1311 73.6443 55.3208 73.647 55.5139V65.8146C73.647 66.1914 73.4065 66.3679 73.1094 66.2016Z" fill="#E9EAF2"/>
<path d="M99.0354 88.8631L63.6656 69.2695C63.502 69.1565 63.3683 69.0083 63.2749 68.8368C63.1816 68.6653 63.1313 68.4753 63.128 68.2819V65.9061C63.128 65.526 63.3685 65.3495 63.6656 65.5158L99.0354 85.1127C99.1993 85.2247 99.3334 85.3722 99.4268 85.5432C99.5202 85.7142 99.5703 85.9039 99.573 86.097V88.4728C99.5553 88.8529 99.3148 89.0294 99.0354 88.8631Z" fill="#E9EAF2"/>
<path d="M89.9347 89.4195L63.8071 74.9577C63.6432 74.8457 63.5091 74.6982 63.4157 74.5272C63.3223 74.3562 63.2722 74.1665 63.2695 73.9734V72.7889C63.2695 72.4088 63.51 72.2323 63.8071 72.3986L89.9347 86.8706C90.0983 86.9837 90.2321 87.1319 90.3254 87.3033C90.4188 87.4748 90.4691 87.6648 90.4724 87.8582V89.036C90.4724 89.4195 90.2318 89.596 89.9347 89.4195Z" fill="#E9EAF2"/>
<path d="M89.9347 93.8999L63.8071 79.4245C63.6432 79.3126 63.5091 79.1651 63.4157 78.9941C63.3223 78.8231 63.2722 78.6333 63.2695 78.4403V77.2626C63.2695 76.8824 63.51 76.7093 63.8071 76.8723L89.9347 91.3443C90.0983 91.4573 90.2321 91.6055 90.3254 91.777C90.4188 91.9485 90.4691 92.1385 90.4724 92.3319V93.5096C90.4724 93.8898 90.2318 94.0628 89.9347 93.8999Z" fill="#E9EAF2"/>
<path d="M85.0042 95.6375L63.8071 83.8908C63.6432 83.7789 63.5091 83.6314 63.4157 83.4604C63.3223 83.2894 63.2722 83.0996 63.2695 82.9066V81.7289C63.2695 81.3487 63.51 81.1757 63.8071 81.3386L85.0042 93.0818C85.1678 93.1949 85.3016 93.3431 85.3949 93.5145C85.4882 93.686 85.5385 93.876 85.5418 94.0694V95.2472C85.5418 95.6273 85.3013 95.8004 85.0042 95.6375Z" fill="#169CD6"/>
<path d="M157.258 121.323L106.194 93.0445C106.03 92.9325 105.896 92.785 105.803 92.614C105.709 92.443 105.659 92.2533 105.657 92.0602V89.6844C105.657 89.3043 105.897 89.1312 106.194 89.2941L157.258 117.59C157.421 117.702 157.556 117.849 157.649 118.02C157.742 118.191 157.792 118.381 157.795 118.574V120.95C157.795 121.323 157.555 121.5 157.258 121.323Z" fill="#E9EAF2"/>
<path d="M152.224 124.147L106.357 98.7326C106.193 98.6207 106.059 98.4732 105.966 98.3022C105.872 98.1312 105.822 97.9414 105.819 97.7484V96.5707C105.819 96.1905 106.06 96.0174 106.357 96.1804L152.224 121.591C152.388 121.704 152.522 121.852 152.615 122.024C152.708 122.195 152.759 122.385 152.762 122.579V123.757C152.762 124.137 152.522 124.31 152.224 124.147Z" fill="#E9EAF2"/>
<path d="M152.224 128.614L106.357 103.203C106.193 103.09 106.06 102.942 105.966 102.77C105.873 102.599 105.823 102.409 105.819 102.215V101.037C105.819 100.657 106.06 100.484 106.357 100.647L152.224 126.075C152.388 126.187 152.522 126.334 152.616 126.505C152.709 126.676 152.759 126.866 152.762 127.059V128.237C152.762 128.603 152.522 128.79 152.224 128.614Z" fill="#E9EAF2"/>
<path d="M143.722 128.369L106.357 107.666C106.193 107.553 106.06 107.404 105.966 107.233C105.873 107.062 105.823 106.871 105.819 106.678V105.5C105.819 105.12 106.06 104.947 106.357 105.11L143.722 125.813C143.885 125.926 144.019 126.074 144.112 126.244C144.205 126.415 144.256 126.605 144.259 126.798V127.975C144.259 128.359 144.015 128.532 143.722 128.369Z" fill="#169CD6"/>
<path d="M86.2244 73.4677L76.7524 68.2274C76.5885 68.1154 76.4544 67.9679 76.361 67.7969C76.2676 67.6259 76.2175 67.4362 76.2148 67.2431V56.9423C76.2148 56.5656 76.4553 56.3891 76.7524 56.5554L86.2138 61.7957C86.3777 61.9077 86.5118 62.0552 86.6052 62.2262C86.6986 62.3972 86.7487 62.5869 86.7514 62.78V73.0808C86.7621 73.4677 86.5215 73.634 86.2244 73.4677Z" fill="#E9EAF2"/>
<path d="M99.0354 80.5579L89.5563 75.3142C89.3924 75.2022 89.2583 75.0547 89.1649 74.8837C89.0715 74.7127 89.0214 74.523 89.0187 74.3299V64.0326C89.0187 63.6524 89.2592 63.4759 89.5563 63.6423L99.0354 68.8826C99.199 68.9957 99.3327 69.1439 99.4261 69.3153C99.5194 69.4868 99.5697 69.6768 99.573 69.8702V80.1676C99.5553 80.5477 99.3148 80.7208 99.0354 80.5579Z" fill="#E9EAF2"/>
<path d="M157.258 112.838L106.194 84.5322C106.03 84.4203 105.896 84.2728 105.803 84.1018C105.709 83.9308 105.659 83.741 105.657 83.548V67.4129C105.657 67.0328 105.897 66.8563 106.194 67.0226L157.258 95.3116C157.421 95.4247 157.555 95.5728 157.648 95.7443C157.742 95.9158 157.792 96.1058 157.795 96.2992V112.434C157.795 112.814 157.555 112.988 157.258 112.838Z" fill="#E9EAF2"/>
<path d="M113.183 64.932C108.847 62.5291 105.317 56.6677 105.317 51.8618C105.317 47.0559 108.854 45.1043 113.183 47.5039C117.513 49.9034 121.046 55.7716 121.046 60.5741C121.046 65.3766 117.516 67.335 113.183 64.932ZM113.183 50.0222C110.099 48.3252 107.591 49.7066 107.591 53.1209C107.591 56.5353 110.099 60.7065 113.183 62.4137C116.268 64.1209 118.775 62.7327 118.775 59.315C118.775 55.8972 116.26 51.7464 113.183 50.0222Z" fill="#E9EAF2"/>
<path d="M113.183 64.932C108.847 62.5291 105.317 56.6677 105.317 51.8618C105.317 47.0559 108.854 45.1043 113.183 47.5039V50.0222C110.099 48.3252 107.591 49.7066 107.591 53.1209C107.591 56.5353 110.099 60.7065 113.183 62.4137C116.268 64.1209 118.775 62.7327 118.775 59.315L121.046 60.5742C121.042 65.3801 117.516 67.335 113.183 64.932Z" fill="#169CD6"/>
<path d="M131.526 75.1004C127.19 72.6975 123.663 66.8326 123.663 62.0301C123.663 57.2276 127.2 55.2693 131.526 57.6722C135.852 60.0752 139.389 65.9366 139.389 70.7425C139.389 75.5484 135.862 77.5034 131.526 75.1004ZM131.526 60.1906C128.442 58.4936 125.934 59.8715 125.934 63.2893C125.934 66.7071 128.442 70.8715 131.526 72.5821C134.61 74.2926 137.118 72.9011 137.118 69.4833C137.118 66.0656 134.61 61.8978 131.526 60.1906Z" fill="#E9EAF2"/>
<path d="M131.526 75.1004C127.19 72.6975 123.663 66.8326 123.663 62.0301C123.663 57.2276 127.2 55.2693 131.526 57.6722V60.1906C128.442 58.4936 125.934 59.8715 125.934 63.2893C125.934 66.707 128.442 70.8715 131.526 72.5821C132.672 73.2167 133.772 73.4441 134.709 73.2609L136.007 76.0473C134.688 76.3155 133.139 75.993 131.526 75.1004Z" fill="#169CD6"/>
<path d="M149.872 85.262C145.536 82.8591 142.01 76.9943 142.01 72.1917C142.01 67.3892 145.547 65.4309 149.872 67.8339C154.198 70.2368 157.749 76.0982 157.749 80.9041C157.749 85.71 154.212 87.665 149.872 85.262ZM149.872 70.3522C146.792 68.6552 144.28 70.0332 144.28 73.4509C144.28 76.8687 146.792 81.0331 149.872 82.7437C152.953 84.4543 155.464 83.0627 155.464 79.645C155.464 76.2272 152.957 72.0594 149.872 70.3522Z" fill="#E9EAF2"/>
<path d="M143.028 77.0521C142.388 75.5036 142.043 73.8574 142.01 72.1919C142.01 67.386 145.547 65.431 149.872 67.834V70.3523C146.792 68.6553 144.28 70.0333 144.28 73.451C144.307 74.6347 144.556 75.804 145.016 76.9027L143.028 77.0521Z" fill="#169CD6"/>
<path d="M27.783 46.9948L8.20932 36.134L8.13505 36.0933C7.58328 35.8116 6.83697 35.8625 6.01286 36.3173C4.32572 37.254 2.95691 39.528 2.95691 41.4083C2.95691 42.3756 3.32829 43.0442 3.91897 43.3327L23.7579 54.3191L27.783 46.9948Z" fill="#134889"/>
<path d="M27.9506 51.8581C29.1441 49.8744 29.1449 47.7306 27.9522 47.0699C26.7595 46.4091 24.8252 47.4816 23.6316 49.4653C22.4381 51.449 22.4374 53.5928 23.63 54.2535C24.8227 54.9143 26.7571 53.8418 27.9506 51.8581Z" fill="#9E9E9E"/>
<path d="M34.535 58.7856L24.3379 53.138V49.1738L34.535 54.8248V58.7856Z" fill="#D6D8E5"/>
<path d="M34.535 54.8313L24.3379 49.1837L26.6864 47.8804L36.8836 53.5314L34.535 54.8313Z" fill="#C4C7D6"/>
<path d="M59.4902 80.7466C65.6277 77.3464 65.6276 66.3204 59.4899 56.1195C53.3523 45.9185 43.4013 40.4054 37.2638 43.8057C31.1263 47.206 31.1264 58.2319 37.264 68.4329C43.4016 78.6338 53.3526 84.1469 59.4902 80.7466Z" fill="url(#paint0_linear)"/>
<path d="M50.5222 82.2344C39.9997 76.4035 31.4225 62.1725 31.4225 50.5107C31.4225 38.8489 39.9855 34.1075 50.5222 39.9384C61.0588 45.7693 69.6219 60.0003 69.6219 71.6587C69.6219 83.3171 61.0482 88.0619 50.5222 82.2344ZM50.5222 46.6178C43.3209 42.6264 37.4636 45.8711 37.4636 53.8504C37.4636 61.8297 43.3209 71.567 50.5222 75.572C57.7235 79.5769 63.5807 76.3152 63.5807 68.3394C63.5807 60.3635 57.7235 50.6057 50.5222 46.6178Z" fill="#9E9E9E"/>
<path d="M48.3787 83.4224C37.8527 77.5915 29.2791 63.3604 29.2791 51.6987C29.2791 40.0369 37.8385 35.2955 48.3787 41.1264C58.9189 46.9573 67.4784 61.1883 67.4784 72.8467C67.4784 84.505 58.9012 89.2532 48.3787 83.4224ZM48.3787 47.8058C41.1774 43.8144 35.3202 47.0591 35.3202 55.0384C35.3202 63.0177 41.1774 72.755 48.3787 76.7599C55.58 80.7649 61.4373 77.5032 61.4373 69.5273C61.4373 61.5515 55.58 51.7937 48.3787 47.8058Z" fill="#134889"/>
<defs>
<linearGradient id="paint0_linear" x1="65.9529" y1="72.0113" x2="31.5425" y2="51.3065" gradientUnits="userSpaceOnUse">
<stop stop-color="white" stop-opacity="0.4"/>
<stop offset="0.89" stop-color="white" stop-opacity="0"/>
</linearGradient>
</defs>
</svg>
