<svg width="198" height="144" viewBox="0 0 198 144" fill="none" xmlns="http://www.w3.org/2000/svg">
<path opacity="0.4" d="M101.865 130.16L81.2761 118.753C79.7905 117.931 79.978 116.492 81.6934 115.545L95.0314 108.153L121.007 122.523L107.669 129.915C105.957 130.879 103.364 130.981 101.865 130.16Z" fill="#D6D8E5"/>
<path d="M103.382 129.311L82.7934 117.904C81.3079 117.083 81.4953 115.644 83.2108 114.697L96.5593 107.305L122.521 121.688L109.183 129.08C107.46 130.031 104.868 130.133 103.382 129.311Z" fill="#B1B4C4"/>
<path d="M122.514 121.692V120.935L121.315 121.6L122.514 121.692Z" fill="#B1B4C4"/>
<path d="M81.7925 116.543V115.779L83.0233 116.268L81.7925 116.543Z" fill="#B1B4C4"/>
<path d="M103.382 128.554L82.7934 117.151C81.3079 116.326 81.4953 114.89 83.2108 113.94L96.5593 106.551L122.521 120.935L109.183 128.324C107.46 129.274 104.868 129.379 103.382 128.554Z" fill="#D6D8E5"/>
<path d="M96.6194 106.585L93.4043 96.3556L119.652 110.8L122.514 120.935L96.6194 106.585Z" fill="#9EA1AF"/>
<path d="M121.75 121.356L122.51 120.935L121.382 120.069L121.75 121.356Z" fill="#9EA1AF"/>
<path d="M95.7882 106.969L92.5767 96.739L118.825 111.187L121.75 121.356L95.7882 106.969Z" fill="#B1B4C4"/>
<path d="M162.418 138.597L60.8359 82.3112C59.4211 81.5238 58.2539 79.4026 58.2539 77.58V2.1688C58.2539 0.346227 59.4105 -0.492089 60.8359 0.298712L162.418 56.5847C163.833 57.3721 165 59.49 165 61.3126V136.727C165 138.55 163.843 139.388 162.418 138.597Z" fill="#C4C7D6"/>
<path d="M162.941 139.374L164.066 138.753L163.582 135.549L162.941 139.374Z" fill="#C4C7D6"/>
<path d="M58.0593 0.760333L59.1664 0.149414L60.758 1.01828C60.758 1.01828 59.0638 1.26604 59.0214 1.25925C58.9789 1.25246 58.0593 0.760333 58.0593 0.760333Z" fill="#B1B4C4"/>
<path d="M161.487 139.113L59.8875 82.8135C58.4728 82.0261 57.3091 79.9082 57.3091 78.0823V2.68467C57.3091 0.862096 58.4657 0.0237798 59.8875 0.814581L161.487 57.1006C162.902 57.888 164.066 60.0059 164.066 61.8318V137.243C164.066 139.066 162.913 139.904 161.487 139.113Z" fill="#E4E7F2"/>
<path d="M161.307 139.211L59.7111 82.9255C58.2964 82.1347 57.1292 80.0168 57.1292 78.1942V2.78306C57.1292 0.960485 58.2857 0.122169 59.7111 0.912969L161.307 57.199C162.722 57.9864 163.889 60.1042 163.889 61.9268V137.341C163.889 139.154 162.733 140.002 161.307 139.211Z" fill="#D6D8E5"/>
<path d="M162.492 134.626L58.4202 76.969L58.4732 3.08517C58.4732 2.32831 59.0285 2.02285 59.7112 2.40637L161.307 58.6856C161.667 58.9112 161.967 59.215 162.182 59.5723C162.397 59.9296 162.521 60.3304 162.545 60.7424L162.492 134.626Z" fill="white"/>
<path d="M73.1093 26.8296L63.6656 21.5892C63.502 21.4761 63.3682 21.328 63.2749 21.1565C63.1815 20.985 63.1312 20.795 63.1279 20.6016V10.3042C63.1279 9.92406 63.3684 9.75097 63.6656 9.91388L73.1093 15.1576C73.2732 15.2696 73.4073 15.4171 73.5007 15.5881C73.5941 15.7591 73.6442 15.9488 73.6469 16.1419V26.4392C73.6469 26.8126 73.4064 26.9959 73.1093 26.8296Z" fill="#E9EAF2"/>
<path d="M86.2242 34.0962L76.7522 28.849C76.5887 28.736 76.4549 28.5878 76.3615 28.4163C76.2682 28.2448 76.2179 28.0548 76.2146 27.8614V17.5708C76.2146 17.1907 76.4551 17.0176 76.7522 17.1805L86.2136 22.4242C86.3809 22.5361 86.518 22.6847 86.6133 22.8577C86.7087 23.0306 86.7596 23.223 86.7619 23.4186V33.7058C86.7619 34.086 86.5213 34.2794 86.2242 34.0962Z" fill="#E9EAF2"/>
<path d="M99.0353 41.1862L89.5562 35.9425C89.3923 35.8305 89.2582 35.683 89.1648 35.512C89.0714 35.341 89.0213 35.1513 89.0186 34.9582V24.6609C89.0186 24.2807 89.2591 24.1042 89.5562 24.2705L99.0353 29.5278C99.1992 29.6398 99.3333 29.7873 99.4267 29.9583C99.5201 30.1293 99.5702 30.319 99.5729 30.5121V40.7959C99.5552 41.176 99.3147 41.3491 99.0353 41.1862Z" fill="#E9EAF2"/>
<path d="M73.1093 41.3626L63.6656 36.1223C63.502 36.0092 63.3682 35.861 63.2749 35.6896C63.1815 35.5181 63.1312 35.3281 63.1279 35.1346V24.8373C63.1279 24.4571 63.3684 24.2841 63.6656 24.447L73.1093 29.6873C73.2729 29.8004 73.4066 29.9486 73.5 30.12C73.5933 30.2915 73.6436 30.4815 73.6469 30.6749V40.9723C73.6469 41.3524 73.4064 41.5289 73.1093 41.3626Z" fill="#E9EAF2"/>
<path d="M86.2242 48.6292L76.7522 43.3889C76.5887 43.2758 76.4549 43.1276 76.3615 42.9562C76.2682 42.7847 76.2179 42.5947 76.2146 42.4013V32.1039C76.2146 31.7237 76.4551 31.5507 76.7522 31.7136L86.2136 36.9539C86.3772 37.067 86.511 37.2152 86.6043 37.3866C86.6977 37.5581 86.748 37.7481 86.7513 37.9415V48.2389C86.7619 48.6191 86.5214 48.7955 86.2242 48.6292Z" fill="#E9EAF2"/>
<path d="M87.5154 47.947L78.054 42.7032C77.8901 42.5913 77.756 42.4438 77.6626 42.2728C77.5692 42.1018 77.5191 41.912 77.5164 41.719V31.4216C77.5164 31.0415 77.7569 30.865 78.054 31.0313L87.5154 36.2716C87.679 36.3847 87.8127 36.5329 87.9061 36.7044C87.9994 36.8758 88.0497 37.0658 88.053 37.2593V47.5567C88.0707 47.9368 87.8125 48.1099 87.5154 47.947Z" fill="#1008CE"/>
<path d="M99.0353 55.7158L89.5562 50.4755C89.3923 50.3635 89.2582 50.2161 89.1648 50.045C89.0714 49.874 89.0213 49.6843 89.0186 49.4913V39.1905C89.0186 38.8137 89.2591 38.6373 89.5562 38.8036L99.0353 44.0439C99.1992 44.1559 99.3333 44.3034 99.4267 44.4744C99.5201 44.6454 99.5702 44.8351 99.5729 45.0282V55.3221C99.5552 55.7057 99.3147 55.8822 99.0353 55.7158Z" fill="#E9EAF2"/>
<path d="M73.1093 56.2012L63.6656 50.9609C63.5016 50.8489 63.3676 50.7014 63.2741 50.5304C63.1807 50.3594 63.1306 50.1697 63.1279 49.9766V39.6758C63.1279 39.2991 63.3684 39.1226 63.6656 39.2889L73.1093 44.5292C73.2732 44.6412 73.4073 44.7887 73.5007 44.9597C73.5941 45.1307 73.6442 45.3204 73.6469 45.5135V55.8143C73.6469 56.191 73.4064 56.3675 73.1093 56.2012Z" fill="#E9EAF2"/>
<path d="M99.0353 78.8628L63.6656 59.2693C63.502 59.1562 63.3682 59.008 63.2749 58.8366C63.1815 58.6651 63.1312 58.4751 63.1279 58.2816V55.9059C63.1279 55.5257 63.3684 55.3492 63.6656 55.5155L99.0353 75.1125C99.1992 75.2245 99.3333 75.3719 99.4267 75.5429C99.5201 75.7139 99.5702 75.9037 99.573 76.0967V78.4725C99.5553 78.8526 99.3148 79.0291 99.0353 78.8628Z" fill="#E9EAF2"/>
<path d="M89.9346 79.4195L63.8069 64.9577C63.643 64.8457 63.5089 64.6982 63.4155 64.5272C63.3221 64.3562 63.272 64.1665 63.2693 63.9734V62.7889C63.2693 62.4088 63.5098 62.2323 63.8069 62.3986L89.9346 76.8706C90.0981 76.9837 90.2319 77.1319 90.3252 77.3033C90.4186 77.4748 90.4689 77.6648 90.4722 77.8582V79.036C90.4722 79.4195 90.2317 79.596 89.9346 79.4195Z" fill="#E9EAF2"/>
<path d="M89.9346 83.8996L63.8069 69.4242C63.643 69.3122 63.5089 69.1647 63.4155 68.9937C63.3221 68.8227 63.272 68.633 63.2693 68.4399V67.2622C63.2693 66.8821 63.5098 66.709 63.8069 66.8719L89.9346 81.3439C90.0981 81.457 90.2319 81.6052 90.3252 81.7766C90.4186 81.9481 90.4689 82.1381 90.4722 82.3315V83.5093C90.4722 83.8894 90.2317 84.0625 89.9346 83.8996Z" fill="#E9EAF2"/>
<path d="M85.004 85.6373L63.8069 73.8907C63.643 73.7787 63.5089 73.6313 63.4155 73.4603C63.3221 73.2892 63.272 73.0995 63.2693 72.9065V71.7287C63.2693 71.3486 63.5098 71.1755 63.8069 71.3384L85.004 83.0817C85.1676 83.1947 85.3014 83.3429 85.3947 83.5144C85.4881 83.6859 85.5384 83.8759 85.5416 84.0693V85.247C85.5416 85.6272 85.3011 85.8003 85.004 85.6373Z" fill="#1008CE"/>
<path d="M157.257 111.323L106.194 83.0442C106.03 82.9323 105.896 82.7848 105.803 82.6138C105.709 82.4428 105.659 82.253 105.656 82.06V79.6842C105.656 79.3041 105.897 79.131 106.194 79.2939L157.257 107.59C157.421 107.702 157.555 107.849 157.649 108.02C157.742 108.191 157.792 108.381 157.795 108.574V110.95C157.795 111.323 157.555 111.5 157.257 111.323Z" fill="#E9EAF2"/>
<path d="M152.224 114.147L106.357 88.7326C106.193 88.6207 106.059 88.4732 105.965 88.3022C105.872 88.1312 105.822 87.9414 105.819 87.7484V86.5707C105.819 86.1905 106.06 86.0174 106.357 86.1804L152.224 111.591C152.388 111.704 152.522 111.852 152.615 112.024C152.708 112.195 152.759 112.385 152.762 112.579V113.757C152.762 114.137 152.521 114.31 152.224 114.147Z" fill="#E9EAF2"/>
<path d="M152.224 118.613L106.357 93.2026C106.193 93.0895 106.059 92.9413 105.966 92.7699C105.873 92.5984 105.822 92.4084 105.819 92.2149V91.0372C105.819 90.6571 106.06 90.484 106.357 90.6469L152.224 116.075C152.388 116.187 152.522 116.334 152.616 116.505C152.709 116.676 152.759 116.866 152.762 117.059V118.237C152.762 118.603 152.521 118.79 152.224 118.613Z" fill="#E9EAF2"/>
<path d="M143.721 118.369L106.357 97.6656C106.193 97.5525 106.059 97.4043 105.966 97.2329C105.873 97.0614 105.822 96.8714 105.819 96.6779V95.5002C105.819 95.1201 106.06 94.947 106.357 95.1099L143.721 115.813C143.885 115.926 144.018 116.073 144.112 116.244C144.205 116.415 144.255 116.605 144.259 116.798V117.975C144.259 118.359 144.015 118.532 143.721 118.369Z" fill="#1008CE"/>
<path d="M86.2242 63.4678L76.7522 58.2275C76.5883 58.1155 76.4542 57.968 76.3608 57.797C76.2674 57.626 76.2173 57.4363 76.2146 57.2432V46.9424C76.2146 46.5657 76.4551 46.3892 76.7522 46.5555L86.2136 51.7958C86.3775 51.9078 86.5116 52.0553 86.605 52.2263C86.6984 52.3973 86.7485 52.5871 86.7513 52.7801V63.0809C86.7619 63.4678 86.5214 63.6341 86.2242 63.4678Z" fill="#E9EAF2"/>
<path d="M99.0353 70.5578L89.5562 65.3141C89.3923 65.2021 89.2582 65.0546 89.1648 64.8836C89.0714 64.7126 89.0213 64.5229 89.0186 64.3298V54.0324C89.0186 53.6523 89.2591 53.4758 89.5562 53.6421L99.0353 58.8825C99.1988 58.9955 99.3326 59.1437 99.426 59.3152C99.5193 59.4867 99.5696 59.6767 99.5729 59.8701V70.1675C99.5552 70.5476 99.3147 70.7207 99.0353 70.5578Z" fill="#E9EAF2"/>
<path d="M157.257 102.838L106.194 74.5321C106.03 74.4201 105.896 74.2727 105.803 74.1017C105.709 73.9306 105.659 73.7409 105.656 73.5479V57.4128C105.656 57.0327 105.897 56.8562 106.194 57.0225L157.257 85.3115C157.421 85.4245 157.555 85.5727 157.648 85.7442C157.742 85.9157 157.792 86.1057 157.795 86.2991V102.434C157.795 102.814 157.555 102.987 157.257 102.838Z" fill="#E9EAF2"/>
<path d="M113.183 54.9318C108.847 52.5288 105.317 46.6674 105.317 41.8615C105.317 37.0556 108.854 35.1041 113.183 37.5036C117.512 39.9032 121.046 45.7714 121.046 50.5739C121.046 55.3764 117.516 57.3347 113.183 54.9318ZM113.183 40.022C110.099 38.325 107.591 39.7063 107.591 43.1207C107.591 46.5351 110.099 50.7063 113.183 52.4134C116.267 54.1206 118.775 52.7325 118.775 49.3147C118.775 45.897 116.26 41.7461 113.183 40.022Z" fill="#E9EAF2"/>
<path d="M113.183 54.9318C108.847 52.5289 105.317 46.6674 105.317 41.8615C105.317 37.0556 108.854 35.1041 113.183 37.5036V40.022C110.099 38.325 107.591 39.7063 107.591 43.1207C107.591 46.5351 110.099 50.7063 113.183 52.4135C116.267 54.1206 118.775 52.7325 118.775 49.3147L121.046 50.5739C121.042 55.3798 117.516 57.3348 113.183 54.9318Z" fill="#1008CE"/>
<path d="M131.526 65.1003C127.19 62.6973 123.663 56.8325 123.663 52.03C123.663 47.2275 127.2 45.2692 131.526 47.6721C135.852 50.0751 139.389 55.9365 139.389 60.7424C139.389 65.5483 135.862 67.5032 131.526 65.1003ZM131.526 50.1905C128.442 48.4935 125.934 49.8714 125.934 53.2892C125.934 56.7069 128.442 60.8714 131.526 62.5819C134.61 64.2925 137.118 62.901 137.118 59.4832C137.118 56.0655 134.61 51.8976 131.526 50.1905Z" fill="#E9EAF2"/>
<path d="M131.526 65.1003C127.19 62.6973 123.663 56.8325 123.663 52.03C123.663 47.2275 127.2 45.2692 131.526 47.6721V50.1905C128.442 48.4935 125.934 49.8714 125.934 53.2892C125.934 56.7069 128.442 60.8714 131.526 62.5819C132.672 63.2166 133.772 63.444 134.709 63.2607L136.007 66.0472C134.688 66.3153 133.139 65.9929 131.526 65.1003Z" fill="#1008CE"/>
<path d="M149.872 75.2619C145.536 72.859 142.01 66.9941 142.01 62.1916C142.01 57.3891 145.547 55.4308 149.872 57.8337C154.198 60.2367 157.749 66.0981 157.749 70.904C157.749 75.7099 154.212 77.6648 149.872 75.2619ZM149.872 60.3521C146.792 58.6551 144.28 60.033 144.28 63.4508C144.28 66.8685 146.792 71.033 149.872 72.7436C152.953 74.4541 155.464 73.0626 155.464 69.6448C155.464 66.2271 152.956 62.0593 149.872 60.3521Z" fill="#E9EAF2"/>
<path d="M143.028 67.0518C142.388 65.5033 142.043 63.8571 142.01 62.1916C142.01 57.3857 145.546 55.4308 149.872 57.8337V60.3521C146.792 58.6551 144.28 60.033 144.28 63.4508C144.307 64.6344 144.556 65.8037 145.016 66.9025L143.028 67.0518Z" fill="#1008CE"/>
<path d="M27.7828 36.9946L8.2092 26.1338L8.13492 26.0931C7.58315 25.8114 6.83685 25.8623 6.01274 26.3171C4.3256 27.2538 2.95679 29.5278 2.95679 31.4081C2.95679 32.3753 3.32817 33.044 3.91885 33.3324L23.7578 44.3188L27.7828 36.9946Z" fill="#106BFF"/>
<path d="M27.9505 41.858C29.1441 39.8743 29.1448 37.7305 27.9521 37.0698C26.7595 36.409 24.8251 37.4815 23.6316 39.4652C22.438 41.4489 22.4373 43.5926 23.63 44.2534C24.8226 44.9141 26.757 43.8417 27.9505 41.858Z" fill="#19CEFF"/>
<path d="M34.535 48.7853L24.3379 43.1377V39.1735L34.535 44.8245V48.7853Z" fill="#D6D8E5"/>
<path d="M34.535 44.8314L24.3379 39.1838L26.6864 37.8805L36.8836 43.5315L34.535 44.8314Z" fill="#C4C7D6"/>
<path d="M59.49 70.7466C65.6275 67.3464 65.6274 56.3204 59.4898 46.1195C53.3521 35.9185 43.4011 30.4054 37.2636 33.8057C31.1261 37.206 31.1262 48.2319 37.2638 58.4329C43.4015 68.6338 53.3524 74.1469 59.49 70.7466Z" fill="url(#paint0_linear)"/>
<path d="M50.522 72.2344C39.9995 66.4035 31.4224 52.1725 31.4224 40.5107C31.4224 28.8489 39.9854 24.1075 50.522 29.9384C61.0587 35.7693 69.6217 50.0003 69.6217 61.6587C69.6217 73.3171 61.0481 78.0619 50.522 72.2344ZM50.522 36.6178C43.3208 32.6264 37.4635 35.8711 37.4635 43.8504C37.4635 51.8297 43.3208 61.567 50.522 65.572C57.7233 69.5769 63.5806 66.3152 63.5806 58.3394C63.5806 50.3635 57.7233 40.6057 50.522 36.6178Z" fill="#19CEFF"/>
<path d="M48.3787 73.4224C37.8527 67.5915 29.2791 53.3604 29.2791 41.6987C29.2791 30.0369 37.8385 25.2955 48.3787 31.1264C58.9189 36.9573 67.4784 51.1883 67.4784 62.8467C67.4784 74.505 58.9012 79.2532 48.3787 73.4224ZM48.3787 37.8058C41.1774 33.8144 35.3202 37.0591 35.3202 45.0384C35.3202 53.0177 41.1774 62.755 48.3787 66.7599C55.58 70.7649 61.4373 67.5032 61.4373 59.5273C61.4373 51.5515 55.58 41.7937 48.3787 37.8058Z" fill="#106BFF"/>
<defs>
<linearGradient id="paint0_linear" x1="65.9527" y1="62.0113" x2="31.5424" y2="41.3065" gradientUnits="userSpaceOnUse">
<stop stop-color="white" stop-opacity="0.4"/>
<stop offset="0.89" stop-color="white" stop-opacity="0"/>
</linearGradient>
</defs>
</svg>
