<svg width="409" height="729" viewBox="0 0 409 729" fill="none" xmlns="http://www.w3.org/2000/svg">
<g clip-path="url(#clip0)">
<path d="M0.129883 49.75C0.12988 43.1797 1.42482 36.6738 3.94068 30.6043C6.45655 24.5348 10.144 19.0206 14.7922 14.377C19.4404 9.73341 24.9583 6.05148 31.0304 3.54169C37.1024 1.03189 43.6096 -0.256545 50.1799 -0.249975H358.48C371.741 -0.249975 384.458 5.01787 393.835 14.3947C403.212 23.7715 408.48 36.4892 408.48 49.75V678.41C408.48 691.671 403.212 704.388 393.835 713.765C384.458 723.142 371.741 728.41 358.48 728.41H50.1799C36.9191 728.41 24.2014 723.142 14.8245 713.765C5.44773 704.388 0.179883 691.671 0.179883 678.41L0.129883 49.75Z" fill="#BB3637"/>
<path d="M50.5899 728.38H357.81C364.439 728.379 371.002 727.072 377.125 724.534C383.249 721.995 388.812 718.276 393.498 713.587C398.184 708.899 401.9 703.333 404.435 697.208C406.969 691.083 408.272 684.519 408.27 677.89V185.32C348.179 144.069 276.973 122.05 204.086 122.181C131.199 122.311 60.0725 144.585 0.129887 186.05V677.89C0.12726 684.519 1.43044 691.083 3.96499 697.208C6.49954 703.333 10.2158 708.899 14.9016 713.587C19.5874 718.276 25.1509 721.995 31.2743 724.534C37.3978 727.072 43.9612 728.379 50.5899 728.38Z" fill="#B42F30"/>
<path d="M94.2699 728.38H315.19C350.852 712.315 382.608 688.71 408.27 659.19V305C382.875 275.759 351.479 252.332 316.218 236.315C280.957 220.297 242.658 212.063 203.93 212.175C165.201 212.287 126.951 220.742 91.7833 236.963C56.6153 253.185 25.355 276.793 0.129883 306.18V658C25.9775 688.071 58.1147 712.097 94.2699 728.38Z" fill="#AC2728"/>
<path d="M204.73 692C303 692 385.48 624.39 408.27 533.12V431C385.48 339.75 303 272.13 204.73 272.13C104.87 272.13 21.3199 342 0.129883 435.46V528.68C21.3199 622.19 104.87 692 204.73 692Z" fill="#A31F20"/>
<path d="M204.73 642.02C293.007 642.02 364.57 570.408 364.57 482.07C364.57 393.732 293.007 322.12 204.73 322.12C116.453 322.12 44.8901 393.732 44.8901 482.07C44.8901 570.408 116.453 642.02 204.73 642.02Z" fill="#9A1516"/>
<path d="M204.73 602.03C270.938 602.03 324.61 548.322 324.61 482.07C324.61 415.818 270.938 362.11 204.73 362.11C138.522 362.11 84.8501 415.818 84.8501 482.07C84.8501 548.322 138.522 602.03 204.73 602.03Z" fill="#8B1112"/>
<path d="M204.73 562.05C248.869 562.05 284.65 526.242 284.65 482.07C284.65 437.898 248.869 402.09 204.73 402.09C160.591 402.09 124.81 437.898 124.81 482.07C124.81 526.242 160.591 562.05 204.73 562.05Z" fill="#7B0F10"/>
<path d="M204.73 532.05C232.316 532.05 254.68 509.673 254.68 482.07C254.68 454.467 232.316 432.09 204.73 432.09C177.143 432.09 154.78 454.467 154.78 482.07C154.78 509.673 177.143 532.05 204.73 532.05Z" fill="#670C0C"/>
</g>
<defs>
<clipPath id="clip0">
<rect width="408.53" height="728.38" fill="white"/>
</clipPath>
</defs>
</svg>
