<svg width="160" height="160" viewBox="0 0 160 160" fill="none" xmlns="http://www.w3.org/2000/svg">
<circle opacity="0.2" cx="80" cy="80" r="80" fill="#106BFF"/>
<g clip-path="url(#clip0)">
<path opacity="0.4" d="M90.2388 128.414L76.7776 120.586C76.1514 120.22 76.2286 119.584 76.9549 119.163L90.0616 111.54C90.7878 111.119 91.8829 111.073 92.5091 111.436L105.967 119.264C106.596 119.63 106.516 120.266 105.793 120.687L92.6835 128.31C91.9601 128.733 90.865 128.776 90.2388 128.414Z" fill="#D6D8E5"/>
<path opacity="0.4" d="M84.6644 124V124.002L58.2405 139.098L42.9999 147.806L43.3376 148L58.5782 139.29L84.9999 124.194L84.6644 124Z" fill="#D6D8E5"/>
<path d="M107.346 118.363L106.682 118.567L93.4641 110.877C92.8379 110.515 91.7486 110.561 91.0195 110.981L77.9099 118.604L77.8785 118.625L77.3066 118.449V119.313C77.3066 119.345 77.3066 119.376 77.3066 119.411V119.48C77.3303 119.595 77.3797 119.703 77.451 119.796C77.5224 119.889 77.6138 119.964 77.7184 120.016L91.1796 127.843C91.8058 128.206 92.8951 128.163 93.6271 127.74L106.774 120.128C106.927 120.059 107.06 119.954 107.164 119.822C107.268 119.689 107.338 119.533 107.369 119.368L107.346 118.363Z" fill="#D5D6E0"/>
<path d="M91.2053 126.937L77.7441 119.12C77.1179 118.757 77.1979 118.121 77.9213 117.7L91.0309 110.077C91.7543 109.654 92.8493 109.608 93.4755 109.973L106.937 117.801C107.563 118.167 107.486 118.803 106.759 119.224L93.6528 126.847C92.9265 127.256 91.8315 127.302 91.2053 126.937Z" fill="#E9EAF4"/>
<path d="M98.0189 117.752V116.6L96.3891 117.032L92.7636 114.915C92.6169 114.848 92.4566 114.817 92.2956 114.824C92.1346 114.831 91.9776 114.876 91.8372 114.956L88.3118 117.006L86.6449 116.563V117.804V118.092C86.6434 118.103 86.6434 118.115 86.6449 118.126V118.155C86.6539 118.199 86.6727 118.24 86.7 118.275C86.7273 118.31 86.7622 118.338 86.8021 118.357L91.9058 121.349C92.0525 121.416 92.2126 121.448 92.3734 121.441C92.5343 121.435 92.6914 121.39 92.8322 121.312L97.8016 118.432C97.8592 118.406 97.9096 118.366 97.9484 118.316C97.9873 118.265 98.0134 118.206 98.0246 118.144V117.764L98.0189 117.752Z" fill="#D5D6E0"/>
<path d="M91.9057 119.791L86.7963 116.816C86.559 116.678 86.5876 116.436 86.8621 116.277L91.8314 113.397C91.9727 113.317 92.1309 113.272 92.293 113.265C92.455 113.259 92.6163 113.291 92.7635 113.36L97.8643 116.326C98.1017 116.465 98.0731 116.706 97.7986 116.868L92.8292 119.748C92.6892 119.827 92.5329 119.872 92.3726 119.879C92.2122 119.887 92.0524 119.857 91.9057 119.791Z" fill="#E9EAF4"/>
<path d="M92.3289 116.574L61.9067 89.1452L122.834 87.9961L92.3289 116.574Z" fill="url(#paint0_linear)"/>
<path d="M91.7371 101.16C115.632 101.16 135.003 81.6488 135.003 57.5802C135.003 33.5115 115.632 14 91.7371 14C67.842 14 48.4713 33.5115 48.4713 57.5802C48.4713 81.6488 67.842 101.16 91.7371 101.16Z" fill="#E9EAF4"/>
<path d="M80.3574 31.6575L80.5033 31.142V30.0245C80.2972 30.0495 80.0889 30.0495 79.8828 30.0245C79.7741 29.9756 79.8485 29.6703 79.8485 29.6703L80.3574 29.2297L79.3367 29.4485L78.9707 30.0245L77.827 30.7359L78.3388 31.0239L78.6676 31.2428L79.1594 31.3177V30.9922C79.1594 30.9922 79.7313 30.8453 79.8714 31.0642L79.7999 31.4703L80.3574 31.6575ZM67.714 47.5695C67.5665 47.5027 67.4067 47.4682 67.245 47.4682C67.0834 47.4682 66.9236 47.5027 66.7761 47.5695C66.7786 47.7704 66.7038 47.9645 66.5673 48.1111C66.4309 48.2577 66.2434 48.3453 66.0442 48.3557L66.8791 48.8252L67.714 48.5113L68.8062 48.1455L69.7411 48.8252C70.4445 47.9612 69.7411 47.4629 69.7411 47.4629L67.714 47.5695ZM85.4697 63.5909L84.6606 63.4181L83.2538 62.5167H82.0186L80.9522 61.9609H80.5261C80.5261 61.9609 80.6119 61.3589 80.4832 61.3157C80.3546 61.2725 79.4196 60.7138 79.4196 60.7138L78.6934 60.973V60.4575L78.1816 60.2415H77.7555L77.7984 59.8124C77.7984 59.8124 78.1816 59.0492 77.97 58.9167C77.7584 58.7842 76.9893 57.0649 76.9893 57.0649L75.8456 56.4197H74.6104L73.5439 55.3916L72.4803 54.5276L71.8827 53.3266L71.2422 52.8975C71.2422 52.8975 70.5189 53.3698 70.3473 53.3266C70.1757 53.2834 69.1121 52.8975 69.1121 52.8975L68.2172 52.6412L67.0992 53.1682V54.3202L66.6732 54.0322V53.6002L67.0563 52.8716L67.2279 52.3561L66.8448 52.1861L66.3329 52.7852L65.0549 53.1682L64.7975 53.7269L64.2 54.2857L64.0313 54.758L63.0934 53.9861C62.7773 54.1528 62.4495 54.2962 62.1127 54.4153C61.7672 54.2305 61.4389 54.0145 61.132 53.7701L60.6631 52.8687L60.9204 51.6677L61.132 50.4207L60.3229 49.9052H59.2135L58.3557 49.6489L58.756 49.0037L59.2249 48.0591L59.6509 47.3737C59.6509 47.3737 59.771 47.0597 59.9083 46.9877C60.4515 46.6997 59.9083 46.429 59.9083 46.429C59.9083 46.429 58.7646 46.3426 58.5873 46.429C58.41 46.5154 57.9469 46.7717 57.9469 46.7717V47.7596L57.0891 48.1455L55.7681 48.4335L54.8732 47.5292C54.7445 47.4025 54.4472 45.9855 54.4472 45.9855L54.999 45.47L55.2563 45.0409L55.2992 44.0098L55.851 43.5375L56.0655 42.9788L56.7002 42.5122L57.3092 41.9506L57.8639 41.7807L58.6302 41.9506C58.6731 41.6626 60.0798 41.7807 60.0798 41.7807L60.6345 41.7519L60.5916 41.438C60.849 41.222 61.701 41.438 61.701 41.438L62.8447 41.3401C63.0963 41.3948 63.3079 41.9161 63.3079 41.9161L62.7961 42.3884L63.1392 43.4165L63.4794 43.8889L63.3508 44.3612L64.1714 44.2402L64.2114 43.4223L64.2543 42.4345L64.1285 41.3516L64.8948 39.6869L68.0056 37.6709L67.9627 36.9394L68.1743 35.8882L68.729 36.0812L69.7097 34.909L70.9878 34.4828L71.754 33.9586L72.1372 33.1839L73.5439 32.7548L74.9506 32.0261L74.3045 32.7202L74.2187 33.3221L74.985 33.1493L75.6683 32.7634L76.263 32.5935L76.8177 32.4207L76.9893 32.0348H76.6061L76.0086 31.8188C75.6254 31.5308 75.1508 31.1765 75.1508 31.1765C75.1419 31.1064 75.1486 31.0351 75.1703 30.9679C75.1921 30.9007 75.2284 30.8391 75.2766 30.7877L75.6626 30.4393C75.6626 30.4393 75.8313 30.2319 75.7055 30.2319C75.5797 30.2319 74.639 30.0245 74.639 30.0245L73.6154 30.4393H73.035L73.7612 29.8028H74.5704L75.4653 29.5868H77.3238L78.3474 29.3708L79.0765 28.9762L79.9714 28.8841L80.2288 27.9193L79.6312 27.4037L78.7734 26.9573L78.6019 25.9436L78.133 24.9125H77.7069L77.664 25.4713H76.9835L76.812 25.814L76.5575 25.9868L76.1315 26.0732L75.7455 25.6844L76.2573 25.1285L75.6626 24.5698L74.9363 24.1839H74.1787L73.624 24.3538L72.8577 25.2553L72.2601 25.7708L72.4317 26.2431L72.2144 26.9602L72.343 27.2482L71.6168 27.5074L70.8076 27.6773L70.4674 27.5909L70.2101 27.9365L70.679 28.9013L70.2101 29.2239H69.5724L69.0321 28.5241L68.9034 28.1266L69.2865 27.9135L69.0006 27.398L68.1057 27.3548L66.9134 26.6089H66.3587L66.23 26.1509L65.8469 25.981L66.4016 25.3359L67.2107 24.8636L68.6175 24.3481L69.1293 24.1781L70.2358 23.9189L70.9792 23.5042L71.6597 22.9023H72.5546L73.6211 22.6316H74.3045L74.5904 21.8309H73.2265L72.7147 22.2255H71.8198C71.6298 22.0366 71.3943 21.9006 71.1364 21.8309V21.5141L71.6054 21.085L72.2144 20.6242C72.4273 20.3502 72.5996 20.0466 72.7262 19.7228L73.9614 20.1519L74.8963 20.1029L75.5396 20.0655L76.3488 20.1087L76.8177 20.2815C76.689 20.6242 76.1801 20.3679 76.1801 20.3679L74.6447 20.5378L73.9614 20.9122L74.1758 20.4399L73.4496 20.4831L72.5918 21.0389L73.1894 21.3413H74.5961L75.3624 21.6293L76.0028 21.373L76.6833 21.6293L77.4954 21.8885L76.5146 22.1967L75.6569 22.6028L74.7991 22.79L74.1186 23.0463L74.4045 23.6482L76.1944 23.605L77.3238 24.3049H78.2616L78.3045 23.9189L78.5161 23.533L78.945 23.4466L78.6019 22.9743L78.4761 22.6172H78.985L79.4139 22.9311C79.7541 23.1903 80.4775 22.6172 80.4775 22.6172L81.544 22.2111L80.223 21.8165L79.797 21.3874C79.9228 21.1282 78.3903 20.7423 78.3903 20.7423L77.1951 20.0137L76.9092 19.7113H75.8942L76.7033 19.3685L78.7048 19.5817L79.7284 19.3685L82.073 18.7666L83.6484 18.3807L84.7921 17.9516L83.4683 17.7442C83.4683 17.7442 82.5304 18.0034 82.4018 18.0034C82.2731 18.0034 81.1666 18.0898 81.0379 18.0898H78.0529L77.1179 18.3029L77.9757 18.5189L77.4639 18.8069H76.569L76.0572 18.9797L76.7377 18.4642L76.0143 18.2914L75.1193 18.5074L74.01 19.1497L74.5218 19.3225L75.248 19.0345L75.8427 19.1612L75.2051 19.334L74.9478 19.6767L75.3738 19.8063L74.2301 19.8927L72.2287 19.55L71.4195 20.5349L69.7983 21.6869L70.2243 22.0297L69.9384 22.2111L69.5553 22.4156L68.4459 22.2111L66.9134 22.6172L64.0999 23.317L54.6959 32.4322L50.9446 37.357L48.7716 50.4956L52.6058 49.2082L53.2034 49.8505L54.227 50.0233L54.9104 50.4524L55.6337 50.1644L56.2313 50.7663L57.5523 51.4949L58.8303 51.6677L59.2135 52.9551C59.2135 52.9551 60.1084 53.7701 60.0713 53.9429C60.0341 54.1157 60.3572 54.8876 60.5402 54.8876C60.9667 55.0411 61.3806 55.2279 61.7782 55.4463L62.5016 55.5298L62.7875 54.8876H63.428V55.5298L63.6853 55.8754L63.7682 56.8604L64.0256 57.5919L63.5995 58.0642L62.9162 58.9282L62.0584 60.1234L62.1442 61.2754L61.9297 62.0473L62.5702 62.2633L62.0155 63.0351C62.1287 63.3589 62.2242 63.6886 62.3014 64.0229C62.4337 64.3912 62.5904 64.7501 62.7704 65.0972L63.3679 65.6127L63.6253 66.4767L65.0749 69.4805L66.0956 70.3445L67.5881 71.1164C67.5881 71.1164 68.526 72.1474 68.5689 72.2684C68.6117 72.3893 69.0807 74.2844 69.0807 74.2844L69.0606 75.3442L69.3466 76.4588L69.4323 77.7058L69.561 79.4338L69.987 80.8076L70.3702 82.6105L69.9013 83.2124L70.1872 84.1023L70.5303 85.4012L71.125 86.0463L71.085 87.0773L71.2108 88.1055L73.8556 90.9394L74.3645 91.4981V90.1676L75.2223 89.6693V88.8802L74.3645 88.4943V87.8924L74.7848 87.5065L75.208 86.8181V86.2594C75.5597 86.1327 75.208 85.7439 75.208 85.7439H74.6218L74.5789 85.1881H75.1336L75.3624 85.5308L75.8141 85.1881L75.4739 84.4997C75.5597 84.2866 76.1572 84.4997 76.1572 84.4997L77.178 83.8978L77.604 83.3852V82.6969L77.1179 82.2562L76.6891 81.5679H77.2009C77.2009 81.5679 77.97 81.9567 78.2245 81.5679C78.4789 81.1791 78.8649 80.6665 78.8649 80.6665L79.3338 79.5519C79.3338 79.5519 80.2288 77.9189 80.3145 77.7893C80.4003 77.6597 80.3145 76.0613 80.3145 76.0613L81.7213 74.9093H82.6591L83.4254 73.6191L84.023 72.7724V71.3324L84.2345 69.9586L83.9 68.6165L85.0923 67.0268L85.9872 66.1628L85.647 64.5759L85.4697 63.5909ZM94.9681 29.8546L95.254 30.0245L95.6428 29.6847H96.1947L96.7036 29.5119L96.9323 29.1951L96.8237 28.7573L97.041 28.5241C97.0667 28.1698 96.5092 27.9135 96.5092 27.9135H96.1947L95.8058 28.3657H95.3941L95.2483 28.8783L95.3083 29.2642L94.9681 29.4773V29.8546ZM97.5414 26.6089L97.1068 26.8047V27.4642L97.1554 27.6341C97.1872 27.7701 97.2035 27.9092 97.204 28.0489L97.5185 28.2677L97.833 28.4636L97.9788 28.7516C97.9788 28.7516 97.9302 29.0396 97.7615 29.0396L97.3727 29.1634L97.5185 29.4313C97.5185 29.4313 97.2326 29.5781 97.204 29.6991L97.4699 29.8949L97.2268 30.1397H96.695V30.4277H97.8101L98.2705 30.1397L98.9481 30.2607C98.9481 30.2607 99.5056 30.1397 99.6257 30.1397L99.5285 30.0159L99.7001 29.797L99.966 29.4802L99.6257 29.342L99.2397 29.221L99.2883 28.8063L98.9224 28.5183L98.3677 28.213L98.3191 27.6514L98.3677 27.1647H97.7958L97.6757 26.9199L98.0131 26.6031L97.5414 26.6089ZM100.715 28.7084V28.5241H101.104L101.321 28.3657V27.7551L101.607 27.6082L101.51 27.1215L101.055 26.9602L100.378 27.1791V27.5362L99.966 27.5852L99.8688 27.9135L100.155 28.0489L99.6943 28.3167L99.5714 28.5241L99.9603 28.8783L100.715 28.7084ZM125.133 43.5029L126.734 44.3669L127.56 44.0444L128.109 44.8277L129.576 45.1532L130.217 45.4757L132.004 40.7237L131.492 38.1922L123.486 24.9961L121.096 23.2162H118.211L116.927 23.4005L116.607 24.0485L115.923 23.7922L115.6 23.2162H114.957L115.243 23.5042L115.474 23.9679H114.465V24.541L113.745 24.4345L113.307 24.3682L113.061 24.4921L113.29 24.6332L113.607 24.7052L113.321 24.8117L112.938 24.6562L112.461 24.4949L112.318 24.1753L111.966 23.8873L111.56 23.8325L111.274 23.4956L111.898 23.5503L112.446 23.798L112.904 23.8527C112.904 23.8527 113.19 23.7807 113.221 23.8325C113.44 23.9028 113.665 23.9511 113.893 23.9765L114.265 23.6885L113.636 23.2162L112.521 22.885C112.521 22.885 110.648 22.6258 110.559 22.6316C110.291 22.5635 110.025 22.4818 109.765 22.3868L109.113 22.2255H107.683L105.51 22.6316L104.309 23.4005L102.88 24.6994C102.88 24.6994 101.644 24.878 101.573 24.8953C101.37 25.0654 101.179 25.2492 101.001 25.4453L101.287 26.0703L101.215 26.3583L101.41 26.5167L101.553 26.8047L101.747 27.0927L102.471 26.9861L103.248 26.5426L103.849 26.8623L104.309 27.6629L104.395 28.1439L104.944 28.2505L105.316 27.9308L105.704 27.8415L105.916 27.1993L105.95 26.701L106.482 26.5426V26.2143L106.288 26.0732L106.039 25.9119L105.95 25.3359L106.759 24.8204C106.759 24.8204 107.188 24.4287 107.188 24.3596C107.188 24.2905 107.4 24.0543 107.4 24.0543C107.4 24.0543 107.737 24.0745 107.843 24.0917C107.949 24.109 108.512 24.3049 108.512 24.3049L108.727 24.4661L108.072 24.7858L107.686 25.1775L107.4 25.3733L107.666 25.9954L108.355 26.3525L108.973 26.2258L109.953 26.1769C109.953 26.1769 111.077 26.4044 111.128 26.4418C111.18 26.4793 110.805 26.6002 110.805 26.6002L110.368 26.7241L110.122 26.8853L109.704 26.6722C109.536 26.5535 109.338 26.4856 109.133 26.4764C108.96 26.5103 108.796 26.5831 108.655 26.6895L108.921 27.0985L109.29 27.349C109.29 27.349 109.133 27.8098 109.027 27.7925C108.921 27.7753 108.741 27.4556 108.741 27.4556L108.332 27.2943L108.069 27.4556L108.103 27.8473L107.989 28.4002L107.549 28.6882L107.228 28.9388L106.805 28.6882L106.259 28.8495L105.304 28.7948L105.093 28.9906L104.755 28.8495C104.755 28.8495 103.926 28.8841 103.872 28.9013C103.682 28.8371 103.499 28.7541 103.326 28.6537L103.114 28.1727L103.377 27.853L103.254 27.709L103.148 27.4441L103.326 27.2281L103.06 27.1589L102.619 27.6025L102.599 28.0316C102.599 28.0316 102.831 28.4405 102.848 28.4924C102.861 28.6167 102.867 28.7417 102.865 28.8668L102.425 29.0453L101.947 29.1865L102.036 29.365L102.531 29.4543L102.371 29.7423L102.085 29.7596L101.945 30.1167L101.856 30.3125L101.467 30.206L101.484 29.9554L101.501 29.6357L101.344 29.4745L101.113 29.725L100.867 30.0447L100.295 30.1513L100.029 30.3644L99.8516 30.7561L99.4284 30.9519L99.0939 31.165L98.5793 30.9001L98.5106 31.0239L98.6164 31.2889L98.4935 31.4329L97.8216 31.3781L97.4499 31.3263L97.3955 31.8245L98.0503 31.9311L98.3677 32.2191C98.3677 32.2191 98.6164 32.5215 98.6679 32.5215C98.7194 32.5215 99.0768 32.6108 99.0768 32.6108L98.9338 33.3941L98.6164 34.1228L97.2897 34.1055L95.843 34.0709L95.3826 34.2466L95.2397 34.6556L95.3655 35.0847L95.1082 35.8882L95.0024 36.3173C95.0029 36.4636 95.0192 36.6095 95.051 36.7522C95.0881 36.8041 95.2997 37.1785 95.2997 37.1785L95.1396 37.7833L95.6171 37.9273L96.412 37.9791L96.8351 38.2124L97.1554 38.2642L97.6843 38.0338L98.4792 37.9273L99.2226 37.3023L99.0996 36.5391L99.5571 35.9631L100.529 35.341L100.952 35.197L100.901 34.5577L101.473 34.2178L102.045 34.4137L102.433 34.2005L103.629 33.8319L104.812 34.9378L106.436 36.0581C106.436 36.0581 106.774 36.7349 106.791 36.7868C106.726 36.9506 106.643 37.1063 106.542 37.2505H105.63L105.287 37.3282C105.287 37.3282 105.393 37.5932 105.461 37.5932C105.53 37.5932 106.259 37.933 106.259 37.933L106.488 38.1116L106.611 38.0741L106.594 37.7372L106.665 37.4175L106.911 37.4521C107.011 37.3422 107.1 37.2226 107.177 37.0949C107.251 36.9373 107.333 36.7835 107.423 36.6341L107.228 36.2597L107.337 36.0092L107.623 36.0466L107.657 36.4181H107.763L107.729 35.9573L107.443 35.7788L107.06 35.5225L106.794 35.1337L106.333 35.0069L105.805 34.6325L105.682 34.2063L105.187 33.9586L105.058 33.5669L105.201 33.158L105.519 33.1033L105.536 33.4949L105.853 33.6015L106.068 33.4777L106.385 34.0537L107.037 34.4252L107.551 34.7132L107.869 34.7506L108.398 35.3266L108.524 36.0725L109.513 37.1065L109.653 37.8351L110.359 38.3333L110.554 38.1721L110.448 37.7113L110.837 37.4981L110.714 37.1756L110.322 37.0402L110.162 36.7205L110.233 36.2021L110.005 35.9372L110.216 35.9717L110.374 36.1676L110.622 35.8306L111.045 35.8479L111.471 36.0265L111.789 36.4642L112.106 36.9625C112.106 36.9625 111.895 37.0863 111.877 37.141C111.919 37.2788 111.979 37.4104 112.055 37.5327L112.461 37.9042L112.778 38.3535L113.413 38.3362L113.484 38.6242L113.945 38.6761L114.385 38.5695L114.511 38.2815L114.705 38.5493L115.217 38.7279L115.657 38.6933L116.029 38.2815L116.364 38.4255L116.612 38.5839L116.524 38.941L116.744 39.6725L116.424 40.4127V41.3804H114.494L113.762 41.6684L112.575 41.0722L111.797 41.1644L110.468 40.6805H109.416L109.095 40.9685L109.278 41.4754L108.867 41.8901L107.812 41.245L106.988 41.3372L106.668 40.7842L105.43 40.4156L104.572 39.998L103.915 39.6725L104.692 38.7509L104.464 37.9676L103.915 37.6421L100.661 38.0137L99.3798 38.5205L98.5535 38.5666L97.6958 38.8892L96.6436 38.6588L95.9545 39.4882L95.131 40.0412L94.3876 41.6108L94.5821 42.302L93.6214 43.2265L92.6607 43.5951L92.2032 44.4591C92.2032 44.4591 91.1939 46.7199 91.1024 46.9042C91.0109 47.0885 91.1024 48.2434 91.1024 48.2434L91.5141 49.5797L90.5534 51.8405L90.9194 52.9493L91.4226 53.9631L92.7522 55.8553L92.7121 56.8057L95.4513 58.9052L97.2869 58.1621L99.0539 58.7266L101.25 57.5285C101.25 57.5285 101.985 57.5285 102.213 57.9433C102.442 58.358 102.579 58.7266 103.403 58.7266C104.226 58.7266 104.641 59.6511 104.641 59.6511L104.275 60.7109L104.458 61.2639L104.092 62.1279L104.95 63.925L105.59 65.3103L106.188 66.6495L106.325 68.3545L106.188 69.325L105.133 71.1711L105.453 74.0309L105.819 74.6761L105.682 75.1369L106.325 75.8309L106.737 77.4437L106.371 78.9673L106.92 80.1193C106.92 80.1193 107.423 81.3663 107.469 81.5045C107.514 81.6428 107.835 82.1036 107.789 82.334C107.743 82.5644 107.606 83.1663 107.606 83.1663L107.789 84.0879H110.125L111.226 83.7193L113.928 80.9516C114.174 80.6575 114.404 80.3488 114.614 80.0271C114.66 79.8889 115.025 78.1839 115.025 78.1839L116.95 77.3977V75.8914L116.538 74.6905L117.544 73.7228L120.249 72.1532L120.478 70.9522V68.8786L119.972 67.309L120.109 66.3413L119.64 65.9237L120.512 64.6335L120.833 62.9257L122.114 62.1423L122.399 61.3561L124.735 58.9167L125.47 56.5954L126.156 55.3138V53.9285L125.516 53.6981L124.781 54.2972L123.775 54.3893L122.723 54.6773L121.85 54.1215L121.942 53.4303L120.844 52.1861L119.743 51.5381L119.24 49.8793L118.165 48.8482L118.073 47.558L117.293 46.406L116.332 44.2402L115.323 43.2265L115.231 42.3941L115.646 42.5813L116.103 42.95L116.286 43.6412C116.652 43.6412 116.79 42.95 116.79 42.95L117.11 43.6412L117.43 44.5052L118.439 46.0287L118.988 46.1209L119.629 47.4601L119.583 48.0591L121.416 49.9513L121.736 51.7023L122.056 52.4885L122.654 53.0876L125.402 52.3503L125.905 51.8866L127.094 51.518V50.965L128.47 50.0434L129.041 48.9721L129.373 48.4277L129.833 47.7826L129.076 46.7314L128.018 45.83L127.68 44.966L127.292 45.0581L127.006 45.8876L125.953 46.1756L125.404 45.8069L125.221 45.0236L124.855 45.1157L124.304 44.0991L123.8 43.8111L123.16 42.7513L123.617 42.2415L125.133 43.5029ZM103.689 36.7119L103.786 36.2713V35.6377C103.687 35.5489 103.565 35.49 103.434 35.4677C103.34 35.4679 103.25 35.5027 103.18 35.5657V36.2713C103.204 36.4171 103.204 36.5661 103.18 36.7119H103.689ZM103.689 34.8082C103.694 34.763 103.689 34.7171 103.673 34.6744C103.658 34.6316 103.632 34.5932 103.599 34.5623C103.566 34.5314 103.526 34.5088 103.482 34.4965C103.439 34.4842 103.393 34.4824 103.348 34.4914L103.18 34.9781L103.348 35.3439H103.689V34.8082ZM91.1939 22.2111H92.9094L93.8444 20.8546H95.9974L96.3433 19.9906L97.6672 19.285C98.2933 18.7349 97.6672 17.7385 97.6672 17.7385L94.9681 17.3986L92.2861 17.7442L88.3861 17.0127L85.9815 18.1129C85.9815 18.1129 84.2517 19.0546 84.0172 18.9769C83.5501 18.9371 83.0805 18.9371 82.6134 18.9769C82.6134 18.9769 83.4711 19.7602 83.86 19.8409C84.1442 19.8849 84.4335 19.8849 84.7177 19.8409C84.7177 19.8409 84.7177 20.6069 84.875 20.7826C85.4211 21.4133 84.3032 21.8828 84.3032 21.8828V22.6258C84.3032 22.6258 84.4261 24.0284 84.6577 23.965C84.8893 23.9017 85.2696 24.7109 85.2696 24.7109L85.9872 25.4972H87.2996L88.938 23.533L90.5506 22.8274L91.1939 22.2111ZM124.89 69.1954L124.678 68.6194L124.435 68.8613L124.224 69.3509L123.74 69.6389L123.529 70.2812L123.226 71.0415L122.045 71.4073L121.53 72.2914L121.41 73.7545L120.987 74.4802L120.504 74.9986L120.684 75.8626L121.018 76.2601L120.684 76.7151L121.018 77.0031H122.136L122.771 76.0585C122.771 76.0585 123.286 74.9612 123.286 74.869C123.286 74.7769 123.529 73.7717 123.529 73.7717L124.404 72.6197V71.0242H125.01L124.83 69.8953L124.89 69.1954ZM63.814 45.8242L62.4873 45.3692C62.4873 45.3692 62.1185 45.421 61.6867 45.5247C61.3691 45.589 61.0587 45.6855 60.7603 45.8127L62.6417 46.4578H63.4022L64.6717 47.558H65.5295C65.5295 47.558 66.23 47.2441 65.9956 46.694L64.9062 46.2994L63.814 45.8242Z" fill="#134889"/>
<path opacity="0.05" d="M95.943 91.4722C89.2031 91.4677 82.5574 89.8781 76.535 86.83C70.5126 83.782 65.28 79.3597 61.2538 73.9153C57.2276 68.4709 54.519 62.1548 53.3437 55.4699C52.1685 48.7851 52.559 41.9161 54.4842 35.4102C51.3677 40.7225 49.4065 46.6408 48.7304 52.7736C48.0543 58.9064 48.6787 65.114 50.5623 70.9855C52.4459 76.8571 55.5457 82.259 59.6567 86.8337C63.7678 91.4084 68.7963 95.0518 74.4097 97.5227C80.0231 99.9937 86.0933 101.236 92.219 101.167C98.3446 101.099 104.386 99.7206 109.943 97.1245C115.501 94.5283 120.448 90.7732 124.456 86.1075C128.465 81.4417 131.445 75.9718 133.199 70.0594C129.374 76.5845 123.926 81.9918 117.393 85.7471C110.859 89.5023 103.466 91.4757 95.943 91.4722Z" fill="black"/>
<path opacity="0.4" d="M49.7712 147.934L41.9999 143.456L53.6312 136.748L61.4026 141.226L49.7712 147.934Z" fill="#D6D8E5"/>
<path d="M49.9343 138.905L43.4982 135.161L49.9343 131.42L56.3704 135.161L49.9343 138.905Z" fill="#E9EAF4"/>
<path d="M49.9343 146.39L43.4982 142.646V135.161L49.9343 138.905V146.39Z" fill="#C5C7D3"/>
<path d="M56.3703 142.646L49.9342 146.39V138.905L56.3703 135.161V142.646Z" fill="#D5D6E0"/>
<path d="M58.5833 140.293C59.141 140.447 59.7363 140.375 60.2416 140.092C60.6391 140.092 62.8149 139.167 63.1009 139.954C63.3582 140.639 62.4204 141.276 61.9171 141.394C60.8221 141.661 60.0129 142.212 59.5726 142.304C59.2438 142.373 58.8206 142.419 58.5604 142.16C58.2487 141.854 58.2773 140.702 58.5833 140.293Z" fill="black"/>
<path d="M59.5755 142.119C60.0159 142.024 60.825 141.477 61.9201 141.209C62.3404 141.106 63.0638 140.633 63.1381 140.092C63.2353 140.723 62.389 141.284 61.9201 141.399C60.825 141.667 60.0159 142.217 59.5755 142.309C59.2467 142.379 58.8236 142.425 58.5634 142.165C58.4955 142.09 58.4465 141.999 58.4204 141.9C58.5826 142.025 58.7716 142.11 58.9722 142.148C59.1728 142.186 59.3794 142.176 59.5755 142.119Z" fill="#169CD6"/>
<path d="M54.6748 138.197C55.2324 138.352 55.8283 138.28 56.3331 137.995C56.7306 137.995 58.9064 137.071 59.1924 137.857C59.4526 138.545 58.5119 139.182 58.0115 139.297C56.9164 139.565 56.1073 140.115 55.6669 140.207C55.3381 140.276 54.915 140.322 54.6548 140.063C54.3403 139.758 54.3689 138.606 54.6748 138.197Z" fill="black"/>
<path d="M55.667 140.023C56.1073 139.93 56.9165 139.38 58.0116 139.113C58.4319 139.009 59.1553 138.537 59.2296 137.995C59.3268 138.629 58.4805 139.187 58.0116 139.303C56.9165 139.57 56.1073 140.121 55.667 140.213C55.3382 140.282 54.915 140.328 54.6549 140.069C54.5866 139.994 54.5367 139.904 54.509 139.807C54.6723 139.93 54.8619 140.014 55.0628 140.052C55.2637 140.089 55.4706 140.079 55.667 140.023Z" fill="#169CD6"/>
<path d="M48.5761 135.478C50.2659 136.227 51.8613 136.342 53.1651 135.639L54.5118 134.856C54.5919 136.607 54.6691 138.289 54.6691 138.289C54.6691 138.289 55.7013 139.078 56.5047 138.375C56.5047 138.375 56.6734 135.916 56.845 133.5L58.266 132.67C58.2341 132.799 58.2168 132.932 58.2145 133.065C58.2145 133.526 58.5405 140.351 58.5405 140.351C58.5405 140.351 59.5812 140.976 60.3847 140.273C60.3847 140.273 60.9251 132.362 61.0509 131.098C61.191 129.678 59.6213 128.978 58.632 129.341L57.1166 129.917C57.148 129.519 57.1738 129.211 57.1909 129.038C57.331 127.616 55.7613 126.916 54.7749 127.279C53.8714 127.61 47.7726 129.914 47.7726 129.914C47.8112 130.505 47.8828 131.094 47.9871 131.677L45.5796 131.472C45.4309 133.753 46.8977 134.729 48.5761 135.478ZM52.7963 131.547L54.4089 130.608C54.3812 130.723 54.3631 130.839 54.3546 130.957L52.7963 131.547Z" fill="#134889"/>
<path d="M44.2559 124.545C44.2559 124.545 44.4531 127.567 44.8477 128.001C45.2423 128.436 46.5633 128.733 46.5633 128.733L47.5869 130.432C47.5869 130.432 46.6519 125.035 46.4432 124.905C46.2344 124.776 44.2559 124.545 44.2559 124.545Z" fill="#FFCEA9"/>
<path d="M46.2258 121.193C45.976 121.077 45.6924 121.057 45.4289 121.137C45.1654 121.217 44.9402 121.392 44.7962 121.628C44.4216 122.256 44.0299 124.413 44.0013 124.782C44.0013 124.782 44.5303 125.519 45.3223 125.395L46.2258 121.193Z" fill="#EDEDED"/>
<path d="M46.5746 121.23C47.0921 121.256 47.4781 121.392 47.541 121.23C47.5979 120.962 47.638 120.689 47.6611 120.415C47.6011 120.266 47.5496 120.102 47.5496 120.102C46.8977 119.698 46.6918 118.99 46.6089 118.166C46.4631 116.758 47.2179 115.522 48.6104 115.375C49.9256 115.237 50.8977 116.167 51.1522 117.446C51.2923 118.08 51.5697 119.272 51.1951 120.309C50.9864 120.885 50.7148 121.351 50.446 121.441C50.1856 121.434 49.9258 121.411 49.6683 121.372C49.6683 121.372 49.5997 121.763 49.5511 122.017C49.5024 122.27 49.5225 122.4 50.0171 122.708C50.5117 123.016 49.268 123.65 48.4531 123.586C47.6382 123.523 46.7204 123.03 46.4688 122.498C46.2058 121.913 46.2286 121.213 46.5746 121.23Z" fill="#FFCEA9"/>
<path d="M59.7072 130.467C59.7072 130.541 59.6879 130.614 59.6513 130.678C59.6147 130.742 59.562 130.795 59.4985 130.833L55.5499 133.137C55.4859 133.173 55.4135 133.193 55.3398 133.193C55.266 133.193 55.1936 133.173 55.1296 133.137L49.5942 129.911C49.5299 129.874 49.4765 129.821 49.4393 129.757C49.4022 129.693 49.3826 129.62 49.3826 129.545V129.502L59.7072 130.467Z" fill="#E5E5E5"/>
<path d="M59.4984 130.833L55.5498 133.137C55.4853 133.173 55.4123 133.192 55.3383 133.191V130.473H59.7072C59.7062 130.546 59.6864 130.617 59.6498 130.68C59.6133 130.743 59.5611 130.796 59.4984 130.833Z" fill="#E5E5E5"/>
<path d="M55.4869 132.921C55.4434 132.946 55.3941 132.959 55.3439 132.959C55.2938 132.959 55.2444 132.946 55.201 132.921L49.4339 129.574C49.3596 129.534 49.3596 129.465 49.4339 129.421L53.6684 126.956L59.7014 130.467L55.4869 132.921Z" fill="#F4F4F4"/>
<path d="M51.8013 130.467L51.8299 130.481L53.6741 131.555L54.6862 130.965L54.7148 130.95L52.842 129.862L51.8013 130.467Z" fill="#BFBFBF"/>
<path d="M51.83 130.481L53.6742 131.555L54.6863 130.965L52.8421 129.894L51.83 130.481Z" fill="#E5E5E5"/>
<path d="M58.1432 130.654L58.4091 130.809C58.4225 130.816 58.4371 130.819 58.452 130.819C58.4668 130.819 58.4815 130.816 58.4949 130.809L58.7493 130.662C58.7751 130.662 58.7751 130.625 58.7493 130.614L58.4834 130.458C58.4702 130.451 58.4555 130.447 58.4405 130.447C58.4256 130.447 58.4109 130.451 58.3976 130.458L58.146 130.605C58.126 130.605 58.1232 130.625 58.1432 130.654Z" fill="black"/>
<path d="M57.7687 130.42L58.0346 130.576C58.0475 130.582 58.0617 130.586 58.076 130.586C58.0904 130.586 58.1046 130.582 58.1175 130.576L58.372 130.429C58.3977 130.415 58.4006 130.392 58.372 130.38L58.1061 130.225C58.0934 130.218 58.0791 130.214 58.0646 130.214C58.0501 130.214 58.0358 130.218 58.0231 130.225L57.7687 130.372C57.7486 130.386 57.7458 130.406 57.7687 130.42Z" fill="black"/>
<path d="M57.3911 130.202L57.657 130.357C57.6704 130.364 57.6851 130.367 57.6999 130.367C57.7148 130.367 57.7294 130.364 57.7428 130.357L57.9944 130.21C58.0202 130.196 58.023 130.173 57.9944 130.161L57.7285 130.006C57.7153 129.999 57.7006 129.995 57.6856 129.995C57.6707 129.995 57.6559 129.999 57.6427 130.006L57.3883 130.153C57.374 130.167 57.3711 130.187 57.3911 130.202Z" fill="black"/>
<path d="M57.0166 129.983L57.2825 130.138C57.2954 130.145 57.3096 130.148 57.324 130.148C57.3383 130.148 57.3525 130.145 57.3654 130.138L57.6199 129.992C57.6456 129.977 57.6485 129.954 57.6199 129.943L57.354 129.787C57.3408 129.78 57.326 129.776 57.3111 129.776C57.2961 129.776 57.2814 129.78 57.2682 129.787L57.0166 129.934C56.9966 129.948 56.9937 129.969 57.0166 129.983Z" fill="black"/>
<path d="M56.6393 129.764L56.9052 129.92C56.9181 129.926 56.9323 129.929 56.9466 129.929C56.961 129.929 56.9752 129.926 56.9881 129.92L57.2426 129.773C57.2683 129.758 57.2712 129.735 57.2426 129.724L56.9767 129.568C56.964 129.561 56.9497 129.558 56.9352 129.558C56.9207 129.558 56.9064 129.561 56.8937 129.568L56.6393 129.715C56.6193 129.73 56.6164 129.75 56.6393 129.764Z" fill="black"/>
<path d="M56.2618 129.545L56.5277 129.7C56.5411 129.707 56.5557 129.71 56.5706 129.71C56.5854 129.71 56.6 129.707 56.6134 129.7L56.8679 129.554C56.8908 129.539 56.8937 129.516 56.8679 129.505L56.602 129.349C56.5888 129.342 56.5741 129.338 56.5591 129.338C56.5442 129.338 56.5294 129.342 56.5162 129.349L56.2618 129.496C56.2446 129.502 56.2417 129.531 56.2618 129.545Z" fill="black"/>
<path d="M55.8872 129.326L56.1531 129.482C56.166 129.488 56.1802 129.491 56.1946 129.491C56.2089 129.491 56.2231 129.488 56.236 129.482L56.4905 129.335C56.5162 129.335 56.5191 129.297 56.4905 129.286L56.2246 129.13C56.2114 129.123 56.1966 129.12 56.1817 129.12C56.1667 129.12 56.152 129.123 56.1388 129.13L55.8872 129.277C55.8672 129.292 55.8643 129.312 55.8872 129.326Z" fill="black"/>
<path d="M55.5098 129.107L55.7757 129.263C55.7891 129.269 55.8037 129.273 55.8185 129.273C55.8334 129.273 55.848 129.269 55.8614 129.263L56.113 129.116C56.1388 129.102 56.1416 129.079 56.113 129.067L55.8471 128.912C55.8344 128.905 55.8202 128.901 55.8057 128.901C55.7912 128.901 55.7769 128.905 55.7642 128.912L55.5098 129.059C55.4897 129.073 55.4869 129.093 55.5098 129.107Z" fill="black"/>
<path d="M55.1324 128.889L55.3983 129.044C55.4117 129.051 55.4263 129.054 55.4412 129.054C55.456 129.054 55.4706 129.051 55.4841 129.044L55.7385 128.897C55.7614 128.883 55.7643 128.86 55.7385 128.848L55.4726 128.693C55.4594 128.686 55.4447 128.682 55.4297 128.682C55.4148 128.682 55.4 128.686 55.3868 128.693L55.1324 128.84C55.1152 128.854 55.1124 128.874 55.1324 128.889Z" fill="black"/>
<path d="M54.7577 128.67L55.0236 128.825C55.0365 128.832 55.0507 128.835 55.065 128.835C55.0794 128.835 55.0936 128.832 55.1065 128.825L55.361 128.679C55.3867 128.664 55.3896 128.641 55.361 128.63L55.0951 128.474C55.0822 128.468 55.068 128.464 55.0536 128.464C55.0392 128.464 55.0251 128.468 55.0121 128.474L54.7577 128.624C54.7377 128.638 54.7348 128.655 54.7577 128.67Z" fill="black"/>
<path d="M54.3804 128.451L54.6463 128.606C54.6597 128.613 54.6743 128.616 54.6892 128.616C54.704 128.616 54.7186 128.613 54.732 128.606L54.9837 128.459C55.0094 128.445 55.0122 128.422 54.9837 128.41L54.7177 128.255C54.7048 128.248 54.6907 128.245 54.6763 128.245C54.6619 128.245 54.6477 128.248 54.6348 128.255L54.3804 128.405C54.3603 128.416 54.3575 128.436 54.3804 128.451Z" fill="black"/>
<path d="M54.0087 128.232L54.2746 128.387C54.288 128.394 54.3026 128.397 54.3174 128.397C54.3323 128.397 54.3469 128.394 54.3603 128.387L54.6148 128.241C54.6377 128.226 54.6405 128.203 54.6148 128.192L54.3489 128.036C54.3355 128.03 54.3208 128.026 54.306 128.026C54.2912 128.026 54.2765 128.03 54.2631 128.036L54.0115 128.186C53.9858 128.197 53.9829 128.218 54.0087 128.232Z" fill="black"/>
<path d="M53.6285 128.013L53.8944 128.166C53.9071 128.173 53.9214 128.176 53.9359 128.176C53.9504 128.176 53.9647 128.173 53.9774 128.166L54.2318 128.019C54.2576 128.019 54.2604 127.981 54.2318 127.97L53.9659 127.814C53.953 127.808 53.9388 127.805 53.9245 127.805C53.9101 127.805 53.8959 127.808 53.883 127.814L53.6285 127.964C53.6085 127.979 53.6057 127.999 53.6285 128.013Z" fill="black"/>
<path d="M53.0709 127.688L53.5169 127.947C53.5301 127.954 53.5449 127.958 53.5598 127.958C53.5748 127.958 53.5895 127.954 53.6027 127.947L53.8543 127.8C53.88 127.785 53.8829 127.762 53.8543 127.751L53.4054 127.492C53.3927 127.485 53.3785 127.481 53.364 127.481C53.3495 127.481 53.3352 127.485 53.3225 127.492L53.068 127.639C53.0509 127.653 53.048 127.676 53.0709 127.688Z" fill="black"/>
<path d="M57.2225 130.527L57.4884 130.68C57.5011 130.687 57.5154 130.691 57.5299 130.691C57.5444 130.691 57.5587 130.687 57.5713 130.68L57.8258 130.533C57.8515 130.519 57.8544 130.496 57.8258 130.484L57.5599 130.329C57.5465 130.322 57.5319 130.319 57.517 130.319C57.5022 130.319 57.4875 130.322 57.4741 130.329L57.2225 130.478C57.2025 130.493 57.1996 130.513 57.2225 130.527Z" fill="black"/>
<path d="M56.8451 130.308L57.111 130.461C57.1237 130.468 57.1379 130.472 57.1524 130.472C57.1669 130.472 57.1812 130.468 57.1939 130.461L57.4484 130.314C57.4741 130.3 57.477 130.277 57.4484 130.265L57.1825 130.11C57.1696 130.103 57.1554 130.1 57.141 130.1C57.1266 130.1 57.1125 130.103 57.0996 130.11L56.8451 130.26C56.8251 130.274 56.8222 130.294 56.8451 130.308Z" fill="black"/>
<path d="M56.4675 130.078L56.7334 130.231C56.7461 130.238 56.7604 130.241 56.7749 130.241C56.7894 130.241 56.8036 130.238 56.8163 130.231L57.0708 130.084C57.0965 130.069 57.0994 130.046 57.0708 130.035L56.8049 129.879C56.792 129.873 56.7778 129.87 56.7634 129.87C56.7491 129.87 56.7349 129.873 56.722 129.879L56.4675 130.026C56.4475 130.052 56.4446 130.078 56.4675 130.078Z" fill="black"/>
<path d="M56.0902 129.868L56.3561 130.023C56.3695 130.03 56.3842 130.033 56.399 130.033C56.4138 130.033 56.4285 130.03 56.4419 130.023L56.6935 129.876C56.7192 129.862 56.7221 129.839 56.6935 129.827L56.4276 129.672C56.4149 129.665 56.4006 129.661 56.3861 129.661C56.3716 129.661 56.3574 129.665 56.3447 129.672L56.0902 129.819C56.0702 129.833 56.0673 129.856 56.0902 129.868Z" fill="black"/>
<path d="M55.7242 129.652L55.9901 129.807C56.0035 129.814 56.0182 129.817 56.033 129.817C56.0479 129.817 56.0625 129.814 56.0759 129.807L56.3275 129.661C56.3533 129.661 56.3561 129.623 56.3275 129.612L56.0616 129.456C56.0484 129.449 56.0337 129.445 56.0187 129.445C56.0038 129.445 55.989 129.449 55.9758 129.456L55.7214 129.603C55.6985 129.617 55.6956 129.638 55.7242 129.652Z" fill="black"/>
<path d="M55.3383 129.433L55.6042 129.586C55.6174 129.593 55.6321 129.596 55.6471 129.596C55.662 129.596 55.6768 129.593 55.69 129.586L55.9445 129.439C55.9673 129.439 55.9702 129.401 55.9445 129.39L55.6785 129.234C55.6651 129.228 55.6505 129.225 55.6357 129.225C55.6208 129.225 55.6062 129.228 55.5928 129.234L55.3383 129.384C55.3211 129.399 55.3183 129.419 55.3383 129.433Z" fill="black"/>
<path d="M54.9608 129.214L55.2267 129.366C55.2399 129.374 55.2546 129.377 55.2696 129.377C55.2845 129.377 55.2993 129.374 55.3125 129.366L55.567 129.22C55.5927 129.205 55.5927 129.182 55.567 129.171L55.301 129.015C55.2876 129.009 55.273 129.005 55.2582 129.005C55.2433 129.005 55.2287 129.009 55.2153 129.015L54.9637 129.162C54.9436 129.179 54.9408 129.214 54.9608 129.214Z" fill="black"/>
<path d="M54.5806 128.992L54.8465 129.148C54.8592 129.155 54.8735 129.158 54.888 129.158C54.9025 129.158 54.9168 129.155 54.9294 129.148L55.1839 129.001C55.2097 128.986 55.2125 128.963 55.1839 128.952L54.918 128.796C54.9046 128.79 54.89 128.787 54.8751 128.787C54.8603 128.787 54.8456 128.79 54.8322 128.796L54.5806 128.943C54.5806 128.958 54.5635 128.981 54.5806 128.992Z" fill="black"/>
<path d="M54.2088 128.774L54.4748 128.929C54.4877 128.935 54.5018 128.939 54.5162 128.939C54.5306 128.939 54.5448 128.935 54.5577 128.929L54.8121 128.782C54.8379 128.765 54.8407 128.745 54.8121 128.73L54.5462 128.578C54.5335 128.571 54.5193 128.567 54.5048 128.567C54.4903 128.567 54.476 128.571 54.4633 128.578L54.2088 128.725C54.1888 128.739 54.186 128.762 54.2088 128.774Z" fill="black"/>
<path d="M53.8313 128.554L54.0972 128.71C54.1101 128.716 54.1243 128.719 54.1387 128.719C54.153 128.719 54.1672 128.716 54.1801 128.71L54.4346 128.56C54.4603 128.546 54.4632 128.525 54.4346 128.511L54.1687 128.358C54.156 128.351 54.1417 128.348 54.1272 128.348C54.1127 128.348 54.0985 128.351 54.0858 128.358L53.8313 128.505C53.8113 128.52 53.8084 128.543 53.8313 128.554Z" fill="black"/>
<path d="M53.454 128.35L53.7199 128.506C53.7333 128.512 53.748 128.515 53.7628 128.515C53.7777 128.515 53.7923 128.512 53.8057 128.506L54.0573 128.356C54.0831 128.356 54.0859 128.321 54.0573 128.307L53.7914 128.151C53.7785 128.145 53.7643 128.142 53.75 128.142C53.7356 128.142 53.7214 128.145 53.7085 128.151L53.454 128.298C53.4369 128.301 53.4369 128.324 53.454 128.35Z" fill="black"/>
<path d="M53.0766 128.117L53.3425 128.272C53.3559 128.279 53.3706 128.282 53.3854 128.282C53.4003 128.282 53.4149 128.279 53.4283 128.272L53.6799 128.125C53.7057 128.111 53.7085 128.088 53.6799 128.076L53.414 127.921C53.4006 127.914 53.386 127.911 53.3711 127.911C53.3563 127.911 53.3416 127.914 53.3282 127.921L53.0738 128.068C53.0566 128.082 53.0537 128.105 53.0766 128.117Z" fill="black"/>
<path d="M57.597 130.746L58.0459 131.005C58.0586 131.012 58.0729 131.016 58.0874 131.016C58.1019 131.016 58.1161 131.012 58.1288 131.005L58.3833 130.858C58.409 130.844 58.4119 130.821 58.3833 130.809L57.9373 130.547C57.9239 130.541 57.9092 130.538 57.8944 130.538C57.8796 130.538 57.8649 130.541 57.8515 130.547L57.5999 130.694C57.5799 130.711 57.577 130.735 57.597 130.746Z" fill="black"/>
<path d="M53.0452 127.699L53.3111 127.855C53.334 127.855 53.334 127.887 53.3111 127.898L53.0424 128.056C53.0303 128.062 53.0171 128.065 53.0038 128.065C52.9904 128.065 52.9772 128.062 52.9652 128.056L52.9423 128.042C52.9312 128.036 52.9189 128.034 52.9065 128.034C52.8941 128.034 52.8819 128.036 52.8708 128.042L52.5849 128.209C52.5723 128.215 52.5587 128.218 52.5448 128.218C52.531 128.218 52.5174 128.215 52.5048 128.209L52.3361 128.111C52.3133 128.097 52.3133 128.077 52.3361 128.065L52.602 127.91L52.6564 127.878L52.6964 127.855L52.7364 127.832L52.9652 127.699C52.9774 127.693 52.9912 127.689 53.0052 127.689C53.0192 127.689 53.033 127.693 53.0452 127.699Z" fill="black"/>
<path d="M56.6848 131.486L56.9507 131.642C56.9636 131.648 56.9778 131.652 56.9922 131.652C57.0065 131.652 57.0207 131.648 57.0336 131.642L57.2881 131.492C57.3138 131.492 57.3167 131.458 57.2881 131.443L57.0222 131.291C57.009 131.283 56.9943 131.28 56.9793 131.28C56.9643 131.28 56.9496 131.283 56.9364 131.291L56.6848 131.437C56.6648 131.452 56.6619 131.475 56.6848 131.486Z" fill="black"/>
<path d="M56.296 131.268L56.5619 131.423C56.5751 131.43 56.5899 131.434 56.6048 131.434C56.6198 131.434 56.6345 131.43 56.6477 131.423L56.9022 131.276C56.9251 131.276 56.9279 131.239 56.9022 131.227L56.6363 131.072C56.6229 131.065 56.6082 131.062 56.5934 131.062C56.5785 131.062 56.5639 131.065 56.5505 131.072L56.296 131.219C56.296 131.23 56.296 131.256 56.296 131.268Z" fill="black"/>
<path d="M55.933 131.051L56.1989 131.204C56.2121 131.211 56.2268 131.215 56.2418 131.215C56.2567 131.215 56.2714 131.211 56.2847 131.204L56.5363 131.057C56.562 131.043 56.5649 131.019 56.5363 131.008L56.2704 130.852C56.2575 130.846 56.2433 130.843 56.2289 130.843C56.2145 130.843 56.2003 130.846 56.1874 130.852L55.933 131.002C55.913 131.017 55.9101 131.037 55.933 131.051Z" fill="black"/>
<path d="M52.7363 129.191L53.0022 129.346C53.0156 129.353 53.0303 129.356 53.0451 129.356C53.06 129.356 53.0746 129.353 53.088 129.346L53.3396 129.197C53.3654 129.182 53.3682 129.162 53.3396 129.148L53.0737 128.995C53.0605 128.988 53.0458 128.984 53.0308 128.984C53.0159 128.984 53.0012 128.988 52.9879 128.995L52.7335 129.142C52.7163 129.156 52.7163 129.179 52.7363 129.191Z" fill="black"/>
<path d="M52.3618 128.972L52.6277 129.128C52.6404 129.135 52.6547 129.138 52.6692 129.138C52.6837 129.138 52.6979 129.135 52.7106 129.128L52.9651 128.981C52.9908 128.966 52.9937 128.943 52.9651 128.932L52.6992 128.776C52.6863 128.77 52.6721 128.767 52.6577 128.767C52.6434 128.767 52.6292 128.77 52.6163 128.776L52.3618 128.923C52.3418 128.926 52.3389 128.961 52.3618 128.972Z" fill="black"/>
<path d="M51.9873 128.756L52.2532 128.908C52.2659 128.916 52.2802 128.919 52.2947 128.919C52.3092 128.919 52.3234 128.916 52.3361 128.908L52.5906 128.762C52.6163 128.747 52.6192 128.724 52.5906 128.713L52.3247 128.557C52.3113 128.551 52.2966 128.547 52.2818 128.547C52.267 128.547 52.2523 128.551 52.2389 128.557L51.9873 128.707C51.9673 128.721 51.9644 128.741 51.9873 128.756Z" fill="black"/>
<path d="M51.6099 128.537L51.8758 128.693C51.8892 128.699 51.9039 128.702 51.9187 128.702C51.9335 128.702 51.9482 128.699 51.9616 128.693L52.2161 128.546C52.2389 128.531 52.2418 128.508 52.2161 128.497L51.9502 128.341C51.9369 128.334 51.9222 128.331 51.9073 128.331C51.8923 128.331 51.8776 128.334 51.8644 128.341L51.6099 128.488C51.5928 128.503 51.5899 128.523 51.6099 128.537Z" fill="black"/>
<path d="M55.4611 130.775L55.8242 130.988C55.8372 130.995 55.8513 130.998 55.8657 130.998C55.8801 130.998 55.8943 130.995 55.9072 130.988L56.1616 130.841C56.1874 130.827 56.1902 130.804 56.1616 130.792L55.7985 130.582C55.7858 130.575 55.7716 130.571 55.7571 130.571C55.7426 130.571 55.7283 130.575 55.7156 130.582L55.4611 130.729C55.4383 130.74 55.4383 130.764 55.4611 130.775Z" fill="black"/>
<path d="M53.1109 129.41L53.474 129.62C53.4872 129.627 53.502 129.631 53.5169 129.631C53.5319 129.631 53.5466 129.627 53.5598 129.62L53.8143 129.473C53.8372 129.459 53.84 129.436 53.8143 129.424L53.4569 129.214C53.4435 129.207 53.4288 129.204 53.414 129.204C53.3992 129.204 53.3845 129.207 53.3711 129.214L53.1195 129.361C53.0938 129.375 53.0909 129.398 53.1109 129.41Z" fill="black"/>
<path d="M53.5826 129.683L55.3525 130.711C55.3652 130.718 55.3794 130.722 55.3939 130.722C55.4084 130.722 55.4227 130.718 55.4354 130.711L55.6899 130.564C55.7156 130.55 55.7185 130.527 55.6899 130.515L53.9229 129.487C53.9097 129.48 53.8949 129.477 53.88 129.477C53.865 129.477 53.8503 129.48 53.8371 129.487L53.5855 129.634C53.5655 129.649 53.5626 129.672 53.5826 129.683Z" fill="black"/>
<path d="M56.7536 130.68L57.0195 130.833C57.0327 130.84 57.0474 130.844 57.0624 130.844C57.0773 130.844 57.0921 130.84 57.1053 130.833L57.3597 130.686C57.3826 130.671 57.3855 130.648 57.3597 130.637L57.0938 130.481C57.0804 130.475 57.0658 130.472 57.0509 130.472C57.0361 130.472 57.0215 130.475 57.0081 130.481L56.7536 130.631C56.7364 130.654 56.7336 130.654 56.7536 130.68Z" fill="black"/>
<path d="M56.379 130.461L56.6449 130.617C56.6578 130.623 56.672 130.626 56.6864 130.626C56.7008 130.626 56.7149 130.623 56.7278 130.617L56.9823 130.47C57.008 130.47 57.0109 130.432 56.9823 130.421L56.7164 130.265C56.7037 130.258 56.6894 130.254 56.6749 130.254C56.6604 130.254 56.6462 130.258 56.6335 130.265L56.379 130.412C56.359 130.426 56.3561 130.447 56.379 130.461Z" fill="black"/>
<path d="M56.0101 130.242L56.276 130.398C56.2894 130.404 56.3041 130.407 56.3189 130.407C56.3338 130.407 56.3484 130.404 56.3618 130.398L56.6163 130.251C56.6392 130.236 56.642 130.213 56.6163 130.202L56.3504 130.046C56.337 130.04 56.3223 130.037 56.3075 130.037C56.2927 130.037 56.278 130.04 56.2646 130.046L56.0101 130.193C55.9844 130.208 55.9815 130.231 56.0101 130.242Z" fill="black"/>
<path d="M55.6271 130.023L55.893 130.179C55.9057 130.186 55.9199 130.19 55.9344 130.19C55.9489 130.19 55.9632 130.186 55.9759 130.179L56.2304 130.032C56.2561 130.018 56.2589 129.997 56.2304 129.983L55.9645 129.828C55.9515 129.821 55.9374 129.818 55.923 129.818C55.9086 129.818 55.8944 129.821 55.8815 129.828L55.6271 129.974C55.607 129.989 55.6042 130.012 55.6271 130.023Z" fill="black"/>
<path d="M55.2497 129.804L55.5156 129.96C55.529 129.966 55.5436 129.969 55.5585 129.969C55.5733 129.969 55.588 129.966 55.6014 129.96L55.8558 129.81C55.8787 129.796 55.8816 129.775 55.8558 129.761L55.5899 129.608C55.5767 129.601 55.562 129.598 55.547 129.598C55.5321 129.598 55.5174 129.601 55.5041 129.608L55.2497 129.755C55.2325 129.77 55.2297 129.79 55.2497 129.804Z" fill="black"/>
<path d="M54.8665 129.586L55.1324 129.741C55.1453 129.747 55.1595 129.751 55.1738 129.751C55.1882 129.751 55.2024 129.747 55.2153 129.741L55.4698 129.591C55.4955 129.577 55.4983 129.557 55.4698 129.542L55.2038 129.39C55.1911 129.383 55.1769 129.379 55.1624 129.379C55.1479 129.379 55.1336 129.383 55.1209 129.39L54.8665 129.537C54.8665 129.551 54.8665 129.574 54.8665 129.586Z" fill="black"/>
<path d="M54.4976 129.367L54.7635 129.522C54.7769 129.529 54.7916 129.532 54.8064 129.532C54.8212 129.532 54.8359 129.529 54.8493 129.522L55.1038 129.373C55.1266 129.358 55.1295 129.338 55.1038 129.324L54.8378 129.171C54.8246 129.164 54.8099 129.16 54.795 129.16C54.78 129.16 54.7653 129.164 54.7521 129.171L54.4976 129.318C54.4804 129.332 54.4776 129.355 54.4976 129.367Z" fill="black"/>
<path d="M54.1232 129.148L54.3891 129.303C54.402 129.309 54.4162 129.313 54.4305 129.313C54.4449 129.313 54.4591 129.309 54.472 129.303L54.7264 129.156C54.7522 129.142 54.755 129.119 54.7264 129.104L54.4605 128.952C54.4478 128.945 54.4336 128.941 54.4191 128.941C54.4046 128.941 54.3903 128.945 54.3776 128.952L54.1232 129.099C54.1031 129.113 54.1003 129.136 54.1232 129.148Z" fill="black"/>
<path d="M53.7455 128.926L54.0115 129.081C54.0249 129.088 54.0395 129.091 54.0543 129.091C54.0692 129.091 54.0838 129.088 54.0972 129.081L54.3517 128.934C54.3746 128.934 54.3774 128.897 54.3517 128.886L54.0858 128.73C54.0726 128.723 54.0579 128.719 54.0429 128.719C54.028 128.719 54.0132 128.723 54 128.73L53.7455 128.877C53.7227 128.894 53.7227 128.926 53.7455 128.926Z" fill="black"/>
<path d="M53.3711 128.713L53.637 128.865C53.6497 128.872 53.6639 128.876 53.6784 128.876C53.6929 128.876 53.7072 128.872 53.7199 128.865L53.9744 128.719C54.0001 128.719 54.003 128.681 53.9744 128.67L53.7085 128.514C53.6956 128.508 53.6814 128.504 53.667 128.504C53.6526 128.504 53.6385 128.508 53.6256 128.514L53.3711 128.661C53.3511 128.675 53.3482 128.698 53.3711 128.713Z" fill="black"/>
<path d="M52.9937 128.494L53.2596 128.647C53.2728 128.654 53.2875 128.657 53.3025 128.657C53.3174 128.657 53.3322 128.654 53.3454 128.647L53.5998 128.5C53.6227 128.485 53.6256 128.462 53.5998 128.451L53.3339 128.295C53.3205 128.289 53.3059 128.286 53.2911 128.286C53.2762 128.286 53.2616 128.289 53.2482 128.295L52.9937 128.442C52.9765 128.46 52.9737 128.48 52.9937 128.494Z" fill="black"/>
<path d="M52.6191 128.275L52.885 128.428C52.8977 128.435 52.912 128.439 52.9265 128.439C52.941 128.439 52.9553 128.435 52.968 128.428L53.2224 128.281C53.2482 128.267 53.251 128.244 53.2224 128.232L52.9565 128.077C52.9436 128.07 52.9294 128.067 52.9151 128.067C52.9007 128.067 52.8865 128.07 52.8736 128.077L52.6191 128.226C52.5991 128.241 52.5963 128.261 52.6191 128.275Z" fill="black"/>
<path d="M57.131 130.899L57.6799 131.23C57.6931 131.237 57.7079 131.241 57.7228 131.241C57.7378 131.241 57.7525 131.237 57.7657 131.23L58.0173 131.083C58.0431 131.068 58.0459 131.048 58.0173 131.034L57.4684 130.714C57.4554 130.708 57.4413 130.705 57.4269 130.705C57.4125 130.705 57.3983 130.708 57.3854 130.714L57.131 130.864C57.111 130.864 57.1081 130.884 57.131 130.899Z" fill="black"/>
<path d="M56.5819 131L56.8478 131.155C56.8607 131.161 56.8749 131.165 56.8893 131.165C56.9036 131.165 56.9178 131.161 56.9307 131.155L57.1852 131.005C57.2109 131.005 57.2138 130.971 57.1852 130.956L56.9193 130.804C56.9066 130.797 56.8923 130.793 56.8778 130.793C56.8633 130.793 56.8491 130.797 56.8364 130.804L56.5819 130.942C56.5562 130.965 56.5533 130.988 56.5819 131Z" fill="black"/>
<path d="M56.199 130.781L56.4649 130.936C56.4783 130.943 56.4929 130.946 56.5078 130.946C56.5226 130.946 56.5372 130.943 56.5506 130.936L56.8051 130.787C56.828 130.772 56.8309 130.752 56.8051 130.738L56.5392 130.585C56.526 130.578 56.5113 130.574 56.4963 130.574C56.4814 130.574 56.4666 130.578 56.4534 130.585L56.2018 130.732C56.1818 130.746 56.1789 130.769 56.199 130.781Z" fill="black"/>
<path d="M55.8242 130.562L56.0901 130.717C56.103 130.723 56.1172 130.727 56.1316 130.727C56.1459 130.727 56.1601 130.723 56.173 130.717L56.4275 130.57C56.4532 130.553 56.4561 130.533 56.4275 130.518L56.1616 130.366C56.1489 130.359 56.1346 130.355 56.1201 130.355C56.1056 130.355 56.0914 130.359 56.0787 130.366L55.8242 130.513C55.8042 130.527 55.8013 130.55 55.8242 130.562Z" fill="black"/>
<path d="M55.4382 130.343L55.7041 130.498C55.7175 130.505 55.7322 130.508 55.747 130.508C55.7619 130.508 55.7765 130.505 55.7899 130.498L56.0444 130.351C56.0701 130.337 56.0701 130.314 56.0444 130.302L55.7785 130.147C55.7653 130.14 55.7505 130.136 55.7356 130.136C55.7206 130.136 55.7059 130.14 55.6927 130.147L55.4411 130.294C55.4382 130.308 55.4382 130.331 55.4382 130.343Z" fill="black"/>
<path d="M55.0724 130.124L55.3383 130.279C55.3515 130.287 55.3662 130.29 55.3812 130.29C55.3961 130.29 55.4109 130.287 55.4241 130.279L55.6757 130.133C55.7014 130.118 55.7043 130.095 55.6757 130.084L55.4098 129.928C55.3969 129.922 55.3827 129.918 55.3683 129.918C55.3539 129.918 55.3398 129.922 55.3268 129.928L55.0724 130.075C55.0524 130.078 55.0495 130.112 55.0724 130.124Z" fill="black"/>
<path d="M54.6949 129.908L54.9608 130.061C54.974 130.068 54.9888 130.072 55.0037 130.072C55.0187 130.072 55.0334 130.068 55.0466 130.061L55.3011 129.914C55.3268 129.9 55.3297 129.876 55.3011 129.865L55.0352 129.709C55.0218 129.703 55.0071 129.7 54.9923 129.7C54.9775 129.7 54.9628 129.703 54.9494 129.709L54.6978 129.859C54.6778 129.874 54.6749 129.894 54.6949 129.908Z" fill="black"/>
<path d="M54.3203 129.689L54.5862 129.842C54.5994 129.849 54.6142 129.853 54.6291 129.853C54.6441 129.853 54.6588 129.849 54.672 129.842L54.9236 129.695C54.9494 129.681 54.9522 129.658 54.9236 129.646L54.6577 129.491C54.6448 129.484 54.6306 129.481 54.6163 129.481C54.6019 129.481 54.5877 129.484 54.5748 129.491L54.3203 129.64C54.2946 129.655 54.2946 129.675 54.3203 129.689Z" fill="black"/>
<path d="M53.9458 129.47L54.2117 129.623C54.2244 129.63 54.2387 129.634 54.2532 129.634C54.2677 129.634 54.2819 129.63 54.2946 129.623L54.5491 129.476C54.5748 129.476 54.5777 129.438 54.5491 129.427L54.2832 129.271C54.2698 129.265 54.2551 129.262 54.2403 129.262C54.2255 129.262 54.2108 129.265 54.1974 129.271L53.9458 129.421C53.9258 129.436 53.9229 129.456 53.9458 129.47Z" fill="black"/>
<path d="M53.5684 129.252L53.8343 129.407C53.8478 129.413 53.8624 129.417 53.8772 129.417C53.8921 129.417 53.9067 129.413 53.9201 129.407L54.1717 129.26C54.1975 129.246 54.2003 129.223 54.1717 129.211L53.9058 129.056C53.8926 129.049 53.8779 129.045 53.8629 129.045C53.848 129.045 53.8333 129.049 53.8201 129.056L53.5656 129.203C53.5484 129.214 53.5456 129.237 53.5684 129.252Z" fill="black"/>
<path d="M53.1938 129.033L53.4597 129.188C53.4727 129.195 53.4868 129.198 53.5012 129.198C53.5156 129.198 53.5298 129.195 53.5427 129.188L53.7971 129.041C53.8229 129.027 53.8257 129.004 53.7971 128.992L53.5312 128.837C53.5178 128.83 53.5032 128.827 53.4883 128.827C53.4735 128.827 53.4589 128.83 53.4454 128.837L53.1938 128.984C53.1738 128.998 53.171 129.021 53.1938 129.033Z" fill="black"/>
<path d="M52.8164 128.814L53.0823 128.969C53.0957 128.975 53.1104 128.979 53.1252 128.979C53.14 128.979 53.1547 128.975 53.1681 128.969L53.4197 128.819C53.4454 128.805 53.4483 128.785 53.4197 128.77L53.1538 128.618C53.1406 128.611 53.1259 128.607 53.1109 128.607C53.096 128.607 53.0812 128.611 53.068 128.618L52.8136 128.765C52.7964 128.779 52.7964 128.802 52.8164 128.814Z" fill="black"/>
<path d="M51.9758 128.324L52.7078 128.751C52.7207 128.757 52.7349 128.76 52.7492 128.76C52.7636 128.76 52.7778 128.757 52.7907 128.751L53.0452 128.601C53.0709 128.586 53.0738 128.566 53.0452 128.552L52.3132 128.128C52.3005 128.121 52.2862 128.118 52.2717 128.118C52.2572 128.118 52.243 128.121 52.2303 128.128L51.9758 128.275C51.9558 128.29 51.9529 128.313 51.9758 128.324Z" fill="black"/>
<path d="M56.9508 131.23L57.3139 131.44C57.3272 131.447 57.3419 131.451 57.3568 131.451C57.3718 131.451 57.3865 131.447 57.3997 131.44L57.6513 131.293C57.6771 131.279 57.6799 131.256 57.6513 131.244L57.2882 131.031C57.2748 131.025 57.2602 131.021 57.2453 131.021C57.2305 131.021 57.2158 131.025 57.2024 131.031L56.948 131.178C56.9337 131.184 56.9308 131.207 56.9508 131.23Z" fill="black"/>
<path d="M59.7072 130.467L53.6742 126.956V122.178L53.7199 122.069L53.7714 122.046C53.8344 122.009 53.9059 121.99 53.9787 121.99C54.0515 121.99 54.123 122.009 54.186 122.046L59.7072 125.257C59.7704 125.294 59.823 125.347 59.8596 125.41C59.8963 125.474 59.9157 125.546 59.9159 125.62V130.104C59.8787 130.334 59.8358 130.392 59.7072 130.467Z" fill="#E5E5E5"/>
<path d="M59.1553 125.833L53.6742 122.337V122.178L53.7199 122.069L53.7714 122.046C53.8344 122.009 53.9059 121.99 53.9787 121.99C54.0515 121.99 54.123 122.009 54.186 122.046L59.7071 125.257C59.7746 125.296 59.8301 125.352 59.8673 125.421L59.1553 125.833Z" fill="#E5E5E5"/>
<path d="M53.8143 122.069L59.6071 125.438C59.6375 125.456 59.6627 125.482 59.6802 125.513C59.6978 125.543 59.7071 125.578 59.7072 125.614V130.467L53.6742 126.956V122.149C53.6746 122.133 53.6792 122.117 53.6875 122.103C53.6959 122.089 53.7076 122.077 53.7217 122.069C53.7358 122.061 53.7517 122.057 53.7679 122.057C53.7841 122.057 53.8001 122.061 53.8143 122.069Z" fill="#DCEEFF"/>
<path d="M53.8143 122.069L59.6071 125.438C59.6375 125.456 59.6627 125.482 59.6802 125.513C59.6978 125.543 59.7071 125.578 59.7072 125.614V130.467L53.6742 126.956V122.149C53.6746 122.133 53.6792 122.117 53.6875 122.103C53.6959 122.089 53.7076 122.077 53.7217 122.069C53.7358 122.061 53.7517 122.057 53.7679 122.057C53.7841 122.057 53.8001 122.061 53.8143 122.069Z" fill="#F4F4F4"/>
<path d="M59.7072 130.467V130.291L53.6742 126.783V126.956L59.7072 130.467Z" fill="#DBDBDB"/>
<path d="M53.8314 126.703V122.319L53.9034 122.363V126.665L53.8314 126.703Z" fill="#1E3779"/>
<path d="M53.903 122.362V126.665L59.5156 129.919V125.625L53.903 122.362Z" fill="black"/>
<path d="M53.8314 126.702L59.5156 130.006V129.919L53.9029 126.665L53.8314 126.702Z" fill="#031F60"/>
<path d="M47.3353 121.308C47.1923 121.668 47.5555 122.109 48.5276 122.417C49.4997 122.725 49.5884 122.331 49.5884 122.331C50.2365 122.622 50.8684 122.949 51.4812 123.31C52.053 123.722 52.3218 124.911 52.4018 126.921C52.4933 129.246 52.499 132.681 52.4247 133.289C52.4247 133.289 51.3325 134.383 49.9372 134.268C48.5419 134.153 46.1916 132.909 45.6198 131.947C45.6369 129.908 45.8714 129.577 45.5454 128.402C44.7963 125.715 44.4017 124.614 44.7648 122.829C45.0651 121.357 45.4854 121.173 46.0629 121.187C46.4889 121.205 46.9136 121.245 47.3353 121.308Z" fill="#F4F4F4"/>
<path d="M54.6977 129.412C53.554 129.7 53.2824 128.975 53.1308 128.373C52.7677 126.913 52.559 125.596 52.2988 124.767C51.9786 123.791 51.6441 123.635 51.1723 123.445C50.6204 123.22 50.143 123.693 50.3288 124.934C50.5538 126.377 50.905 127.798 51.3781 129.179C51.5211 129.634 51.8413 130.441 52.3188 130.832C52.9107 131.313 53.7999 131.293 55.1466 130.953C55.7184 130.809 56.3532 130.464 57.434 129.954C57.7199 129.816 57.9515 129.726 58.5119 129.461C59.0718 129.207 59.5622 128.819 59.9415 128.332C60.2274 127.906 60.2732 127.705 60.2274 127.607C60.1817 127.509 60.0187 127.512 59.8615 127.69C59.637 127.996 59.3577 128.257 59.038 128.459C59.038 128.459 59.4011 128.082 59.5955 127.837C59.7725 127.621 59.9188 127.382 60.0301 127.126C60.1331 126.875 59.9186 126.535 59.7442 126.714C59.5698 126.892 59.5041 127.074 59.2067 127.431C59.0511 127.622 58.8736 127.793 58.6777 127.941C58.8615 127.69 59.025 127.426 59.1667 127.149C59.2925 126.932 59.3541 126.683 59.3439 126.432C59.3439 126.302 59.1524 126.144 58.9808 126.394C58.8144 126.734 58.608 127.052 58.3661 127.342C58.103 127.615 57.8829 127.771 57.8743 127.696C57.8657 127.621 58.0344 127.471 58.1259 127.152C58.2174 126.832 58.1259 126.495 57.9515 126.46C57.7771 126.426 57.8114 126.432 57.6656 126.731C57.4749 127.038 57.3039 127.356 57.1538 127.684C57.064 127.991 56.9021 128.272 56.682 128.502C56.4104 128.802 55.7871 129.136 54.6977 129.412Z" fill="#FFCEA9"/>
<path d="M50.7492 123.246C51.5126 123.131 52.053 123.48 52.3933 124.646C52.7335 125.812 52.9651 126.774 52.9651 126.774C52.6623 127.217 52.2031 127.526 51.6813 127.638C50.7664 127.863 50.4376 127.422 50.4376 127.422C50.4376 127.422 50.1831 126.198 50.0258 125.366C49.8686 124.534 49.8028 123.388 50.7492 123.246Z" fill="#EDEDED"/>
<path d="M51.1265 117.268C51.1265 117.268 52.3359 115.416 49.714 115.039C47.8241 114.765 46.6118 115.989 46.4717 117.317C46.3373 118.584 47.1121 119.909 47.6726 120.421C48.2224 120.561 48.8042 120.49 49.3052 120.223C49.3352 119.878 49.3467 119.532 49.3395 119.186C49.3395 119.186 48.4188 117.233 51.1265 117.268Z" fill="black"/>
<path d="M56.3704 140.694V135.132L51.9872 137.71L53.6741 141.226L56.3704 140.694Z" fill="#D5D6E0"/>
<path d="M53.4969 135.452L55.1782 134.47L56.3705 135.161L54.6263 136.157L53.4969 135.452Z" fill="#E9EAF4"/>
<path d="M92.369 117.254C93.0149 117.254 93.5384 116.95 93.5384 116.574C93.5384 116.199 93.0149 115.895 92.369 115.895C91.7232 115.895 91.1996 116.199 91.1996 116.574C91.1996 116.95 91.7232 117.254 92.369 117.254Z" fill="#D5D6E0"/>
</g>
<defs>
<linearGradient id="paint0_linear" x1="92.3689" y1="116.574" x2="92.3689" y2="87.9961" gradientUnits="userSpaceOnUse">
<stop stop-color="#E9EAF4"/>
<stop offset="0.63" stop-color="#E9EAF4" stop-opacity="0"/>
</linearGradient>
<clipPath id="clip0">
<rect x="25" y="14" width="110" height="144" rx="20" fill="white"/>
</clipPath>
</defs>
</svg>
