<svg width="160" height="160" viewBox="0 0 160 160" fill="none" xmlns="http://www.w3.org/2000/svg">
<circle opacity="0.2" cx="80" cy="80" r="80" fill="#106BFF"/>
<g clip-path="url(#clip0)">
<path opacity="0.4" d="M90.239 128.414L76.7777 120.586C76.1516 120.22 76.2288 119.584 76.955 119.163L90.0617 111.54C90.7879 111.119 91.883 111.073 92.5092 111.436L105.968 119.264C106.597 119.63 106.517 120.266 105.793 120.687L92.6836 128.31C91.9602 128.733 90.8651 128.777 90.239 128.414Z" fill="#D6D8E5"/>
<path opacity="0.4" d="M84.6645 124V124.002L58.2406 139.098L43 147.806L43.3377 148L58.5784 139.29L85 124.194L84.6645 124Z" fill="#D6D8E5"/>
<path d="M107.346 118.363L106.682 118.567L93.4641 110.877C92.8379 110.515 91.7486 110.561 91.0195 110.981L77.9099 118.604L77.8785 118.625L77.3066 118.449V119.313C77.3066 119.345 77.3066 119.376 77.3066 119.411V119.48C77.3303 119.595 77.3797 119.703 77.451 119.796C77.5224 119.889 77.6138 119.964 77.7184 120.016L91.1796 127.843C91.8058 128.206 92.8951 128.163 93.6271 127.74L106.774 120.128C106.927 120.059 107.06 119.954 107.164 119.822C107.268 119.689 107.338 119.533 107.369 119.368L107.346 118.363Z" fill="#D5D6E0"/>
<path d="M91.2055 126.936L77.7443 119.12C77.1181 118.757 77.1982 118.121 77.9216 117.7L91.0311 110.077C91.7545 109.653 92.8496 109.607 93.4758 109.973L106.937 117.801C107.563 118.167 107.486 118.803 106.76 119.224L93.653 126.847C92.9268 127.256 91.8317 127.302 91.2055 126.936Z" fill="#E9EAF4"/>
<path d="M98.0189 117.752V116.6L96.3891 117.032L92.7636 114.915C92.6169 114.848 92.4566 114.817 92.2956 114.824C92.1346 114.831 91.9776 114.876 91.8372 114.956L88.3118 117.006L86.6449 116.563V117.804V118.092C86.6434 118.103 86.6434 118.115 86.6449 118.126V118.155C86.6539 118.199 86.6727 118.24 86.7 118.275C86.7273 118.31 86.7622 118.338 86.8021 118.357L91.9058 121.349C92.0525 121.416 92.2126 121.448 92.3734 121.441C92.5343 121.435 92.6914 121.39 92.8322 121.312L97.8016 118.432C97.8592 118.406 97.9096 118.366 97.9484 118.316C97.9873 118.265 98.0134 118.206 98.0246 118.144V117.764L98.0189 117.752Z" fill="#D5D6E0"/>
<path d="M91.9058 119.791L86.7964 116.816C86.5591 116.678 86.5877 116.436 86.8622 116.277L91.8315 113.397C91.9728 113.317 92.131 113.272 92.2931 113.266C92.4551 113.259 92.6164 113.291 92.7636 113.36L97.8645 116.326C98.1018 116.465 98.0732 116.707 97.7987 116.868L92.8294 119.748C92.6894 119.827 92.533 119.872 92.3727 119.879C92.2124 119.887 92.0525 119.857 91.9058 119.791Z" fill="#E9EAF4"/>
<path d="M92.3291 116.574L61.907 89.145L122.834 87.9958L92.3291 116.574Z" fill="url(#paint0_linear)"/>
<path d="M91.7372 101.16C115.632 101.16 135.003 81.6488 135.003 57.5802C135.003 33.5115 115.632 14 91.7372 14C67.8422 14 48.4714 33.5115 48.4714 57.5802C48.4714 81.6488 67.8422 101.16 91.7372 101.16Z" fill="#E9EAF4"/>
<path d="M80.3576 31.6573L80.5034 31.1417V30.0243C80.2973 30.0492 80.089 30.0492 79.8829 30.0243C79.7743 29.9753 79.8486 29.6701 79.8486 29.6701L80.3576 29.2294L79.3368 29.4483L78.9708 30.0243L77.8271 30.7357L78.3389 31.0237L78.6678 31.2425L79.1595 31.3174V30.992C79.1595 30.992 79.7314 30.8451 79.8715 31.064L79.8 31.4701L80.3576 31.6573ZM67.7141 47.5693C67.5666 47.5025 67.4068 47.468 67.2452 47.468C67.0835 47.468 66.9237 47.5025 66.7762 47.5693C66.7787 47.7702 66.7039 47.9643 66.5674 48.1108C66.431 48.2574 66.2435 48.3451 66.0443 48.3555L66.8792 48.8249L67.7141 48.511L68.8063 48.1453L69.7413 48.8249C70.4446 47.9609 69.7413 47.4627 69.7413 47.4627L67.7141 47.5693ZM85.4698 63.5907L84.6607 63.4179L83.2539 62.5165H82.0188L80.9523 61.9606H80.5262C80.5262 61.9606 80.612 61.3587 80.4834 61.3155C80.3547 61.2723 79.4197 60.7136 79.4197 60.7136L78.6935 60.9728V60.4573L78.1817 60.2413H77.7557L77.7986 59.8121C77.7986 59.8121 78.1817 59.0489 77.9701 58.9165C77.7585 58.784 76.9894 57.0646 76.9894 57.0646L75.8457 56.4195H74.6105L73.544 55.3913L72.4804 54.5273L71.8828 53.3264L71.2424 52.8973C71.2424 52.8973 70.519 53.3696 70.3474 53.3264C70.1759 53.2832 69.1122 52.8973 69.1122 52.8973L68.2173 52.6409L67.0993 53.168V54.32L66.6733 54.032V53.6L67.0565 52.8713L67.228 52.3558L66.8449 52.1859L66.3331 52.7849L65.055 53.168L64.7977 53.7267L64.2001 54.2854L64.0314 54.7577L63.0936 53.9859C62.7774 54.1526 62.4496 54.296 62.1129 54.415C61.7673 54.2302 61.4391 54.0143 61.1321 53.7699L60.6632 52.8685L60.9206 51.6675L61.1321 50.4205L60.323 49.9049H59.2136L58.3558 49.6486L58.7561 49.0035L59.225 48.0589L59.6511 47.3734C59.6511 47.3734 59.7712 47.0595 59.9084 46.9875C60.4516 46.6995 59.9084 46.4288 59.9084 46.4288C59.9084 46.4288 58.7647 46.3424 58.5874 46.4288C58.4102 46.5152 57.947 46.7715 57.947 46.7715V47.7593L57.0892 48.1453L55.7682 48.4333L54.8733 47.5289C54.7446 47.4022 54.4473 45.9853 54.4473 45.9853L54.9991 45.4697L55.2564 45.0406L55.2993 44.0096L55.8512 43.5373L56.0656 42.9785L56.7004 42.512L57.3094 41.9504L57.8641 41.7805L58.6303 41.9504C58.6732 41.6624 60.08 41.7805 60.08 41.7805L60.6346 41.7517L60.5918 41.4377C60.8491 41.2217 61.7011 41.4377 61.7011 41.4377L62.8448 41.3398C63.0964 41.3945 63.308 41.9158 63.308 41.9158L62.7962 42.3881L63.1393 43.4163L63.4796 43.8886L63.3509 44.3609L64.1715 44.24L64.2115 43.4221L64.2544 42.4342L64.1286 41.3513L64.8949 39.6867L68.0057 37.6707L67.9628 36.9392L68.1744 35.888L68.7291 36.0809L69.7098 34.9088L70.9879 34.4825L71.7542 33.9584L72.1373 33.1837L73.544 32.7545L74.9508 32.0259L74.3046 32.72L74.2188 33.3219L74.9851 33.1491L75.6684 32.7632L76.2631 32.5933L76.8178 32.4205L76.9894 32.0345H76.6063L76.0087 31.8185C75.6255 31.5305 75.1509 31.1763 75.1509 31.1763C75.142 31.1061 75.1487 31.0349 75.1705 30.9677C75.1922 30.9004 75.2285 30.8389 75.2767 30.7875L75.6627 30.439C75.6627 30.439 75.8314 30.2317 75.7056 30.2317C75.5798 30.2317 74.6391 30.0243 74.6391 30.0243L73.6155 30.439H73.0351L73.7613 29.8025H74.5705L75.4654 29.5865H77.3239L78.3475 29.3705L79.0766 28.976L79.9716 28.8838L80.2289 27.919L79.6313 27.4035L78.7735 26.9571L78.602 25.9433L78.1331 24.9123H77.7071L77.6642 25.471H76.9837L76.8121 25.8137L76.5576 25.9865L76.1316 26.0729L75.7456 25.6841L76.2574 25.1283L75.6627 24.5696L74.9365 24.1837H74.1788L73.6241 24.3536L72.8578 25.255L72.2602 25.7705L72.4318 26.2429L72.2145 26.96L72.3432 27.248L71.6169 27.5072L70.8078 27.6771L70.4675 27.5907L70.2102 27.9363L70.6791 28.9011L70.2102 29.2237H69.5726L69.0322 28.5238L68.9035 28.1264L69.2866 27.9133L69.0007 27.3977L68.1058 27.3545L66.9135 26.6086H66.3588L66.2301 26.1507L65.847 25.9808L66.4017 25.3357L67.2109 24.8633L68.6176 24.3478L69.1294 24.1779L70.2359 23.9187L70.9793 23.504L71.6598 22.9021H72.5547L73.6212 22.6313H74.3046L74.5905 21.8307H73.2267L72.7149 22.2253H71.8199C71.6299 22.0363 71.3944 21.9004 71.1366 21.8307V21.5139L71.6055 21.0848L72.2145 20.624C72.4274 20.3499 72.5998 20.0463 72.7263 19.7225L73.9615 20.1517L74.8964 20.1027L75.5398 20.0653L76.3489 20.1085L76.8178 20.2813C76.6892 20.624 76.1802 20.3677 76.1802 20.3677L74.6448 20.5376L73.9615 20.912L74.1759 20.4397L73.4497 20.4829L72.5919 21.0387L73.1895 21.3411H74.5962L75.3625 21.6291L76.003 21.3728L76.6835 21.6291L77.4955 21.8883L76.5148 22.1965L75.657 22.6025L74.7992 22.7897L74.1187 23.0461L74.4047 23.648L76.1945 23.6048L77.3239 24.3046H78.2617L78.3046 23.9187L78.5162 23.5328L78.9451 23.4464L78.602 22.9741L78.4762 22.6169H78.9851L79.414 22.9309C79.7543 23.1901 80.4776 22.6169 80.4776 22.6169L81.5441 22.2109L80.2232 21.8163L79.7971 21.3872C79.923 21.128 78.3904 20.7421 78.3904 20.7421L77.1953 20.0134L76.9093 19.711H75.8943L76.7035 19.3683L78.7049 19.5814L79.7285 19.3683L82.0731 18.7664L83.6485 18.3805L84.7922 17.9513L83.4684 17.744C83.4684 17.744 82.5306 18.0032 82.4019 18.0032C82.2732 18.0032 81.1667 18.0896 81.0381 18.0896H78.053L77.1181 18.3027L77.9758 18.5187L77.464 18.8067H76.5691L76.0573 18.9795L76.7378 18.464L76.0144 18.2912L75.1195 18.5072L74.0101 19.1494L74.5219 19.3222L75.2481 19.0342L75.8428 19.1609L75.2052 19.3337L74.9479 19.6765L75.3739 19.8061L74.2302 19.8925L72.2288 19.5497L71.4196 20.5347L69.7984 21.6867L70.2245 22.0294L69.9385 22.2109L69.5554 22.4153L68.446 22.2109L66.9135 22.6169L64.1 23.3168L54.696 32.432L50.9447 37.3568L48.7717 50.4953L52.6059 49.208L53.2035 49.8502L54.2271 50.023L54.9105 50.4521L55.6339 50.1641L56.2314 50.7661L57.5524 51.4947L58.8305 51.6675L59.2136 52.9549C59.2136 52.9549 60.1085 53.7699 60.0714 53.9427C60.0342 54.1155 60.3573 54.8873 60.5403 54.8873C60.9668 55.0408 61.3807 55.2276 61.7783 55.4461L62.5017 55.5296L62.7876 54.8873H63.4281V55.5296L63.6854 55.8752L63.7683 56.8601L64.0257 57.5917L63.5997 58.064L62.9163 58.928L62.0585 60.1232L62.1443 61.2752L61.9299 62.047L62.5703 62.263L62.0156 63.0349C62.1288 63.3586 62.2243 63.6884 62.3016 64.0227C62.4339 64.3909 62.5905 64.7498 62.7705 65.0969L63.3681 65.6125L63.6254 66.4765L65.075 69.4803L66.0958 70.3443L67.5883 71.1161C67.5883 71.1161 68.5261 72.1472 68.569 72.2681C68.6119 72.3891 69.0808 74.2841 69.0808 74.2841L69.0608 75.344L69.3467 76.4585L69.4325 77.7056L69.5611 79.4336L69.9872 80.8073L70.3703 82.6102L69.9014 83.2121L70.1873 84.1021L70.5304 85.4009L71.1251 86.0461L71.0851 87.0771L71.2109 88.1053L73.8557 90.9392L74.3646 91.4979V90.1673L75.2224 89.6691V88.88L74.3646 88.4941V87.8921L74.7849 87.5062L75.2081 86.8179V86.2592C75.5598 86.1325 75.2081 85.7437 75.2081 85.7437H74.622L74.5791 85.1878H75.1338L75.3625 85.5305L75.8143 85.1878L75.474 84.4995C75.5598 84.2864 76.1574 84.4995 76.1574 84.4995L77.1781 83.8976L77.6041 83.3849V82.6966L77.1181 82.256L76.6892 81.5676H77.201C77.201 81.5676 77.9701 81.9565 78.2246 81.5676C78.479 81.1789 78.865 80.6662 78.865 80.6662L79.334 79.5517C79.334 79.5517 80.2289 77.9187 80.3147 77.7891C80.4004 77.6595 80.3147 76.0611 80.3147 76.0611L81.7214 74.9091H82.6592L83.4255 73.6189L84.0231 72.7721V71.3321L84.2347 69.9584L83.9001 68.6163L85.0924 67.0265L85.9874 66.1625L85.6471 64.5757L85.4698 63.5907ZM94.9682 29.8544L95.2541 30.0243L95.643 29.6845H96.1948L96.7037 29.5117L96.9325 29.1949L96.8238 28.7571L97.0411 28.5238C97.0668 28.1696 96.5093 27.9133 96.5093 27.9133H96.1948L95.8059 28.3654H95.3942L95.2484 28.8781L95.3084 29.264L94.9682 29.4771V29.8544ZM97.5415 26.6086L97.1069 26.8045V27.464L97.1555 27.6339C97.1873 27.7698 97.2036 27.909 97.2041 28.0486L97.5186 28.2675L97.8331 28.4633L97.9789 28.7513C97.9789 28.7513 97.9303 29.0393 97.7616 29.0393L97.3728 29.1632L97.5186 29.431C97.5186 29.431 97.2327 29.5779 97.2041 29.6989L97.47 29.8947L97.227 30.1395H96.6951V30.4275H97.8102L98.2706 30.1395L98.9482 30.2605C98.9482 30.2605 99.5058 30.1395 99.6259 30.1395L99.5286 30.0157L99.7002 29.7968L99.9661 29.48L99.6259 29.3417L99.2399 29.2208L99.2885 28.8061L98.9225 28.5181L98.3678 28.2128L98.3192 27.6512L98.3678 27.1645H97.796L97.6759 26.9197L98.0132 26.6029L97.5415 26.6086ZM100.715 28.7081V28.5238H101.104L101.321 28.3654V27.7549L101.607 27.608L101.51 27.1213L101.055 26.96L100.378 27.1789V27.536L99.9661 27.5849L99.8689 27.9133L100.155 28.0486L99.6945 28.3165L99.5715 28.5238L99.9604 28.8781L100.715 28.7081ZM125.133 43.5027L126.734 44.3667L127.56 44.0441L128.109 44.8275L129.576 45.1529L130.217 45.4755L132.004 40.7235L131.492 38.192L123.486 24.9958L121.096 23.216H118.211L116.927 23.4003L116.607 24.0483L115.923 23.792L115.6 23.216H114.957L115.243 23.504L115.475 23.9677H114.465V24.5408L113.745 24.4342L113.307 24.368L113.061 24.4918L113.29 24.6329L113.607 24.7049L113.322 24.8115L112.938 24.656L112.461 24.4947L112.318 24.175L111.966 23.887L111.56 23.8323L111.274 23.4953L111.898 23.5501L112.447 23.7977L112.904 23.8525C112.904 23.8525 113.19 23.7805 113.221 23.8323C113.44 23.9026 113.665 23.9508 113.893 23.9763L114.265 23.6883L113.636 23.216L112.521 22.8848C112.521 22.8848 110.648 22.6256 110.56 22.6313C110.291 22.5633 110.025 22.4815 109.765 22.3865L109.113 22.2253H107.683L105.51 22.6313L104.309 23.4003L102.88 24.6992C102.88 24.6992 101.644 24.8777 101.573 24.895C101.37 25.0652 101.179 25.2489 101.001 25.4451L101.287 26.0701L101.216 26.3581L101.41 26.5165L101.553 26.8045L101.747 27.0925L102.471 26.9859L103.248 26.5424L103.849 26.8621L104.309 27.6627L104.395 28.1437L104.944 28.2502L105.316 27.9305L105.705 27.8413L105.916 27.199L105.95 26.7008L106.482 26.5424V26.2141L106.288 26.0729L106.039 25.9117L105.95 25.3357L106.76 24.8201C106.76 24.8201 107.188 24.4285 107.188 24.3593C107.188 24.2902 107.4 24.0541 107.4 24.0541C107.4 24.0541 107.737 24.0742 107.843 24.0915C107.949 24.1088 108.512 24.3046 108.512 24.3046L108.727 24.4659L108.072 24.7856L107.686 25.1773L107.4 25.3731L107.666 25.9952L108.355 26.3523L108.973 26.2256L109.953 26.1766C109.953 26.1766 111.077 26.4041 111.129 26.4416C111.18 26.479 110.805 26.6 110.805 26.6L110.368 26.7238L110.122 26.8851L109.705 26.672C109.536 26.5533 109.338 26.4853 109.133 26.4761C108.96 26.51 108.796 26.5829 108.655 26.6893L108.921 27.0982L109.29 27.3488C109.29 27.3488 109.133 27.8096 109.027 27.7923C108.921 27.775 108.741 27.4553 108.741 27.4553L108.332 27.2941L108.069 27.4553L108.103 27.847L107.989 28.4L107.549 28.688L107.229 28.9385L106.805 28.688L106.259 28.8493L105.304 28.7945L105.093 28.9904L104.755 28.8493C104.755 28.8493 103.926 28.8838 103.872 28.9011C103.682 28.8369 103.499 28.7539 103.326 28.6534L103.114 28.1725L103.377 27.8528L103.254 27.7088L103.148 27.4438L103.326 27.2278L103.06 27.1587L102.619 27.6022L102.599 28.0313C102.599 28.0313 102.831 28.4403 102.848 28.4921C102.861 28.6165 102.867 28.7415 102.865 28.8665L102.425 29.0451L101.948 29.1862L102.036 29.3648L102.531 29.4541L102.371 29.7421L102.085 29.7593L101.945 30.1165L101.856 30.3123L101.467 30.2057L101.484 29.9552L101.501 29.6355L101.344 29.4742L101.113 29.7248L100.867 30.0445L100.295 30.151L100.029 30.3641L99.8517 30.7558L99.4286 30.9517L99.094 31.1648L98.5794 30.8998L98.5108 31.0237L98.6165 31.2886L98.4936 31.4326L97.8217 31.3779L97.45 31.3261L97.3957 31.8243L98.0504 31.9309L98.3678 32.2189C98.3678 32.2189 98.6165 32.5213 98.668 32.5213C98.7195 32.5213 99.0769 32.6105 99.0769 32.6105L98.9339 33.3939L98.6165 34.1225L97.2899 34.1053L95.8431 34.0707L95.3828 34.2464L95.2398 34.6553L95.3656 35.0845L95.1083 35.888L95.0025 36.3171C95.003 36.4634 95.0193 36.6092 95.0511 36.752C95.0883 36.8038 95.2998 37.1782 95.2998 37.1782L95.1397 37.783L95.6172 37.927L96.4121 37.9789L96.8353 38.2121L97.1555 38.264L97.6844 38.0336L98.4793 37.927L99.2227 37.3021L99.0998 36.5389L99.5572 35.9629L100.529 35.3408L100.953 35.1968L100.901 34.5574L101.473 34.2176L102.045 34.4134L102.434 34.2003L103.629 33.8317L104.812 34.9376L106.437 36.0579C106.437 36.0579 106.774 36.7347 106.791 36.7865C106.726 36.9504 106.643 37.106 106.542 37.2502H105.63L105.287 37.328C105.287 37.328 105.393 37.5929 105.462 37.5929C105.53 37.5929 106.259 37.9328 106.259 37.9328L106.488 38.1113L106.611 38.0739L106.594 37.7369L106.665 37.4173L106.911 37.4518C107.011 37.342 107.1 37.2224 107.177 37.0947C107.251 36.937 107.333 36.7832 107.423 36.6339L107.229 36.2595L107.337 36.0089L107.623 36.0464L107.657 36.4179H107.763L107.729 35.9571L107.443 35.7785L107.06 35.5222L106.794 35.1334L106.334 35.0067L105.805 34.6323L105.682 34.2061L105.187 33.9584L105.058 33.5667L105.201 33.1577L105.519 33.103L105.536 33.4947L105.853 33.6013L106.068 33.4774L106.385 34.0534L107.037 34.4249L107.552 34.7129L107.869 34.7504L108.398 35.3264L108.524 36.0723L109.513 37.1062L109.653 37.8349L110.359 38.3331L110.554 38.1718L110.448 37.711L110.837 37.4979L110.714 37.1753L110.322 37.04L110.162 36.7203L110.234 36.2019L110.005 35.9369L110.216 35.9715L110.374 36.1673L110.622 35.8304L111.046 35.8477L111.472 36.0262L111.789 36.464L112.106 36.9622C112.106 36.9622 111.895 37.0861 111.878 37.1408C111.92 37.2785 111.979 37.4102 112.055 37.5325L112.461 37.904L112.778 38.3533L113.413 38.336L113.484 38.624L113.945 38.6758L114.385 38.5693L114.511 38.2813L114.705 38.5491L115.217 38.7277L115.658 38.6931L116.029 38.2813L116.364 38.4253L116.612 38.5837L116.524 38.9408L116.744 39.6723L116.424 40.4125V41.3801H114.494L113.762 41.6681L112.575 41.072L111.798 41.1641L110.468 40.6803H109.416L109.096 40.9683L109.279 41.4752L108.867 41.8899L107.812 41.2448L106.988 41.3369L106.668 40.784L105.43 40.4153L104.572 39.9977L103.915 39.6723L104.692 38.7507L104.464 37.9673L103.915 37.6419L100.661 38.0134L99.38 38.5203L98.5536 38.5664L97.6959 38.8889L96.6437 38.6585L95.9546 39.488L95.1312 40.0409L94.3878 41.6105L94.5822 42.3017L93.6215 43.2262L92.6608 43.5949L92.2033 44.4589C92.2033 44.4589 91.194 46.7197 91.1025 46.904C91.011 47.0883 91.1025 48.2432 91.1025 48.2432L91.5142 49.5795L90.5535 51.8403L90.9195 52.9491L91.4227 53.9628L92.7523 55.855L92.7123 56.8054L95.4514 58.9049L97.287 58.1619L99.054 58.7264L101.25 57.5283C101.25 57.5283 101.985 57.5283 102.213 57.943C102.442 58.3577 102.579 58.7264 103.403 58.7264C104.226 58.7264 104.641 59.6508 104.641 59.6508L104.275 60.7107L104.458 61.2637L104.092 62.1277L104.95 63.9248L105.59 65.3101L106.188 66.6493L106.325 68.3542L106.188 69.3248L105.133 71.1709L105.453 74.0307L105.819 74.6758L105.682 75.1366L106.325 75.8307L106.737 77.4435L106.371 78.967L106.92 80.119C106.92 80.119 107.423 81.3661 107.469 81.5043C107.514 81.6425 107.835 82.1033 107.789 82.3337C107.743 82.5641 107.606 83.1661 107.606 83.1661L107.789 84.0877H110.125L111.226 83.719L113.928 80.9513C114.175 80.6573 114.404 80.3486 114.614 80.0269C114.66 79.8886 115.026 78.1837 115.026 78.1837L116.95 77.3974V75.8912L116.538 74.6902L117.545 73.7225L120.249 72.1529L120.478 70.952V68.8784L119.972 67.3088L120.109 66.3411L119.64 65.9235L120.512 64.6333L120.833 62.9254L122.114 62.1421L122.4 61.3558L124.736 58.9165L125.47 56.5952L126.157 55.3136V53.9283L125.516 53.6979L124.781 54.2969L123.775 54.3891L122.723 54.6771L121.851 54.1213L121.942 53.4301L120.844 52.1859L119.743 51.5379L119.24 49.879L118.165 48.848L118.074 47.5577L117.293 46.4057L116.332 44.24L115.323 43.2262L115.231 42.3939L115.646 42.5811L116.104 42.9497L116.287 43.6409C116.653 43.6409 116.79 42.9497 116.79 42.9497L117.11 43.6409L117.43 44.5049L118.44 46.0285L118.989 46.1206L119.629 47.4598L119.583 48.0589L121.416 49.951L121.736 51.7021L122.056 52.4883L122.654 53.0873L125.402 52.3501L125.905 51.8864L127.094 51.5177V50.9648L128.47 50.0432L129.042 48.9718L129.373 48.4275L129.834 47.7824L129.076 46.7312L128.018 45.8297L127.681 44.9657L127.292 45.0579L127.006 45.8873L125.954 46.1753L125.405 45.8067L125.222 45.0233L124.856 45.1155L124.304 44.0989L123.801 43.8109L123.16 42.751L123.618 42.2413L125.133 43.5027ZM103.689 36.7117L103.786 36.271V35.6374C103.687 35.5486 103.565 35.4898 103.434 35.4675C103.34 35.4676 103.25 35.5025 103.18 35.5654V36.271C103.205 36.4168 103.205 36.5658 103.18 36.7117H103.689ZM103.689 34.808C103.694 34.7627 103.689 34.7169 103.673 34.6741C103.658 34.6314 103.632 34.593 103.599 34.562C103.566 34.5311 103.526 34.5086 103.482 34.4962C103.439 34.4839 103.393 34.4822 103.349 34.4912L103.18 34.9779L103.349 35.3437H103.689V34.808ZM91.194 22.2109H92.9095L93.8445 20.8544H95.9975L96.3435 19.9904L97.6673 19.2848C98.2935 18.7347 97.6673 17.7382 97.6673 17.7382L94.9682 17.3984L92.2862 17.744L88.3862 17.0125L85.9816 18.1126C85.9816 18.1126 84.2518 19.0544 84.0174 18.9766C83.5502 18.9369 83.0806 18.9369 82.6135 18.9766C82.6135 18.9766 83.4712 19.76 83.8601 19.8406C84.1444 19.8846 84.4336 19.8846 84.7179 19.8406C84.7179 19.8406 84.7179 20.6067 84.8751 20.7824C85.4212 21.4131 84.3033 21.8825 84.3033 21.8825V22.6256C84.3033 22.6256 84.4262 24.0281 84.6578 23.9648C84.8894 23.9014 85.2697 24.7107 85.2697 24.7107L85.9874 25.4969H87.2997L88.9381 23.5328L90.5507 22.8272L91.194 22.2109ZM124.89 69.1952L124.678 68.6192L124.435 68.8611L124.224 69.3507L123.741 69.6387L123.529 70.2809L123.226 71.0413L122.045 71.407L121.53 72.2912L121.41 73.7542L120.987 74.48L120.504 74.9984L120.684 75.8624L121.019 76.2598L120.684 76.7149L121.019 77.0028H122.137L122.771 76.0582C122.771 76.0582 123.286 74.9609 123.286 74.8688C123.286 74.7766 123.529 73.7715 123.529 73.7715L124.404 72.6195V71.024H125.01L124.83 69.895L124.89 69.1952ZM63.8141 45.824L62.4874 45.3689C62.4874 45.3689 62.1186 45.4208 61.6868 45.5245C61.3692 45.5888 61.0588 45.6853 60.7604 45.8125L62.6418 46.4576H63.4024L64.6719 47.5577H65.5296C65.5296 47.5577 66.2301 47.2438 65.9957 46.6937L64.9063 46.2992L63.8141 45.824Z" fill="#8C50FF"/>
<path opacity="0.05" d="M95.9432 91.472C89.2033 91.4674 82.5576 89.8779 76.5352 86.8298C70.5129 83.7817 65.2802 79.3594 61.254 73.915C57.2278 68.4706 54.5192 62.1545 53.344 55.4697C52.1687 48.7848 52.5592 41.9159 54.4845 35.4099C51.3679 40.7222 49.4068 46.6406 48.7307 52.7734C48.0546 58.9062 48.6789 65.1137 50.5625 70.9853C52.4461 76.8569 55.546 82.2587 59.657 86.8334C63.768 91.4082 68.7966 95.0515 74.4099 97.5225C80.0233 99.9934 86.0936 101.236 92.2192 101.167C98.3448 101.098 104.386 99.7204 109.944 97.1242C115.501 94.5281 120.448 90.7729 124.457 86.1072C128.466 81.4415 131.445 75.9715 133.199 70.0592C129.375 76.5843 123.927 81.9915 117.393 85.7468C110.859 89.5021 103.466 91.4755 95.9432 91.472Z" fill="black"/>
<path opacity="0.4" d="M49.7714 147.934L42 143.456L53.6313 136.748L61.4027 141.226L49.7714 147.934Z" fill="#D6D8E5"/>
<path d="M49.9344 138.905L43.4983 135.161L49.9344 131.42L56.3705 135.161L49.9344 138.905Z" fill="#E9EAF4"/>
<path d="M49.9344 146.39L43.4983 142.646V135.161L49.9344 138.905V146.39Z" fill="#C5C7D3"/>
<path d="M56.3704 142.646L49.9343 146.39V138.905L56.3704 135.161V142.646Z" fill="#D5D6E0"/>
<path d="M58.5835 140.293C59.1412 140.447 59.7366 140.375 60.2419 140.092C60.6393 140.092 62.8152 139.167 63.1011 139.954C63.3584 140.639 62.4206 141.276 61.9174 141.394C60.8223 141.661 60.0131 142.212 59.5728 142.304C59.244 142.373 58.8208 142.419 58.5606 142.16C58.249 141.854 58.2776 140.702 58.5835 140.293Z" fill="#38226D"/>
<path d="M59.5758 142.119C60.0161 142.024 60.8253 141.477 61.9203 141.209C62.3407 141.105 63.064 140.633 63.1384 140.092C63.2356 140.722 62.3893 141.284 61.9203 141.399C60.8253 141.667 60.0161 142.217 59.5758 142.309C59.247 142.378 58.8238 142.424 58.5636 142.165C58.4958 142.09 58.4468 141.999 58.4207 141.9C58.5828 142.025 58.7718 142.11 58.9724 142.148C59.173 142.186 59.3796 142.176 59.5758 142.119Z" fill="#9C73FF"/>
<path d="M54.6749 138.197C55.2325 138.352 55.8284 138.28 56.3333 137.995C56.7307 137.995 58.9066 137.071 59.1925 137.857C59.4527 138.545 58.512 139.182 58.0116 139.297C56.9165 139.565 56.1074 140.115 55.6671 140.207C55.3383 140.276 54.9151 140.322 54.6549 140.063C54.3404 139.758 54.369 138.606 54.6749 138.197Z" fill="#38226D"/>
<path d="M55.667 140.023C56.1073 139.93 56.9165 139.38 58.0116 139.113C58.4319 139.009 59.1553 138.537 59.2296 137.995C59.3268 138.629 58.4805 139.187 58.0116 139.303C56.9165 139.57 56.1073 140.121 55.667 140.213C55.3382 140.282 54.915 140.328 54.6549 140.069C54.5866 139.994 54.5367 139.904 54.509 139.807C54.6723 139.93 54.8619 140.014 55.0628 140.052C55.2637 140.089 55.4706 140.079 55.667 140.023Z" fill="#9C73FF"/>
<path d="M48.5762 135.478C50.266 136.227 51.8614 136.342 53.1653 135.639L54.5119 134.856C54.592 136.607 54.6692 138.289 54.6692 138.289C54.6692 138.289 55.7014 139.078 56.5048 138.375C56.5048 138.375 56.6735 135.916 56.8451 133.499L58.2661 132.67C58.2342 132.799 58.217 132.932 58.2146 133.065C58.2146 133.525 58.5406 140.351 58.5406 140.351C58.5406 140.351 59.5813 140.976 60.3848 140.273C60.3848 140.273 60.9252 132.362 61.051 131.098C61.1911 129.678 59.6214 128.978 58.6321 129.341L57.1167 129.917C57.1482 129.519 57.1739 129.211 57.191 129.038C57.3311 127.616 55.7614 126.916 54.775 127.279C53.8715 127.61 47.7728 129.914 47.7728 129.914C47.8113 130.505 47.8829 131.093 47.9872 131.676L45.5797 131.472C45.4311 133.753 46.8978 134.729 48.5762 135.478ZM52.7964 131.547L54.409 130.608C54.3814 130.722 54.3632 130.839 54.3547 130.956L52.7964 131.547Z" fill="#8C50FF"/>
<path d="M44.2561 124.546C44.2561 124.546 44.4534 127.567 44.848 128.002C45.2425 128.436 46.5635 128.733 46.5635 128.733L47.5871 130.432C47.5871 130.432 46.6521 125.035 46.4434 124.906C46.2347 124.776 44.2561 124.546 44.2561 124.546Z" fill="#FFCEA9"/>
<path d="M46.2259 121.193C45.9761 121.077 45.6926 121.057 45.429 121.137C45.1655 121.217 44.9404 121.392 44.7963 121.628C44.4218 122.256 44.0301 124.413 44.0015 124.782C44.0015 124.782 44.5304 125.519 45.3224 125.395L46.2259 121.193Z" fill="#EDEDED"/>
<path d="M46.5748 121.231C47.0924 121.257 47.4784 121.392 47.5413 121.231C47.5981 120.962 47.6382 120.69 47.6613 120.416C47.6013 120.266 47.5498 120.102 47.5498 120.102C46.8979 119.699 46.6921 118.99 46.6092 118.166C46.4633 116.758 47.2182 115.523 48.6106 115.376C49.9259 115.237 50.898 116.168 51.1525 117.446C51.2926 118.08 51.5699 119.272 51.1953 120.309C50.9866 120.885 50.715 121.352 50.4462 121.441C50.1858 121.434 49.9261 121.411 49.6685 121.372C49.6685 121.372 49.5999 121.764 49.5513 122.017C49.5027 122.27 49.5227 122.4 50.0173 122.708C50.512 123.016 49.2682 123.65 48.4534 123.587C47.6385 123.523 46.7207 123.031 46.4691 122.498C46.206 121.913 46.2289 121.213 46.5748 121.231Z" fill="#FFCEA9"/>
<path d="M59.7072 130.467C59.7072 130.541 59.6879 130.614 59.6513 130.678C59.6147 130.742 59.562 130.795 59.4985 130.833L55.5499 133.137C55.4859 133.173 55.4135 133.193 55.3398 133.193C55.266 133.193 55.1936 133.173 55.1296 133.137L49.5942 129.911C49.5299 129.874 49.4765 129.821 49.4393 129.757C49.4022 129.693 49.3826 129.62 49.3826 129.545V129.502L59.7072 130.467Z" fill="#E5E5E5"/>
<path d="M59.4983 130.833L55.5497 133.137C55.4852 133.173 55.4122 133.192 55.3381 133.191V130.473H59.707C59.706 130.546 59.6863 130.617 59.6497 130.68C59.6131 130.743 59.561 130.796 59.4983 130.833Z" fill="#E5E5E5"/>
<path d="M55.4869 132.921C55.4434 132.946 55.3941 132.959 55.3439 132.959C55.2938 132.959 55.2444 132.946 55.201 132.921L49.4339 129.574C49.3596 129.534 49.3596 129.465 49.4339 129.421L53.6684 126.956L59.7014 130.467L55.4869 132.921Z" fill="#F4F4F4"/>
<path d="M51.8013 130.467L51.8299 130.481L53.6741 131.555L54.6862 130.965L54.7148 130.951L52.842 129.862L51.8013 130.467Z" fill="#BFBFBF"/>
<path d="M51.8301 130.481L53.6743 131.555L54.6864 130.965L52.8422 129.894L51.8301 130.481Z" fill="#E5E5E5"/>
<path d="M58.1431 130.654L58.409 130.81C58.4224 130.816 58.437 130.819 58.4518 130.819C58.4667 130.819 58.4813 130.816 58.4947 130.81L58.7492 130.663C58.7749 130.663 58.7749 130.625 58.7492 130.614L58.4833 130.458C58.4701 130.451 58.4554 130.447 58.4404 130.447C58.4255 130.447 58.4107 130.451 58.3975 130.458L58.1459 130.605C58.1259 130.605 58.123 130.625 58.1431 130.654Z" fill="#3A2C6D"/>
<path d="M57.7685 130.421L58.0345 130.576C58.0474 130.583 58.0615 130.586 58.0759 130.586C58.0903 130.586 58.1045 130.583 58.1174 130.576L58.3718 130.429C58.3976 130.415 58.4004 130.392 58.3718 130.38L58.1059 130.225C58.0932 130.218 58.079 130.214 58.0645 130.214C58.05 130.214 58.0357 130.218 58.023 130.225L57.7685 130.372C57.7485 130.386 57.7457 130.406 57.7685 130.421Z" fill="#3A2C6D"/>
<path d="M57.391 130.202L57.6569 130.357C57.6703 130.364 57.685 130.367 57.6998 130.367C57.7146 130.367 57.7293 130.364 57.7427 130.357L57.9943 130.21C58.02 130.196 58.0229 130.173 57.9943 130.162L57.7284 130.006C57.7152 129.999 57.7005 129.995 57.6855 129.995C57.6706 129.995 57.6558 129.999 57.6426 130.006L57.3881 130.153C57.3738 130.167 57.371 130.187 57.391 130.202Z" fill="#3A2C6D"/>
<path d="M57.0166 129.983L57.2825 130.138C57.2954 130.145 57.3096 130.148 57.324 130.148C57.3383 130.148 57.3525 130.145 57.3654 130.138L57.6199 129.992C57.6456 129.977 57.6485 129.954 57.6199 129.943L57.354 129.787C57.3408 129.78 57.326 129.776 57.3111 129.776C57.2961 129.776 57.2814 129.78 57.2682 129.787L57.0166 129.934C56.9966 129.948 56.9937 129.969 57.0166 129.983Z" fill="#3A2C6D"/>
<path d="M56.6391 129.764L56.9051 129.92C56.918 129.926 56.9321 129.929 56.9465 129.929C56.9609 129.929 56.9751 129.926 56.988 129.92L57.2424 129.773C57.2682 129.758 57.271 129.735 57.2424 129.724L56.9765 129.568C56.9638 129.561 56.9496 129.557 56.9351 129.557C56.9206 129.557 56.9063 129.561 56.8936 129.568L56.6391 129.715C56.6191 129.73 56.6163 129.75 56.6391 129.764Z" fill="#3A2C6D"/>
<path d="M56.2618 129.545L56.5277 129.701C56.5411 129.707 56.5557 129.71 56.5706 129.71C56.5854 129.71 56.6 129.707 56.6134 129.701L56.8679 129.554C56.8908 129.539 56.8937 129.516 56.8679 129.505L56.602 129.349C56.5888 129.342 56.5741 129.339 56.5591 129.339C56.5442 129.339 56.5294 129.342 56.5162 129.349L56.2618 129.496C56.2446 129.502 56.2417 129.531 56.2618 129.545Z" fill="#3A2C6D"/>
<path d="M55.8872 129.326L56.1531 129.482C56.166 129.488 56.1802 129.491 56.1946 129.491C56.2089 129.491 56.2231 129.488 56.236 129.482L56.4905 129.335C56.5162 129.335 56.5191 129.297 56.4905 129.286L56.2246 129.13C56.2114 129.123 56.1966 129.12 56.1817 129.12C56.1667 129.12 56.152 129.123 56.1388 129.13L55.8872 129.277C55.8672 129.292 55.8643 129.312 55.8872 129.326Z" fill="#3A2C6D"/>
<path d="M55.5098 129.107L55.7757 129.263C55.7891 129.269 55.8037 129.273 55.8185 129.273C55.8334 129.273 55.848 129.269 55.8614 129.263L56.113 129.116C56.1388 129.102 56.1416 129.079 56.113 129.067L55.8471 128.912C55.8344 128.905 55.8202 128.901 55.8057 128.901C55.7912 128.901 55.7769 128.905 55.7642 128.912L55.5098 129.059C55.4897 129.073 55.4869 129.093 55.5098 129.107Z" fill="#3A2C6D"/>
<path d="M55.1324 128.888L55.3983 129.044C55.4117 129.05 55.4263 129.054 55.4412 129.054C55.456 129.054 55.4706 129.05 55.4841 129.044L55.7385 128.897C55.7614 128.883 55.7643 128.86 55.7385 128.848L55.4726 128.693C55.4594 128.686 55.4447 128.682 55.4297 128.682C55.4148 128.682 55.4 128.686 55.3868 128.693L55.1324 128.84C55.1152 128.854 55.1124 128.874 55.1324 128.888Z" fill="#3A2C6D"/>
<path d="M54.7578 128.67L55.0237 128.825C55.0366 128.832 55.0508 128.835 55.0652 128.835C55.0795 128.835 55.0937 128.832 55.1066 128.825L55.3611 128.678C55.3868 128.664 55.3897 128.641 55.3611 128.629L55.0952 128.474C55.0823 128.467 55.0681 128.464 55.0537 128.464C55.0394 128.464 55.0252 128.467 55.0123 128.474L54.7578 128.624C54.7378 128.638 54.7349 128.655 54.7578 128.67Z" fill="#3A2C6D"/>
<path d="M54.3804 128.451L54.6463 128.606C54.6597 128.613 54.6743 128.616 54.6892 128.616C54.704 128.616 54.7186 128.613 54.732 128.606L54.9837 128.459C55.0094 128.445 55.0122 128.422 54.9837 128.41L54.7177 128.255C54.7048 128.249 54.6907 128.245 54.6763 128.245C54.6619 128.245 54.6477 128.249 54.6348 128.255L54.3804 128.405C54.3603 128.416 54.3575 128.436 54.3804 128.451Z" fill="#3A2C6D"/>
<path d="M54.0087 128.232L54.2746 128.387C54.288 128.394 54.3026 128.397 54.3174 128.397C54.3323 128.397 54.3469 128.394 54.3603 128.387L54.6148 128.241C54.6377 128.226 54.6405 128.203 54.6148 128.192L54.3489 128.036C54.3355 128.03 54.3208 128.026 54.306 128.026C54.2912 128.026 54.2765 128.03 54.2631 128.036L54.0115 128.186C53.9858 128.197 53.9829 128.218 54.0087 128.232Z" fill="#3A2C6D"/>
<path d="M53.6284 128.013L53.8943 128.166C53.907 128.173 53.9213 128.176 53.9358 128.176C53.9503 128.176 53.9645 128.173 53.9772 128.166L54.2317 128.019C54.2574 128.019 54.2603 127.981 54.2317 127.97L53.9658 127.814C53.9529 127.808 53.9387 127.805 53.9243 127.805C53.91 127.805 53.8958 127.808 53.8829 127.814L53.6284 127.964C53.6084 127.979 53.6055 127.999 53.6284 128.013Z" fill="#3A2C6D"/>
<path d="M53.0709 127.688L53.5169 127.947C53.5301 127.954 53.5449 127.958 53.5598 127.958C53.5748 127.958 53.5895 127.954 53.6027 127.947L53.8543 127.8C53.88 127.785 53.8829 127.762 53.8543 127.751L53.4054 127.492C53.3927 127.485 53.3785 127.481 53.364 127.481C53.3495 127.481 53.3352 127.485 53.3225 127.492L53.068 127.639C53.0509 127.653 53.048 127.676 53.0709 127.688Z" fill="#3A2C6D"/>
<path d="M57.2224 130.527L57.4883 130.68C57.501 130.687 57.5153 130.691 57.5298 130.691C57.5443 130.691 57.5585 130.687 57.5712 130.68L57.8257 130.533C57.8514 130.519 57.8543 130.496 57.8257 130.484L57.5598 130.329C57.5464 130.322 57.5317 130.319 57.5169 130.319C57.5021 130.319 57.4874 130.322 57.474 130.329L57.2224 130.478C57.2024 130.493 57.1995 130.513 57.2224 130.527Z" fill="#3A2C6D"/>
<path d="M56.8452 130.308L57.1111 130.461C57.1238 130.468 57.1381 130.472 57.1526 130.472C57.1671 130.472 57.1813 130.468 57.194 130.461L57.4485 130.314C57.4742 130.3 57.4771 130.277 57.4485 130.265L57.1826 130.11C57.1697 130.103 57.1555 130.1 57.1411 130.1C57.1268 130.1 57.1126 130.103 57.0997 130.11L56.8452 130.26C56.8252 130.274 56.8223 130.294 56.8452 130.308Z" fill="#3A2C6D"/>
<path d="M56.4675 130.078L56.7334 130.231C56.7461 130.238 56.7604 130.241 56.7749 130.241C56.7894 130.241 56.8036 130.238 56.8163 130.231L57.0708 130.084C57.0965 130.069 57.0994 130.046 57.0708 130.035L56.8049 129.879C56.792 129.873 56.7778 129.87 56.7634 129.87C56.7491 129.87 56.7349 129.873 56.722 129.879L56.4675 130.026C56.4475 130.052 56.4446 130.078 56.4675 130.078Z" fill="#3A2C6D"/>
<path d="M56.0901 129.868L56.356 130.023C56.3694 130.03 56.384 130.033 56.3989 130.033C56.4137 130.033 56.4284 130.03 56.4418 130.023L56.6934 129.876C56.7191 129.862 56.722 129.839 56.6934 129.827L56.4275 129.672C56.4148 129.665 56.4005 129.661 56.386 129.661C56.3715 129.661 56.3572 129.665 56.3445 129.672L56.0901 129.819C56.0701 129.833 56.0672 129.856 56.0901 129.868Z" fill="#3A2C6D"/>
<path d="M55.7241 129.652L55.99 129.807C56.0034 129.814 56.0181 129.817 56.0329 129.817C56.0477 129.817 56.0624 129.814 56.0758 129.807L56.3274 129.66C56.3531 129.66 56.356 129.623 56.3274 129.611L56.0615 129.456C56.0483 129.449 56.0336 129.445 56.0186 129.445C56.0036 129.445 55.9889 129.449 55.9757 129.456L55.7212 129.603C55.6984 129.617 55.6955 129.637 55.7241 129.652Z" fill="#3A2C6D"/>
<path d="M55.3382 129.433L55.6041 129.585C55.6173 129.593 55.632 129.596 55.647 129.596C55.6619 129.596 55.6767 129.593 55.6899 129.585L55.9443 129.439C55.9672 129.439 55.9701 129.401 55.9443 129.39L55.6784 129.234C55.665 129.228 55.6504 129.224 55.6355 129.224C55.6207 129.224 55.6061 129.228 55.5926 129.234L55.3382 129.384C55.321 129.398 55.3182 129.418 55.3382 129.433Z" fill="#3A2C6D"/>
<path d="M54.9607 129.214L55.2266 129.367C55.2398 129.374 55.2545 129.377 55.2695 129.377C55.2844 129.377 55.2992 129.374 55.3124 129.367L55.5668 129.22C55.5926 129.205 55.5926 129.182 55.5668 129.171L55.3009 129.015C55.2875 129.009 55.2729 129.005 55.258 129.005C55.2432 129.005 55.2286 129.009 55.2151 129.015L54.9635 129.162C54.9435 129.179 54.9407 129.214 54.9607 129.214Z" fill="#3A2C6D"/>
<path d="M54.5806 128.992L54.8465 129.148C54.8592 129.155 54.8735 129.158 54.888 129.158C54.9025 129.158 54.9168 129.155 54.9294 129.148L55.1839 129.001C55.2097 128.986 55.2125 128.963 55.1839 128.952L54.918 128.796C54.9046 128.79 54.89 128.787 54.8751 128.787C54.8603 128.787 54.8456 128.79 54.8322 128.796L54.5806 128.943C54.5806 128.958 54.5635 128.981 54.5806 128.992Z" fill="#3A2C6D"/>
<path d="M54.209 128.773L54.4749 128.929C54.4878 128.935 54.502 128.938 54.5163 128.938C54.5307 128.938 54.5449 128.935 54.5578 128.929L54.8123 128.782C54.838 128.765 54.8409 128.744 54.8123 128.73L54.5464 128.577C54.5337 128.57 54.5194 128.567 54.5049 128.567C54.4904 128.567 54.4761 128.57 54.4634 128.577L54.209 128.724C54.189 128.739 54.1861 128.762 54.209 128.773Z" fill="#3A2C6D"/>
<path d="M53.8313 128.554L54.0972 128.71C54.1101 128.716 54.1243 128.72 54.1387 128.72C54.153 128.72 54.1672 128.716 54.1801 128.71L54.4346 128.56C54.4603 128.546 54.4632 128.526 54.4346 128.511L54.1687 128.359C54.156 128.352 54.1417 128.348 54.1272 128.348C54.1127 128.348 54.0985 128.352 54.0858 128.359L53.8313 128.506C53.8113 128.52 53.8084 128.543 53.8313 128.554Z" fill="#3A2C6D"/>
<path d="M53.454 128.35L53.7199 128.506C53.7333 128.512 53.748 128.515 53.7628 128.515C53.7777 128.515 53.7923 128.512 53.8057 128.506L54.0573 128.356C54.0831 128.356 54.0859 128.321 54.0573 128.307L53.7914 128.151C53.7785 128.145 53.7643 128.142 53.75 128.142C53.7356 128.142 53.7214 128.145 53.7085 128.151L53.454 128.298C53.4369 128.301 53.4369 128.324 53.454 128.35Z" fill="#3A2C6D"/>
<path d="M53.0765 128.117L53.3424 128.272C53.3558 128.279 53.3705 128.282 53.3853 128.282C53.4001 128.282 53.4148 128.279 53.4282 128.272L53.6798 128.125C53.7055 128.111 53.7084 128.088 53.6798 128.076L53.4139 127.921C53.4005 127.914 53.3858 127.911 53.371 127.911C53.3562 127.911 53.3415 127.914 53.3281 127.921L53.0736 128.068C53.0565 128.082 53.0536 128.105 53.0765 128.117Z" fill="#3A2C6D"/>
<path d="M57.5969 130.746L58.0458 131.005C58.0585 131.012 58.0728 131.016 58.0873 131.016C58.1018 131.016 58.116 131.012 58.1287 131.005L58.3832 130.858C58.4089 130.844 58.4118 130.821 58.3832 130.81L57.9372 130.547C57.9238 130.541 57.9091 130.538 57.8943 130.538C57.8794 130.538 57.8648 130.541 57.8514 130.547L57.5998 130.694C57.5798 130.712 57.5769 130.735 57.5969 130.746Z" fill="#3A2C6D"/>
<path d="M53.0451 127.699L53.311 127.855C53.3339 127.855 53.3339 127.886 53.311 127.898L53.0422 128.056C53.0301 128.062 53.017 128.065 53.0036 128.065C52.9903 128.065 52.9771 128.062 52.965 128.056L52.9422 128.042C52.9311 128.036 52.9188 128.033 52.9064 128.033C52.894 128.033 52.8818 128.036 52.8707 128.042L52.5848 128.209C52.5722 128.215 52.5585 128.218 52.5447 128.218C52.5309 128.218 52.5173 128.215 52.5047 128.209L52.336 128.111C52.3131 128.097 52.3131 128.076 52.336 128.065L52.6019 127.909L52.6562 127.878L52.6963 127.855L52.7363 127.832L52.965 127.699C52.9773 127.692 52.9911 127.689 53.0051 127.689C53.0191 127.689 53.0328 127.692 53.0451 127.699Z" fill="#3A2C6D"/>
<path d="M56.6848 131.486L56.9507 131.642C56.9636 131.648 56.9778 131.651 56.9922 131.651C57.0065 131.651 57.0207 131.648 57.0336 131.642L57.2881 131.492C57.3138 131.492 57.3167 131.457 57.2881 131.443L57.0222 131.29C57.009 131.283 56.9943 131.28 56.9793 131.28C56.9643 131.28 56.9496 131.283 56.9364 131.29L56.6848 131.437C56.6648 131.452 56.6619 131.475 56.6848 131.486Z" fill="#3A2C6D"/>
<path d="M56.2959 131.267L56.5618 131.423C56.575 131.43 56.5897 131.434 56.6047 131.434C56.6196 131.434 56.6344 131.43 56.6476 131.423L56.9021 131.276C56.9249 131.276 56.9278 131.239 56.9021 131.227L56.6361 131.072C56.6227 131.065 56.6081 131.062 56.5933 131.062C56.5784 131.062 56.5638 131.065 56.5504 131.072L56.2959 131.218C56.2959 131.23 56.2959 131.256 56.2959 131.267Z" fill="#3A2C6D"/>
<path d="M55.9328 131.051L56.1988 131.204C56.212 131.211 56.2267 131.215 56.2416 131.215C56.2566 131.215 56.2713 131.211 56.2845 131.204L56.5361 131.057C56.5619 131.043 56.5647 131.02 56.5361 131.008L56.2702 130.853C56.2573 130.846 56.2431 130.843 56.2288 130.843C56.2144 130.843 56.2002 130.846 56.1873 130.853L55.9328 131.002C55.9128 131.017 55.91 131.037 55.9328 131.051Z" fill="#3A2C6D"/>
<path d="M52.7363 129.191L53.0022 129.346C53.0156 129.353 53.0303 129.356 53.0451 129.356C53.06 129.356 53.0746 129.353 53.088 129.346L53.3396 129.197C53.3654 129.182 53.3682 129.162 53.3396 129.148L53.0737 128.995C53.0605 128.988 53.0458 128.984 53.0308 128.984C53.0159 128.984 53.0012 128.988 52.9879 128.995L52.7335 129.142C52.7163 129.156 52.7163 129.179 52.7363 129.191Z" fill="#3A2C6D"/>
<path d="M52.3618 128.972L52.6277 129.128C52.6404 129.135 52.6547 129.138 52.6692 129.138C52.6837 129.138 52.6979 129.135 52.7106 129.128L52.9651 128.981C52.9908 128.966 52.9937 128.943 52.9651 128.932L52.6992 128.776C52.6863 128.77 52.6721 128.766 52.6577 128.766C52.6434 128.766 52.6292 128.77 52.6163 128.776L52.3618 128.923C52.3418 128.926 52.3389 128.96 52.3618 128.972Z" fill="#3A2C6D"/>
<path d="M51.9873 128.756L52.2532 128.909C52.2659 128.916 52.2802 128.919 52.2947 128.919C52.3092 128.919 52.3234 128.916 52.3361 128.909L52.5906 128.762C52.6163 128.747 52.6192 128.724 52.5906 128.713L52.3247 128.557C52.3113 128.551 52.2966 128.548 52.2818 128.548C52.267 128.548 52.2523 128.551 52.2389 128.557L51.9873 128.707C51.9673 128.721 51.9644 128.742 51.9873 128.756Z" fill="#3A2C6D"/>
<path d="M51.6099 128.537L51.8758 128.693C51.8892 128.699 51.9039 128.702 51.9187 128.702C51.9335 128.702 51.9482 128.699 51.9616 128.693L52.2161 128.546C52.2389 128.531 52.2418 128.508 52.2161 128.497L51.9502 128.341C51.9369 128.334 51.9222 128.331 51.9073 128.331C51.8923 128.331 51.8776 128.334 51.8644 128.341L51.6099 128.488C51.5928 128.503 51.5899 128.523 51.6099 128.537Z" fill="#3A2C6D"/>
<path d="M55.461 130.775L55.8241 130.988C55.837 130.994 55.8512 130.998 55.8656 130.998C55.88 130.998 55.8941 130.994 55.907 130.988L56.1615 130.841C56.1872 130.827 56.1901 130.804 56.1615 130.792L55.7984 130.582C55.7857 130.575 55.7714 130.571 55.7569 130.571C55.7424 130.571 55.7282 130.575 55.7155 130.582L55.461 130.729C55.4381 130.74 55.4381 130.763 55.461 130.775Z" fill="#3A2C6D"/>
<path d="M53.1108 129.41L53.4739 129.62C53.4871 129.627 53.5018 129.631 53.5168 129.631C53.5318 129.631 53.5465 129.627 53.5597 129.62L53.8142 129.473C53.837 129.459 53.8399 129.436 53.8142 129.424L53.4568 129.214C53.4434 129.208 53.4287 129.204 53.4139 129.204C53.399 129.204 53.3844 129.208 53.371 129.214L53.1194 129.361C53.0936 129.375 53.0908 129.398 53.1108 129.41Z" fill="#3A2C6D"/>
<path d="M53.5827 129.683L55.3526 130.712C55.3653 130.719 55.3796 130.722 55.3941 130.722C55.4086 130.722 55.4228 130.719 55.4355 130.712L55.69 130.565C55.7157 130.55 55.7186 130.527 55.69 130.516L53.923 129.488C53.9098 129.481 53.8951 129.477 53.8801 129.477C53.8652 129.477 53.8504 129.481 53.8372 129.488L53.5856 129.634C53.5656 129.649 53.5627 129.672 53.5827 129.683Z" fill="#3A2C6D"/>
<path d="M56.7537 130.68L57.0196 130.833C57.0328 130.84 57.0475 130.843 57.0625 130.843C57.0775 130.843 57.0922 130.84 57.1054 130.833L57.3599 130.686C57.3827 130.671 57.3856 130.648 57.3599 130.637L57.094 130.481C57.0806 130.475 57.0659 130.472 57.0511 130.472C57.0362 130.472 57.0216 130.475 57.0082 130.481L56.7537 130.631C56.7366 130.654 56.7337 130.654 56.7537 130.68Z" fill="#3A2C6D"/>
<path d="M56.3789 130.461L56.6448 130.617C56.6577 130.623 56.6719 130.626 56.6863 130.626C56.7006 130.626 56.7148 130.623 56.7277 130.617L56.9822 130.47C57.0079 130.47 57.0108 130.432 56.9822 130.421L56.7163 130.265C56.7036 130.258 56.6893 130.254 56.6748 130.254C56.6603 130.254 56.6461 130.258 56.6334 130.265L56.3789 130.412C56.3589 130.426 56.356 130.447 56.3789 130.461Z" fill="#3A2C6D"/>
<path d="M56.0101 130.242L56.276 130.398C56.2894 130.404 56.3041 130.407 56.3189 130.407C56.3338 130.407 56.3484 130.404 56.3618 130.398L56.6163 130.251C56.6392 130.236 56.642 130.213 56.6163 130.202L56.3504 130.046C56.337 130.04 56.3223 130.037 56.3075 130.037C56.2927 130.037 56.278 130.04 56.2646 130.046L56.0101 130.193C55.9844 130.208 55.9815 130.231 56.0101 130.242Z" fill="#3A2C6D"/>
<path d="M55.6272 130.023L55.8931 130.179C55.9058 130.186 55.9201 130.19 55.9346 130.19C55.9491 130.19 55.9633 130.186 55.976 130.179L56.2305 130.032C56.2562 130.017 56.2591 129.997 56.2305 129.983L55.9646 129.827C55.9517 129.821 55.9375 129.818 55.9231 129.818C55.9087 129.818 55.8946 129.821 55.8817 129.827L55.6272 129.974C55.6072 129.989 55.6043 130.012 55.6272 130.023Z" fill="#3A2C6D"/>
<path d="M55.2496 129.804L55.5155 129.96C55.5289 129.966 55.5435 129.97 55.5583 129.97C55.5732 129.97 55.5878 129.966 55.6012 129.96L55.8557 129.81C55.8786 129.796 55.8814 129.776 55.8557 129.761L55.5898 129.609C55.5766 129.601 55.5619 129.598 55.5469 129.598C55.532 129.598 55.5172 129.601 55.504 129.609L55.2496 129.755C55.2324 129.77 55.2295 129.79 55.2496 129.804Z" fill="#3A2C6D"/>
<path d="M54.8665 129.586L55.1324 129.741C55.1453 129.747 55.1595 129.751 55.1738 129.751C55.1882 129.751 55.2024 129.747 55.2153 129.741L55.4698 129.591C55.4955 129.577 55.4983 129.557 55.4698 129.542L55.2038 129.39C55.1911 129.383 55.1769 129.379 55.1624 129.379C55.1479 129.379 55.1336 129.383 55.1209 129.39L54.8665 129.537C54.8665 129.551 54.8665 129.574 54.8665 129.586Z" fill="#3A2C6D"/>
<path d="M54.4976 129.367L54.7635 129.522C54.7769 129.529 54.7916 129.532 54.8064 129.532C54.8212 129.532 54.8359 129.529 54.8493 129.522L55.1038 129.372C55.1266 129.358 55.1295 129.338 55.1038 129.323L54.8378 129.171C54.8246 129.164 54.8099 129.16 54.795 129.16C54.78 129.16 54.7653 129.164 54.7521 129.171L54.4976 129.318C54.4804 129.332 54.4776 129.355 54.4976 129.367Z" fill="#3A2C6D"/>
<path d="M54.123 129.148L54.3889 129.303C54.4018 129.31 54.416 129.313 54.4304 129.313C54.4448 129.313 54.4589 129.31 54.4719 129.303L54.7263 129.156C54.7521 129.142 54.7549 129.119 54.7263 129.104L54.4604 128.952C54.4477 128.945 54.4335 128.941 54.419 128.941C54.4045 128.941 54.3902 128.945 54.3775 128.952L54.123 129.099C54.103 129.113 54.1002 129.136 54.123 129.148Z" fill="#3A2C6D"/>
<path d="M53.7457 128.926L54.0116 129.081C54.025 129.088 54.0396 129.091 54.0545 129.091C54.0693 129.091 54.084 129.088 54.0974 129.081L54.3518 128.935C54.3747 128.935 54.3776 128.897 54.3518 128.886L54.0859 128.73C54.0727 128.723 54.058 128.719 54.043 128.719C54.0281 128.719 54.0133 128.723 54.0001 128.73L53.7457 128.877C53.7228 128.894 53.7228 128.926 53.7457 128.926Z" fill="#3A2C6D"/>
<path d="M53.3711 128.713L53.637 128.865C53.6497 128.872 53.6639 128.876 53.6784 128.876C53.6929 128.876 53.7072 128.872 53.7199 128.865L53.9744 128.719C54.0001 128.719 54.003 128.681 53.9744 128.67L53.7085 128.514C53.6956 128.508 53.6814 128.504 53.667 128.504C53.6526 128.504 53.6385 128.508 53.6256 128.514L53.3711 128.661C53.3511 128.675 53.3482 128.698 53.3711 128.713Z" fill="#3A2C6D"/>
<path d="M52.9937 128.494L53.2596 128.647C53.2728 128.654 53.2875 128.657 53.3025 128.657C53.3174 128.657 53.3322 128.654 53.3454 128.647L53.5998 128.5C53.6227 128.485 53.6256 128.462 53.5998 128.451L53.3339 128.295C53.3205 128.289 53.3059 128.286 53.2911 128.286C53.2762 128.286 53.2616 128.289 53.2482 128.295L52.9937 128.442C52.9765 128.459 52.9737 128.48 52.9937 128.494Z" fill="#3A2C6D"/>
<path d="M52.6191 128.275L52.885 128.428C52.8977 128.435 52.912 128.438 52.9265 128.438C52.941 128.438 52.9553 128.435 52.968 128.428L53.2224 128.281C53.2482 128.266 53.251 128.243 53.2224 128.232L52.9565 128.076C52.9436 128.07 52.9294 128.067 52.9151 128.067C52.9007 128.067 52.8865 128.07 52.8736 128.076L52.6191 128.226C52.5991 128.24 52.5963 128.261 52.6191 128.275Z" fill="#3A2C6D"/>
<path d="M57.1311 130.899L57.6801 131.23C57.6933 131.237 57.708 131.241 57.723 131.241C57.7379 131.241 57.7526 131.237 57.7658 131.23L58.0174 131.083C58.0432 131.069 58.046 131.048 58.0174 131.034L57.4685 130.714C57.4556 130.708 57.4414 130.705 57.427 130.705C57.4127 130.705 57.3985 130.708 57.3856 130.714L57.1311 130.864C57.1111 130.864 57.1082 130.884 57.1311 130.899Z" fill="#3A2C6D"/>
<path d="M56.5819 131L56.8478 131.155C56.8607 131.161 56.8749 131.165 56.8893 131.165C56.9036 131.165 56.9178 131.161 56.9307 131.155L57.1852 131.005C57.2109 131.005 57.2138 130.971 57.1852 130.956L56.9193 130.804C56.9066 130.797 56.8923 130.793 56.8778 130.793C56.8633 130.793 56.8491 130.797 56.8364 130.804L56.5819 130.942C56.5562 130.965 56.5533 130.988 56.5819 131Z" fill="#3A2C6D"/>
<path d="M56.199 130.781L56.4649 130.936C56.4783 130.943 56.4929 130.946 56.5078 130.946C56.5226 130.946 56.5372 130.943 56.5506 130.936L56.8051 130.786C56.828 130.772 56.8309 130.752 56.8051 130.737L56.5392 130.585C56.526 130.578 56.5113 130.574 56.4963 130.574C56.4814 130.574 56.4666 130.578 56.4534 130.585L56.2018 130.732C56.1818 130.746 56.1789 130.769 56.199 130.781Z" fill="#3A2C6D"/>
<path d="M55.8242 130.562L56.0901 130.717C56.103 130.724 56.1172 130.727 56.1316 130.727C56.1459 130.727 56.1601 130.724 56.173 130.717L56.4275 130.57C56.4532 130.553 56.4561 130.533 56.4275 130.519L56.1616 130.366C56.1489 130.359 56.1346 130.355 56.1201 130.355C56.1056 130.355 56.0914 130.359 56.0787 130.366L55.8242 130.513C55.8042 130.527 55.8013 130.55 55.8242 130.562Z" fill="#3A2C6D"/>
<path d="M55.4382 130.343L55.7041 130.498C55.7175 130.505 55.7322 130.508 55.747 130.508C55.7619 130.508 55.7765 130.505 55.7899 130.498L56.0444 130.352C56.0701 130.337 56.0701 130.314 56.0444 130.303L55.7785 130.147C55.7653 130.14 55.7505 130.136 55.7356 130.136C55.7206 130.136 55.7059 130.14 55.6927 130.147L55.4411 130.294C55.4382 130.308 55.4382 130.331 55.4382 130.343Z" fill="#3A2C6D"/>
<path d="M55.0723 130.124L55.3382 130.279C55.3514 130.287 55.3661 130.29 55.3811 130.29C55.396 130.29 55.4107 130.287 55.4239 130.279L55.6756 130.133C55.7013 130.118 55.7041 130.095 55.6756 130.084L55.4096 129.928C55.3967 129.922 55.3826 129.918 55.3682 129.918C55.3538 129.918 55.3396 129.922 55.3267 129.928L55.0723 130.075C55.0522 130.078 55.0494 130.112 55.0723 130.124Z" fill="#3A2C6D"/>
<path d="M54.6951 129.908L54.961 130.061C54.9742 130.068 54.9889 130.071 55.0039 130.071C55.0188 130.071 55.0335 130.068 55.0467 130.061L55.3012 129.914C55.3269 129.899 55.3298 129.876 55.3012 129.865L55.0353 129.709C55.0219 129.703 55.0072 129.7 54.9924 129.7C54.9776 129.7 54.9629 129.703 54.9495 129.709L54.6979 129.859C54.6779 129.873 54.675 129.894 54.6951 129.908Z" fill="#3A2C6D"/>
<path d="M54.3203 129.689L54.5862 129.842C54.5994 129.849 54.6142 129.853 54.6291 129.853C54.6441 129.853 54.6588 129.849 54.672 129.842L54.9236 129.695C54.9494 129.68 54.9522 129.657 54.9236 129.646L54.6577 129.49C54.6448 129.484 54.6306 129.481 54.6163 129.481C54.6019 129.481 54.5877 129.484 54.5748 129.49L54.3203 129.64C54.2946 129.655 54.2946 129.675 54.3203 129.689Z" fill="#3A2C6D"/>
<path d="M53.9458 129.47L54.2117 129.623C54.2244 129.63 54.2387 129.634 54.2532 129.634C54.2677 129.634 54.2819 129.63 54.2946 129.623L54.5491 129.476C54.5748 129.476 54.5777 129.439 54.5491 129.427L54.2832 129.272C54.2698 129.265 54.2551 129.262 54.2403 129.262C54.2255 129.262 54.2108 129.265 54.1974 129.272L53.9458 129.421C53.9258 129.436 53.9229 129.456 53.9458 129.47Z" fill="#3A2C6D"/>
<path d="M53.5684 129.251L53.8343 129.407C53.8478 129.413 53.8624 129.417 53.8772 129.417C53.8921 129.417 53.9067 129.413 53.9201 129.407L54.1717 129.26C54.1975 129.246 54.2003 129.223 54.1717 129.211L53.9058 129.056C53.8926 129.048 53.8779 129.045 53.8629 129.045C53.848 129.045 53.8333 129.048 53.8201 129.056L53.5656 129.202C53.5484 129.214 53.5456 129.237 53.5684 129.251Z" fill="#3A2C6D"/>
<path d="M53.1938 129.032L53.4597 129.188C53.4727 129.194 53.4868 129.198 53.5012 129.198C53.5156 129.198 53.5298 129.194 53.5427 129.188L53.7971 129.041C53.8229 129.027 53.8257 129.004 53.7971 128.992L53.5312 128.837C53.5178 128.83 53.5032 128.827 53.4883 128.827C53.4735 128.827 53.4589 128.83 53.4454 128.837L53.1938 128.984C53.1738 128.998 53.171 129.021 53.1938 129.032Z" fill="#3A2C6D"/>
<path d="M52.8164 128.814L53.0823 128.969C53.0957 128.976 53.1104 128.979 53.1252 128.979C53.14 128.979 53.1547 128.976 53.1681 128.969L53.4197 128.819C53.4454 128.805 53.4483 128.785 53.4197 128.77L53.1538 128.618C53.1406 128.611 53.1259 128.607 53.1109 128.607C53.096 128.607 53.0812 128.611 53.068 128.618L52.8136 128.765C52.7964 128.779 52.7964 128.802 52.8164 128.814Z" fill="#3A2C6D"/>
<path d="M51.9758 128.324L52.7078 128.75C52.7207 128.757 52.7349 128.76 52.7492 128.76C52.7636 128.76 52.7778 128.757 52.7907 128.75L53.0452 128.601C53.0709 128.586 53.0738 128.566 53.0452 128.552L52.3132 128.128C52.3005 128.121 52.2862 128.117 52.2717 128.117C52.2572 128.117 52.243 128.121 52.2303 128.128L51.9758 128.275C51.9558 128.289 51.9529 128.313 51.9758 128.324Z" fill="#3A2C6D"/>
<path d="M56.9508 131.23L57.3139 131.44C57.3272 131.447 57.3419 131.451 57.3568 131.451C57.3718 131.451 57.3865 131.447 57.3997 131.44L57.6513 131.293C57.6771 131.279 57.6799 131.256 57.6513 131.244L57.2882 131.031C57.2748 131.025 57.2602 131.021 57.2453 131.021C57.2305 131.021 57.2158 131.025 57.2024 131.031L56.948 131.178C56.9337 131.184 56.9308 131.207 56.9508 131.23Z" fill="#3A2C6D"/>
<path d="M59.7073 130.467L53.6743 126.956V122.178L53.7201 122.069L53.7715 122.046C53.8346 122.009 53.906 121.99 53.9788 121.99C54.0516 121.99 54.1231 122.009 54.1861 122.046L59.7073 125.257C59.7706 125.294 59.8231 125.347 59.8598 125.41C59.8964 125.474 59.9158 125.546 59.916 125.62V130.104C59.8788 130.334 59.8359 130.392 59.7073 130.467Z" fill="#E5E5E5"/>
<path d="M59.1554 125.833L53.6743 122.337V122.178L53.7201 122.069L53.7715 122.046C53.8346 122.009 53.906 121.99 53.9788 121.99C54.0516 121.99 54.1231 122.009 54.1861 122.046L59.7073 125.257C59.7748 125.296 59.8302 125.352 59.8674 125.421L59.1554 125.833Z" fill="#E5E5E5"/>
<path d="M53.8144 122.069L59.6072 125.438C59.6376 125.456 59.6628 125.482 59.6804 125.513C59.6979 125.544 59.7072 125.579 59.7073 125.614V130.467L53.6743 126.956V122.149C53.6747 122.133 53.6793 122.117 53.6877 122.103C53.696 122.089 53.7077 122.078 53.7218 122.069C53.7359 122.061 53.7518 122.057 53.768 122.057C53.7843 122.057 53.8002 122.061 53.8144 122.069Z" fill="#DCEEFF"/>
<path d="M53.8144 122.069L59.6072 125.438C59.6376 125.456 59.6628 125.482 59.6804 125.513C59.6979 125.544 59.7072 125.579 59.7073 125.614V130.467L53.6743 126.956V122.149C53.6747 122.133 53.6793 122.117 53.6877 122.103C53.696 122.089 53.7077 122.078 53.7218 122.069C53.7359 122.061 53.7518 122.057 53.768 122.057C53.7843 122.057 53.8002 122.061 53.8144 122.069Z" fill="#F4F4F4"/>
<path d="M59.7073 130.467V130.291L53.6743 126.783V126.956L59.7073 130.467Z" fill="#DBDBDB"/>
<path d="M53.8315 126.703V122.319L53.9035 122.363V126.665L53.8315 126.703Z" fill="#1E3779"/>
<path d="M53.9031 122.363V126.665L59.5157 129.92V125.626L53.9031 122.363Z" fill="#3A2C6D"/>
<path d="M53.8315 126.703L59.5157 130.006V129.92L53.903 126.665L53.8315 126.703Z" fill="#031F60"/>
<path d="M47.3353 121.308C47.1923 121.668 47.5555 122.109 48.5276 122.417C49.4997 122.725 49.5884 122.331 49.5884 122.331C50.2365 122.622 50.8684 122.949 51.4812 123.31C52.053 123.722 52.3218 124.911 52.4018 126.921C52.4933 129.246 52.499 132.681 52.4247 133.289C52.4247 133.289 51.3325 134.384 49.9372 134.268C48.5419 134.153 46.1916 132.909 45.6198 131.947C45.6369 129.908 45.8714 129.577 45.5454 128.402C44.7963 125.715 44.4017 124.615 44.7648 122.829C45.0651 121.357 45.4854 121.173 46.0629 121.187C46.4889 121.205 46.9136 121.245 47.3353 121.308Z" fill="#F4F4F4"/>
<path d="M54.6978 129.413C53.5541 129.701 53.2825 128.975 53.131 128.373C52.7678 126.913 52.5591 125.597 52.2989 124.767C51.9787 123.791 51.6442 123.635 51.1724 123.445C50.6206 123.221 50.1431 123.693 50.3289 124.934C50.554 126.378 50.9051 127.798 51.3783 129.179C51.5212 129.634 51.8415 130.441 52.3189 130.833C52.9108 131.314 53.8 131.293 55.1467 130.954C55.7186 130.81 56.3533 130.464 57.4341 129.954C57.72 129.816 57.9516 129.727 58.512 129.462C59.0719 129.207 59.5623 128.82 59.9416 128.333C60.2276 127.906 60.2733 127.705 60.2276 127.607C60.1818 127.509 60.0188 127.512 59.8616 127.69C59.6371 127.996 59.3578 128.257 59.0381 128.459C59.0381 128.459 59.4012 128.082 59.5957 127.837C59.7726 127.622 59.9189 127.382 60.0303 127.126C60.1332 126.875 59.9188 126.536 59.7443 126.714C59.5699 126.893 59.5042 127.074 59.2068 127.431C59.0513 127.622 58.8737 127.793 58.6779 127.941C58.8616 127.691 59.0251 127.426 59.1668 127.149C59.2927 126.932 59.3542 126.683 59.3441 126.432C59.3441 126.302 59.1525 126.144 58.9809 126.394C58.8145 126.734 58.6081 127.052 58.3662 127.342C58.1032 127.616 57.883 127.771 57.8744 127.696C57.8658 127.621 58.0345 127.472 58.126 127.152C58.2175 126.832 58.126 126.495 57.9516 126.461C57.7772 126.426 57.8115 126.432 57.6657 126.731C57.475 127.038 57.304 127.356 57.1539 127.685C57.0641 127.992 56.9023 128.272 56.6821 128.503C56.4105 128.802 55.7872 129.136 54.6978 129.413Z" fill="#FFCEA9"/>
<path d="M50.7492 123.247C51.5126 123.131 52.053 123.48 52.3933 124.646C52.7335 125.813 52.9651 126.775 52.9651 126.775C52.6623 127.217 52.2031 127.526 51.6813 127.639C50.7664 127.863 50.4376 127.423 50.4376 127.423C50.4376 127.423 50.1831 126.199 50.0258 125.366C49.8686 124.534 49.8028 123.388 50.7492 123.247Z" fill="#EDEDED"/>
<path d="M51.1267 117.268C51.1267 117.268 52.3362 115.416 49.7143 115.039C47.8243 114.765 46.612 115.989 46.4719 117.317C46.3375 118.584 47.1124 119.909 47.6728 120.421C48.2226 120.561 48.8045 120.49 49.3054 120.223C49.3355 119.878 49.3469 119.532 49.3397 119.186C49.3397 119.186 48.4191 117.233 51.1267 117.268Z" fill="#3A2C6D"/>
<path d="M56.3705 140.694V135.132L51.9873 137.71L53.6742 141.226L56.3705 140.694Z" fill="#D5D6E0"/>
<path d="M53.4971 135.452L55.1783 134.47L56.3706 135.161L54.6265 136.158L53.4971 135.452Z" fill="#E9EAF4"/>
<path d="M92.3691 117.254C93.015 117.254 93.5386 116.949 93.5386 116.574C93.5386 116.199 93.015 115.894 92.3691 115.894C91.7233 115.894 91.1997 116.199 91.1997 116.574C91.1997 116.949 91.7233 117.254 92.3691 117.254Z" fill="#D5D6E0"/>
</g>
<defs>
<linearGradient id="paint0_linear" x1="92.3691" y1="116.574" x2="92.3691" y2="87.9958" gradientUnits="userSpaceOnUse">
<stop stop-color="#E9EAF4"/>
<stop offset="0.63" stop-color="#E9EAF4" stop-opacity="0"/>
</linearGradient>
<clipPath id="clip0">
<rect width="110" height="144" fill="white" transform="translate(25 14)"/>
</clipPath>
</defs>
</svg>
