<svg width="24" height="24" viewBox="0 0 24 24" fill="none" xmlns="http://www.w3.org/2000/svg">
<circle cx="12" cy="12" r="12" fill="#3388FF"/>
<g clip-path="url(#clip0)">
<path d="M18.8764 9.03125H18.4382V13.8478C18.4382 14.5977 18.0015 15.2759 17.1262 15.2759H8.55005V15.5048C8.55005 16.1679 9.30415 16.8371 10.0785 16.8371H16.6354L19.1439 18.312L18.7801 16.8371H18.8764C19.6502 16.8371 19.9994 16.1694 19.9994 15.5048V10.1746C19.9994 9.5116 19.6502 9.03125 18.8764 9.03125Z" fill="white"/>
<path d="M15.846 5.68555H5.88499C5.00859 5.68555 4 6.46411 4 7.21456V13.2515C4 13.9426 4.85454 14.4417 5.67421 14.5188L5.14078 16.5437L8.55894 14.5328H15.846C16.7224 14.5328 17.5311 14.0014 17.5311 13.2515V8.36731V7.21456C17.5311 6.46411 16.7218 5.68555 15.846 5.68555ZM7.40463 10.7816C6.90762 10.7816 6.50481 10.3788 6.50481 9.88175C6.50481 9.38474 6.90762 8.98193 7.40463 8.98193C7.90112 8.98193 8.30445 9.38474 8.30445 9.88175C8.30445 10.3788 7.90112 10.7816 7.40463 10.7816ZM10.7655 10.7816C10.2685 10.7816 9.86573 10.3788 9.86573 9.88175C9.86573 9.38474 10.2685 8.98193 10.7655 8.98193C11.2626 8.98193 11.6654 9.38474 11.6654 9.88175C11.6654 10.3788 11.2626 10.7816 10.7655 10.7816ZM14.127 10.7816C13.63 10.7816 13.2266 10.3788 13.2266 9.88175C13.2266 9.38474 13.63 8.98193 14.127 8.98193C14.6229 8.98193 15.0268 9.38474 15.0268 9.88175C15.0268 10.3788 14.6229 10.7816 14.127 10.7816Z" fill="white"/>
</g>
<defs>
<clipPath id="clip0">
<rect width="15.9995" height="16" fill="white" transform="translate(4 4)"/>
</clipPath>
</defs>
</svg>
