<svg width="69" height="60" viewBox="0 0 69 60" fill="none" xmlns="http://www.w3.org/2000/svg">
<path d="M62.75 32.6906C59.4116 31.5081 55.8066 31.2953 52.3523 32.0768C48.898 32.8583 45.7357 34.6021 43.2314 37.1064C40.7271 39.6107 38.9833 42.773 38.2018 46.2273C37.4203 49.6816 37.6331 53.2866 38.8156 56.625H3.375C2.5462 56.625 1.75134 56.2958 1.16529 55.7097C0.57924 55.1237 0.25 54.3288 0.25 53.5V3.5C0.25 2.6712 0.57924 1.87634 1.16529 1.29029C1.75134 0.70424 2.5462 0.375 3.375 0.375H59.625C60.4538 0.375 61.2487 0.70424 61.8347 1.29029C62.4208 1.87634 62.75 2.6712 62.75 3.5V32.6906ZM31.6875 27.5094L11.65 10.4937L7.60313 15.2563L31.7281 35.7406L55.4187 15.2406L51.3313 10.5125L31.6906 27.5094H31.6875ZM53.375 59.75L42.325 48.7L46.7469 44.2812L53.375 50.9125L64.425 39.8625L68.8438 44.2812L53.375 59.75Z" fill="#134889"/>
</svg>
