<svg width="160" height="160" viewBox="0 0 160 160" fill="none" xmlns="http://www.w3.org/2000/svg">
<circle opacity="0.2" cx="80" cy="80" r="80" fill="#106BFF"/>
<g clip-path="url(#clip0)">
<path opacity="0.4" d="M96.2045 123.887L78.9915 113.907C77.7493 113.187 77.907 111.932 79.3386 111.099L90.4955 104.634L112.21 117.219L101.053 123.685C99.6185 124.517 97.4496 124.607 96.2045 123.887Z" fill="#D6D8E5"/>
<path d="M97.4669 123.146L80.2538 113.164C79.0145 112.444 79.1694 111.188 80.6038 110.356L91.7493 103.888L113.464 116.473L102.31 122.942C100.875 123.774 98.7062 123.863 97.4669 123.146Z" fill="#B1B4C4"/>
<path d="M113.466 116.476V115.817L112.462 116.399L113.466 116.476Z" fill="#B1B4C4"/>
<path d="M79.4075 111.975V111.304L80.4374 111.733L79.4075 111.975Z" fill="#B1B4C4"/>
<path d="M97.4669 122.484L80.2538 112.505C79.0145 111.785 79.1694 110.529 80.6038 109.697L91.7579 103.231L113.472 115.817L102.318 122.282C100.875 123.114 98.7062 123.204 97.4669 122.484Z" fill="#D6D8E5"/>
<path d="M91.8066 103.26L89.1213 94.3091L111.074 106.949L113.466 115.817L91.8066 103.26Z" fill="#9EA1AF"/>
<path d="M112.844 116.186L113.478 115.817L112.534 115.06L112.844 116.186Z" fill="#9EA1AF"/>
<path d="M91.1154 103.597L88.4272 94.646L110.383 107.286L112.83 116.186L91.1154 103.597Z" fill="#B1B4C4"/>
<path d="M146.842 131.271L61.8673 82.0229C60.6768 81.3317 59.71 79.477 59.71 77.8815V11.8978C59.71 10.3023 60.6768 9.56785 61.8673 10.2591L146.842 59.5071C148.033 60.1983 149 62.0501 149 63.6456V129.635C148.991 131.231 148.033 131.962 146.842 131.271Z" fill="#C4C7D6"/>
<path d="M147.279 131.953L148.22 131.406L147.812 128.604L147.279 131.953Z" fill="#C4C7D6"/>
<path d="M59.558 10.6651L60.4846 10.1294L61.8158 10.8926C61.8158 10.8926 60.3986 11.1086 60.3641 11.1C60.3297 11.0913 59.558 10.6651 59.558 10.6651Z" fill="#B1B4C4"/>
<path d="M146.063 131.723L61.0905 82.475C59.897 81.7867 58.9331 79.932 58.9331 78.3365V12.3499C58.9331 10.7544 59.897 10.02 61.0905 10.7112L146.063 59.9592C147.256 60.6504 148.22 62.5022 148.22 64.0978V130.096C148.22 131.68 147.271 132.414 146.063 131.723Z" fill="#E4E7F2"/>
<path d="M145.913 131.824L60.9408 82.5759C59.7473 81.8847 58.7805 80.0328 58.7805 78.4373V12.4363C58.7805 10.8408 59.7473 10.1064 60.9408 10.7976L145.913 60.0456C147.104 60.7339 148.07 62.5887 148.07 64.1842V130.171C148.07 131.766 147.104 132.501 145.913 131.824Z" fill="#D6D8E5"/>
<path d="M146.903 127.792L59.8621 77.3488L59.9051 12.6985C59.9051 12.039 60.3698 11.7683 60.9407 12.0995L145.913 61.3475C146.213 61.5451 146.463 61.8106 146.642 62.1227C146.822 62.4349 146.926 62.7849 146.946 63.1446L146.903 127.792Z" fill="white"/>
<path opacity="0.4" d="M111.314 151.996C115.004 151.996 117.995 150.263 117.995 148.125C117.995 145.987 115.004 144.254 111.314 144.254C107.624 144.254 104.632 145.987 104.632 148.125C104.632 150.263 107.624 151.996 111.314 151.996Z" fill="#D6D8E5"/>
<path opacity="0.4" d="M45.6815 148.763C49.3716 148.763 52.3631 147.03 52.3631 144.893C52.3631 142.755 49.3716 141.022 45.6815 141.022C41.9914 141.022 39 142.755 39 144.893C39 147.03 41.9914 148.763 45.6815 148.763Z" fill="#D6D8E5"/>
<path opacity="0.4" d="M17.6815 118.872C21.3716 118.872 24.3631 117.139 24.3631 115.002C24.3631 112.864 21.3716 111.131 17.6815 111.131C13.9914 111.131 11 112.864 11 115.002C11 117.139 13.9914 118.872 17.6815 118.872Z" fill="#D6D8E5"/>
<path d="M41.0006 118.996C41.0006 118.996 41.19 121.841 41.5744 122.247C41.9588 122.653 43.201 122.938 43.201 122.938L44.1707 124.537C44.1707 124.537 43.2727 119.451 43.0949 119.33C42.917 119.209 41.0006 118.996 41.0006 118.996Z" fill="#FFCEA9"/>
<path d="M42.8615 115.837C42.6259 115.727 42.3584 115.708 42.1098 115.783C41.8611 115.859 41.6488 116.023 41.5132 116.245C41.1574 116.839 40.7874 118.869 40.7529 119.218C40.7529 119.218 41.2521 119.912 42.0037 119.794L42.8615 115.837Z" fill="#EDEDED"/>
<path d="M45.7303 144.224C46.2571 144.369 46.8194 144.301 47.2967 144.034C47.6754 144.034 49.7238 143.17 50.002 143.905C50.2459 144.553 49.3594 145.152 48.8861 145.267C47.8504 145.518 47.0844 146.036 46.6684 146.131C46.3586 146.194 45.957 146.238 45.7103 145.993C45.4148 145.696 45.4406 144.61 45.7303 144.224Z" fill="#38226D"/>
<path d="M46.6685 145.944C47.0845 145.858 47.8504 145.339 48.8861 145.08C49.282 144.985 49.9676 144.547 50.0336 144.029C50.1254 144.625 49.325 145.152 48.8861 145.261C47.8504 145.512 47.0845 146.03 46.6685 146.125C46.3586 146.189 45.957 146.232 45.7103 145.987C45.6461 145.917 45.5999 145.832 45.5754 145.74C45.7292 145.857 45.9081 145.936 46.0978 145.972C46.2876 146.007 46.483 145.998 46.6685 145.944Z" fill="#134889"/>
<path d="M42.5402 143.225C43.0669 143.371 43.6298 143.303 44.1066 143.035C44.4824 143.035 46.5337 142.171 46.8119 142.905C47.0558 143.553 46.1693 144.152 45.6931 144.268C44.6603 144.518 43.8943 145.036 43.4783 145.132C43.1685 145.198 42.7669 145.238 42.5201 144.996C42.2333 144.697 42.2505 143.611 42.5402 143.225Z" fill="#38226D"/>
<path d="M43.4783 144.944C43.8943 144.858 44.6602 144.34 45.693 144.08C46.0918 143.983 46.7746 143.545 46.8406 143.026C46.9324 143.623 46.132 144.152 45.693 144.259C44.6602 144.51 43.8943 145.028 43.4783 145.123C43.1684 145.189 42.7668 145.23 42.5201 144.988C42.4555 144.916 42.4092 144.83 42.3853 144.737C42.5384 144.855 42.7172 144.936 42.9071 144.972C43.097 145.008 43.2927 144.998 43.4783 144.944Z" fill="#134889"/>
<path d="M42.3136 137.439C42.4019 136.676 42.5594 135.922 42.7841 135.187C42.7841 135.187 42.6435 133.243 42.5746 131.4C42.4943 129.306 41.7714 127.466 42.3423 125.795L48.6882 127.212C48.6882 127.212 48.3812 135.564 48.2951 136.581C48.2489 137.367 48.1531 138.149 48.0082 138.922C47.7127 140.544 47.3972 144.155 47.3972 144.155C46.7173 144.55 45.7218 144.225 45.7218 144.225C45.7218 144.225 45.7218 139.689 45.7591 138.522C45.8136 137.082 45.8566 137.206 45.8566 137.206L45.6443 133.658L45.5066 131.892C45.5066 131.892 45.3259 133.188 45.2197 134.346C45.1193 135.354 44.8755 136.267 44.6058 138.145C44.3705 139.775 44.1267 143.096 44.1267 143.096C43.4468 143.493 42.5316 143.219 42.5316 143.219C42.5316 143.219 42.1271 138.853 42.3136 137.439Z" fill="#134889"/>
<path d="M43.203 115.871C43.6907 115.897 44.0637 116.023 44.1182 115.871C44.1715 115.618 44.2088 115.362 44.2301 115.105C44.1727 114.961 44.1239 114.817 44.1239 114.817C43.51 114.437 43.3149 113.768 43.2346 112.991C43.0969 111.663 43.8083 110.503 45.1337 110.364C46.3759 110.232 47.2911 111.11 47.5378 112.314C47.6669 112.91 47.9309 114.042 47.5751 115.013C47.3772 115.56 47.1218 115.995 46.8694 116.078C46.6225 116.071 46.3763 116.049 46.1321 116.012L46.0231 116.617C45.9772 116.853 45.9944 116.98 46.4649 117.268C46.9354 117.556 45.7534 118.155 44.9817 118.097C44.21 118.039 43.3465 117.573 43.1083 117.072C42.8415 116.507 42.8674 115.856 43.203 115.871Z" fill="#FFCEA9"/>
<path d="M43.9115 115.946C43.7738 116.285 44.1181 116.7 45.039 116.991C45.9599 117.282 46.0431 116.907 46.0431 116.907C46.6552 117.183 47.2519 117.491 47.8304 117.832C48.3812 118.218 48.625 119.338 48.691 121.233C48.7771 123.422 48.7857 126.671 48.714 127.232C48.714 127.232 47.6812 128.263 46.3615 128.154C45.0418 128.044 42.83 126.875 42.2906 125.968C42.2906 124.047 42.5287 123.736 42.2189 122.627C41.5103 120.096 41.1373 119.059 41.4816 117.377C41.7685 115.989 42.1615 115.816 42.7095 115.83C43.1119 115.848 43.5131 115.886 43.9115 115.946Z" fill="#F4F4F4"/>
<path d="M47.5607 128.917L46.8894 121.291L48.3066 120.537L48.8574 121.003L48.6882 127.852V128.039V128.281C48.6882 128.281 48.7197 128.857 47.6382 129.545C47.6382 129.545 47.621 129.364 47.6037 129.197L47.5779 128.909L47.5607 128.917Z" fill="#FFCEA9"/>
<path d="M47.3972 117.372C48.1287 117.372 48.5935 117.746 48.7742 118.878C48.9549 120.01 49.0611 120.934 49.0611 120.934C48.7256 121.31 48.2594 121.542 47.7586 121.582C46.8722 121.683 46.6111 121.231 46.6111 121.231C46.6111 121.231 46.5164 120.056 46.4676 119.258C46.4189 118.46 46.4877 117.372 47.3972 117.372Z" fill="#EDEDED"/>
<path d="M47.4948 112.136C47.4948 112.136 48.6423 110.393 46.1608 110.036C44.3735 109.78 43.2259 110.932 43.094 112.182C42.9677 113.377 43.6993 114.618 44.2415 115.111C44.7613 115.242 45.3114 115.176 45.7849 114.923C45.8136 114.598 45.8251 114.271 45.8194 113.944C45.8194 113.944 44.9358 112.104 47.4948 112.136Z" fill="#3A2C6D"/>
<path opacity="0.4" d="M138.664 115.854L70.0006 76.0584C68.5863 75.2405 67.4387 73.0402 67.4387 71.1451V20.3938C67.4387 18.4987 68.5863 17.629 70.0006 18.4498L138.664 58.2427C140.078 59.0635 141.225 61.2639 141.225 63.156V113.91C141.223 115.802 140.075 116.675 138.664 115.854Z" fill="#D6D8E5"/>
<path d="M134.814 108.726L66.1565 68.9334C64.7393 68.1126 63.5946 65.9123 63.5946 64.0172V13.2659C63.5946 11.3708 64.7421 10.5011 66.1565 11.3219L134.814 51.1148C136.228 51.9356 137.376 54.1359 137.376 56.031V106.782C137.376 108.677 136.228 109.547 134.814 108.726Z" fill="white"/>
<path d="M137.376 60.0255L63.5946 17.2604V13.2659C63.5946 11.3708 64.7421 10.5011 66.1565 11.3219L134.814 51.1148C136.228 51.9356 137.376 54.1359 137.376 56.031V60.0255Z" fill="#134889"/>
<path d="M68.7114 17.5495C69.0613 17.3467 69.0611 16.6888 68.7109 16.0799C68.3608 15.4711 67.7933 15.1419 67.4434 15.3447C67.0935 15.5475 67.0937 16.2055 67.4438 16.8143C67.794 17.4232 68.3615 17.7523 68.7114 17.5495Z" fill="white"/>
<path d="M75.8848 21.6036C76.2363 21.4008 76.2374 20.7406 75.8873 20.1289C75.5371 19.5173 74.9683 19.1859 74.6168 19.3887C74.2653 19.5915 74.2642 20.2517 74.6144 20.8633C74.9645 21.475 75.5333 21.8064 75.8848 21.6036Z" fill="white"/>
<path d="M72.1695 19.5535C72.5194 19.3507 72.5192 18.6927 72.1691 18.0838C71.8189 17.475 71.2514 17.1458 70.9015 17.3486C70.5516 17.5514 70.5518 18.2094 70.902 18.8182C71.2521 19.4271 71.8196 19.7563 72.1695 19.5535Z" fill="white"/>
<path d="M74.0974 65.8144L70.5114 63.7351V48.8887L74.0974 50.9652V65.8144Z" fill="#169CD6"/>
<path d="M87.4202 73.5355L83.8313 71.4561V46.2158L87.4202 48.2952V73.5355Z" fill="#169CD6"/>
<path d="M80.7588 69.6765L77.1727 67.5971V47.6992L80.7588 49.7786V69.6765Z" fill="#134889"/>
<path d="M94.0789 77.3948L90.4928 75.3183V40.2773L94.0789 42.3538V77.3948Z" fill="#134889"/>
<path d="M130.972 67.8935L102.533 51.4112V47.2554L130.972 63.7376V67.8935Z" fill="#E9EAF2"/>
<path d="M130.972 73.2388L102.533 56.7566V54.6772L130.972 71.1595V73.2388Z" fill="#E9EAF2"/>
<path d="M130.972 77.1988L102.533 60.7166V58.6372L130.972 75.1194V77.1988Z" fill="#E9EAF2"/>
<path d="M127.128 78.9296L102.533 64.6765V62.5972L127.128 76.8532V78.9296Z" fill="#E9EAF2"/>
<path d="M123.542 80.8131L102.533 68.6365V66.5571L123.542 78.7338V80.8131Z" fill="#E9EAF2"/>
<path d="M114.577 84.2262L105.864 79.1775V77.1011L114.577 82.1468V84.2262Z" fill="#E9EAF2"/>
<path d="M105.095 78.7339L102.533 77.2478V75.1685L105.095 76.6545V78.7339Z" fill="#169CD6"/>
<path d="M114.577 89.2745L105.864 84.2258V82.1465L114.577 87.1951V89.2745Z" fill="#E9EAF2"/>
<path d="M105.095 83.7827L102.533 82.2966V80.2173L105.095 81.7034V83.7827Z" fill="#134889"/>
<path d="M130.203 93.2838L121.494 88.2352V86.1587L130.203 91.2044V93.2838Z" fill="#E9EAF2"/>
<path d="M120.725 87.7915L118.163 86.3054V84.2261L120.725 85.7122V87.7915Z" fill="#134889"/>
<path d="M130.203 98.3321L121.494 93.2835V91.2041L130.203 96.2527V98.3321Z" fill="#E9EAF2"/>
<path d="M120.725 92.8375L118.163 91.3543V89.2749L120.725 90.761V92.8375Z" fill="#169CD6"/>
<path opacity="0.4" d="M57.5986 111.546L32.809 97.0707L35.2389 95.3975L60.0257 109.872L57.5986 111.546Z" fill="#D6D8E5"/>
<path d="M58.9442 109.394L38.1938 97.3673C36.7766 96.5465 35.632 94.3461 35.632 92.454V58.925C35.632 57.03 36.7795 56.1602 38.1938 56.981L58.9442 69.0079C60.3585 69.8287 61.5061 72.029 61.5061 73.9212V107.45C61.5061 109.36 60.3585 110.224 58.9442 109.394Z" fill="#C4C7D6"/>
<path d="M59.0847 110.451L60.6826 109.489L59.0703 106.946L59.0847 110.451Z" fill="#C4C7D6"/>
<path d="M35.1843 57.664L36.6388 56.7827L36.5872 59.1328L35.1843 57.664Z" fill="#C4C7D6"/>
<path d="M57.4753 110.287L36.7135 98.2576C35.2991 97.4397 34.1516 95.248 34.1516 93.3444V59.824C34.1516 57.9319 35.2991 57.0592 36.7135 57.88L57.4753 69.904C58.8897 70.7248 60.0372 72.9252 60.0372 74.8202V108.341C60.0257 110.224 58.8782 111.105 57.4753 110.287Z" fill="#D6D8E5"/>
<path d="M56.1843 78.659L37.9929 68.1153V62.7729L56.1843 73.3137V78.659Z" fill="#134889"/>
<path d="M43.1167 81.778L38.2511 78.9556V73.6104L43.1167 76.4328V81.778Z" fill="#134889"/>
<path d="M49.5228 85.4904L44.6544 82.668V77.3228L49.5228 80.1452V85.4904Z" fill="#134889"/>
<path d="M55.9261 89.2L51.0605 86.3804V81.0352L55.9261 83.8547V89.2Z" fill="#134889"/>
<path d="M43.1167 89.7961L38.2511 86.9737V81.6284L43.1167 84.4508V89.7961Z" fill="#134889"/>
<path d="M49.5228 93.5085L44.6544 90.6861V85.3408L49.5228 88.1632V93.5085Z" fill="#134889"/>
<path d="M55.9261 97.2204L51.0605 94.398V89.0527L55.9261 91.8751V97.2204Z" fill="#134889"/>
<path d="M43.1167 97.8142L38.2511 94.9918V89.6465L43.1167 92.4689V97.8142Z" fill="#134889"/>
<path d="M49.5228 101.526L44.6544 98.7037V93.3584L49.5228 96.1808V101.526Z" fill="#134889"/>
<path d="M55.9261 105.238L51.0605 102.416V97.0708L55.9261 99.8932V105.238Z" fill="#134889"/>
<path d="M115.39 119.046C115.964 119.21 116.28 119.841 116.776 121.186C117.191 122.405 117.393 123.687 117.373 124.976C117.215 126.243 116.693 127.228 115.428 128.256L114.825 127.147C114.825 127.147 116.062 126.05 116.188 124.783C116.26 124.071 115.428 121.672 115.428 121.615C115.428 121.557 115.39 119.046 115.39 119.046Z" fill="#FFCEA9"/>
<path d="M110.442 148.258C110.251 148.317 110.049 148.334 109.851 148.307C109.653 148.28 109.463 148.21 109.294 148.102C108.984 148.102 107.171 147.391 106.942 147.996C106.744 148.526 107.47 149.015 107.857 149.11C108.703 149.318 109.331 149.741 109.673 149.813C109.803 149.858 109.942 149.872 110.078 149.852C110.214 149.833 110.344 149.781 110.456 149.701C110.711 149.462 110.68 148.575 110.442 148.258Z" fill="#38226D"/>
<path d="M109.676 149.666C109.334 149.594 108.706 149.171 107.86 148.964C107.535 148.886 106.973 148.529 106.919 148.1C106.841 148.586 107.492 149.021 107.86 149.108C108.706 149.315 109.334 149.738 109.676 149.81C109.806 149.856 109.945 149.869 110.081 149.85C110.217 149.83 110.347 149.778 110.459 149.698C110.511 149.64 110.549 149.571 110.571 149.496C110.445 149.593 110.299 149.658 110.143 149.688C109.988 149.717 109.828 149.71 109.676 149.666Z" fill="#134889"/>
<path d="M115.049 145.853C114.883 145.91 114.706 145.927 114.533 145.901C114.36 145.874 114.195 145.807 114.053 145.703C113.767 145.703 111.902 145.018 111.681 145.602C111.489 146.112 112.189 146.584 112.562 146.674C113.376 146.872 113.982 147.281 114.309 147.35C114.434 147.395 114.568 147.408 114.699 147.39C114.83 147.371 114.955 147.321 115.063 147.244C115.301 147.013 115.276 146.158 115.049 145.853Z" fill="#38226D"/>
<path d="M114.309 147.209C113.982 147.14 113.376 146.731 112.562 146.533C112.249 146.458 111.701 146.112 111.655 145.703C111.583 146.173 112.215 146.59 112.562 146.674C113.376 146.872 113.982 147.281 114.309 147.351C114.434 147.395 114.568 147.408 114.699 147.39C114.83 147.371 114.955 147.321 115.063 147.244C115.114 147.188 115.15 147.121 115.169 147.048C115.048 147.14 114.908 147.203 114.758 147.231C114.609 147.259 114.455 147.252 114.309 147.209Z" fill="#134889"/>
<path d="M115.657 141.234C115.658 140.535 115.537 139.841 115.301 139.183C115.301 139.183 115.539 136.375 115.717 134.532C115.978 131.813 116.394 131.545 116.277 129.895C116.168 128.363 115.301 127.369 115.075 126.333L110.654 126.684C110.654 126.684 110.269 127.94 109.773 130.445C109.277 132.951 109.245 135.932 109.291 139.88C109.305 140.897 109.119 141.781 109.179 144.315C109.219 146.02 109.314 148.105 109.314 148.105C109.962 148.664 110.41 148.252 110.41 148.252C110.41 148.252 111.543 143.206 111.71 142.046C111.83 141.405 111.777 140.743 111.555 140.131C111.555 140.131 111.887 138.544 112.128 137.297C112.43 135.776 113.17 132.49 113.17 132.49C113.17 132.49 113.044 137.539 113.264 138.538C113.485 139.537 113.523 140.398 113.709 141.752C113.936 143.391 114.039 145.784 114.039 145.784C114.713 146.213 115.012 145.882 115.012 145.882C115.012 145.882 115.657 142.665 115.657 141.234Z" fill="#FFCEA9"/>
<path d="M115.075 126.333C115.537 126.808 116.303 128.256 116.303 130.448C116.303 132.913 115.944 132.412 115.775 135.131L115.603 137.847C115.603 137.847 111.911 139.615 109.277 137.973C109.042 137.461 109.366 131.75 109.825 129.719C110.284 127.689 110.608 126.693 110.608 126.693C110.608 126.693 114.005 127.603 115.075 126.333Z" fill="#134889"/>
<path d="M115.126 119.02C114.185 118.965 114.097 119.121 114.019 118.787C113.993 118.666 113.942 117.833 113.942 117.833C114.028 117.723 114.107 117.607 114.177 117.485C114.607 117.221 114.943 116.828 115.139 116.361C115.335 115.895 115.38 115.379 115.268 114.885C115.157 114.392 114.893 113.946 114.516 113.61C114.138 113.275 113.666 113.067 113.164 113.015C111.913 112.883 110.995 113.764 110.751 114.974C110.62 115.57 110.482 116.791 110.852 117.767C111.061 118.32 111.254 118.709 111.753 118.689C111.918 118.674 112.082 118.645 112.243 118.602C112.27 118.832 112.28 119.063 112.272 119.294C112.258 119.535 112.301 119.659 111.827 119.95C111.354 120.241 112.542 120.84 113.313 120.782C114.085 120.725 114.957 120.253 115.198 119.751C115.462 119.19 115.571 119.049 115.126 119.02Z" fill="#FFCEA9"/>
<path d="M115.821 123.211C115.821 123.211 116.885 122.969 117.373 122.494C117.373 122.494 116.739 120.492 116.334 119.988C115.93 119.484 115.537 122.718 115.537 122.718L115.821 123.211Z" fill="#EDEDED"/>
<path d="M114.194 119C114.366 119.219 114.386 119.492 113.715 119.662C113.227 119.802 112.705 119.762 112.243 119.55C111.713 119.774 111.205 120.045 110.723 120.359C110.149 122.251 110.614 122.493 110.373 123.85C110.464 124.532 110.579 126.292 110.608 126.692C111.887 127.591 114.489 127.285 115.075 126.332C115.084 126.014 115.113 125.696 115.164 125.382C115.775 123.107 116.254 122.502 116.082 120.774C115.984 119.792 115.91 119.299 115.39 119.046C114.995 118.978 114.593 118.963 114.194 119Z" fill="#F4F4F4"/>
<path d="M102.417 126.404C102.709 126.469 102.997 126.551 103.278 126.652C103.54 126.791 103.821 126.888 104.113 126.94C104.429 126.992 104.919 126.827 105.768 126.424C106.697 125.946 107.537 125.312 108.253 124.549C109.065 123.578 109.792 122.537 110.424 121.439C110.792 120.765 111.259 120.595 111.664 120.728C112.149 120.889 112.209 121.37 111.664 122.28C110.968 123.464 110.134 124.561 109.179 125.546C108.429 126.301 107.556 126.921 106.597 127.38C105.911 127.738 105.176 127.994 104.417 128.141C104.15 128.198 103.969 128.308 103.479 128.481C102.991 128.66 102.468 128.718 101.953 128.651C101.525 128.567 101.379 128.469 101.362 128.363C101.344 128.256 101.433 128.184 101.631 128.198C101.946 128.247 102.266 128.24 102.578 128.175C102.578 128.175 102.142 128.161 101.878 128.129C101.646 128.102 101.418 128.044 101.201 127.956C100.992 127.867 100.914 127.539 101.124 127.55C101.333 127.562 101.479 127.622 101.867 127.663C102.072 127.688 102.28 127.688 102.486 127.663C102.229 127.62 101.976 127.558 101.729 127.475C101.525 127.421 101.342 127.308 101.201 127.15C101.129 127.067 101.149 126.862 101.396 126.911C101.696 127.017 102.007 127.087 102.323 127.118C102.641 127.118 102.865 127.092 102.825 127.041C102.785 126.989 102.598 127 102.354 126.862C102.11 126.724 101.976 126.467 102.067 126.344C102.159 126.22 102.159 126.309 102.417 126.404Z" fill="#FFCEA9"/>
<path d="M111.15 123.372C110.409 123.263 109.723 122.914 109.197 122.378L110.378 120.731C110.378 120.731 111.044 119.887 111.922 120.365C111.922 120.365 112.587 120.437 111.922 121.828C111.695 122.357 111.438 122.873 111.15 123.372Z" fill="#EDEDED"/>
<path d="M110.522 114.259C110.57 113.977 110.726 113.724 110.957 113.555C111.188 113.386 111.476 113.314 111.758 113.355C112.171 113.075 112.67 112.955 113.164 113.015C114.286 113.13 115.02 113.862 115.362 114.991C115.527 115.555 115.637 116.134 115.692 116.719C116.03 119.227 116.937 121.22 116.087 121.963C115.238 122.706 112.915 123.182 111.945 122.706C110.975 122.231 112.745 117.914 110.82 115.506C110.37 114.945 110.327 114.545 110.522 114.259Z" fill="#3A2C6D"/>
<path d="M14.1557 113.809C14.5946 114.166 15.2401 113.841 15.2717 113.873C15.7856 114.351 16.3247 114.802 16.8868 115.223C17.1737 115.439 17.5839 115.727 17.5065 116.139C17.3688 116.879 16.1897 116.652 15.745 116.427C15.3003 116.202 14.936 115.825 14.5143 115.563C14.2274 115.376 13.9176 115.275 13.8717 114.898C13.8286 114.665 14.0639 113.801 14.1557 113.809Z" fill="#38226D"/>
<path d="M13.8688 114.742C13.9262 115.108 14.2188 115.209 14.5171 115.393C14.9446 115.661 15.3204 116.047 15.7651 116.271C16.2098 116.496 17.1995 116.689 17.4864 116.159C17.3315 116.873 16.1696 116.649 15.7307 116.427C15.2917 116.205 14.9216 115.825 14.4999 115.563C14.213 115.376 13.9032 115.275 13.8573 114.898C13.8541 114.846 13.8579 114.793 13.8688 114.742Z" fill="#134889"/>
<path d="M17.9397 112.392C18.3757 112.749 19.1417 112.358 19.1761 112.392C19.6294 112.855 20.1083 113.291 20.6106 113.7C20.8831 113.916 21.3106 114.204 21.2331 114.616C21.0954 115.356 19.9134 115.128 19.4688 114.904C19.0241 114.679 18.6597 114.302 18.238 114.04C17.9511 113.852 17.6413 113.752 17.5954 113.374C17.5725 113.144 17.8622 112.384 17.9397 112.392Z" fill="#38226D"/>
<path d="M17.6154 113.271C17.6728 113.636 17.9654 113.737 18.2638 113.924C18.6912 114.189 19.0671 114.575 19.5117 114.788C19.9564 115.001 20.9461 115.203 21.233 114.676C21.0781 115.39 19.9162 115.166 19.4773 114.941C19.0384 114.716 18.6683 114.339 18.2466 114.077C17.9453 113.89 17.6498 113.789 17.6039 113.412C17.6021 113.364 17.606 113.317 17.6154 113.271Z" fill="#134889"/>
<path d="M14.1154 97.5949C14.1384 98.2602 14.345 101.143 14.4368 102.669C14.5286 104.196 14.5486 106.068 14.5486 106.068C14.5486 106.068 14.2876 107.182 14.1154 108.49C13.9433 109.797 14.1154 113.925 14.1154 113.925C14.283 114.032 14.4776 114.089 14.6763 114.089C14.875 114.089 15.0696 114.032 15.2372 113.925C15.2372 113.925 15.9372 110.621 16.2613 109.132C16.5855 107.643 16.6429 106.788 16.8093 105.863C17.013 104.749 17.4519 99.5418 17.4519 99.5418H17.6298L18.0974 105.42C17.9558 105.854 17.8596 106.302 17.8105 106.756C17.6843 107.712 17.9453 112.531 17.9453 112.531C18.1322 112.635 18.344 112.685 18.5575 112.677C18.771 112.668 18.9781 112.6 19.156 112.482C19.156 112.482 20.3265 106.1 20.3265 105.129C20.3265 104.487 20.2146 96.0195 20.2146 96.0195L14.1154 97.5949Z" fill="#134889"/>
<path d="M15.702 84.7559C15.702 84.7559 15.7765 86.1959 15.745 86.3312C15.7134 86.4666 15.0823 86.8842 14.8987 87.0368C14.7151 87.1894 15.897 88.3587 16.4708 88.6237C17.0446 88.8886 18.8634 88.1917 18.8978 87.2931C18.9323 86.3946 18.5851 85.6429 18.3069 85.6026C18.0286 85.5623 15.702 84.7559 15.702 84.7559Z" fill="#FFCEA9"/>
<path d="M19.6553 87.4429C19.7384 86.8035 19.3196 86.1987 19.727 85.689C21.1614 87.0915 20.9692 90.7981 21.2934 93.177C22.3491 94.2887 24.4749 95.3802 25.0716 95.6509C25.1806 95.7027 25.2753 95.7546 25.2552 95.8727C25.1761 96.2645 25.0104 96.6336 24.7704 96.9527C23.3647 96.3421 22.352 95.9936 20.5934 94.3175C20.4277 94.1397 20.2788 93.9469 20.1487 93.7414C19.6352 92.2179 19.5089 88.5459 19.6553 87.4429Z" fill="#FFCEA9"/>
<path d="M15.5413 86.5819C15.5413 86.5819 16.5884 88.1486 18.0486 88.2955C18.5105 87.8404 18.5507 86.219 17.9138 85.7035C17.9138 85.7035 18.4876 85.2283 18.9007 85.3205C19.3305 85.5817 19.6508 85.9912 19.8015 86.4725C20.1725 87.5498 20.3474 88.6853 20.3179 89.8248C20.2921 91.3627 20.3179 96.0571 20.3179 96.0571C20.3179 96.0571 20.1113 97.0507 18.7917 97.7851C17.472 98.5195 16.4966 98.5972 15.5929 98.387C14.8528 98.2142 14.2417 97.9521 13.9864 97.4136C14.0523 96.3364 14.5314 93.5256 14.3536 92.172C14.1757 90.8184 13.8888 89.8075 13.8142 88.716C13.7396 87.6245 13.9577 87.6446 14.5056 87.2529C14.835 87.0055 15.181 86.7813 15.5413 86.5819Z" fill="#F4F4F4"/>
<path d="M18.9668 82.5958C18.7946 81.4726 17.9885 80.6201 16.8352 80.6835C16.3701 80.707 15.9241 80.8766 15.5603 81.1685C15.1965 81.4604 14.9334 81.8598 14.8081 82.3101C14.6828 82.7603 14.7017 83.2388 14.8621 83.6777C15.0225 84.1166 15.3164 84.4938 15.702 84.7558C15.7428 84.9266 15.8034 85.0919 15.8828 85.2483C16.2901 85.7264 17.5266 86.023 17.891 85.9712C18.1021 85.9524 18.3027 85.8704 18.4669 85.7359C18.6311 85.6014 18.7512 85.4205 18.8119 85.2166C19.1819 84.3325 19.0615 83.1517 18.9668 82.5958Z" fill="#FFCEA9"/>
<path d="M15.7021 84.7558L15.8082 83.7737C15.8082 83.7737 15.0164 81.7116 16.8955 82.0975C18.1406 82.3625 18.4533 82.4748 18.832 81.6367C19.2107 80.7987 17.8766 80.0441 16.2902 80.2543C15.7435 80.3113 15.2381 80.5723 14.8741 80.9857C14.5102 81.3991 14.3142 81.9347 14.325 82.4863C14.368 83.1027 14.5316 84.3526 15.7021 84.7558Z" fill="#3A2C6D"/>
<path d="M13.493 88.0676C14.041 87.9121 13.625 88.0417 14.041 87.9121C15.4754 89.3118 15.286 91.7166 15.6102 94.0897C16.3963 95.3944 19.3196 97.1627 19.3196 97.1627C19.3569 97.4132 19.268 97.4881 18.9524 98.0008C17.328 97.3742 15.8503 96.4172 14.6119 95.1899C14.543 95.1236 14.4426 95.1064 14.4139 95.0171C13.9061 93.5022 13.3496 89.1707 13.493 88.0676Z" fill="#FFCEA9"/>
<path d="M26.4774 90.9937L24.3545 98.2714L19.7041 100.138L21.3996 93.0471L26.4774 90.9937Z" fill="#F4F4F4"/>
<path d="M18.5794 97.2147C18.6482 96.9671 18.829 97.0275 19.0298 97.0909C19.2485 97.1781 19.4878 97.1991 19.7183 97.1514C19.8978 97.063 20.064 96.9496 20.2117 96.8144C20.3056 96.7586 20.4125 96.7288 20.5216 96.728C20.5216 96.7885 20.4154 97.16 20.4154 97.16C20.4154 97.16 21.4339 97.16 21.54 97.16C21.576 97.1523 21.6134 97.1564 21.6469 97.1716C21.6803 97.1868 21.7081 97.2124 21.726 97.2446C21.744 97.2768 21.7512 97.3139 21.7467 97.3505C21.7421 97.3871 21.726 97.4213 21.7007 97.448H21.7695C21.979 97.3991 22.0564 97.7216 21.8585 97.7706L21.6863 97.7965C21.824 97.8483 21.8585 98.0845 21.6863 98.1075H21.6318C21.6073 98.1131 21.5818 98.1131 21.5572 98.1075H21.5257C21.5306 98.132 21.5306 98.1572 21.5255 98.1816C21.5205 98.2061 21.5106 98.2292 21.4964 98.2497C21.4821 98.2701 21.4639 98.2875 21.4428 98.3007C21.4217 98.3139 21.3982 98.3226 21.3736 98.3264C20.8745 98.3898 20.1429 98.5885 19.6925 98.1767C19.3797 98.1466 19.0742 98.0638 18.7888 97.9319C18.5048 97.7907 18.4962 97.5114 18.5794 97.2147Z" fill="#FFCEA9"/>
<path d="M23.6716 96.6186H23.7404C23.7107 96.5975 23.6884 96.5675 23.6767 96.5329C23.6651 96.4983 23.6646 96.4609 23.6754 96.426C23.6863 96.3911 23.7078 96.3606 23.7371 96.3388C23.7663 96.317 23.8016 96.305 23.838 96.3047C23.9441 96.3047 24.9855 96.0858 24.9855 96.0858L25.1117 95.6538C25.1117 95.6279 25.2925 95.7402 25.2982 95.7431C25.3893 95.7998 25.4665 95.8763 25.5241 95.9671C25.5817 96.0578 25.6183 96.1604 25.631 96.2672C25.6444 96.566 25.5415 96.8583 25.3441 97.0823C25.1548 97.2723 24.9003 97.3825 24.6326 97.3904L24.2712 97.4135C24.2465 97.4154 24.2217 97.4123 24.1983 97.4042C24.1749 97.3962 24.1533 97.3834 24.135 97.3667C24.1168 97.3499 24.1021 97.3296 24.0919 97.3069C24.0818 97.2843 24.0764 97.2597 24.0761 97.2349H24.0245C23.9999 97.2403 23.9744 97.2403 23.9499 97.2349H23.9097C23.7318 97.2349 23.7175 97.0103 23.838 96.9296C23.7806 96.9296 23.7232 96.9296 23.6658 96.9296C23.4392 96.9527 23.4564 96.6186 23.6716 96.6186Z" fill="#FFCEA9"/>
<path d="M20.2462 88.3932C20.5344 88.3798 20.8064 88.2562 21.0065 88.0476C20.9663 87.509 20.2807 85.4556 18.9008 85.3145C19.276 85.5789 19.5734 85.9401 19.7614 86.3599C19.9747 87.0242 20.1368 87.7039 20.2462 88.3932Z" fill="#EDEDED"/>
<path d="M13.2463 91.0918C13.2463 91.0918 14.6176 91.567 15.5844 90.7693C15.6905 90.5849 15.0106 88.2406 15.0106 88.2406C15.0106 88.2406 14.4368 87.0396 13.5331 87.5177C12.6295 87.9958 13.2463 91.0918 13.2463 91.0918Z" fill="#EDEDED"/>
</g>
<defs>
<clipPath id="clip0">
<rect x="11" y="10" width="138" height="144" rx="20" fill="white"/>
</clipPath>
</defs>
</svg>
