<svg width="64" height="47" viewBox="0 0 64 47" fill="none" xmlns="http://www.w3.org/2000/svg">
<path d="M13.381 33.2227H8.12163V32.8651C8.12163 27.7004 8.13307 22.5356 8.12163 17.3696C8.11401 14.8551 8.9732 12.6779 10.623 10.81C12.1926 9.03476 14.1411 7.85168 16.4963 7.44591C19.5187 6.92601 22.2666 7.62851 24.7311 9.44434C25.059 9.68654 25.3767 9.94142 25.7008 10.19C25.7244 10.2028 25.7491 10.2134 25.7746 10.2217C26.0847 9.98199 26.4101 9.73219 26.7265 9.48619C28.7866 7.87996 31.3747 7.10102 33.9814 7.30262C38.5075 7.59934 42.4971 11.2259 43.2597 15.6844C43.3378 16.1482 43.3774 16.6177 43.3779 17.0881C43.3856 22.3623 43.3856 27.6361 43.3779 32.9095V33.2189H38.116V32.8626C38.116 27.7067 38.0956 22.5508 38.1249 17.3924C38.136 16.2937 37.7681 15.2245 37.0829 14.3643C36.3977 13.5041 35.4368 12.905 34.3614 12.6677C32.0101 12.1364 29.6232 13.2891 28.6724 15.3851C28.4041 15.9806 28.2675 16.6267 28.2721 17.2796C28.2721 21.6493 28.2721 26.0185 28.2721 30.3873C28.2721 31.6998 27.451 32.7079 26.1876 32.964C24.5773 33.2899 23.1843 32.1715 23.183 30.5357C23.1779 26.1305 23.1779 21.7253 23.183 17.3202C23.183 15.1429 21.7353 13.2954 19.5797 12.7146C17.4241 12.1339 15.1185 13.0126 14.028 14.8551C13.592 15.601 13.3692 16.4518 13.3836 17.3151C13.3836 22.4904 13.3836 27.6649 13.3836 32.8385L13.381 33.2227Z" fill="black"/>
<path d="M43.7556 36.8582C44.3244 37.211 44.8251 37.6628 45.2337 38.1922C46.3713 36.786 47.8279 36.0124 49.6327 36.0124C51.4375 36.0124 52.9042 36.7669 54.0583 38.1884C55.4221 36.5514 57.1481 35.7893 59.2694 36.0695C60.684 36.2559 61.8483 36.9368 62.7558 38.04C63.6307 39.1101 64.0687 40.4702 63.9823 41.8485C63.8958 43.2268 63.2912 44.5217 62.2893 45.4746C61.5448 46.1999 60.6036 46.6919 59.5821 46.8897C58.563 47.1015 57.5044 47.0175 56.5317 46.6475C55.5546 46.2775 54.7006 45.6424 54.0659 44.8139C52.9157 46.2278 51.4604 46.995 49.6505 46.995C47.8406 46.995 46.3853 46.2342 45.2363 44.8177C44.0924 46.2253 42.6384 46.9937 40.8284 46.995C39.0185 46.9962 37.562 46.2342 36.4092 44.8177C35.2653 46.2227 33.8138 46.9924 32.0052 46.9962C30.1965 47.0001 28.7374 46.2354 27.5821 44.819C26.4382 46.2215 24.9905 46.9912 23.1831 46.995C21.3758 46.9988 19.9129 46.2342 18.7575 44.819C17.6136 46.2139 16.1672 46.9912 14.3598 46.995C12.5525 46.9988 11.0896 46.2405 9.93295 44.8216C8.56535 46.47 6.82917 47.2308 4.6977 46.9379C3.34002 46.7586 2.10559 46.0592 1.25582 44.9877C0.377246 43.9263 -0.0680445 42.5734 0.00875215 41.199C0.0855488 39.8246 0.678789 38.5296 1.67017 37.5721C2.22055 37.0157 2.88785 36.5881 3.62394 36.3202C4.36002 36.0522 5.14653 35.9506 5.92675 36.0226C7.56762 36.1392 8.89708 36.9001 9.92787 38.1922C11.0769 36.7733 12.5372 36.0124 14.3433 36.0124C16.1494 36.0124 17.6123 36.7733 18.7562 38.1935C19.9001 36.7796 21.3605 36.0137 23.1679 36.0124C24.9752 36.0112 26.4369 36.7733 27.5808 38.1897C28.7247 36.7733 30.1838 36.0124 31.9924 36.0124C33.8011 36.0124 35.2602 36.7733 36.324 38.0882C36.5782 37.8803 36.8324 37.6837 37.0866 37.4694C38.5673 36.1646 40.2705 35.7436 42.1935 36.1735C42.3714 36.2128 42.463 36.2813 42.4591 36.4968C42.4426 37.3376 42.4591 38.177 42.4591 39.057C42.346 39.0012 42.2596 38.9606 42.1744 38.9163C40.2171 37.9018 37.8238 39.3892 37.9039 41.5792C37.9125 42.3537 38.2291 43.0931 38.7841 43.6347C39.3391 44.1763 40.0871 44.4757 40.8634 44.4671C41.6397 44.4586 42.3808 44.1427 42.9237 43.5889C43.4666 43.0352 43.7667 42.289 43.7581 41.5145C43.7734 40.0765 43.7657 38.6386 43.767 37.2031L43.7556 36.8582ZM30.5041 42.0699H30.8574C32.1094 42.0699 33.36 42.0699 34.612 42.0699C34.823 42.0699 34.9157 42.0065 34.9094 41.7973C34.9175 41.5537 34.9115 41.3098 34.8916 41.0669C34.6374 39.3943 33.0703 38.3152 31.3824 38.6449C29.7898 38.9568 28.7565 40.6154 29.1785 42.2208C29.4695 43.3291 30.1953 44.0658 31.3099 44.3156C32.4538 44.5692 33.5316 44.393 34.3896 43.4939C34.4355 43.4365 34.478 43.3764 34.5167 43.3138C34.1443 43.1148 33.7973 42.9208 33.4414 42.7458C33.4014 42.734 33.3594 42.7312 33.3182 42.7378C33.2771 42.7444 33.2379 42.7601 33.2037 42.7838C32.9866 42.9344 32.7403 43.0378 32.4806 43.0874C32.221 43.137 31.9538 43.1316 31.6963 43.0717C31.1396 42.9727 30.738 42.6469 30.5041 42.0699ZM5.5302 44.4145C6.10869 44.4125 6.67358 44.2393 7.15335 43.9168C7.63312 43.5943 8.00621 43.1371 8.22537 42.6029C8.44454 42.0688 8.49993 41.4818 8.38454 40.9163C8.26915 40.3507 7.98816 39.832 7.57714 39.4259C7.16613 39.0197 6.64357 38.7444 6.07562 38.6347C5.50767 38.525 4.91987 38.5859 4.38662 38.8096C3.85337 39.0334 3.39865 39.41 3.08003 39.8917C2.76141 40.3734 2.59321 40.9386 2.59673 41.5158C2.6041 42.2871 2.91641 43.0244 3.46575 43.5672C4.01508 44.11 4.75702 44.4145 5.5302 44.4145V44.4145ZM49.6416 44.4145C50.3864 44.377 51.0887 44.057 51.6047 43.5199C52.1208 42.9828 52.4116 42.2692 52.4176 41.5252C52.4236 40.7812 52.1444 40.0631 51.6371 39.5177C51.1297 38.9724 50.4327 38.6411 49.6886 38.5916C49.2912 38.5652 48.8926 38.6201 48.5172 38.753C48.1419 38.8858 47.7977 39.0937 47.5057 39.364C47.2138 39.6343 46.9803 39.9613 46.8196 40.3248C46.6589 40.6884 46.5744 41.0809 46.5712 41.4782C46.568 41.8755 46.6462 42.2693 46.801 42.6354C46.9558 43.0015 47.184 43.3322 47.4715 43.6072C47.759 43.8821 48.0998 44.0956 48.473 44.2344C48.8461 44.3732 49.2438 44.4345 49.6416 44.4145ZM14.337 44.4145C14.9158 44.4175 15.4825 44.249 15.9652 43.9304C16.4479 43.6118 16.825 43.1573 17.0486 42.6247C17.2722 42.092 17.3323 41.5052 17.2212 40.9384C17.1101 40.3717 16.8329 39.8506 16.4247 39.4412C16.0165 39.0318 15.4956 38.7525 14.9282 38.6387C14.3607 38.5249 13.7721 38.5818 13.2371 38.8021C12.702 39.0224 12.2446 39.3962 11.9227 39.8761C11.6008 40.3561 11.4289 40.9205 11.4289 41.498C11.4289 42.2689 11.7348 43.0084 12.2797 43.5549C12.8247 44.1014 13.5643 44.4105 14.337 44.4145V44.4145ZM55.5619 41.4891C55.5582 42.0653 55.7256 42.6297 56.0431 43.1111C56.3606 43.5925 56.8139 43.9692 57.3457 44.1938C57.8776 44.4184 58.4643 44.4808 59.0317 44.373C59.5991 44.2653 60.1217 43.9923 60.5338 43.5885C60.9458 43.1847 61.2287 42.6682 61.3467 42.1041C61.4648 41.54 61.4127 40.9537 61.1971 40.4192C60.9815 39.8846 60.612 39.4257 60.1352 39.1005C59.6584 38.7752 59.0958 38.5982 58.5182 38.5916C58.1328 38.5858 57.75 38.6563 57.392 38.7992C57.0341 38.9421 56.7082 39.1545 56.4331 39.424C56.1581 39.6935 55.9395 40.0149 55.7899 40.3694C55.6404 40.7239 55.5629 41.1045 55.5619 41.4891V41.4891ZM25.9399 40.2046C25.9174 40.1439 25.891 40.0846 25.8611 40.0271C25.2638 38.9683 24.0461 38.4243 22.7739 38.6449C21.63 38.844 20.5992 39.8293 20.4861 40.9959C20.3869 42.0255 20.434 43.0691 20.4238 44.1076C20.4238 44.1584 20.4912 44.2547 20.5293 44.256C20.9233 44.2661 21.3173 44.2623 21.7329 44.2623V43.9276C21.7329 43.1236 21.7329 42.3197 21.7329 41.5183C21.7297 41.172 21.8387 40.8338 22.0437 40.5543C22.2486 40.2747 22.5386 40.0687 22.8704 39.9668C23.2022 39.8649 23.5581 39.8726 23.8852 39.9888C24.2122 40.105 24.4929 40.3235 24.6855 40.6116L24.8304 40.8196L25.8014 40.3035C25.8472 40.2756 25.8878 40.2401 25.9399 40.2046Z" fill="#EC2229"/>
<path d="M45.9316 33.2126V28.1835H46.2875C49.5701 28.1835 52.8531 28.1835 56.1365 28.1835C57.5816 28.1835 58.6582 27.2959 58.9251 25.901C59.22 24.3553 57.9756 22.7753 56.3983 22.7512C54.4855 22.722 52.5714 22.7436 50.6572 22.7398C49.4066 22.7398 48.3262 21.8103 48.1788 20.6184C48.0161 19.3047 48.8003 18.1444 50.0675 17.8363C50.2527 17.7917 50.4425 17.7691 50.6331 17.7691C52.4913 17.7691 54.3508 17.7691 56.209 17.7615C56.9245 17.7727 57.6152 17.5004 58.1298 17.0043C58.6445 16.5082 58.9409 15.8288 58.9543 15.115C58.967 13.5528 57.7952 12.3254 56.2395 12.3254C52.9349 12.3152 49.6188 12.3254 46.3091 12.3254H45.9393V7.32673H46.2481C49.6036 7.32673 52.959 7.32335 56.3145 7.31659C58.0519 7.30976 59.7397 7.89507 61.0983 8.97565C62.4569 10.0562 63.4049 11.5673 63.7854 13.2586C64.3408 15.711 63.7994 17.9326 62.2869 19.9311C62.217 20.0249 62.1471 20.1213 62.0784 20.2164C62.0671 20.2391 62.0582 20.2629 62.0517 20.2874C62.2081 20.503 62.3733 20.7274 62.536 20.9544C65.5788 25.2163 63.671 31.1786 58.723 32.8524C57.9842 33.1052 57.2085 33.2337 56.4276 33.2328L46.1757 33.2227C46.1045 33.2227 46.0333 33.2227 45.9316 33.2126Z" fill="black"/>
<path d="M5.26322 33.2227H0.019065C0.019065 33.1301 0.003813 33.0515 0.003813 32.9691C0.001271 25.2983 0 17.6279 0 9.95795C0 8.66201 0.965961 7.53218 2.21027 7.34198C2.83844 7.239 3.4827 7.36765 4.02275 7.7039C4.5628 8.04015 4.96172 8.56101 5.14501 9.16922C5.2207 9.42921 5.25879 9.69864 5.25813 9.96936C5.26491 17.6207 5.26491 25.2712 5.25813 32.9209L5.26322 33.2227Z" fill="black"/>
<path d="M0.0108669 2.61085C0.00750648 2.26908 0.0721009 1.93003 0.200914 1.61333C0.329727 1.29662 0.520202 1.00853 0.761321 0.765733C1.00244 0.522934 1.28942 0.33024 1.60566 0.198797C1.9219 0.0673531 2.26112 -0.00023119 2.60371 -4.7121e-05C2.94623 -0.00541478 3.28642 0.0569854 3.60462 0.183548C3.92283 0.310111 4.21274 0.498327 4.45761 0.737323C4.70248 0.976318 4.89746 1.26135 5.03127 1.57596C5.16508 1.89057 5.23508 2.22852 5.23722 2.57028C5.2438 2.91431 5.18168 3.25621 5.05449 3.57606C4.92729 3.8959 4.73756 4.18729 4.49636 4.43325C4.25515 4.67921 3.96729 4.87481 3.64955 5.00866C3.33182 5.14251 2.99055 5.21193 2.64565 5.21288C2.30059 5.21759 1.95804 5.15371 1.63798 5.02495C1.31793 4.89618 1.02678 4.70513 0.781519 4.46292C0.536259 4.22071 0.3418 3.93219 0.209487 3.61421C0.0771728 3.29623 0.00965323 2.95514 0.0108669 2.61085V2.61085Z" fill="#EC2229"/>
<path d="M40.832 43.0995C40.4066 43.0995 39.9986 42.9309 39.6978 42.6308C39.397 42.3306 39.228 41.9236 39.228 41.4992C39.228 41.0748 39.397 40.6677 39.6978 40.3676C39.9986 40.0675 40.4066 39.8989 40.832 39.8989C41.2574 39.8989 41.6654 40.0675 41.9662 40.3676C42.267 40.6677 42.436 41.0748 42.436 41.4992C42.436 41.9236 42.267 42.3306 41.9662 42.6308C41.6654 42.9309 41.2574 43.0995 40.832 43.0995V43.0995Z" fill="#EC2229"/>
<path d="M33.4465 40.8753H30.5537C30.6884 40.3491 31.2922 39.9205 31.9175 39.8977C32.6166 39.8723 33.2355 40.2578 33.4465 40.8753Z" fill="#EC2229"/>
<path d="M5.48808 43.1033C5.17119 43.0968 4.8633 42.997 4.6031 42.8165C4.3429 42.6359 4.14199 42.3827 4.02562 42.0885C3.90925 41.7944 3.88261 41.4725 3.94906 41.1633C4.0155 40.8541 4.17206 40.5714 4.39906 40.3507C4.62606 40.1301 4.91338 39.9812 5.22491 39.923C5.53643 39.8647 5.85827 39.8996 6.14998 40.0233C6.44168 40.147 6.69024 40.3539 6.86442 40.6181C7.0386 40.8823 7.13063 41.1919 7.12894 41.5081C7.12646 41.7204 7.08201 41.9302 6.99815 42.1253C6.9143 42.3205 6.79267 42.4972 6.64025 42.6454C6.48783 42.7936 6.3076 42.9103 6.10989 42.9889C5.91218 43.0674 5.70088 43.1063 5.48808 43.1033V43.1033Z" fill="#EC2229"/>
<path d="M49.6313 43.1033C49.3132 43.0985 49.0037 42.9997 48.7419 42.8193C48.4801 42.6389 48.2779 42.3851 48.1608 42.09C48.0436 41.7949 48.0169 41.4717 48.084 41.1614C48.151 40.8512 48.3088 40.5677 48.5374 40.347C48.7659 40.1262 49.055 39.978 49.368 39.9213C49.6811 39.8645 50.0039 39.9016 50.2957 40.028C50.5876 40.1543 50.8353 40.3642 51.0075 40.6311C51.1798 40.898 51.2687 41.2098 51.2632 41.5272C51.2542 41.9514 51.0778 42.3549 50.7722 42.6501C50.4666 42.9452 50.0566 43.1081 49.6313 43.1033V43.1033Z" fill="#EC2229"/>
<path d="M14.3293 43.1033C13.9108 43.0897 13.5142 42.9138 13.2236 42.613C12.9331 42.3122 12.7717 41.9102 12.7737 41.4925C12.7757 41.0747 12.9409 40.6743 13.2343 40.3762C13.5276 40.0781 13.926 39.906 14.3446 39.8964C14.5594 39.8915 14.7731 39.9296 14.9729 40.0084C15.1727 40.0873 15.3547 40.2053 15.508 40.3555C15.6613 40.5057 15.7829 40.6851 15.8656 40.883C15.9482 41.0809 15.9903 41.2933 15.9893 41.5077C15.9883 41.7221 15.9442 41.9341 15.8596 42.1312C15.7751 42.3283 15.6518 42.5065 15.4971 42.6552C15.3423 42.804 15.1592 42.9203 14.9587 42.9972C14.7581 43.0742 14.5441 43.1103 14.3293 43.1033V43.1033Z" fill="#EC2229"/>
<path d="M58.466 43.1033C58.1491 43.0988 57.8405 43.0009 57.5791 42.8219C57.3177 42.6429 57.1152 42.3909 56.997 42.0974C56.8788 41.8039 56.8502 41.4821 56.9148 41.1725C56.9794 40.8628 57.1343 40.5792 57.3601 40.3571C57.5858 40.135 57.8723 39.9845 58.1836 39.9245C58.4948 39.8644 58.8169 39.8975 59.1094 40.0195C59.4018 40.1416 59.6516 40.3471 59.8273 40.6104C60.003 40.8737 60.0967 41.1829 60.0967 41.4992C60.0987 41.7123 60.0576 41.9236 59.9761 42.1206C59.8945 42.3176 59.7741 42.4962 59.622 42.6459C59.4699 42.7955 59.2891 42.9131 59.0906 42.9917C58.892 43.0703 58.6796 43.1082 58.466 43.1033V43.1033Z" fill="#EC2229"/>
</svg>
