<svg width="28" height="16" viewBox="0 0 28 16" fill="none" xmlns="http://www.w3.org/2000/svg">
<g clip-path="url(#clip0)">
<path fill-rule="evenodd" clip-rule="evenodd" d="M2.31864 13.2877C3.44019 13.2877 4.18842 12.2539 4.35753 11.236C4.11982 13.377 5.15362 13.8844 6.19381 13.9466C7.11594 14.0008 7.99339 13.4791 8.19122 12.5889V13.6913C8.405 14.891 9.36382 15.2229 10.0849 15.2229C10.7789 15.2229 11.7282 14.8799 11.9723 13.6945V12.3688C12.4732 14.6438 15.5922 14.1891 15.8474 12.3927L15.8442 11.6445C16.2766 13.586 19.1514 13.8078 19.6827 11.7051L19.6795 12.2938C19.7242 14.3406 23.3792 14.6023 23.4765 12.1183L23.4797 11.5503C23.8881 14.0934 27.5591 13.4839 27.5527 11.4993V2.84436C27.2927 1.97807 26.4854 1.3479 25.5282 1.3479C24.5422 1.3479 23.7142 2.01796 23.4813 2.92413V4.20362C23.2452 3.39636 22.497 2.80607 21.6115 2.80607C20.6623 2.80607 19.8582 3.5192 19.6173 4.42219V3.57664C19.437 2.69759 18.6601 2.0371 17.7268 2.0371C16.8094 2.0371 16.0421 2.67685 15.8458 3.53356V4.43176C15.6895 3.51282 14.8902 2.81405 13.925 2.81405C12.9821 2.81405 12.1956 3.48411 12.0153 4.37433L12.0121 3.44263C11.8398 2.54443 11.0485 1.8664 10.0993 1.8664C9.23779 1.8664 8.5071 2.42478 8.25025 3.20013V2.57953C8.25025 1.50744 7.37917 0.634766 6.30229 0.634766C5.24296 0.634766 4.34158 1.51222 4.35434 2.58112V4.88325C4.18523 3.86381 3.43859 2.8316 2.31545 2.8316C1.33749 2.8316 0.515867 3.66757 0.286133 4.7987V11.1818C0.397809 12.3464 1.33749 13.2861 2.31545 13.2861L2.31864 13.2877Z" fill="#F9E307"/>
<path fill-rule="evenodd" clip-rule="evenodd" d="M25.4166 7.66406C26.5956 7.66406 27.5528 8.61969 27.5528 9.80027C27.5528 10.9793 26.5972 11.9365 25.4166 11.9365C24.5758 11.9365 23.8483 11.4499 23.5006 10.7447C23.1528 11.4515 22.4253 11.9365 21.5845 11.9365C20.7437 11.9365 20.0163 11.4499 19.6685 10.7447C19.3207 11.4515 18.5932 11.9365 17.7524 11.9365C16.9117 11.9365 16.1842 11.4499 15.8364 10.7447C15.4886 11.4515 14.7611 11.9365 13.9203 11.9365C13.0796 11.9365 12.3521 11.4499 12.0043 10.7447C11.6565 11.4515 10.929 11.9365 10.0882 11.9365C9.24747 11.9365 8.51998 11.4499 8.17219 10.7447C7.8244 11.4515 7.0969 11.9365 6.25614 11.9365C5.41538 11.9365 4.68789 11.4499 4.3401 10.7447C3.9923 11.4515 3.26481 11.9365 2.42405 11.9365C1.24507 11.9365 0.287842 10.9808 0.287842 9.80027C0.287842 8.62129 1.24347 7.66406 2.42405 7.66406C3.26481 7.66406 3.9923 8.15065 4.3401 8.85581C4.68789 8.14906 5.41538 7.66406 6.25614 7.66406C7.0969 7.66406 7.8244 8.15065 8.17219 8.85581C8.51998 8.14906 9.24747 7.66406 10.0882 7.66406C10.929 7.66406 11.6565 8.15065 12.0043 8.85581C12.3521 8.14906 13.0796 7.66406 13.9203 7.66406C14.7611 7.66406 15.4886 8.15065 15.8364 8.85581C16.1842 8.14906 16.9117 7.66406 17.7524 7.66406C18.5932 7.66406 19.3207 8.15065 19.6685 8.85581C20.0163 8.14906 20.7437 7.66406 21.5845 7.66406C22.4253 7.66406 23.1528 8.15065 23.5006 8.85581C23.8483 8.14906 24.5758 7.66406 25.4166 7.66406Z" fill="#E62129"/>
<path fill-rule="evenodd" clip-rule="evenodd" d="M13.7478 4.80578C14.3365 4.80578 14.8151 5.2828 14.8151 5.87309C14.8151 6.46178 14.3381 6.94039 13.7478 6.94039C13.1591 6.94039 12.6805 6.46338 12.6805 5.87309C12.6805 5.28439 13.1575 4.80578 13.7478 4.80578ZM2.03296 6.93401L2.09996 6.9388H2.49243L2.56262 6.93561V4.71006L2.47488 4.70846L2.11751 4.70687L2.03296 4.71165V6.93242V6.93401ZM24.9713 4.7978H24.6905V5.26844L24.9665 5.27004C25.0064 5.63219 24.9186 6.13313 25.0016 6.47295C25.1085 6.88137 25.4291 6.95475 25.8088 6.9372V6.46497C25.5727 6.47135 25.4754 6.34053 25.477 6.14909L25.4802 5.27004L25.7897 5.27323L25.7785 4.7978L25.477 4.79142L25.4754 3.88525L24.9713 3.89323V4.7978ZM16.9338 6.17461L16.6578 6.52719C16.7232 6.63249 17.0087 6.78086 17.1284 6.82712C18.3887 7.32169 18.8817 6.0422 17.9963 5.66888C17.8096 5.59071 17.5783 5.55561 17.4044 5.47584C17.1109 5.34183 17.3486 4.96691 17.8862 5.21739C18.0059 5.27323 18.0282 5.29556 18.1319 5.36735L18.3616 4.97649C18.0298 4.76909 17.6118 4.5585 17.1826 4.7308C16.7519 4.90469 16.6562 5.45669 16.9417 5.73589C17.2209 6.00869 17.9165 6.00391 17.9676 6.26076C18.0282 6.5591 17.3805 6.54953 16.9338 6.17461ZM6.69943 5.72472L6.72177 6.93561L7.24186 6.9388L7.24027 5.78215C7.22431 5.33864 7.01053 5.08657 6.74091 4.90469C6.42343 4.69091 6.00385 4.64305 5.63213 4.82014C5.34974 4.95575 5.07694 5.26046 4.99876 5.62421L4.99398 6.94039L5.50131 6.9388L5.50928 6.09804C5.50928 5.78694 5.49014 5.60187 5.68158 5.41521C6.09638 5.01158 6.67391 5.33864 6.69943 5.72312V5.72472ZM22.023 6.72661V6.94039H22.4793L22.4809 5.88106C22.4793 5.49498 22.3852 5.31311 22.1985 5.08338C21.688 4.45639 20.4564 4.65422 20.2888 5.64016C20.1915 6.2129 20.5712 6.77926 21.1519 6.89891C21.6162 6.99623 21.8316 6.86382 22.0214 6.72502L22.023 6.72661ZM21.3769 5.21898C21.7103 5.21898 21.9799 5.4886 21.9799 5.82204C21.9799 6.15547 21.7103 6.42509 21.3769 6.42509C21.0435 6.42509 20.7738 6.15547 20.7738 5.82204C20.7738 5.4886 21.0435 5.21898 21.3769 5.21898ZM10.5395 4.90469C10.4103 4.81535 10.3241 4.78185 10.1183 4.74835C9.62854 4.66698 9.18822 4.89991 8.95051 5.33385C8.66494 5.85554 8.89307 6.6277 9.55356 6.8702C10.2523 7.12705 10.8777 6.65642 11.0069 6.09165C11.066 5.83001 11.0373 4.1453 11.0373 3.74805L10.5411 3.74964V4.90469H10.5395ZM9.93485 5.22856C10.2683 5.22856 10.5379 5.49817 10.5379 5.83161C10.5379 6.16504 10.2683 6.43466 9.93485 6.43466C9.60142 6.43466 9.3318 6.16504 9.3318 5.83161C9.3318 5.49817 9.60142 5.22856 9.93485 5.22856ZM13.7494 5.27163C14.0828 5.27163 14.3525 5.54125 14.3525 5.87468C14.3525 6.20812 14.0828 6.47773 13.7494 6.47773C13.416 6.47773 13.1463 6.20812 13.1463 5.87468C13.1463 5.54125 13.416 5.27163 13.7494 5.27163Z" fill="#1D1819"/>
<path fill-rule="evenodd" clip-rule="evenodd" d="M2.44805 8.66024C3.07663 8.66024 3.58555 9.16917 3.58555 9.79775C3.58555 10.4263 3.07663 10.9353 2.44805 10.9353C1.81947 10.9353 1.31055 10.4263 1.31055 9.79775C1.31055 9.16917 1.81947 8.66024 2.44805 8.66024ZM25.3927 8.66024C26.0213 8.66024 26.5302 9.16917 26.5302 9.79775C26.5302 10.4263 26.0213 10.9353 25.3927 10.9353C24.7642 10.9353 24.2552 10.4263 24.2552 9.79775C24.2552 9.16917 24.7642 8.66024 25.3927 8.66024ZM25.3927 9.15481C25.7485 9.15481 26.0357 9.44357 26.0357 9.79775C26.0357 10.1535 25.7469 10.4407 25.3927 10.4407C25.037 10.4407 24.7498 10.1519 24.7498 9.79775C24.7498 9.44198 25.0386 9.15481 25.3927 9.15481ZM21.5702 8.66024C22.1988 8.66024 22.7077 9.16917 22.7077 9.79775C22.7077 10.4263 22.1988 10.9353 21.5702 10.9353C20.9416 10.9353 20.4327 10.4263 20.4327 9.79775C20.4327 9.16917 20.9416 8.66024 21.5702 8.66024ZM21.5702 9.15481C21.926 9.15481 22.2132 9.44357 22.2132 9.79775C22.2132 10.1535 21.9244 10.4407 21.5702 10.4407C21.2145 10.4407 20.9273 10.1519 20.9273 9.79775C20.9273 9.44198 21.216 9.15481 21.5702 9.15481ZM18.3715 7.74769C18.555 7.80512 18.7273 7.88489 18.8852 7.9854C18.8916 8.6395 18.9028 9.83923 18.8517 10.0594C18.7193 10.6401 18.0748 11.1251 17.3552 10.8603C16.674 10.6098 16.4395 9.8153 16.7346 9.27765C16.9787 8.83095 17.4334 8.59164 17.9376 8.6746C18.1497 8.7097 18.2375 8.75118 18.3715 8.83574V7.74609V7.74769ZM17.7477 9.17076C18.0907 9.17076 18.3699 9.44996 18.3699 9.79296C18.3699 10.136 18.0907 10.4152 17.7477 10.4152C17.4047 10.4152 17.1255 10.136 17.1255 9.79296C17.1255 9.44996 17.4047 9.17076 17.7477 9.17076ZM13.3891 9.45634C13.5184 9.00644 14.348 9.00325 14.4708 9.45474L13.3891 9.45634ZM15.0483 10.0371L14.5362 10.0386C14.4006 10.3194 14.1565 10.4933 13.8326 10.4455C13.5088 10.3769 13.3349 10.1663 13.2838 9.83923L15.077 9.83604C15.1153 9.21384 14.6064 8.72725 14.0576 8.66822C13.4147 8.59962 12.8914 9.08621 12.818 9.63981C12.7302 10.3003 13.1945 10.8252 13.7497 10.9177C14.2076 10.9943 14.6463 10.7821 14.8872 10.4311C14.9462 10.345 15.0435 10.1567 15.0467 10.0339L15.0483 10.0371ZM10.7169 9.70362L10.7185 9.75786H11.2641C11.2465 9.31116 11.0312 9.0559 10.7584 8.87243C10.4361 8.65705 10.0117 8.606 9.63522 8.78787C9.34805 8.92508 9.07205 9.23458 8.99388 9.60311L8.98909 10.9368L9.5044 10.9353L9.51237 10.0833C9.51237 9.76903 9.49323 9.58078 9.68627 9.39093C10.1074 8.98251 10.6914 9.31275 10.7185 9.70362H10.7169ZM6.26897 8.66184C6.89755 8.66184 7.40648 9.17076 7.40648 9.79934C7.40648 10.4279 6.89755 10.9368 6.26897 10.9368C5.6404 10.9368 5.13147 10.4279 5.13147 9.79934C5.13147 9.17076 5.6404 8.66184 6.26897 8.66184ZM6.26897 9.15641C6.62474 9.15641 6.91191 9.44517 6.91191 9.79934C6.91191 10.1551 6.62315 10.4423 6.26897 10.4423C5.91321 10.4423 5.62604 10.1535 5.62604 9.79934C5.62604 9.44357 5.9148 9.15641 6.26897 9.15641ZM2.44645 9.15641C2.80222 9.15641 3.08939 9.44517 3.08939 9.79934C3.08939 10.1551 2.80063 10.4423 2.44645 10.4423C2.09069 10.4423 1.80352 10.1535 1.80352 9.79934C1.80352 9.44357 2.09228 9.15641 2.44645 9.15641Z" fill="#FEFEFE"/>
</g>
<defs>
<clipPath id="clip0">
<rect width="27.6" height="14.837" fill="white" transform="translate(0.199951 0.560547)"/>
</clipPath>
</defs>
</svg>
