<svg width="182" height="152" viewBox="0 0 182 152" fill="none" xmlns="http://www.w3.org/2000/svg">
<circle opacity="0.2" cx="90.2323" cy="75.7303" r="75.7303" fill="#134889"/>
<g clip-path="url(#clip0_9678_105418)">
<path d="M106.716 44.2692V45.8155L112.785 42.3793V40.8331L106.716 44.2692Z" fill="#868686"/>
<path d="M79.471 36.1751V37.7214L106.716 45.8154V44.2692L79.471 36.1751Z" fill="#888888"/>
<path d="M106.81 44.3074V45.8536L124.257 65.8216V64.2753L106.81 44.3074Z" fill="#6A6966"/>
<path d="M124.238 64.2944L124.257 65.8216L130.231 62.3663V60.8201L124.238 64.2944Z" fill="#74736F"/>
<path d="M106.81 44.3074V45.8536L124.257 65.8216L124.238 64.2944L106.81 44.3074Z" fill="#555552"/>
<path d="M12.9568 74.6983V76.2445L79.4707 37.7214V36.1751L12.9568 74.6983Z" fill="#868686"/>
<path d="M158.58 74.4883V76.0346L164.554 72.5794V71.0331L158.58 74.4883Z" fill="#868686"/>
<path d="M124.239 64.2944L124.258 65.8216L158.58 76.0346V74.4884L124.239 64.2944Z" fill="#888888"/>
<path d="M57.7429 102.799L57.762 104.345L124.257 65.8216L124.238 64.2944L57.7429 102.799Z" fill="#74736F"/>
<path d="M57.7429 102.799L57.762 104.345L124.257 65.8216L124.238 64.2944L57.7429 102.799Z" fill="#1D555D"/>
<path d="M40.3157 82.8115V84.3577L106.811 45.8536V44.3074L40.3157 82.8115Z" fill="#246973"/>
<path d="M40.3158 82.8115L57.7434 102.798L124.238 64.2944L106.811 44.3074L40.3158 82.8115Z" fill="#74B8F6"/>
<path d="M40.3161 82.8115V84.3578L57.7627 104.345L57.7437 102.799L40.3161 82.8115Z" fill="#1B4E55"/>
<path d="M51.7696 106.273L51.7886 107.819L57.7627 104.345L57.7437 102.798L51.7696 106.273Z" fill="#74736F"/>
<path d="M57.7436 102.798L57.7626 104.345L92.085 114.558V113.011L57.7436 102.798Z" fill="#256B75"/>
<path d="M57.7435 102.798L51.7695 106.273L86.1109 116.467L92.085 113.011L57.7435 102.798Z" fill="#E6E6E6"/>
<path d="M57.7438 102.799L92.0852 113.012L158.58 74.4884L124.239 64.2944L57.7438 102.799Z" fill="#74B8F6"/>
<path d="M164.554 71.0331L130.231 60.8201L124.238 64.2944L158.58 74.4883L164.554 71.0331Z" fill="#E6E6E6"/>
<path d="M12.9565 74.6984V76.2446L40.3154 84.3578V82.8115L12.9565 74.6984Z" fill="#256B75"/>
<path d="M12.9567 74.6983L40.3157 82.8114L106.811 44.3074L79.4706 36.1751L12.9567 74.6983Z" fill="#74B8F6"/>
<path d="M0.0007093 76.0728L34.3421 86.2858L40.3162 82.8115L12.9572 74.6983L79.4711 36.1751L106.716 44.2692L112.785 40.833L78.4437 30.6391L0.0007093 76.0728Z" fill="#E6E6E6"/>
<path d="M34.3414 86.2859V87.8321L40.3154 84.3578V82.8115L34.3414 86.2859Z" fill="#868686"/>
<path d="M0.00037443 76.0728V77.619L34.3418 87.8321V86.2858L0.00037443 76.0728Z" fill="#888888"/>
<path d="M34.3415 86.2858V87.832L51.7881 107.819L51.7691 106.273L34.3415 86.2858Z" fill="#6A6966"/>
<path d="M34.3418 86.2858L51.7694 106.273L57.7435 102.798L124.238 64.2944L130.231 60.8201L112.785 40.8331L106.811 44.3074L124.257 64.2753L57.7435 102.798L40.3159 82.8115L34.3418 86.2858Z" fill="#C7C5C0"/>
<path d="M92.0852 113.011V114.558L158.58 76.0346V74.4883L92.0852 113.011Z" fill="#246973"/>
<path d="M51.7689 106.273L51.788 107.819L86.1104 118.013V116.467L51.7689 106.273Z" fill="#888888"/>
<path d="M86.1109 116.467V118.013L92.085 114.558V113.011L86.1109 116.467Z" fill="#868686"/>
<path d="M158.58 74.4883V76.0346L172.487 91.9554V90.4092L158.58 74.4883Z" fill="#6A6A6A"/>
<path d="M92.0846 113.011L105.973 128.932L172.487 90.4092L158.58 74.4883L92.0846 113.011Z" fill="#74B8F6"/>
<path d="M92.0849 113.011V114.558L105.974 130.479V128.932L92.0849 113.011Z" fill="#1B4E55"/>
<path d="M105.973 128.932V130.479L172.487 91.9554V90.4092L105.973 128.932Z" fill="#1D555D"/>
<path d="M103.557 136.454V138L182 92.5664V91.0201L103.557 136.454Z" fill="#747474"/>
<path d="M86.1101 116.467V118.013L103.557 138V136.454L86.1101 116.467Z" fill="#6A6A6A"/>
<path d="M86.1104 116.467L103.557 136.454L182 91.0201L164.553 71.0331L158.579 74.4883L172.487 90.4092L105.973 128.932L92.0845 113.012L86.1104 116.467Z" fill="#C8C8C8"/>
<path d="M117.883 94.6663C117.883 94.6663 118.073 94.8762 118.111 94.9144H117.978C117.788 94.819 117.731 94.7235 117.883 94.6663Z" fill="#8AF5BA"/>
<path d="M121.022 95.85C121.022 95.85 121.003 95.8304 121.022 95.85V95.85Z" fill="#8AF5BA"/>
<path d="M122.697 98.3887H122.298H122.412C122.526 98.1978 122.621 98.2742 122.697 98.3887Z" fill="#8AF5BA"/>
<path d="M128.861 82.9833C128.861 82.9833 128.728 82.8687 128.747 82.8115C128.766 82.7542 129.165 82.8115 129.165 82.8115C130.478 83.6705 130.307 81.9524 131.715 82.2006C131.715 82.2006 131.981 83.6514 132.419 83.3078C132.419 83.3078 133.161 83.0596 133.123 82.8496C133.289 82.9217 133.461 82.9792 133.636 83.0214C133.465 82.6587 134.797 83.1551 135.006 83.3651C136.034 83.8232 133.998 85.1404 134.378 85.7704C134.759 86.4003 134.093 86.8394 134.378 87.3166C134.664 87.7939 135.729 86.534 135.615 86.5531C136.626 86.727 137.61 87.0284 138.545 87.4503C138.545 87.4503 138.792 86.9921 138.869 86.9921C138.945 86.9921 139.078 87.1639 139.249 87.183C139.42 87.2021 138.888 85.045 138.659 85.0831C138.926 85.0831 139.135 85.3504 139.42 85.3122C138.05 84.8732 138.241 84.2814 137.651 83.575C137.651 83.9187 137.651 84.2623 137.746 84.5295C137.594 84.415 136.11 83.785 136.072 83.4987C136.072 83.6705 137.327 83.3269 137.499 83.4987C137.67 83.6705 137.308 83.6705 137.385 83.7278C137.461 83.785 137.385 83.5369 137.632 83.6132C137.879 83.6896 137.632 83.6132 137.727 83.6132C137.822 83.6132 137.194 83.6132 136.947 83.4796C136.7 83.346 137.251 83.4796 137.27 83.4796C137.289 83.4796 136.11 82.3533 137.08 82.1624C137.08 82.1624 135.767 81.5706 136.376 81.3988C136.11 81.3988 135.653 81.3988 135.539 81.3988C135.425 81.3988 135.92 81.5706 135.672 81.6852C135.425 81.7997 135.216 81.4752 135.178 81.437C135.139 81.3988 135.178 81.6852 135.178 81.7042C134.759 81.8761 135.063 81.437 135.063 81.4179C135.063 81.3988 134.968 81.4179 134.854 81.4179C134.569 81.7043 135.063 82.1051 134.74 82.296C134.854 82.5251 136.129 82.926 135.767 83.2314C136.148 82.9069 132.723 82.5824 132.324 82.3533C131.924 82.1242 133.256 82.2006 133.313 82.1815C133.009 82.0097 132.305 82.1815 132.076 82.0097C131.848 81.8379 132.476 81.7806 132.4 81.6852C132.286 81.6852 132.248 81.6852 132.133 81.6852C132.019 81.6852 132.476 81.4561 132.438 81.4179C132.4 81.3797 133.37 81.4179 133.351 81.4179C133.332 81.4179 131.867 80.8643 131.905 80.2152L133.808 80.597C133.941 80.597 133.389 80.1962 133.465 80.158C133.579 80.1455 133.694 80.1455 133.808 80.158C133.808 80.158 133.579 80.158 133.617 80.0243C133.655 79.8907 133.998 80.0243 134.036 80.1389C134.074 80.2534 135.273 80.0434 135.178 80.4061C135.456 80.3883 135.736 80.3883 136.015 80.4061C136.357 80.1389 137.137 80.6543 136.966 80.7307C136.795 80.807 136.338 80.1771 136.034 80.1771C136.231 80.3997 136.447 80.6041 136.681 80.7879C136.681 80.7879 136.681 80.4634 136.833 80.368C136.985 80.2725 138.107 81.3225 137.86 81.5324C137.613 81.7424 137.594 81.5324 137.537 81.5324C138.241 81.8188 137.651 80.7307 137.537 80.7307C137.879 80.6352 139.04 81.9715 138.602 82.2197C138.415 82.1164 138.217 82.0332 138.012 81.9715C138.012 81.9715 138.659 82.2579 138.507 82.3151C138.355 82.3724 136.947 81.7042 136.947 81.7042V81.8188C137.111 82.201 137.344 82.5502 137.632 82.8496C137.632 82.8496 137.632 82.7351 137.632 82.7351C137.661 82.9002 137.713 83.0607 137.784 83.2123H138.05C138.05 83.2123 137.898 82.5251 138.374 82.7924V82.9069C138.583 82.7733 138.945 83.1169 138.983 83.1169C139.021 83.1169 138.773 82.506 139.458 82.6397C139.268 82.4488 138.355 81.647 138.469 81.4179C138.469 81.4179 140.372 83.0214 140.01 83.5178C139.896 83.7087 139.496 83.4223 139.439 83.4032C139.382 83.3841 139.344 83.4032 139.306 83.4032C139.268 83.4032 139.801 84.1477 139.572 84.2623H139.687V83.9568C139.687 83.9568 139.953 84.0905 140.048 84.0905C139.869 83.9036 139.71 83.6989 139.572 83.4796C139.668 83.3078 140.904 84.1287 140.6 84.2432C140.295 84.3577 140.372 84.0905 140.257 84.0905C140.391 84.5104 140.714 84.8922 141.76 85.1786C141.437 84.835 142.997 85.4077 142.769 85.6749C142.54 85.9422 142.274 85.6749 142.369 85.9804H142.521C142.586 85.9352 142.662 85.9109 142.74 85.9109C142.819 85.9109 142.895 85.9352 142.959 85.9804C142.959 85.9804 142.826 85.8276 142.845 85.8086C142.864 85.7895 143.891 86.6867 144.253 86.7249C144.614 86.763 143.682 86.3812 143.967 86.324C144.728 86.2094 145.87 87.1448 146.27 87.3357V87.1448C146.27 87.1448 146.688 87.6984 146.783 87.6412C146.878 87.5839 146.973 87.4312 147.031 87.4121H147.202C147.202 87.4121 147.202 87.8893 147.449 87.8321C147.696 87.7748 147.449 87.8321 147.449 87.8321C147.773 88.3475 157.837 92.8909 156.315 93.559C156.201 93.559 155.516 93.7308 155.497 93.559C155.193 93.7308 155.744 94.0935 155.935 94.1508C156.125 94.2081 155.935 93.979 155.935 93.9599C155.935 93.9408 157.266 94.9335 157.095 95.0289C156.924 95.1244 156.791 95.0289 156.753 95.0289C156.715 95.0289 156.962 95.2771 156.867 95.3343C156.772 95.3916 155.858 94.8571 155.573 94.5708C156.068 95.2771 157.856 96.8615 156.696 97.1097C156.334 97.1097 156.315 96.537 156.201 96.4606C156.296 96.7373 156.347 97.0271 156.353 97.3197C155.992 97.1171 155.659 96.8667 155.364 96.5752C155.364 96.8615 155.212 96.6897 155.078 96.5752C155.078 96.7661 155.763 97.5106 156.315 98.2169H155.935C155.231 97.4533 154.451 96.6325 154.298 96.4416C154.146 96.2507 154.679 96.9379 154.432 96.957H154.241C153.979 96.6847 153.778 96.3592 153.651 96.0025C153.651 96.0025 153.651 96.0025 153.651 96.0025C153.839 96.1571 154.017 96.3229 154.184 96.4988C154.184 96.3461 153.671 95.9643 154.184 96.0025C153.804 95.6016 153.766 95.2007 153.404 94.8953C153.404 95.0671 153.766 95.5825 153.69 95.678C153.613 95.7734 152.605 94.9144 152.263 94.4944C152.263 94.4944 152.129 94.2653 152.091 94.2081C152.053 94.1508 151.958 94.2081 151.692 94.3417C150.132 92.8145 149.789 94.5135 148.705 94.6089C148.305 94.6089 148.705 94.1317 148.705 94.0172C148.111 94.4518 147.473 94.8229 146.802 95.1244C146.954 95.1244 147.525 95.1244 147.335 95.3534C147.145 95.5825 146.098 95.3534 145.68 96.1743C145.261 96.9952 145.09 98.9041 143.263 99.1523C142.293 99.2668 139.04 99.8204 139.744 100.221C139.382 100.011 137.042 100.966 136.585 100.737C136.357 100.603 140.657 99.3623 140.391 99.2287C139.63 98.7896 139.553 99.6105 138.983 99.6677C136.814 99.8586 134.055 100.966 131.506 100.374C129.859 100.06 128.247 99.5868 126.692 98.9614C126.254 98.6942 124.028 99.7632 123.286 99.3241C123.286 99.3241 123.439 98.9805 122.982 99.0378C122.811 99.0378 122.982 99.1523 122.982 99.1905C122.982 99.2287 122.754 99.1905 122.735 99.1905C122.716 99.1905 122.544 98.7132 122.411 98.4651C123.258 98.6466 124.133 98.6466 124.98 98.4651C127.206 97.9306 125.132 97.7397 127.834 98.4651C127.834 98.0451 128.423 97.6824 128.652 97.2815C129.318 96.0789 130.098 97.8351 129.584 97.9878C129.07 98.1406 130.821 99.1332 132.171 98.7323C132.286 98.1596 135.406 95.2198 132.286 95.3916C132.259 95.3782 132.23 95.3712 132.2 95.3712C132.17 95.3712 132.141 95.3782 132.114 95.3916C132.114 95.2198 131.981 94.7807 131.981 94.7044C132.362 94.418 129.66 94.5898 129.565 94.5898C129.112 94.7406 128.647 94.8555 128.176 94.9335C127.51 94.5326 130.935 93.1963 129.926 92.28C129.375 91.7837 129.812 91.4019 129.755 91.1728C129.698 90.9437 130.897 90.5046 130.535 90.2374C130.535 90.2374 130.098 90.8673 129.945 90.8864C129.793 90.9055 130.269 90.1992 130.326 90.1419H130.06C130.174 90.1419 130.174 89.5311 130.06 89.2065V89.1111C130.06 89.1111 129.888 88.9202 129.812 88.9202C129.833 88.9113 129.856 88.9067 129.879 88.9067C129.902 88.9067 129.924 88.9113 129.945 88.9202C129.717 88.6338 129.679 88.5384 129.489 88.6338C129.299 88.7293 129.089 88.3093 129.394 88.252C129.698 88.1948 129.394 88.252 129.508 88.4048C129.622 88.5575 129.736 88.4048 129.774 88.4048C129.812 88.4048 129.622 87.6984 129.584 87.4312C129.584 87.4312 129.584 87.5457 129.584 87.5839C129.584 87.6221 128.766 86.4767 128.747 86.3622C128.728 86.2476 128.747 86.5531 128.747 86.5721C128.747 86.5912 128.48 86.4194 128.48 86.4003C128.48 86.3812 129.356 87.0112 128.48 87.2212C128.195 87.2212 127.206 85.064 127.738 85.3122C128.271 85.5604 128.328 85.8276 128.271 85.8849C128.507 85.7827 128.757 85.7183 129.013 85.694C129.21 85.8254 129.42 85.9343 129.641 86.0185V86.0185C129.203 85.8467 129.337 85.5986 129.146 85.3886C129.489 84.9877 130.535 86.7821 130.63 87.0112C130.307 85.5986 128.728 85.1022 128.119 83.8996C127.51 83.4796 128.347 82.8305 128.861 82.9833ZM138.678 82.9833C138.703 83.0303 138.716 83.0827 138.716 83.136C138.716 83.1893 138.703 83.2417 138.678 83.2887C139.059 83.2696 138.811 83.136 138.678 83.0405V82.9833ZM138.678 84.1859C138.485 84.0778 138.271 84.0127 138.05 83.995C138.28 84.0796 138.516 84.1498 138.754 84.205L138.678 84.1859Z" fill="#8AF5BA"/>
<path d="M129.09 83.1742C129.09 83.1742 129.127 83.2115 129.09 83.1742V83.1742Z" fill="#8AF5BA"/>
<path d="M153.366 94.5134C153.823 94.8952 153.366 94.5134 153.366 94.5134V94.5134Z" fill="#8AF5BA"/>
<path d="M149.371 94.0166C149.371 94.0166 149.409 93.8271 149.371 94.0166V94.0166Z" fill="#8AF5BA"/>
<path d="M132.152 95.3344C132.152 95.3344 132.305 95.3344 132.4 95.3344C132.495 95.3344 132.286 95.4489 132.152 95.3344Z" fill="#8AF5BA"/>
<path d="M133.047 82.7351C133.047 82.7351 133.009 82.7538 133.047 82.7351V82.7351Z" fill="#8AF5BA"/>
<path d="M107.648 94.3417C107.648 94.3417 108.142 94.0172 108.294 94.1126C108.827 94.418 109.778 94.418 109.36 95.1625C109.683 94.9717 115.886 93.5208 115.429 94.9717C115.924 94.5135 117.332 94.9717 117.978 94.9717C118.945 95.3927 119.952 95.7126 120.985 95.9261C120.985 96.0216 120.985 96.5561 120.985 96.4988H121.27C121.27 96.4988 120.985 96.1934 121.27 96.1743C122.411 96.0598 121.746 98.236 121.65 98.0833C121.841 98.1808 122.038 98.2638 122.24 98.3315C121.65 98.5796 120.338 99.0569 120.338 99.095C121.251 99.6105 118.911 101.233 118.987 100.889C117.579 101.959 116.038 101.978 113.393 102.512C111.757 102.837 108.428 101.634 107.686 103.238C105.516 104.794 103.078 105.933 100.494 106.597C100.608 106.712 99.9801 106.998 99.8089 106.884C99.6377 106.769 100.266 106.559 100.418 106.464C100.418 106.464 99.143 106.865 99.1811 106.979C99.2191 107.094 99.5426 106.979 99.6567 106.979C99.7709 106.979 98.5913 107.628 98.5152 107.59C98.4391 107.552 98.1347 107.265 98.2678 107.189C98.401 107.113 97.7922 107.189 97.7541 107.361C97.7541 108.144 95.2808 107.934 95.2808 107.934H95.1666C95.2998 107.934 95.4901 107.934 95.3188 108.086C94.0757 107.937 92.8554 107.635 91.6849 107.189C92.0274 107.399 91.7801 106.769 91.7991 106.731C92.8197 106.954 93.878 106.938 94.8913 106.683C95.9046 106.428 96.8453 105.941 97.64 105.261C97.7732 105.051 97.1073 105.261 97.1643 105.089C97.2214 104.917 98.42 105.337 98.5152 105.089C98.6103 104.841 97.9444 103.791 98.6293 104.287C96.936 102.608 98.2298 103.638 99.4855 102.894C98.4391 103.505 98.42 101.901 98.6483 101.176C98.3059 100.985 100.551 99.0569 99.9611 98.3505C99.3713 97.6442 102.739 93.1581 104.09 93.2345C105.309 93.4859 106.501 93.8567 107.648 94.3417V94.3417ZM120.376 96.6706C120.243 97.1479 120.566 96.0216 120.376 96.6706V96.6706ZM98.42 107.075C98.7815 107.075 98.6864 106.941 98.42 107.075V107.075Z" fill="#8AF5BA"/>
<path d="M123.21 73.7247C123.55 73.8832 123.88 74.0617 124.199 74.2593C123.762 73.9729 123.705 73.9538 123.077 73.5911C122.811 73.4384 123.61 73.4384 124.142 73.4384C123.933 73.4384 123.229 73.1902 123.705 73.0375C123.8 73.0375 124.028 73.1521 124.123 73.1521C124.218 73.1521 123.667 72.923 123.572 72.6557C123.476 72.3885 123.705 72.6557 123.743 72.6557C123.781 72.6557 123.362 72.4457 123.324 72.293C123.286 72.1403 123.648 72.293 123.705 72.293C123.438 71.873 123.971 72.083 124.18 72.0067C124.39 71.9303 123.838 71.8158 123.629 71.8349C123.651 71.7472 123.651 71.6553 123.629 71.5676C123.914 71.4531 123.914 71.7585 124.18 71.7203C124.447 71.6821 123.819 71.6058 123.914 71.5485C124.009 71.4912 124.466 71.873 124.504 71.8921C125.037 71.3958 122.715 70.3268 123.172 69.9832C123.732 70.3326 124.325 70.6267 124.941 70.8613C124.941 70.8613 124.675 71.0331 125.075 71.1667C125.075 70.8422 125.683 71.4531 125.798 71.434C125.912 71.4149 125.037 70.8995 125.094 70.8613C125.151 70.8231 127.491 72.1785 127.548 72.1976C127.605 72.2167 127.301 72.0258 127.396 71.9685C127.491 71.9112 129.774 73.7629 130.116 73.7247C130.116 73.7247 130.364 73.7247 130.269 73.7247C130.173 73.7247 129.717 73.4766 129.508 73.5529C129.66 73.7057 130.858 73.9156 130.782 74.1447C130.706 74.3738 130.516 74.1447 130.44 74.1447C130.364 74.1447 131.163 74.5647 131.22 74.622C132.189 75.1446 133.09 75.7859 133.903 76.5309C133.769 76.5309 133.541 76.2637 133.427 76.3019C132.951 76.4546 135.329 77.6191 135.063 77.8291C134.797 78.039 134.454 77.6572 134.359 77.6382C134.264 77.6191 134.892 77.8481 134.778 77.9627C134.226 78.4208 132.457 76.5691 132 76.7982C131.543 77.0273 132.095 76.7982 131.619 76.7982C131.615 76.8516 131.597 76.9027 131.565 76.9459C131.533 76.989 131.49 77.0224 131.441 77.0423C131.391 77.0622 131.337 77.0677 131.285 77.0583C131.232 77.0489 131.183 77.0249 131.144 76.9891C131.144 76.9891 131.296 77.5809 131.144 77.1991V77.5427C131.031 77.5481 130.92 77.5093 130.835 77.4346C130.75 77.3598 130.697 77.2549 130.687 77.1418C130.606 77.2211 130.496 77.2655 130.383 77.2655C130.269 77.2655 130.16 77.2211 130.078 77.1418V77.1418C130.16 77.2138 130.26 77.2624 130.367 77.2826C130.474 77.3027 130.585 77.2937 130.687 77.2564C130.992 77.2564 130.82 77.8481 130.801 77.9054C130.782 77.9627 130.364 77.7909 130.173 77.6382C130.173 78.0199 130.345 78.6117 129.983 78.4399C129.812 79.3371 128.176 79.1081 127.186 79.1081C126.312 77.9482 125.713 76.6031 125.436 75.1756C124.87 75.0918 124.358 74.7907 124.009 74.3356C123.724 74.4502 123.21 73.7247 123.21 73.7247ZM124.199 73.2475C124.199 73.2475 124.371 73.4193 124.199 73.4575H124.542C124.439 73.3708 124.323 73.3 124.199 73.2475V73.2475ZM134.321 77.7527C134.321 77.7527 134.207 77.7527 134.321 77.7527V77.7527ZM129.964 77.7527H130.326C130.215 77.6675 130.093 77.5969 129.964 77.5427C129.964 77.5427 129.945 77.6572 129.964 77.7527V77.7527Z" fill="#8AF5BA"/>
<path d="M115.828 74.6219C115.828 74.6219 115.828 74.3737 115.828 74.3355C115.828 74.2974 115.828 74.5646 115.6 74.5837C115.372 74.6028 115.6 74.3928 115.6 74.3546C115.6 74.3165 115.6 74.6792 115.6 74.7173C115.6 74.7555 115.6 74.5264 115.6 74.5073C115.6 74.4883 115.486 74.6982 115.391 74.7173C115.295 74.7364 115.391 74.431 115.391 74.431C115.391 74.431 115.238 74.6601 115.181 74.6792C115.124 74.6982 114.82 74.4501 114.782 74.3928C114.744 74.3355 114.477 75.0991 114.649 75.0037C114.496 75.0991 114.439 75.0037 114.249 75.0037C114.059 75.0037 114.249 75.3664 114.249 75.3855C113.991 75.3376 113.749 75.2261 113.545 75.0609C113.545 75.0609 114.097 75.7864 113.907 75.8245C113.716 75.8627 112.004 74.4883 112.289 74.3928C112.384 74.3738 112.481 74.3738 112.575 74.3928C112.575 74.1828 112.575 73.6483 113.165 74.1637C113.852 73.9808 114.525 73.7512 115.181 73.4765C115.467 73.4765 115.581 73.8201 115.79 73.801C115.999 73.7819 115.79 73.1902 115.885 73.2283H116.037C116.11 73.4663 116.167 73.7086 116.209 73.9537C116.209 74.0683 116.209 74.1256 116.456 74.2592C116.018 74.4501 115.866 74.6219 115.828 74.6219Z" fill="#8AF5BA"/>
<path d="M67.0085 60.4191C66.7611 60.5528 65.7718 57.5557 67.8075 57.4602C67.6553 57.4602 68.3403 57.7657 68.3212 57.7657C67.7505 57.3075 69.4057 57.3075 69.8813 57.3075C71.9361 57.3075 70.4331 56.8684 71.0039 56.5439H71.2131C71.3463 56.5439 73.2679 57.632 73.4772 57.2311C73.1157 57.0212 73.6294 56.4676 73.1918 56.3721C73.0396 56.3721 72.6781 56.5821 72.4688 56.6966C71.8473 56.4758 71.2117 56.2972 70.5663 56.1621C69.8052 55.723 69.6911 56.3148 68.6637 56.4485C68.6637 56.4485 67.6934 55.5894 68.6637 55.5703C69.2535 55.5703 72.2595 55.2267 71.4795 54.7877C69.6911 53.7377 72.564 52.8787 74.086 52.2869C73.1918 51.9242 70.8707 52.8978 70.2809 52.5541C70.1857 52.5541 70.4902 52.4587 70.5282 52.4205C70.3868 52.3625 70.2403 52.3178 70.0906 52.2869C70.4521 52.2869 71.8029 52.1533 71.9932 52.1342C71.7437 52.0446 71.4896 51.9681 71.2322 51.9051C71.2322 51.9051 75.2656 51.9051 75.3607 51.9051C75.4939 52.0387 74.828 51.9051 74.7519 51.9051C74.6758 51.9051 74.7519 51.9051 74.2572 52.1342C75.2085 52.1342 76.293 52.2678 76.5213 52.6496C76.6735 52.5541 77.2823 52.6496 77.2062 52.6496C77.1301 52.6496 76.7686 52.6496 76.7306 52.6496C76.6925 52.6496 77.2823 52.6496 77.3014 52.6496C77.3204 52.6496 77.1492 52.8023 77.6058 52.9359C77.8531 52.096 78.2907 50.397 76.1218 50.3016C76.1751 50.3389 76.2151 50.3924 76.2359 50.4543C76.0076 50.5879 75.2276 49.8243 75.2466 49.8243C75.3935 49.7052 75.5613 49.6146 75.7413 49.557C75.7004 49.4266 75.7004 49.2866 75.7413 49.1562C75.7413 49.3471 74.2382 48.9271 74.828 48.6789C74.9422 48.6789 75.2466 48.6789 75.3988 48.6789C75.0214 48.6098 74.6346 48.6098 74.2572 48.6789C74.1426 48.9984 74.0092 49.3107 73.8577 49.6143C73.8577 49.6143 69.1584 50.0534 69.2725 50.0343C68.892 50.0343 69.5959 49.4043 70.1096 49.3471C70.014 49.2598 69.9048 49.1888 69.7862 49.1371C69.9384 49.1371 70.4331 49.1371 70.4711 49.1371C70.5092 49.1371 70.4711 48.6217 70.9468 48.6407C71.4224 48.6407 73.1728 49.0989 73.4011 48.6407C73.6294 48.1826 72.2405 47.9535 71.7459 47.6481C72.2595 47.9535 71.7459 46.0254 71.3083 46.4645C71.5746 46.1209 73.0016 46.8463 73.3821 46.789C73.2299 46.789 72.8493 46.5409 73.0777 46.4263C73.2991 46.4053 73.5221 46.4053 73.7436 46.4263C73.7436 46.4263 73.5533 46.4263 73.7436 46.4263C72.7358 46.2341 71.7656 45.8795 70.8707 45.3764C70.8707 45.3764 71.5175 45.3764 71.5937 45.3764C71.6698 45.3764 71.2702 45.2237 71.4224 45.1664C71.5746 45.1091 73.5533 45.6246 73.4201 45.8155H72.9825C75.1236 46.4691 77.2208 47.2597 79.261 48.1826C79.261 48.1826 78.2336 48.068 78.2717 48.049C78.1385 48.4498 85.3683 51.0842 86.5859 51.6951C86.5859 51.6951 86.4337 51.5806 86.4337 51.5615C86.9008 51.7557 87.3523 51.9855 87.7845 52.2487C87.7094 52.2659 87.6314 52.2659 87.5562 52.2487C87.5562 52.2487 87.8797 52.4396 87.8416 52.4778C87.8036 52.516 87.1186 52.3632 87.0996 52.3632C87.5372 52.6687 88.2602 52.8596 89.0022 53.2796C89.0022 53.2796 88.6407 53.4132 88.5456 53.4514C88.869 53.5468 92.56 54.1386 92.1985 54.5586C92.1985 54.5586 91.7609 54.5586 91.6467 54.5586C92.9405 54.8067 93.9679 56.0285 94.9382 56.0858C94.9382 56.0858 94.6148 55.8758 94.7289 55.8185C94.8431 55.7612 95.2997 56.3148 95.2807 56.3339C95.2616 56.353 95.0333 56.3339 94.9953 56.2003C94.9572 56.0667 95.8134 56.7348 95.6041 56.8493C95.8895 56.6775 94.9192 55.933 95.2236 55.8185C96.1558 55.4367 98.8955 57.4793 98.7243 57.422C99.3902 57.6702 99.3141 57.9756 99.98 58.2238C100.113 58.3383 101.198 59.331 101.045 59.4265C100.893 59.5219 100.475 59.1974 100.38 59.1783C100.284 59.1592 101.673 59.8655 101.426 60.0564C101.179 60.2473 100.208 59.7701 100.132 59.8083C100.557 60.0269 101.003 60.1997 101.464 60.3237C101.464 60.3237 101.255 60.1901 101.274 60.1519C101.293 60.1137 101.673 60.6291 101.635 60.5719C101.597 60.5146 101.407 60.4191 101.198 60.381C100.988 60.3428 101.711 60.5909 101.616 60.6673C101.852 60.7284 102.095 60.7605 102.339 60.7628C102.187 60.8773 101.959 61.0873 102.054 61.0873C103.271 61.0873 104.565 61.2018 103.462 61.9463H102.815C102.587 62.3472 102.13 61.5836 101.749 61.9463C102.848 62.2646 103.922 62.6601 104.965 63.1299L103.88 62.8817C103.405 63.1299 104.356 63.1108 104.508 63.1299C104.678 63.431 104.904 63.6967 105.174 63.9126C105.478 63.9126 105.174 63.9126 105.269 63.7408C105.364 63.5689 106.316 65.4016 106.886 65.2107C106.886 65.077 106.601 65.058 106.639 64.9434C106.677 64.8289 107.495 65.2298 107.723 65.2488C107.952 65.2679 106.696 65.4016 106.753 65.3634C106.81 65.3252 106.753 65.497 106.582 65.5161C107.876 65.6497 107.02 66.1461 106.943 66.2415C106.867 66.337 108.085 66.4897 107.971 66.7569C107.857 67.0242 107.324 66.7569 107.229 66.7569C107.495 67.2151 108.998 67.0433 109.531 67.0815C109.227 66.7378 106.049 65.5543 108.485 65.9933C109.514 66.1698 110.502 66.5389 111.395 67.0815C111.395 67.0815 111.167 66.8142 111.224 66.7951C111.567 66.6615 111.947 67.1578 111.985 67.1769V67.0051C112.366 67.0051 112.214 67.2724 112.271 67.3678C112.271 67.3678 112.271 67.4824 112.442 67.6351C112.613 67.7878 112.442 67.3678 112.556 67.3678C112.809 67.6083 113.083 67.8255 113.374 68.0169C113.274 67.9968 113.17 67.9968 113.07 68.0169C113.431 68.1887 113.412 68.2269 113.469 68.4368C113.907 68.1314 113.774 68.6659 113.679 68.7995C114.192 68.7041 113.907 68.7995 113.869 69.0095C114.363 68.8759 114.363 69.4104 114.554 69.6586H114.44C114.44 69.6586 114.173 69.315 114.097 69.2577C113.051 69.8304 114.592 71.1667 114.268 71.3958C114.402 71.3003 114.516 72.5221 113.64 72.2739C113.45 72.6557 111.738 72.1021 112.29 71.5294C110.749 71.9685 111.167 71.9303 110.577 72.3502C110.496 72.3672 110.412 72.3672 110.33 72.3502C109.379 71.7966 110.216 70.9376 110.216 70.2504C110.216 70.2504 111.852 70.3458 111.491 69.7731C111.262 69.4162 111.014 69.072 110.749 68.7423C110.805 68.8498 110.831 68.9707 110.823 69.0919C110.816 69.2131 110.776 69.33 110.708 69.4301C110.639 69.5302 110.545 69.6097 110.435 69.6601C110.325 69.7104 110.203 69.7297 110.083 69.7159C109.284 69.7159 108.408 68.9714 107.628 68.6086C107.914 68.8759 109.531 69.8304 109.074 70.0977H108.827C108.827 70.0977 108.37 69.525 108.351 69.6586C108.218 69.7235 108.091 69.8002 107.971 69.8877C108.427 70.384 108.58 72.1593 110.368 72.503C110.482 72.8848 111.529 71.8157 111.7 71.8157C112.917 71.8157 110.939 72.8084 110.92 72.8084C111.364 73.7117 111.886 74.574 112.48 75.3855C111.89 75.0419 112.48 76.2255 112.822 76.2064C112.328 76.3782 108.922 75.9009 111.376 77.3327C112.86 78.1726 111.51 78.669 110.235 79.4516C109.626 79.2226 106.753 77.8863 108.332 77.409C109.341 77.1227 107.8 74.221 106.582 74.9274C105.852 74.7145 105.108 74.555 104.356 74.4501C103.576 74.851 104.356 75.2901 104.204 75.3473C102.796 76.1682 103.081 73.992 103.652 74.0111C103.475 74.0258 103.297 74.0258 103.119 74.0111C103.119 73.7438 106.182 74.3356 106.677 74.0111C107.172 73.6865 105.821 73.5911 105.745 73.6293C104.017 73.7545 102.281 73.684 100.57 73.4193C100.584 73.35 100.584 73.2785 100.57 73.2093C101.079 73.2383 101.59 73.2063 102.092 73.1138C101.978 73.1138 101.293 72.2548 100.912 72.4266C100.912 72.4266 100.798 72.7893 100.665 72.8275C100.246 72.9229 100.532 72.5602 100.532 72.5793C100.463 72.6277 100.406 72.6901 100.363 72.7626C100.32 72.835 100.294 72.9157 100.284 72.9993C100.12 72.9526 99.9602 72.8886 99.8088 72.8084C99.8088 72.8084 99.942 73.0566 99.4283 72.9229C99.4283 72.9229 99.4283 73.1711 99.4283 73.1902C99.4283 73.2093 99.4283 72.9993 99.2951 72.8657C99.1619 72.732 99.4092 72.8657 99.2951 73.0566C99.1434 73.0382 98.9901 73.0382 98.8385 73.0566C98.8385 73.0566 98.9907 72.8657 98.9717 72.8084C98.9526 72.7511 96.5554 71.6821 96.8217 71.5294C94.4435 72.4648 95.6992 73.4384 97.6969 74.2592C98.0013 74.3929 101.084 75.8628 99.5995 75.7864C100.783 75.8921 101.95 76.129 103.081 76.4927C103.766 76.7027 103.728 75.8246 104.299 75.7482C105.802 75.5573 108.675 79.5662 108.865 80.0243C108.812 81.2908 108.446 82.5242 107.8 83.6132C106.818 84.5499 105.694 85.3233 104.47 85.904C103.367 85.904 101.883 86.1903 100.456 86.2094C97.6589 86.4385 97.0691 84.6441 95.7753 83.6896C95.4329 83.4414 91.9702 82.5633 91.9702 83.5178C91.9702 84.0905 87.9558 84.7968 87.0045 85.0449C84.9116 85.5985 85.3302 87.1448 82.5525 87.4693C80.6499 87.6793 78.2907 89.0347 76.6735 89.2447C75.4368 89.3974 74.9232 88.4238 74.067 87.9275C72.1644 86.8203 75.4939 84.2241 75.7603 83.5369C76.9018 83.0596 75.7603 81.437 77.4726 80.4634C77.758 80.2916 81.6963 79.1844 80.5357 78.5544C79.3752 77.9245 81.3158 74.2592 82.1719 73.8774C83.1787 74.2563 84.1418 74.7427 85.0448 75.3282C84.9497 74.6983 93.9869 74.4501 95.1094 73.4193C94.8621 73.4193 94.0059 73.6674 93.7776 73.5338C93.5493 73.4002 94.082 73.2093 94.1582 73.1329C93.3781 73.5338 84.8355 74.3738 84.8165 74.6028C84.9497 73.1711 81.468 71.1094 83.694 69.9258C83.5799 69.9258 86.681 70.0786 86.3576 69.9258C86.7762 70.174 86.2244 70.7658 86.8142 71.1094C87.404 71.453 87.5752 70.594 87.9938 70.8422C88.108 70.8422 87.7465 71.0712 87.7465 71.0903C87.7465 71.1094 91.2282 70.9185 90.0296 70.4031C89.8203 70.4031 86.8713 70.6322 86.9284 70.0022C86.9854 69.3722 81.3348 68.5514 80.707 68.0932C80.707 68.2459 81.0114 68.4368 80.9733 68.475C80.9353 68.5132 79.3561 68.475 79.5274 68.1314C77.9482 68.8568 71.2322 70.0404 72.4879 69.0668C72.7732 68.8759 74.9802 67.8069 74.6378 67.3678C74.4741 66.9704 74.4076 66.5394 74.4441 66.111C74.4805 65.6826 74.6187 65.2691 74.847 64.9052C74.5426 65.0961 74.1431 64.6762 74.3524 64.5234C74.0099 64.6189 73.8958 64.3135 74.0289 64.2371C72.8874 64.6189 69.9384 64.9243 69.9574 64.3898C69.9574 63.5308 65.8098 65.7261 65.962 65.8215C66.1142 65.917 66.0762 65.6497 66.0952 65.6306L65.5244 65.7452C65.5244 65.7452 61.3198 66.5279 61.3388 65.9933C61.3388 65.7643 68.8349 65.0007 67.5031 64.218C66.3539 64.1294 65.1984 64.1742 64.0595 64.3516C63.0321 62.1563 70.1477 62.4427 67.8646 61.0682C67.6853 61.1609 67.5011 61.2437 67.3129 61.3164C67.7505 61.2782 66.9133 60.5719 67.0085 60.4191ZM100.931 60.4191H101.045C100.874 60.381 100.76 60.3046 100.931 60.4191ZM100.494 61.8509C99.8849 61.4882 100.627 61.2018 101.559 61.0682C101.078 61.0677 100.603 60.9567 100.17 60.7437C100.17 60.7437 100.513 60.9727 100.475 61.03C100.437 61.0873 98.9146 61.5836 100.494 61.8509V61.8509ZM100.132 60.7246C99.8236 60.6733 99.5086 60.6733 99.2 60.7246C99.3522 60.7627 99.8468 60.6482 100.189 60.7246H100.132ZM86.1673 51.6378C85.9771 51.3515 86.0722 51.5042 86.1673 51.6378V51.6378Z" fill="#8AF5BA"/>
<path d="M100.322 73.0186C100.322 73.0186 100.342 72.999 100.322 73.0186V73.0186Z" fill="#8AF5BA"/>
<path d="M98.8193 73.0566C98.8193 73.0566 98.7641 73.075 98.8193 73.0566V73.0566Z" fill="#8AF5BA"/>
<path d="M45.1863 59.8847C45.1863 59.8847 44.5204 59.4647 45.3575 59.6365C45.719 59.6365 51.1984 60.1137 50.19 60.8773C49.8285 61.1446 52.0926 61.0873 52.4541 61.5455C51.9843 61.5505 51.5164 61.4861 51.0652 61.3546C51.1984 61.4691 51.4267 61.6027 51.4077 61.66C51.133 61.682 50.8598 61.7203 50.5896 61.7746C50.4564 61.7746 50.5896 61.5264 50.5896 61.4309C49.9617 61.7936 48.687 61.2782 47.6786 61.87C47.2791 62.08 45.2624 60.4574 45.9093 60.8201C45.6239 59.9419 43.7023 60.6292 42.732 60.0756C42.7134 60.0003 42.7134 59.9217 42.732 59.8465C43.0173 59.8083 45.015 60.3046 45.1863 59.8847Z" fill="#8AF5BA"/>
<path d="M39.5358 63.1299C39.8191 63.0194 40.0928 62.8853 40.3539 62.729C40.6964 62.5381 43.5883 62.3472 43.6834 62.2518C43.7785 62.1563 45.3006 61.4691 45.3767 61.5073C45.4528 61.5454 43.2838 63.7217 43.9878 63.7217C44.746 63.8053 45.5081 63.8499 46.2709 63.8553C46.5753 63.8553 46.2709 62.9581 46.6133 62.9772L46.9178 62.9963C47.108 63.0917 46.7275 63.1681 46.9178 63.2444C47.108 63.3208 47.2222 63.149 47.1841 63.1299C47.6788 63.4162 48.3066 63.4735 48.6871 63.6835C49.0677 63.8935 48.1544 63.6835 48.1354 63.779C48.1164 63.8744 48.9916 65.287 48.2496 64.9052C48.1164 65.1343 48.6871 65.058 48.5349 65.287C49.7906 64.6571 49.5243 66.1079 49.3721 66.3179C49.2199 66.5279 49.6575 66.3179 49.7145 66.3179C49.7716 66.3179 49.334 66.4897 49.296 66.5279C49.5623 66.5279 49.296 66.5279 49.296 66.6997C49.296 66.8715 49.6575 66.5279 49.7716 66.5279C49.7258 67.6259 50.0621 68.7058 50.7229 69.5822C50.7229 69.5822 50.9322 69.4104 50.9893 69.4486C50.6278 69.7922 49.9238 70.1549 49.6194 70.4413C49.315 70.7276 49.6194 70.4413 49.6194 70.5367C49.6194 70.6322 49.8477 70.4413 49.9048 70.5367C49.9619 70.6322 49.5243 70.6704 49.6765 70.7658C49.8287 70.8613 50.1521 70.5749 50.2282 70.6131C49.2957 70.9547 48.4027 71.3963 47.5646 71.9303C46.6324 72.8848 46.9939 72.5603 45.8523 71.7012C44.7108 70.8422 44.5395 69.964 43.2838 69.2386C42.9444 69.0362 42.5562 68.9306 42.1613 68.9332C40.7895 69.6174 39.2519 69.8955 37.7283 69.735C37.2146 69.735 36.758 69.3532 36.8151 69.0477C36.806 68.9015 36.806 68.7549 36.8151 68.6087C35.9589 68.0932 36.4156 63.8553 37.7664 63.2063C37.4049 63.3208 40.0114 62.8436 39.5358 63.1299Z" fill="#8AF5BA"/>
<g style="mix-blend-mode:multiply">
<path d="M40.3158 82.8115L57.7434 102.798L124.238 64.2944L106.811 44.3074L40.3158 82.8115Z" fill="#B2B2B2"/>
</g>
<g style="mix-blend-mode:multiply">
<path d="M92.0846 113.011L105.973 128.932L172.487 90.4092L158.58 74.4883L92.0846 113.011Z" fill="#B2B2B2"/>
</g>
<path d="M69.832 15.3792C72.153 14.0289 74.2823 13.8079 75.8844 14.5331C76.1341 14.6457 76.3725 14.7821 76.5965 14.9406L79.8486 16.7951C79.8486 16.7951 79.229 17.2233 78.5272 17.6895C78.8314 18.6587 78.9805 19.6706 78.9688 20.6871C78.9643 21.7325 78.8495 22.7744 78.6265 23.7952L79.5679 23.8678C79.5679 23.9645 78.0788 31.8832 77.9076 32.2009C77.7364 32.5187 74.9498 35.8996 74.8779 35.872C74.7101 35.6234 74.5569 35.3651 74.4192 35.0984C73.2929 37.6298 72.1906 39.9332 71.3382 41.615L74.1796 42.9343L73.1526 46.4533L69.4793 44.3364C69.4589 44.3281 69.4394 44.3177 69.4211 44.3053C68.134 43.3107 63.7555 39.7156 61.4687 35.2227C60.9028 34.0117 60.6295 32.6826 60.6711 31.3445C60.6951 25.4736 64.7928 18.3146 69.832 15.3792ZM69.832 31.5482C72.4474 30.0253 74.5767 26.3059 74.5767 23.26C74.5767 20.7148 73.091 19.437 71.0815 19.9688L71.4786 20.1484C71.2116 20.4661 66.8365 28.2087 66.6414 29.0479C66.4123 29.7476 66.0648 30.4019 65.6144 30.9819C66.3846 32.3184 67.9697 32.6257 69.832 31.5482Z" fill="#DB4949"/>
<path d="M73.4984 17.4927C78.5341 14.5573 82.6318 16.9471 82.6318 22.8145C82.6153 24.4501 82.3462 26.0731 81.8342 27.6251C79.5508 34.7772 75.1587 43.4799 73.8818 45.9699C73.7953 46.1463 73.6628 46.2955 73.4984 46.4015C73.4432 46.4435 73.3767 46.4676 73.3076 46.4707C73.2386 46.4737 73.1702 46.4557 73.1116 46.4188C71.8244 45.4242 67.4425 41.8292 65.1592 37.3362C64.5943 36.1273 64.321 34.8008 64.3615 33.4649C64.3615 27.594 68.4592 20.4281 73.4984 17.4927ZM73.4984 33.6652C76.1138 32.1388 78.2431 28.4194 78.2431 25.3769C78.2431 22.3344 76.1138 21.0912 73.4984 22.6142C70.883 24.1371 68.7502 27.8565 68.7502 30.9025C68.7502 33.9484 70.8795 35.1916 73.4984 33.6652Z" fill="#FF6161"/>
</g>
<defs>
<clipPath id="clip0_9678_105418">
<rect width="182" height="138" fill="white" transform="matrix(-1 0 0 1 182 0)"/>
</clipPath>
</defs>
</svg>
