<svg width="24" height="24" viewBox="0 0 24 24" fill="none" xmlns="http://www.w3.org/2000/svg">
<path d="M6.04088 20.0357C3.91949 20.0357 2.61382 19.7276 1.87952 19.1885C1.28151 18.752 1.41716 17.6481 2.09724 16.5442C3.26232 17.1744 4.58825 17.4938 5.93217 17.468C7.1288 17.468 7.91759 17.2628 7.91759 16.5182C7.91759 15.7479 7.21058 15.5941 5.52398 15.286C3.3484 14.8749 1.77083 14.002 1.77083 11.7942C1.77083 9.63727 3.72901 8.251 6.72095 8.251C8.16493 8.23197 9.59833 8.48516 10.9365 8.9956C10.6918 10.8187 10.2022 11.1525 9.60388 11.1525C8.78816 11.1525 8.13532 10.7418 6.63951 10.7418C5.49705 10.7418 4.87147 11.0496 4.87147 11.6916C4.87147 12.462 5.68752 12.5646 6.85691 12.7698C9.54968 13.2577 11.1 14.1818 11.1 16.3899C11.1 18.3667 9.8216 20.0357 6.04088 20.0357Z" fill="black"/>
<path d="M12.2998 8.16899C12.4646 4.88522 14.9367 3.78176 17.4635 3.78176C18.2068 3.76925 18.9502 3.80443 19.6885 3.88705C19.716 5.62077 19.4965 6.40896 18.7546 6.40896H17.6008C16.2003 6.40896 15.5135 6.98656 15.5135 8.48427V8.61559H18.8369C19.002 10.9012 18.5626 11.1112 17.7385 11.1112H15.5135V20.2793H12.2998V8.16899Z" fill="black"/>
<path d="M22.5002 15.5645H17.7002V20.2787H22.5002V15.5645Z" fill="#EE2060"/>
</svg>
