<svg width="120" height="108" viewBox="0 0 120 108" fill="none" xmlns="http://www.w3.org/2000/svg">
<path fill-rule="evenodd" clip-rule="evenodd" d="M60.05 0C72.4811 0 83.9097 5.1 92.03 13.4C88.2205 12.7 84.5112 12.4 80.9022 12.4C68.9724 12.4 57.4435 15.7 47.4185 22C43.0074 24.9 39.1979 28.2 35.8896 32.3C29.9749 39.6 25.7643 48.3 25.5638 57.8C25.4636 66.4 28.6716 74.2 35.3884 79.7C38.4962 82.2 41.6039 84.1 45.614 85.5C49.1227 86.6 52.832 87.1 56.441 86.9C60.3508 86.7 64.3608 85.8 67.5688 83.2C69.3734 81.8 69.9749 79.8 69.7744 77.9C69.5739 75.7 68.4711 74 66.4661 73.3C63.9598 72.4 60.1503 72 58.2455 74.3C57.644 75.1 57.7443 76.1 58.3458 77C58.446 77.2 58.6465 77.5 58.7468 77.6C58.1453 77.6 57.644 77.3 57.3433 77C54.7368 74.5 57.644 71.7 59.9498 70.7C67.2681 67.5 81.7042 72.2 76.9924 82.2C74.8871 86.6 69.3734 88.6 64.0601 89.3C60.1503 89.9 56.2405 89.9 52.6315 89.3H52.5312C31.2781 85.8 14.9373 67.2 14.9373 45C14.9373 20.2 35.1879 0 60.05 0Z" fill="#1008CE"/>
<path fill-rule="evenodd" clip-rule="evenodd" d="M97.0427 19.2999C101.955 26.4999 104.962 35.0999 105.063 44.3999C103.96 43.2999 102.857 42.2999 101.554 41.5999C94.5364 37.4999 82.2056 37.2999 74.787 38.5999C67.3685 39.8999 60.4512 41.3999 53.9349 45.8999C47.4186 50.2999 41.2031 58.1999 40.4011 66.3999C39.8998 72.7999 42.0051 76.9999 50.0251 81.3999C53.4337 83.2999 58.3459 83.2999 61.8547 81.5999C63.7595 80.6999 65.4637 77.7999 64.361 75.9999C63.3585 74.2999 59.95 73.7999 58.9474 76.3999C58.3459 75.5999 59.3484 73.8999 60.2507 73.5999C62.0552 73.0999 64.0602 72.9999 65.6642 73.8999C67.3685 74.9999 69.0728 77.0999 68.6718 79.1999C68.1705 81.6999 65.965 83.1999 63.6592 84.2999C60.8522 85.6999 57.3434 86.0999 54.1354 85.9999C50.4261 85.8999 46.5164 84.9999 43.2081 83.1999C39.0978 80.8999 35.0878 77.8999 32.5815 73.8999C29.8748 69.7999 28.2708 64.7999 28.2708 59.8999C28.2708 49.7999 32.782 41.8999 39.2983 34.4999C44.0101 29.0999 48.8221 25.5999 56.0402 21.9999C63.3585 18.4999 74.386 15.2 83.5089 15.2C86.9174 15.2 90.3259 15.8 93.5339 17C94.2357 17.2 95.4387 18.0999 97.0427 19.2999Z" fill="#106BFF"/>
<path fill-rule="evenodd" clip-rule="evenodd" d="M45.5137 77.0001C41.203 72.1001 42.005 67.8001 44.1102 62.4001C47.3182 53.9001 55.238 49.2001 63.3583 45.9001C65.1628 45.2001 70.5764 43.6001 75.0877 42.8001C80.3007 41.9001 85.1127 42.3001 90.3257 43.0001C93.8345 43.5001 100.351 46.3001 103.058 48.6001C104.762 50.1001 104.361 53.1001 103.96 55.1001C102.356 61.8001 99.3483 67.9001 95.1378 73.1001C96.3408 65.7001 93.0325 63.2001 87.0175 60.7001C83.5087 59.2001 77.4937 58.2001 73.3834 58.1001C67.1679 57.9001 58.7468 60.4001 55.4385 63.9001C53.0325 66.4001 51.629 68.0001 51.228 71.3001C50.9273 74.0001 51.8295 76.4001 54.2355 78.2001C55.4385 79.0001 56.6416 79.0001 57.9448 79.5001C58.6466 79.7001 60.7518 79.2001 61.4536 78.6001C62.8571 77.6001 62.4561 75.8001 61.2531 75.3001C61.1528 74.9001 62.3558 75.2001 62.6566 75.5001C65.3634 77.9001 63.3583 79.7001 61.2531 80.7001C58.9473 81.8001 56.2406 81.9001 53.8345 81.5001C49.4235 80.8001 47.218 79.0001 45.5137 77.0001Z" fill="#19CEFF"/>
<path fill-rule="evenodd" clip-rule="evenodd" d="M0 107.8V94H2.50627V100.1L7.7193 94H11.1278L6.31579 99.3999L11.3283 107.8H8.02005L4.61153 101.3L2.50627 103.6V107.8H0ZM12.6316 107.8V94H21.9549V96.2999H15.2381V99.3999H21.4536V101.7H15.2381V105.4H22.2556V107.8H12.6316ZM24.3609 107.8V94H28.1704L30.3759 103.4L32.6817 94H36.4912V107.8H34.0852V96.8999L31.5789 107.8H29.1729L26.6667 96.8999V107.8H24.3609ZM39.0977 107.8V94H41.604V100.1L46.7168 94H50.1253L45.4135 99.3999L50.4261 107.8H47.1178L43.609 101.3L41.604 103.6V107.8H39.0977ZM51.1278 101C51.1278 99.5999 51.3283 98.3999 51.7293 97.3999C52.0301 96.6999 52.4311 96.0999 52.9323 95.4999C53.4336 95 53.9348 94.6 54.5363 94.3C55.3383 93.9 56.2406 93.7 57.2431 93.7C59.1479 93.7 60.6516 94.4 61.7544 95.5999C62.8571 96.8999 63.3584 98.6999 63.3584 100.9C63.3584 103.1 62.8571 104.9 61.7544 106.1C60.6516 107.4 59.1479 108 57.3434 108C55.4386 108 53.9348 107.4 52.8321 106.1C51.7293 104.9 51.1278 103.2 51.1278 101ZM53.8346 100.9C53.8346 102.4 54.1353 103.6 54.7368 104.4C55.4386 105.2 56.2406 105.6 57.3434 105.6C58.3459 105.6 59.1479 105.2 59.7494 104.4C60.4511 103.6 60.7519 102.4 60.7519 100.8C60.7519 99.1999 60.4511 98.0999 59.8496 97.2999C59.1479 96.4999 58.3459 96.0999 57.3434 96.0999C56.2406 96.0999 55.4386 96.4999 54.7368 97.2999C54.1353 98.0999 53.8346 99.2999 53.8346 100.9ZM65.3634 107.8V94H69.1729L71.3784 103.4L73.6842 94H77.4937V107.8H75.0877V96.8999L72.5815 107.8H70.1754L67.6692 96.8999V107.8H65.3634ZM79.8997 107.8V94H82.5063V107.8H79.8997ZM84.9123 107.8V94H87.3183L92.5313 103.2V94H94.9373V107.8H92.3308L87.218 98.6999V107.8H84.9123ZM97.5439 107.8V94H106.266V96.2999H100.15V99.5999H105.363V101.9H100.15V107.8H97.5439ZM107.769 101C107.769 99.5999 107.97 98.3999 108.371 97.3999C108.672 96.6999 109.073 96.0999 109.574 95.4999C110.075 95 110.576 94.6 111.178 94.3C111.98 93.9 112.882 93.7 113.885 93.7C115.689 93.7 117.193 94.4 118.296 95.5999C119.398 96.8999 120 98.6999 120 100.9C120 103.1 119.398 104.9 118.296 106.1C117.193 107.4 115.789 108 113.885 108C112.08 108 110.576 107.4 109.474 106.1C108.371 104.9 107.769 103.2 107.769 101ZM110.376 100.9C110.376 102.4 110.777 103.6 111.378 104.4C112.08 105.2 112.882 105.6 113.885 105.6C114.887 105.6 115.789 105.2 116.391 104.4C117.093 103.6 117.393 102.4 117.393 100.8C117.393 99.1999 117.093 98.0999 116.391 97.2999C115.789 96.4999 114.987 96.0999 113.885 96.0999C112.882 96.0999 111.98 96.4999 111.378 97.2999C110.777 98.0999 110.376 99.2999 110.376 100.9Z" fill="#1008CE"/>
</svg>
