<svg width="160" height="160" viewBox="0 0 160 160" fill="none" xmlns="http://www.w3.org/2000/svg">
<circle opacity="0.2" cx="80" cy="80" r="80" fill="#106BFF"/>
<g clip-path="url(#clip0)">
<path opacity="0.4" d="M42.6457 152.7L3.25312 129.818C-0.0838449 127.879 0.333275 124.494 4.20112 122.257L99.3456 67.0009C103.201 64.7762 109.028 64.5219 112.365 66.4575L151.757 89.3403C155.094 91.2758 154.674 94.6606 150.809 96.898L55.668 152.147C51.8097 154.385 45.9826 154.63 42.6457 152.7Z" fill="#D6D8E5"/>
<path d="M47.6353 149.678L8.24277 126.795C4.90581 124.859 5.3261 121.475 9.19077 119.237L104.332 63.991C108.187 61.7663 114.014 61.5088 117.351 63.4475L156.744 86.3304C160.081 88.2691 159.664 91.6538 155.796 93.8913L60.6545 149.138C56.7993 151.375 50.9723 151.616 47.6353 149.678Z" fill="#B1B4C4"/>
<path d="M5.98962 123.474V119.825L10.243 121.44L5.98962 123.474Z" fill="#B1B4C4"/>
<path d="M159 89.4799V85.9712L155.616 88.1641L159 89.4799Z" fill="#B1B4C4"/>
<path d="M47.6353 146.592L8.24277 123.709C4.90581 121.77 5.3261 118.385 9.19077 116.148L104.332 60.9018C108.187 58.6771 114.014 58.4228 117.351 60.3583L156.744 83.2412C160.081 85.1767 159.664 88.5615 155.796 90.7989L60.6545 146.048C56.7993 148.286 50.9723 148.53 47.6353 146.592Z" fill="#616E84"/>
<path d="M12.9961 128.402C13.1986 128.285 13.1994 127.905 12.9978 127.554C12.7962 127.203 12.4687 127.013 12.2661 127.131C12.0636 127.248 12.0628 127.628 12.2644 127.98C12.466 128.331 12.7936 128.52 12.9961 128.402Z" fill="#757B89"/>
<path d="M14.8924 129.503C15.095 129.386 15.0958 129.006 14.8942 128.655C14.6926 128.304 14.365 128.114 14.1625 128.232C13.96 128.349 13.9592 128.729 14.1608 129.081C14.3623 129.432 14.6899 129.621 14.8924 129.503Z" fill="#757B89"/>
<path d="M16.7903 130.606C16.9928 130.488 16.9936 130.108 16.792 129.757C16.5904 129.406 16.2628 129.216 16.0603 129.334C15.8578 129.452 15.857 129.832 16.0586 130.183C16.2602 130.534 16.5877 130.723 16.7903 130.606Z" fill="#757B89"/>
<path d="M18.6866 131.707C18.8892 131.589 18.8899 131.209 18.6884 130.858C18.4868 130.507 18.1592 130.317 17.9567 130.435C17.7541 130.553 17.7534 130.933 17.9549 131.284C18.1565 131.635 18.4841 131.824 18.6866 131.707Z" fill="#757B89"/>
<path d="M34.9663 141.16C35.1688 141.043 35.1696 140.663 34.968 140.311C34.7665 139.96 34.4389 139.771 34.2363 139.889C34.0338 140.006 34.033 140.386 34.2346 140.737C34.4362 141.089 34.7638 141.278 34.9663 141.16Z" fill="#757B89"/>
<path d="M36.8627 142.262C37.0652 142.144 37.066 141.764 36.8644 141.413C36.6628 141.062 36.3352 140.873 36.1327 140.99C35.9302 141.108 35.9294 141.488 36.131 141.839C36.3325 142.19 36.6601 142.379 36.8627 142.262Z" fill="#757B89"/>
<path d="M38.7574 143.363C38.96 143.246 38.9607 142.866 38.7592 142.515C38.5576 142.163 38.23 141.974 38.0275 142.092C37.8249 142.209 37.8242 142.589 38.0257 142.94C38.2273 143.292 38.5549 143.481 38.7574 143.363Z" fill="#757B89"/>
<path d="M40.6538 144.464C40.8563 144.347 40.8571 143.967 40.6555 143.616C40.454 143.265 40.1264 143.075 39.9238 143.193C39.7213 143.31 39.7205 143.69 39.9221 144.042C40.1237 144.393 40.4513 144.582 40.6538 144.464Z" fill="#757B89"/>
<path d="M29.0671 138.11L23.8594 135.084C23.679 134.954 23.5311 134.785 23.4275 134.588C23.3238 134.391 23.2672 134.172 23.2622 133.949C23.2622 133.507 23.5276 133.314 23.8594 133.495L29.0671 136.52C29.2492 136.651 29.3982 136.823 29.5019 137.022C29.6057 137.222 29.6613 137.443 29.6644 137.668C29.6644 138.097 29.3989 138.3 29.0671 138.11Z" fill="#757B89"/>
<path d="M147.077 98.1661L142.233 100.979C141.917 101.157 141.677 100.979 141.677 100.556C141.68 100.347 141.732 100.141 141.829 99.9556C141.925 99.7701 142.064 99.61 142.233 99.4882L147.077 96.6755C147.393 96.4975 147.63 96.6755 147.63 97.0982C147.628 97.3073 147.576 97.5128 147.48 97.6982C147.384 97.8837 147.246 98.0439 147.077 98.1661Z" fill="#757B89"/>
<path d="M139.658 102.485L134.813 105.298C134.497 105.476 134.257 105.298 134.257 104.875C134.261 104.666 134.313 104.461 134.409 104.276C134.506 104.091 134.644 103.932 134.813 103.81L139.658 100.998C139.974 100.82 140.211 100.998 140.211 101.42C140.208 101.629 140.156 101.834 140.06 102.019C139.964 102.204 139.826 102.364 139.658 102.485Z" fill="#757B89"/>
<path d="M47.6353 146.026L8.24277 123.143C4.90581 121.208 5.3261 117.823 9.19077 115.586L104.332 60.3425C108.187 58.1178 114.014 57.8604 117.351 59.7991L156.744 82.682C160.081 84.6206 159.664 88.0054 155.796 90.2428L60.6545 145.489C56.7993 147.727 50.9723 147.968 47.6353 146.026Z" fill="#20232D"/>
<path d="M150.623 84.5382L135.243 75.6075L135.205 75.6298C133.388 76.6849 130.443 76.6849 128.626 75.6298C126.809 74.5746 126.809 72.8647 128.626 71.8159L128.664 71.7937L113.284 62.863C110.949 61.5059 107.16 61.5059 104.825 62.863L12.1454 116.673C9.81011 118.03 9.81011 120.229 12.1454 121.583L49.4808 143.265C51.8192 144.622 55.6048 144.622 57.9401 143.265L150.623 89.4548C152.958 88.0946 152.958 85.8953 150.623 84.5382Z" fill="#F2F5F9"/>
<path d="M132.8 74.3773C133.776 74.3773 134.567 73.9177 134.567 73.3508C134.567 72.7838 133.776 72.3242 132.8 72.3242C131.825 72.3242 131.034 72.7838 131.034 73.3508C131.034 73.9177 131.825 74.3773 132.8 74.3773Z" fill="#2B303F"/>
<path opacity="0.1" d="M132.279 73.6559C132.215 73.6358 132.158 73.5955 132.118 73.5408C132.078 73.4862 132.057 73.4202 132.057 73.3524C132.057 73.2845 132.078 73.2185 132.118 73.1639C132.158 73.1093 132.215 73.069 132.279 73.0489C132.441 72.9657 132.62 72.9224 132.802 72.9224C132.984 72.9224 133.163 72.9657 133.325 73.0489C133.39 73.069 133.446 73.1093 133.486 73.1639C133.526 73.2185 133.547 73.2845 133.547 73.3524C133.547 73.4202 133.526 73.4862 133.486 73.5408C133.446 73.5955 133.39 73.6358 133.325 73.6559C133.163 73.739 132.984 73.7824 132.802 73.7824C132.62 73.7824 132.441 73.739 132.279 73.6559Z" fill="white"/>
<path d="M88.6901 121.115L55.845 140.324L42.5256 132.592L75.3738 113.383L88.6901 121.115Z" fill="#B9CC00"/>
<path d="M122.284 73.872L65.6252 107.084L50.1128 98.541L106.768 65.3291L122.284 73.872Z" fill="#B9CC00"/>
<path d="M66.1277 93.9355H64.5856V99.3893C64.5914 99.4576 64.6153 99.523 64.6547 99.5789C64.6942 99.6348 64.7478 99.679 64.8099 99.7071C64.9788 99.7934 65.1656 99.8383 65.355 99.8383C65.5445 99.8383 65.7312 99.7934 65.9001 99.7071C65.9631 99.6798 66.0175 99.6358 66.0576 99.5798C66.0976 99.5238 66.1218 99.458 66.1277 99.3893V93.9355Z" fill="#443D31"/>
<path d="M65.3945 94.0184C67.6267 94.0184 69.4362 92.1985 69.4362 89.9536C69.4362 87.7086 67.6267 85.8887 65.3945 85.8887C63.1624 85.8887 61.3529 87.7086 61.3529 89.9536C61.3529 92.1985 63.1624 94.0184 65.3945 94.0184Z" fill="#C6E800"/>
<path d="M75.576 88.4819H74.0339V93.9325C74.0397 94.0012 74.064 94.0671 74.104 94.123C74.1441 94.179 74.1985 94.223 74.2615 94.2503C74.4304 94.3366 74.6171 94.3815 74.8066 94.3815C74.996 94.3815 75.1828 94.3366 75.3517 94.2503C75.4138 94.2222 75.4674 94.178 75.5068 94.1221C75.5463 94.0662 75.5702 94.0008 75.576 93.9325V88.4819Z" fill="#443D31"/>
<path d="M74.8429 88.5648C77.075 88.5648 78.8846 86.7449 78.8846 84.4999C78.8846 82.255 77.075 80.4351 74.8429 80.4351C72.6108 80.4351 70.8013 82.255 70.8013 84.4999C70.8013 86.7449 72.6108 88.5648 74.8429 88.5648Z" fill="#C6E800"/>
<path d="M95.2407 78.0991H93.6986V83.5529C93.7044 83.6216 93.7286 83.6874 93.7687 83.7434C93.8088 83.7994 93.8632 83.8434 93.9261 83.8707C94.095 83.957 94.2818 84.0019 94.4712 84.0019C94.6607 84.0019 94.8474 83.957 95.0163 83.8707C95.0785 83.8426 95.1321 83.7984 95.1715 83.7425C95.211 83.6866 95.2348 83.6211 95.2407 83.5529V78.0991Z" fill="#443D31"/>
<path d="M94.5076 78.1815C96.7397 78.1815 98.5492 76.3616 98.5492 74.1166C98.5492 71.8717 96.7397 70.0518 94.5076 70.0518C92.2754 70.0518 90.4659 71.8717 90.4659 74.1166C90.4659 76.3616 92.2754 78.1815 94.5076 78.1815Z" fill="#C6E800"/>
<path d="M124.477 80.2028L38.247 130.275L34.9637 128.368L121.194 78.2959L124.477 80.2028Z" fill="#FF6161"/>
<path d="M130.968 97.6669L117.285 89.7215V56.6685L130.968 64.6139V97.6669Z" fill="#E4E7EF"/>
<path d="M130.968 64.614L117.285 56.6686L130.968 48.7231L144.651 56.6686L130.968 64.614Z" fill="#EDF1F9"/>
<path d="M128.506 71.4471L119.75 66.362V61.9126L128.506 66.9977V71.4471Z" fill="#134889"/>
<path d="M144.65 89.7212L130.968 97.6699V64.6168L144.65 56.6714V89.7212Z" fill="#DADCE5"/>
<path d="M136.716 69.5432L133.429 71.4501V67.0007L136.716 65.0938V69.5432Z" fill="#134889"/>
<path d="M142.189 66.365L138.902 68.2719V63.8224L142.189 61.9155V66.365Z" fill="#134889"/>
<path d="M136.716 76.2175L133.429 78.1244V73.675L136.716 71.7681V76.2175Z" fill="#134889"/>
<path d="M142.189 73.0393L138.902 74.9462V70.4968L142.189 68.5898V73.0393Z" fill="#134889"/>
<path d="M136.716 82.8918L133.429 84.7987V80.3493L136.716 78.4424V82.8918Z" fill="#134889"/>
<path d="M142.189 79.7136L138.902 81.6205V77.1711L142.189 75.2642V79.7136Z" fill="#134889"/>
<path d="M136.716 89.8835L133.429 91.7904V87.341L136.716 85.4341V89.8835Z" fill="#134889"/>
<path d="M142.189 86.7053L138.902 88.6122V84.1628L142.189 82.2559V86.7053Z" fill="#134889"/>
<path d="M128.506 78.121L119.75 73.0359V68.5864L128.506 73.6715V78.121Z" fill="#134889"/>
<path d="M128.506 84.7953L119.75 79.7102V75.2607L128.506 80.3458V84.7953Z" fill="#134889"/>
<path d="M128.506 91.7875L119.75 86.7024V82.2529L128.506 87.338V91.7875Z" fill="#134889"/>
<path d="M130.968 61.1213L123.074 56.5383V55.1177L130.968 59.7038V61.1213Z" fill="#E4E7EF"/>
<path d="M130.968 61.1213L138.865 56.5383V55.1177L130.968 59.7038V61.1213Z" fill="#DADCE5"/>
<path d="M49.1868 116.644L35.504 108.699V56.5796L49.1868 64.525V116.644Z" fill="#E4E7EF"/>
<path d="M49.1868 64.5247L35.504 56.5792L49.1868 48.6338L62.8696 56.5792L49.1868 64.5247Z" fill="#EDF1F9"/>
<path d="M46.7221 71.3578L37.9657 66.2727V61.8232L46.7221 66.9083V71.3578Z" fill="#84A6F4"/>
<path d="M62.8697 108.702L49.1869 116.647V64.525L62.8697 56.5796V108.702Z" fill="#DADCE5"/>
<path d="M54.9318 69.4509L51.6486 71.3578V66.9084L54.9318 65.0015V69.4509Z" fill="#84A6F4"/>
<path d="M60.4048 66.2727L57.1216 68.1796V63.7301L60.4048 61.8232V66.2727Z" fill="#84A6F4"/>
<path d="M54.9318 76.1252L51.6486 78.0321V73.5827L54.9318 71.6758V76.1252Z" fill="#84A6F4"/>
<path d="M60.4048 72.947L57.1216 74.8539V70.4045L60.4048 68.4976V72.947Z" fill="#84A6F4"/>
<path d="M54.9318 82.7996L51.6486 84.7065V80.257L54.9318 78.3501V82.7996Z" fill="#84A6F4"/>
<path d="M60.4048 79.6213L57.1216 81.5282V77.0788L60.4048 75.1719V79.6213Z" fill="#84A6F4"/>
<path d="M54.9318 89.7912L51.6486 91.6981V87.2487L54.9318 85.3418V89.7912Z" fill="#84A6F4"/>
<path d="M60.4048 86.613L57.1216 88.5199V84.0705L60.4048 82.1636V86.613Z" fill="#84A6F4"/>
<path d="M54.9318 97.2568L51.6486 99.1637V94.7175L54.9318 92.8105V97.2568Z" fill="#84A6F4"/>
<path d="M60.4048 94.0786L57.1216 95.9855V91.5392L60.4048 89.6323V94.0786Z" fill="#84A6F4"/>
<path d="M54.9318 104.891L51.6486 106.798V102.348L54.9318 100.441V104.891Z" fill="#84A6F4"/>
<path d="M60.4048 101.713L57.1216 103.62V99.1701L60.4048 97.2632V101.713Z" fill="#84A6F4"/>
<path d="M46.7221 78.0321L37.9657 72.947V68.4976L46.7221 73.5826V78.0321Z" fill="#84A6F4"/>
<path d="M46.7221 84.7064L37.9657 79.6213V75.1719L46.7221 80.257V84.7064Z" fill="#84A6F4"/>
<path d="M46.7221 91.6981L37.9657 86.613V82.1636L46.7221 87.2487V91.6981Z" fill="#84A6F4"/>
<path d="M46.7221 99.1637L37.9657 94.0786V89.6323L46.7221 94.7174V99.1637Z" fill="#84A6F4"/>
<path d="M46.7221 106.798L37.9657 101.713V97.2632L46.7221 102.348V106.798Z" fill="#84A6F4"/>
<path d="M49.1869 61.0319L41.29 56.449V55.0283L49.1869 59.6144V61.0319Z" fill="#E4E7EF"/>
<path d="M49.1869 61.0319L57.0837 56.449V55.0283L49.1869 59.6144V61.0319Z" fill="#DADCE5"/>
<path d="M49.1868 116.644L35.504 108.699V56.5796L49.1868 64.525V116.644Z" fill="#E4E7EF"/>
<path d="M49.1868 64.5247L35.504 56.5792L49.1868 48.6338L62.8696 56.5792L49.1868 64.5247Z" fill="#EDF1F9"/>
<path d="M46.7252 71.3578L37.9657 66.2727V61.8232L46.7252 66.9083V71.3578Z" fill="#134889"/>
<path d="M62.8697 108.702L49.1869 116.647V64.525L62.8697 56.5796V108.702Z" fill="#DADCE5"/>
<path d="M54.935 69.4509L51.6486 71.3578V66.9084L54.935 65.0015V69.4509Z" fill="#134889"/>
<path d="M60.408 66.2727L57.1216 68.1796V63.7301L60.408 61.8232V66.2727Z" fill="#134889"/>
<path d="M54.935 76.1252L51.6486 78.0321V73.5827L54.935 71.6758V76.1252Z" fill="#134889"/>
<path d="M60.408 72.947L57.1216 74.8539V70.4045L60.408 68.4976V72.947Z" fill="#134889"/>
<path d="M54.935 82.7996L51.6486 84.7065V80.257L54.935 78.3501V82.7996Z" fill="#134889"/>
<path d="M60.408 79.6213L57.1216 81.5282V77.0788L60.408 75.1719V79.6213Z" fill="#134889"/>
<path d="M54.935 89.7912L51.6486 91.6981V87.2487L54.935 85.3418V89.7912Z" fill="#134889"/>
<path d="M60.408 86.613L57.1216 88.5199V84.0705L60.408 82.1636V86.613Z" fill="#134889"/>
<path d="M54.935 97.2568L51.6486 99.1637V94.7175L54.935 92.8105V97.2568Z" fill="#134889"/>
<path d="M60.408 94.0786L57.1216 95.9855V91.5392L60.408 89.6323V94.0786Z" fill="#134889"/>
<path d="M54.935 104.891L51.6486 106.798V102.348L54.935 100.441V104.891Z" fill="#134889"/>
<path d="M60.408 101.713L57.1216 103.62V99.1701L60.408 97.2632V101.713Z" fill="#134889"/>
<path d="M46.7252 78.0321L37.9657 72.947V68.4976L46.7252 73.5826V78.0321Z" fill="#134889"/>
<path d="M46.7252 84.7064L37.9657 79.6213V75.1719L46.7252 80.257V84.7064Z" fill="#134889"/>
<path d="M46.7252 91.6981L37.9657 86.613V82.1636L46.7252 87.2487V91.6981Z" fill="#134889"/>
<path d="M46.7252 99.1637L37.9657 94.0786V89.6323L46.7252 94.7174V99.1637Z" fill="#134889"/>
<path d="M46.7252 106.798L37.9657 101.713V97.2632L46.7252 102.348V106.798Z" fill="#134889"/>
<path d="M49.1869 61.0319L41.29 56.449V55.0283L49.1869 59.6144V61.0319Z" fill="#E4E7EF"/>
<path d="M49.1869 61.0319L57.0837 56.449V55.0283L49.1869 59.6144V61.0319Z" fill="#DADCE5"/>
<path d="M110.718 108.949L97.0356 101.004V48.8818L110.718 56.8273V108.949Z" fill="#E4E7EF"/>
<path d="M110.718 56.8274L97.0323 48.882L110.715 40.9365L124.401 48.882L110.718 56.8274Z" fill="#EDF1F9"/>
<path d="M108.254 63.6605L99.4972 58.5754V54.126L108.254 59.2111V63.6605Z" fill="#134889"/>
<path d="M124.401 101.007L110.715 108.953V56.8307L124.401 48.8853V101.007Z" fill="#DADCE5"/>
<path d="M116.463 61.7566L113.18 63.6635V59.214L116.463 57.3071V61.7566Z" fill="#134889"/>
<path d="M121.936 58.5784L118.653 60.4853V56.0358L121.936 54.1289V58.5784Z" fill="#134889"/>
<path d="M116.463 68.4309L113.18 70.3378V65.8884L116.463 63.9814V68.4309Z" fill="#134889"/>
<path d="M121.936 65.2527L118.653 67.1596V62.7101L121.936 60.8032V65.2527Z" fill="#134889"/>
<path d="M116.463 75.1052L113.18 77.0121V72.5627L116.463 70.6558V75.1052Z" fill="#134889"/>
<path d="M121.936 71.927L118.653 73.8339V69.3844L121.936 67.4775V71.927Z" fill="#134889"/>
<path d="M116.463 82.0969L113.18 84.0038V79.5544L116.463 77.6475V82.0969Z" fill="#134889"/>
<path d="M121.936 78.9187L118.653 80.8256V76.3761L121.936 74.4692V78.9187Z" fill="#134889"/>
<path d="M116.463 89.5627L113.18 91.4696V87.0202L116.463 85.1133V89.5627Z" fill="#134889"/>
<path d="M121.936 86.3845L118.653 88.2914V83.842L121.936 81.9351V86.3845Z" fill="#134889"/>
<path d="M116.463 97.1965L113.18 99.1034V94.654L116.463 92.7471V97.1965Z" fill="#134889"/>
<path d="M121.936 94.0185L118.653 95.9255V91.476L121.936 89.5659V94.0185Z" fill="#134889"/>
<path d="M108.254 70.3348L99.4972 65.2497V60.8003L108.254 65.8854V70.3348Z" fill="#134889"/>
<path d="M108.254 77.0086L99.4972 71.9236V67.4741L108.254 72.5592V77.0086Z" fill="#134889"/>
<path d="M108.254 84.0009L99.4972 78.9158V74.4663L108.254 79.5514V84.0009Z" fill="#134889"/>
<path d="M108.254 91.4696L99.4972 86.3845V81.9351L108.254 87.0201V91.4696Z" fill="#134889"/>
<path d="M108.254 99.1036L99.4972 94.0185V89.5659L108.254 94.6542V99.1036Z" fill="#134889"/>
<path d="M110.718 53.3376L102.822 48.7515V47.334L110.718 51.9169V53.3376Z" fill="#E4E7EF"/>
<path d="M110.718 53.3376L118.615 48.7515V47.334L110.718 51.9169V53.3376Z" fill="#DADCE5"/>
<path d="M31.3992 126.817L17.7164 118.872V85.8188L31.3992 93.7643V126.817Z" fill="#E4E7EF"/>
<path d="M31.3992 93.7639L17.7164 85.8185L31.3961 77.873L45.082 85.8185L31.3992 93.7639Z" fill="#EDF1F9"/>
<path d="M28.9345 100.597L20.1781 95.5119V91.0625L28.9345 96.1476V100.597Z" fill="#134889"/>
<path d="M45.082 118.872L31.3992 126.817V93.7672L45.082 85.8218V118.872Z" fill="#DADCE5"/>
<path d="M37.1441 98.6936L33.8608 100.6V96.151L37.1441 94.2441V98.6936Z" fill="#134889"/>
<path d="M42.6172 95.5154L39.334 97.4223V92.9728L42.6172 91.0659V95.5154Z" fill="#134889"/>
<path d="M37.1441 105.368L33.8608 107.275V102.825L37.1441 100.918V105.368Z" fill="#134889"/>
<path d="M42.6172 102.19L39.334 104.097V99.6471L42.6172 97.7402V102.19Z" fill="#134889"/>
<path d="M37.1441 112.042L33.8608 113.949V109.499L37.1441 107.592V112.042Z" fill="#134889"/>
<path d="M42.6172 108.864L39.334 110.77V106.321L42.6172 104.414V108.864Z" fill="#134889"/>
<path d="M37.1441 119.031L33.8608 120.937V116.488L37.1441 114.581V119.031Z" fill="#134889"/>
<path d="M42.6172 115.852L39.334 117.759V113.31L42.6172 111.403V115.852Z" fill="#134889"/>
<path d="M28.9345 107.271L20.1781 102.186V97.7368L28.9345 102.822V107.271Z" fill="#134889"/>
<path d="M28.9345 113.946L20.1781 108.861V104.411L28.9345 109.496V113.946Z" fill="#134889"/>
<path d="M28.9345 120.937L20.1781 115.852V111.403L28.9345 116.488V120.937Z" fill="#134889"/>
<path d="M31.3993 90.2712L23.5024 85.6882V84.2676L31.3993 88.8537V90.2712Z" fill="#E4E7EF"/>
<path d="M31.3992 90.2712L39.296 85.6882V84.2676L31.3992 88.8537V90.2712Z" fill="#DADCE5"/>
<path d="M91.1548 119.892L77.472 111.947V78.8936L91.1548 86.839V119.892Z" fill="#E4E7EF"/>
<path d="M91.1548 86.8391L77.4689 78.8937L91.1517 70.9482L104.838 78.8937L91.1548 86.8391Z" fill="#EDF1F9"/>
<path d="M88.6901 93.6722L79.9337 88.5871V84.1377L88.6901 89.2228V93.6722Z" fill="#134889"/>
<path d="M104.838 111.946L91.1548 119.892V86.8419L104.838 78.8965V111.946Z" fill="#DADCE5"/>
<path d="M96.8997 91.7683L93.6165 93.6752V89.2258L96.8997 87.3188V91.7683Z" fill="#134889"/>
<path d="M102.373 88.5901L99.0896 90.497V86.0475L102.373 84.1406V88.5901Z" fill="#134889"/>
<path d="M96.8997 98.4426L93.6165 100.35V95.9001L96.8997 93.9932V98.4426Z" fill="#134889"/>
<path d="M102.373 95.2644L99.0896 97.1713V92.7218L102.373 90.8149V95.2644Z" fill="#134889"/>
<path d="M96.8997 105.114L93.6165 107.02V102.571L96.8997 100.664V105.114Z" fill="#134889"/>
<path d="M102.373 101.935L99.0896 103.842V99.3927L102.373 97.4858V101.935Z" fill="#134889"/>
<path d="M96.8997 112.105L93.6165 114.012V109.563L96.8997 107.656V112.105Z" fill="#134889"/>
<path d="M102.373 108.927L99.0896 110.834V106.385L102.373 104.478V108.927Z" fill="#134889"/>
<path d="M88.6901 100.346L79.9337 95.261V90.8115L88.6901 95.8966V100.346Z" fill="#134889"/>
<path d="M88.6901 107.02L79.9337 101.935V97.4858L88.6901 102.571V107.02Z" fill="#134889"/>
<path d="M88.6901 114.013L79.9337 108.927V104.478L88.6901 109.563V114.013Z" fill="#134889"/>
<path d="M91.1548 83.3463L83.2579 78.7634V77.3428L91.1548 81.9289V83.3463Z" fill="#E4E7EF"/>
<path d="M91.1548 83.3463L99.0516 78.7634V77.3428L91.1548 81.9289V83.3463Z" fill="#DADCE5"/>
<path d="M75.7909 117.156H74.2488V122.61C74.2552 122.678 74.2797 122.744 74.3197 122.799C74.3597 122.855 74.4137 122.899 74.4763 122.927C74.6452 123.014 74.832 123.059 75.0214 123.059C75.2108 123.059 75.3976 123.014 75.5665 122.927C75.6283 122.899 75.6815 122.854 75.7209 122.799C75.7602 122.743 75.7844 122.678 75.7909 122.61V117.156Z" fill="#443D31"/>
<path d="M75.0577 117.238C77.2899 117.238 79.0994 115.418 79.0994 113.173C79.0994 110.928 77.2899 109.108 75.0577 109.108C72.8256 109.108 71.0161 110.928 71.0161 113.173C71.0161 115.418 72.8256 117.238 75.0577 117.238Z" fill="#C6E800"/>
<path d="M66.4373 122.597H64.8953V128.05C64.9011 128.119 64.9253 128.185 64.9654 128.241C65.0054 128.297 65.0598 128.341 65.1228 128.368C65.2917 128.455 65.4785 128.499 65.6679 128.499C65.8573 128.499 66.0441 128.455 66.213 128.368C66.2751 128.34 66.3287 128.296 66.3682 128.24C66.4076 128.184 66.4315 128.119 66.4373 128.05V122.597Z" fill="#443D31"/>
<path d="M65.7042 122.679C67.9364 122.679 69.7459 120.859 69.7459 118.614C69.7459 116.369 67.9364 114.549 65.7042 114.549C63.4721 114.549 61.6626 116.369 61.6626 118.614C61.6626 120.859 63.4721 122.679 65.7042 122.679Z" fill="#C6E800"/>
<path d="M56.4297 128.416H54.8876V133.867C54.8937 133.935 54.9178 134 54.9572 134.056C54.9966 134.112 55.05 134.156 55.1119 134.184C55.2814 134.271 55.4687 134.316 55.6586 134.316C55.8486 134.316 56.0358 134.271 56.2053 134.184C56.2673 134.156 56.3207 134.112 56.3601 134.056C56.3995 134 56.4235 133.935 56.4297 133.867V128.416Z" fill="#443D31"/>
<path d="M55.6964 128.498C57.9286 128.498 59.7381 126.679 59.7381 124.434C59.7381 122.189 57.9286 120.369 55.6964 120.369C53.4643 120.369 51.6548 122.189 51.6548 124.434C51.6548 126.679 53.4643 128.498 55.6964 128.498Z" fill="#C6E800"/>
<path d="M112.725 11.1538C110.582 9.91113 108.617 9.70773 107.138 10.3751C106.908 10.4788 106.687 10.6044 106.481 10.7502L103.479 12.4568C103.479 12.4568 104.051 12.8509 104.699 13.28C104.418 14.1719 104.28 15.1032 104.291 16.0387C104.295 17.0007 104.401 17.9595 104.607 18.899L103.738 18.9658C103.738 19.0547 105.112 26.3423 105.27 26.6347C105.428 26.9271 108.001 30.0385 108.067 30.0131C108.222 29.7844 108.363 29.5467 108.491 29.3012C109.53 31.6308 110.548 33.7506 111.335 35.2984L108.712 36.5125L109.66 39.751L113.05 37.8028C113.069 37.7952 113.087 37.7856 113.104 37.7742C114.292 36.8589 118.334 33.5504 120.445 29.4156C120.967 28.3011 121.22 27.078 121.181 25.8465C121.159 20.4436 117.376 13.8552 112.725 11.1538ZM112.725 26.034C110.311 24.6324 108.345 21.2095 108.345 18.4064C108.345 16.0641 109.717 14.8882 111.572 15.3776L111.205 15.5429C111.451 15.8353 115.49 22.9607 115.67 23.733C115.882 24.3769 116.202 24.979 116.618 25.5128C115.907 26.7428 114.444 27.0256 112.725 26.034Z" fill="#DB4949"/>
<path d="M109.341 13.0986C104.692 10.3972 100.91 12.5965 100.91 17.9962C100.925 19.5014 101.173 20.9951 101.646 22.4234C103.754 29.0054 107.808 37.0144 108.987 39.3059C109.066 39.4682 109.189 39.6056 109.341 39.7031C109.392 39.7417 109.453 39.7639 109.517 39.7667C109.58 39.7696 109.643 39.753 109.698 39.719C110.886 38.8037 114.931 35.4952 117.038 31.3604C117.56 30.2479 117.812 29.0271 117.775 27.7977C117.775 22.3948 113.992 15.8001 109.341 13.0986ZM109.341 27.982C106.926 26.5773 104.961 23.1544 104.961 20.3544C104.961 17.5544 106.926 16.4103 109.341 17.8119C111.755 19.2134 113.723 22.6363 113.723 25.4395C113.723 28.2426 111.758 29.3868 109.341 27.982Z" fill="#FF6161"/>
<path opacity="0.1" d="M110.718 49.4288C113.125 49.4288 115.076 48.2961 115.076 46.899C115.076 45.5018 113.125 44.3691 110.718 44.3691C108.312 44.3691 106.361 45.5018 106.361 46.899C106.361 48.2961 108.312 49.4288 110.718 49.4288Z" fill="black"/>
</g>
<defs>
<clipPath id="clip0">
<rect x="1" y="10" width="158" height="144" rx="20" fill="white"/>
</clipPath>
</defs>
</svg>
