<svg width="160" height="160" viewBox="0 0 160 160" fill="none" xmlns="http://www.w3.org/2000/svg">
<circle opacity="0.2" cx="80" cy="80" r="80" fill="#106BFF"/>
<path d="M142.521 118.773L69.9889 77.1861C68.9708 76.6101 68.1471 75.0376 68.1471 73.6927V17.9733C68.1471 16.6255 68.9708 16.0063 69.9889 16.5909L142.521 58.1781C143.539 58.7541 144.363 60.3266 144.363 61.6715V117.391C144.374 118.739 143.551 119.358 142.521 118.773Z" fill="#B1B4C4"/>
<path d="M142.907 119.349L143.71 118.888L143.362 116.524L142.907 119.349Z" fill="#B1B4C4"/>
<path d="M68.0167 16.9277L68.8086 16.4727L69.9455 17.1178C69.9455 17.1178 68.7331 17.2992 68.7041 17.2935C68.6751 17.2877 68.0167 16.9277 68.0167 16.9277Z" fill="#B1B4C4"/>
<path d="M141.868 119.168L69.3248 77.5691C68.3067 76.9931 67.4801 75.4206 67.4801 74.0728V18.3678C67.4801 17.02 68.3067 16.4008 69.3248 16.9854L141.868 58.5726C142.886 59.1486 143.71 60.7211 143.71 62.0689V117.774C143.71 119.119 142.886 119.744 141.868 119.168Z" fill="#E4E7F2"/>
<path d="M141.741 119.228L69.1971 77.6409C68.1791 77.0649 67.3524 75.4925 67.3524 74.1446V18.4253C67.3524 17.0803 68.1791 16.4611 69.1971 17.0429L141.741 58.6301C142.756 59.2061 143.583 60.7785 143.583 62.1264V117.846C143.583 119.194 142.756 119.813 141.741 119.228Z" fill="#D6D8E5"/>
<path d="M142.585 115.839L68.269 73.2407L68.3125 18.6561C68.3125 18.0974 68.707 17.8699 69.1827 18.1492L141.726 59.7364C141.981 59.904 142.192 60.1287 142.344 60.3923C142.495 60.656 142.581 60.9512 142.596 61.2542L142.585 115.839Z" fill="white"/>
<path opacity="0.5" d="M142.562 115.842L68.269 73.2436L68.2922 18.6561C68.2922 18.0974 68.6867 17.8699 69.1624 18.1492L141.706 59.7364C141.961 59.9042 142.172 60.1289 142.323 60.3925C142.474 60.6561 142.561 60.9512 142.576 61.2542L142.562 115.842Z" fill="url(#paint0_linear)"/>
<path opacity="0.4" d="M87.0264 151.605L14.4828 110.018C13.4647 109.442 13.5923 108.417 14.7728 107.743L63.3701 79.8818C64.5303 79.2108 66.3228 79.1359 67.338 79.7206L139.884 121.308C140.9 121.884 140.772 122.909 139.594 123.583L90.9942 151.444C89.8195 152.115 88.0415 152.19 87.0264 151.605Z" fill="#D6D8E5"/>
<path d="M88.61 150.661L16.0606 109.088C15.0426 108.512 15.1702 107.486 16.3507 106.813L64.948 78.9543C66.1082 78.2804 67.9007 78.2055 68.9188 78.7901L141.462 120.377C142.48 120.953 142.353 121.979 141.172 122.653L92.5808 150.499C91.4061 151.17 89.6281 151.245 88.61 150.661Z" fill="#B1B4C4"/>
<path d="M15.379 108.135V106.775L16.9163 107.415L15.379 108.135Z" fill="#B1B4C4"/>
<path d="M142.15 121.38V120.052L141.013 120.441L141.767 121.541L142.15 121.38Z" fill="#B1B4C4"/>
<path d="M88.61 149.518L16.0606 107.936C15.0426 107.36 15.1702 106.335 16.3507 105.661L64.948 77.7998C66.1082 77.1259 67.9007 77.0539 68.9188 77.6385L141.462 119.226C142.48 119.802 142.353 120.827 141.172 121.501L92.5808 149.353C91.4061 150.027 89.6281 150.102 88.61 149.518Z" fill="#E4E7F2"/>
<path d="M88.61 149.342L16.0606 107.754C15.0426 107.178 15.1702 106.15 16.3507 105.479L64.948 77.6182C66.1082 76.9442 67.9007 76.8722 68.9188 77.454L141.462 119.044C142.48 119.62 142.353 120.645 141.172 121.319L92.5808 149.178C91.4061 149.851 89.6281 149.923 88.61 149.342Z" fill="#D6D8E5"/>
<path d="M63.6022 87.0154L60.2261 85.08C59.936 84.9216 59.9853 84.6451 60.3015 84.4637L63.5268 82.6147C63.6898 82.5246 63.8718 82.4738 64.0582 82.4663C64.2446 82.4588 64.4302 82.4948 64.6 82.5715L67.979 84.5069C68.2546 84.6653 68.2198 84.9418 67.9007 85.1232L64.6783 86.9722C64.5148 87.0623 64.3323 87.1131 64.1454 87.1206C63.9586 87.1281 63.7725 87.0921 63.6022 87.0154Z" fill="#2B303F"/>
<path d="M68.3849 89.7571L65.0059 87.8189C64.7304 87.6633 64.7652 87.3869 65.0842 87.2025L68.3066 85.3565C68.4702 85.2663 68.6526 85.2155 68.8395 85.208C69.0264 85.2005 69.2124 85.2365 69.3827 85.3133L72.7588 87.2486C73.0489 87.407 72.9996 87.6835 72.6834 87.8649L69.4581 89.711C69.2956 89.8022 69.1136 89.8539 68.9271 89.8619C68.7406 89.8699 68.5548 89.834 68.3849 89.7571Z" fill="#2B303F"/>
<path d="M73.22 92.5307L69.8439 90.5924C69.5538 90.434 69.6031 90.1576 69.9193 89.9761L73.1446 88.13C73.3071 88.0389 73.4891 87.9871 73.6756 87.9791C73.8621 87.9711 74.0479 88.007 74.2178 88.084L77.5968 90.0222C77.8869 90.1777 77.8376 90.4542 77.5185 90.6385L74.2961 92.4846C74.1325 92.5743 73.9502 92.6251 73.7635 92.6331C73.5768 92.6411 73.3908 92.606 73.22 92.5307Z" fill="#2B303F"/>
<path d="M77.9478 95.238L74.5688 93.3027C74.2932 93.1443 74.328 92.8678 74.6471 92.6864L77.8695 90.8374C78.033 90.7473 78.2155 90.6965 78.4024 90.689C78.5892 90.6815 78.7753 90.7175 78.9456 90.7942L82.3246 92.7296C82.6002 92.888 82.5654 93.1644 82.2463 93.3459L79.0239 95.1948C78.8604 95.2849 78.6779 95.3358 78.491 95.3433C78.3042 95.3508 78.1181 95.3147 77.9478 95.238Z" fill="#2B303F"/>
<path d="M82.7308 97.9797L79.3518 96.0444C79.0617 95.886 79.111 95.6095 79.4301 95.4281L82.6525 93.5791C82.816 93.489 82.9985 93.4382 83.1854 93.4307C83.3722 93.4232 83.5583 93.4592 83.7286 93.5359L87.1047 95.4713C87.3803 95.6297 87.3455 95.9061 87.0264 96.0876L83.804 97.9365C83.641 98.0266 83.459 98.0774 83.2726 98.085C83.0862 98.0925 82.9006 98.0564 82.7308 97.9797Z" fill="#2B303F"/>
<path d="M87.5107 100.736L84.1346 98.8007C83.859 98.6423 83.891 98.3659 84.21 98.1844L87.4324 96.3355C87.596 96.2453 87.7784 96.1945 87.9653 96.187C88.1522 96.1795 88.3382 96.2156 88.5085 96.2923L91.8876 98.2276C92.1631 98.386 92.1283 98.6625 91.8092 98.8439L88.5868 100.693C88.4233 100.783 88.2408 100.834 88.0539 100.841C87.8671 100.849 87.6811 100.813 87.5107 100.736Z" fill="#2B303F"/>
<path d="M92.2936 103.463L88.9146 101.528C88.639 101.369 88.6739 101.093 88.9929 100.911L92.2153 99.0625C92.3788 98.9724 92.5613 98.9216 92.7482 98.9141C92.9351 98.9066 93.1211 98.9426 93.2914 99.0193L96.6675 100.955C96.9431 101.113 96.9083 101.39 96.5921 101.571L93.3668 103.417C93.2043 103.508 93.0223 103.56 92.8358 103.568C92.6493 103.576 92.4635 103.54 92.2936 103.463Z" fill="#2B303F"/>
<path d="M97.0736 106.208L93.6975 104.27C93.4219 104.111 93.4567 103.838 93.7729 103.653L96.9982 101.807C97.1607 101.716 97.3427 101.664 97.5292 101.656C97.7157 101.648 97.9015 101.684 98.0714 101.761L101.45 103.699C101.74 103.858 101.691 104.131 101.372 104.316L98.1439 106.159C97.9818 106.25 97.8005 106.301 97.6146 106.31C97.4287 106.318 97.2434 106.283 97.0736 106.208Z" fill="#2B303F"/>
<path d="M101.856 108.944L98.4775 107.008C98.2019 106.85 98.2367 106.574 98.5558 106.392L101.778 104.546C101.941 104.455 102.124 104.403 102.311 104.395C102.498 104.387 102.684 104.423 102.854 104.5L106.23 106.438C106.506 106.594 106.471 106.87 106.155 107.055L102.933 108.901C102.769 108.991 102.587 109.042 102.4 109.049C102.213 109.057 102.027 109.021 101.856 108.944Z" fill="#2B303F"/>
<path d="M106.636 111.68L103.26 109.745C102.985 109.586 103.019 109.31 103.336 109.128L106.555 107.285C106.718 107.195 106.9 107.144 107.087 107.137C107.273 107.129 107.458 107.165 107.628 107.242L111.007 109.177C111.283 109.336 111.248 109.612 110.929 109.794L107.715 111.643C107.551 111.732 107.368 111.782 107.18 111.789C106.993 111.795 106.807 111.758 106.636 111.68Z" fill="#2B303F"/>
<path d="M111.419 114.427L108.04 112.492C107.765 112.334 107.8 112.057 108.119 111.876L111.341 110.027C111.505 109.937 111.687 109.886 111.874 109.878C112.061 109.871 112.247 109.907 112.417 109.984L115.796 111.919C116.072 112.077 116.037 112.354 115.718 112.535L112.495 114.384C112.332 114.474 112.149 114.525 111.963 114.533C111.776 114.54 111.59 114.504 111.419 114.427Z" fill="#2B303F"/>
<path d="M116.202 117.169L112.823 115.234C112.548 115.075 112.582 114.799 112.901 114.618L116.127 112.769C116.29 112.678 116.473 112.628 116.66 112.62C116.847 112.613 117.033 112.649 117.203 112.725L120.579 114.661C120.869 114.819 120.82 115.096 120.501 115.277L117.287 117.126C117.123 117.218 116.938 117.27 116.75 117.277C116.561 117.285 116.374 117.248 116.202 117.169Z" fill="#2B303F"/>
<path d="M120.982 119.911L117.606 117.973C117.316 117.814 117.362 117.541 117.681 117.356L120.904 115.51C121.067 115.42 121.249 115.368 121.436 115.36C121.623 115.352 121.809 115.388 121.98 115.464L125.359 117.403C125.634 117.561 125.6 117.835 125.281 118.019L122.058 119.865C121.895 119.956 121.713 120.008 121.526 120.016C121.339 120.024 121.152 119.988 120.982 119.911Z" fill="#2B303F"/>
<path d="M128.068 123.972L122.386 120.715C122.11 120.556 122.145 120.28 122.464 120.098L125.698 118.252C125.861 118.161 126.044 118.109 126.231 118.101C126.418 118.093 126.604 118.129 126.774 118.206L132.442 121.472C132.717 121.63 132.683 121.907 132.366 122.088L129.141 123.937C128.977 124.026 128.795 124.075 128.609 124.081C128.422 124.087 128.237 124.05 128.068 123.972Z" fill="#2B303F"/>
<path d="M66.0618 93.7376L62.6827 91.808C62.3927 91.6497 62.442 91.3732 62.761 91.1917L65.9835 89.3428C66.147 89.2527 66.3295 89.2018 66.5163 89.1943C66.7032 89.1868 66.8892 89.2229 67.0595 89.2996L70.4357 91.2321C70.7112 91.3905 70.6764 91.6669 70.3603 91.8484L67.1349 93.6973C66.9717 93.7869 66.7896 93.8373 66.6032 93.8443C66.4168 93.8513 66.2314 93.8148 66.0618 93.7376Z" fill="#2B303F"/>
<path d="M70.8505 96.4848L67.4743 94.5494C67.1988 94.391 67.2336 94.1145 67.5497 93.9331L70.775 92.0957C70.938 92.0056 71.1201 91.9548 71.3065 91.9473C71.4928 91.9398 71.6784 91.9758 71.8482 92.0525L75.2302 93.9763C75.5057 94.1347 75.4709 94.4112 75.1518 94.5926L71.9294 96.4416C71.7655 96.5321 71.5825 96.5832 71.3951 96.5907C71.2077 96.5982 71.0212 96.5619 70.8505 96.4848Z" fill="#2B303F"/>
<path d="M75.642 99.2297L72.2629 97.2944C71.9729 97.136 72.0222 96.8595 72.3412 96.6781L75.5637 94.8291C75.7272 94.739 75.9097 94.6882 76.0965 94.6807C76.2834 94.6732 76.4694 94.7092 76.6397 94.7859L80.0159 96.7213C80.2914 96.8797 80.2566 97.1561 79.9405 97.3376L76.7151 99.1865C76.5521 99.2766 76.3701 99.3275 76.1837 99.335C75.9973 99.3425 75.8118 99.3064 75.642 99.2297Z" fill="#2B303F"/>
<path d="M80.4306 101.977L77.0516 100.039C76.776 99.8835 76.8108 99.607 77.1299 99.4227L80.3523 97.568C80.5156 97.4774 80.698 97.4261 80.8848 97.4181C81.0717 97.4101 81.2578 97.4456 81.4284 97.5219L84.8016 99.4688C85.0772 99.6272 85.0423 99.9008 84.7233 100.085L81.5009 101.931C81.3385 102.021 81.1571 102.073 80.9713 102.081C80.7854 102.089 80.6002 102.053 80.4306 101.977Z" fill="#2B303F"/>
<path d="M85.1816 104.702L81.8055 102.752C81.5299 102.594 81.5647 102.32 81.8809 102.136L85.1062 100.29C85.2688 100.199 85.4507 100.147 85.6372 100.139C85.8237 100.131 86.0095 100.167 86.1794 100.244L89.5584 102.182C89.8485 102.337 89.7992 102.614 89.4801 102.798L86.2519 104.656C86.0893 104.745 85.908 104.796 85.7222 104.804C85.5365 104.812 85.3514 104.777 85.1816 104.702Z" fill="#2B303F"/>
<path d="M89.9732 107.446L86.5942 105.511C86.3186 105.353 86.3534 105.076 86.6725 104.895L89.8949 103.04C90.0584 102.95 90.2409 102.899 90.4278 102.892C90.6146 102.884 90.8007 102.92 90.971 102.997L94.3471 104.932C94.6227 105.091 94.5879 105.367 94.2717 105.549L91.0464 107.397C90.8838 107.488 90.7021 107.54 90.5157 107.549C90.3293 107.557 90.1435 107.522 89.9732 107.446Z" fill="#2B303F"/>
<path d="M94.7619 110.191L91.3829 108.256C91.1073 108.097 91.1421 107.821 91.4612 107.639L94.6836 105.793C94.8467 105.702 95.0291 105.65 95.2161 105.642C95.4031 105.634 95.5893 105.67 95.7597 105.747L99.1387 107.685C99.4143 107.841 99.3795 108.117 99.0604 108.302L95.838 110.148C95.6745 110.238 95.492 110.289 95.3051 110.296C95.1182 110.304 94.9322 110.268 94.7619 110.191Z" fill="#2B303F"/>
<path d="M99.5505 112.938L96.1744 111.003C95.8988 110.844 95.9336 110.568 96.2527 110.387L99.4751 108.538C99.6381 108.447 99.8201 108.397 100.007 108.389C100.193 108.382 100.378 108.418 100.548 108.494L103.927 110.43C104.203 110.588 104.168 110.865 103.849 111.046L100.627 112.895C100.463 112.985 100.281 113.036 100.094 113.043C99.9069 113.051 99.7208 113.015 99.5505 112.938Z" fill="#2B303F"/>
<path d="M104.342 115.683L100.963 113.748C100.673 113.589 100.722 113.313 101.041 113.131L104.264 111.282C104.427 111.192 104.61 111.141 104.797 111.134C104.984 111.126 105.17 111.162 105.34 111.239L108.716 113.174C108.992 113.333 108.96 113.609 108.641 113.791L105.418 115.64C105.255 115.73 105.072 115.781 104.885 115.788C104.698 115.796 104.512 115.76 104.342 115.683Z" fill="#2B303F"/>
<path d="M109.131 118.43L105.755 116.492C105.479 116.337 105.514 116.06 105.83 115.876L109.055 114.03C109.218 113.94 109.4 113.889 109.586 113.881C109.773 113.873 109.958 113.908 110.128 113.984L113.516 115.922C113.792 116.08 113.757 116.357 113.438 116.538L110.216 118.384C110.051 118.477 109.867 118.53 109.679 118.538C109.49 118.546 109.302 118.509 109.131 118.43Z" fill="#2B303F"/>
<path d="M113.922 121.184L110.543 119.248C110.268 119.09 110.303 118.814 110.622 118.632L113.844 116.783C114.008 116.693 114.19 116.642 114.377 116.635C114.564 116.627 114.75 116.663 114.92 116.74L118.296 118.675C118.572 118.834 118.537 119.11 118.221 119.292L114.995 121.141C114.832 121.231 114.65 121.282 114.464 121.289C114.278 121.297 114.092 121.261 113.922 121.184Z" fill="#2B303F"/>
<path d="M118.711 123.923L115.335 121.985C115.059 121.826 115.091 121.553 115.41 121.368L118.633 119.522C118.796 119.432 118.978 119.38 119.165 119.372C119.352 119.364 119.538 119.4 119.709 119.476L123.088 121.414C123.363 121.573 123.329 121.846 123.01 122.031L119.787 123.877C119.624 123.968 119.442 124.02 119.255 124.028C119.068 124.036 118.881 124 118.711 123.923Z" fill="#2B303F"/>
<path d="M61.2701 90.9928L55.591 87.7355C55.3155 87.5771 55.3503 87.3035 55.6664 87.1192L58.8917 85.2731C59.0543 85.1819 59.2362 85.1302 59.4228 85.1222C59.6093 85.1142 59.795 85.1501 59.9649 85.227L65.6585 88.4843C65.9341 88.6427 65.8993 88.9192 65.5802 89.1006L62.3462 90.9438C62.1831 91.0348 62.0009 91.0867 61.814 91.0952C61.6272 91.1037 61.4409 91.0686 61.2701 90.9928Z" fill="#2B303F"/>
<path d="M127.836 124.147L124.46 122.212C124.304 122.133 124.132 122.092 123.958 122.092C123.783 122.092 123.612 122.133 123.456 122.212L120.051 124.164C119.761 124.323 119.761 124.579 120.051 124.74L120.321 124.896C120.576 125.04 120.573 125.279 120.321 125.426L116.707 127.488C116.417 127.649 116.417 127.906 116.707 128.064L118.856 129.297C119.011 129.375 119.182 129.415 119.356 129.415C119.53 129.415 119.702 129.375 119.857 129.297L123.227 127.367L123.923 126.967L124.425 126.679L124.93 126.391L127.83 124.729C128.111 124.562 128.111 124.306 127.836 124.147Z" fill="#2B303F"/>
<path d="M45.0827 97.6544L41.7065 95.719C41.4165 95.5606 41.4658 95.2842 41.782 95.1027L45.0073 93.248C45.1703 93.1579 45.3523 93.1071 45.5387 93.0996C45.7251 93.0921 45.9106 93.1281 46.0804 93.2048L49.4595 95.1402C49.735 95.2986 49.7002 95.575 49.3812 95.7565L46.1588 97.6054C45.9957 97.6965 45.8134 97.7483 45.6266 97.7568C45.4397 97.7653 45.2534 97.7302 45.0827 97.6544Z" fill="#2B303F"/>
<path d="M49.8511 100.387L46.475 98.452C46.1849 98.2936 46.2342 98.0172 46.5504 97.8357L49.7757 95.9868C49.9387 95.8967 50.1207 95.8459 50.3071 95.8384C50.4935 95.8309 50.6791 95.8669 50.8489 95.9436L54.2279 97.8789C54.5035 98.0373 54.4687 98.3138 54.1496 98.4952L50.9272 100.344C50.7637 100.434 50.5812 100.485 50.3943 100.493C50.2075 100.5 50.0214 100.464 49.8511 100.387Z" fill="#2B303F"/>
<path d="M54.6193 103.12L51.2432 101.185C50.9531 101.027 50.9995 100.75 51.3186 100.569L54.541 98.7197C54.7045 98.6296 54.887 98.5788 55.0739 98.5713C55.2607 98.5638 55.4467 98.5998 55.6171 98.6765L58.9874 100.612C59.2629 100.77 59.2281 101.047 58.9091 101.228L55.6867 103.077C55.5243 103.166 55.3433 103.216 55.1581 103.223C54.9729 103.231 54.7884 103.196 54.6193 103.12Z" fill="#2B303F"/>
<path d="M95.2259 126.399L91.8469 124.461C91.5569 124.306 91.6062 124.029 91.9252 123.845L95.1476 121.999C95.3109 121.908 95.4933 121.857 95.6802 121.849C95.867 121.841 96.0532 121.876 96.2237 121.953L99.594 123.891C99.8841 124.049 99.8348 124.323 99.5157 124.507L96.2991 126.368C96.1354 126.457 95.9529 126.506 95.7664 126.511C95.5798 126.517 95.3947 126.478 95.2259 126.399Z" fill="#2B303F"/>
<path d="M99.9914 129.133L96.6152 127.197C96.3252 127.039 96.3745 126.762 96.6906 126.581L99.916 124.732C100.079 124.642 100.261 124.591 100.447 124.583C100.634 124.576 100.819 124.612 100.989 124.689L104.368 126.624C104.658 126.782 104.609 127.059 104.29 127.24L101.067 129.089C100.904 129.179 100.721 129.23 100.535 129.238C100.348 129.245 100.162 129.209 99.9914 129.133Z" fill="#2B303F"/>
<path d="M104.76 131.866L101.384 129.931C101.108 129.772 101.143 129.496 101.459 129.314L104.684 127.465C104.847 127.375 105.029 127.324 105.216 127.317C105.402 127.309 105.588 127.345 105.758 127.422L109.137 129.357C109.427 129.516 109.377 129.792 109.058 129.974L105.836 131.823C105.672 131.913 105.49 131.964 105.303 131.971C105.116 131.979 104.93 131.943 104.76 131.866Z" fill="#2B303F"/>
<path d="M109.528 134.599L106.152 132.663C105.876 132.505 105.911 132.229 106.227 132.047L109.456 130.198C109.619 130.108 109.801 130.057 109.987 130.05C110.173 130.042 110.359 130.078 110.529 130.155L113.908 132.09C114.198 132.249 114.149 132.525 113.83 132.707L110.616 134.556C110.451 134.648 110.266 134.7 110.077 134.707C109.888 134.715 109.7 134.677 109.528 134.599Z" fill="#2B303F"/>
<path d="M60.6147 106.559L56.0087 103.918C55.7332 103.76 55.768 103.484 56.087 103.302L59.3094 101.453C59.473 101.363 59.6555 101.312 59.8423 101.305C60.0292 101.297 60.2152 101.333 60.3855 101.41L64.9915 104.051C65.2815 104.209 65.2322 104.483 64.9131 104.667L61.6907 106.513C61.5277 106.605 61.3452 106.656 61.1582 106.664C60.9713 106.672 60.785 106.636 60.6147 106.559Z" fill="#2B303F"/>
<path d="M90.4576 123.666L85.8517 121.025C85.5616 120.867 85.6109 120.59 85.9271 120.409L89.1524 118.56C89.3154 118.47 89.4974 118.419 89.6838 118.412C89.8702 118.404 90.0558 118.44 90.2256 118.517L94.8315 121.158C95.1071 121.316 95.0723 121.59 94.7561 121.774L91.5308 123.62C91.3683 123.711 91.1863 123.763 90.9998 123.771C90.8133 123.779 90.6275 123.743 90.4576 123.666Z" fill="#2B303F"/>
<path d="M84.4594 120.228L62.0069 107.36C61.7314 107.201 61.7662 106.925 62.0823 106.743L65.3076 104.895C65.4706 104.804 65.6527 104.754 65.839 104.746C66.0254 104.739 66.211 104.775 66.3808 104.851L88.8362 117.728C89.1118 117.886 89.077 118.163 88.7579 118.344L85.5355 120.193C85.3713 120.282 85.1884 120.331 85.0016 120.337C84.8147 120.343 84.6291 120.306 84.4594 120.228Z" fill="#2B303F"/>
<path d="M62.7262 97.1418L59.35 95.2065C59.0745 95.0481 59.1093 94.7716 59.4283 94.5901L62.6507 92.7412C62.8137 92.6511 62.9958 92.6003 63.1822 92.5928C63.3685 92.5853 63.5541 92.6213 63.7239 92.698L67.1088 94.6333C67.3988 94.7917 67.3495 95.0682 67.0304 95.2497L63.808 97.0986C63.6438 97.1897 63.4602 97.241 63.2723 97.2485C63.0843 97.256 62.8972 97.2195 62.7262 97.1418Z" fill="#2B303F"/>
<path d="M67.5033 99.8719L64.1271 97.9337C63.8516 97.7753 63.8864 97.5017 64.2026 97.3174L67.4279 95.4713C67.5906 95.3807 67.7725 95.3294 67.9589 95.3214C68.1453 95.3134 68.331 95.349 68.501 95.4252L71.8801 97.3634C72.1701 97.5218 72.1208 97.7954 71.8018 97.9798L68.5794 99.8258C68.4163 99.9171 68.2339 99.9688 68.0469 99.9768C67.8599 99.9848 67.6736 99.9489 67.5033 99.8719Z" fill="#2B303F"/>
<path d="M72.2804 102.616L68.9013 100.681C68.6113 100.523 68.6606 100.246 68.9797 100.065L72.2021 98.2158C72.3656 98.1257 72.5481 98.0749 72.7349 98.0674C72.9218 98.0599 73.1078 98.0959 73.2782 98.1726L76.6543 100.108C76.9443 100.266 76.8979 100.543 76.5789 100.724L73.3565 102.573C73.1929 102.663 73.0104 102.714 72.8236 102.722C72.6367 102.729 72.4507 102.693 72.2804 102.616Z" fill="#2B303F"/>
<path d="M77.0575 105.344L73.6784 103.408C73.3884 103.25 73.4377 102.973 73.7568 102.792L76.9705 100.955C77.134 100.864 77.3165 100.814 77.5033 100.806C77.6902 100.799 77.8762 100.835 78.0466 100.911L81.4227 102.847C81.7127 103.005 81.6634 103.282 81.3473 103.463L78.1307 105.312C77.9667 105.4 77.7843 105.449 77.5979 105.455C77.4115 105.46 77.2264 105.422 77.0575 105.344Z" fill="#2B303F"/>
<path d="M81.8316 108.094L78.4554 106.159C78.1654 106.001 78.2147 105.724 78.5309 105.543L81.7562 103.694C81.9192 103.604 82.1012 103.553 82.2876 103.545C82.474 103.538 82.6595 103.574 82.8293 103.651L86.2084 105.586C86.4984 105.744 86.4491 106.021 86.1301 106.202L82.9077 108.051C82.7441 108.141 82.5616 108.192 82.3748 108.2C82.1879 108.207 82.0019 108.171 81.8316 108.094Z" fill="#2B303F"/>
<path d="M86.6088 110.833L83.2327 108.895C82.9426 108.736 82.989 108.463 83.3081 108.278L86.5421 106.432C86.7052 106.341 86.8876 106.289 87.0746 106.281C87.2616 106.273 87.4478 106.309 87.6182 106.386L90.9972 108.324C91.2728 108.483 91.238 108.756 90.9189 108.941L87.6965 110.787C87.532 110.88 87.3475 110.933 87.1583 110.941C86.9691 110.949 86.7807 110.912 86.6088 110.833Z" fill="#2B303F"/>
<path d="M91.3858 113.569L88.0068 111.634C87.7312 111.475 87.766 111.199 88.0851 111.017L91.3075 109.168C91.471 109.078 91.6535 109.028 91.8404 109.02C92.0272 109.013 92.2133 109.049 92.3836 109.125L95.7597 111.061C96.0498 111.219 96.0004 111.496 95.6843 111.677L92.459 113.526C92.296 113.616 92.114 113.667 91.9276 113.674C91.7412 113.682 91.5556 113.646 91.3858 113.569Z" fill="#2B303F"/>
<path d="M96.1628 116.308L92.7837 114.372C92.5082 114.214 92.543 113.938 92.862 113.756L96.0845 111.907C96.248 111.817 96.4305 111.766 96.6173 111.759C96.8042 111.751 96.9902 111.787 97.1605 111.864L100.537 113.799C100.812 113.958 100.777 114.234 100.458 114.416L97.236 116.265C97.0729 116.355 96.8909 116.406 96.7045 116.413C96.5181 116.421 96.3326 116.385 96.1628 116.308Z" fill="#2B303F"/>
<path d="M100.937 119.047L97.5637 117.112C97.2881 116.953 97.3229 116.677 97.6391 116.495L100.864 114.646C101.027 114.556 101.209 114.506 101.396 114.498C101.582 114.491 101.768 114.527 101.938 114.603L105.317 116.539C105.592 116.697 105.557 116.973 105.238 117.155L102.016 119.004C101.852 119.094 101.669 119.146 101.482 119.153C101.294 119.161 101.108 119.124 100.937 119.047Z" fill="#2B303F"/>
<path d="M105.714 121.786L102.335 119.847C102.059 119.689 102.094 119.415 102.413 119.231L105.636 117.385C105.799 117.294 105.981 117.242 106.168 117.234C106.355 117.226 106.541 117.262 106.712 117.339L110.091 119.277C110.366 119.433 110.332 119.709 110.013 119.893L106.79 121.74C106.627 121.83 106.444 121.881 106.258 121.889C106.071 121.897 105.885 121.862 105.714 121.786Z" fill="#2B303F"/>
<path d="M110.491 124.522L107.112 122.586C106.837 122.428 106.871 122.152 107.19 121.97L110.413 120.121C110.576 120.031 110.759 119.98 110.946 119.973C111.133 119.965 111.319 120.001 111.489 120.078L114.865 122.013C115.155 122.172 115.106 122.448 114.79 122.63L111.564 124.479C111.401 124.569 111.219 124.619 111.033 124.627C110.847 124.634 110.661 124.598 110.491 124.522Z" fill="#2B303F"/>
<path d="M115.257 127.26L111.881 125.325C111.605 125.167 111.64 124.89 111.959 124.709L115.181 122.86C115.344 122.77 115.526 122.719 115.713 122.711C115.899 122.704 116.085 122.74 116.254 122.817L119.633 124.752C119.909 124.91 119.874 125.187 119.555 125.368L116.341 127.232C116.176 127.321 115.991 127.37 115.803 127.375C115.614 127.38 115.427 127.341 115.257 127.26Z" fill="#2B303F"/>
<path d="M57.952 94.3996L50.9648 90.3964C50.6748 90.238 50.7241 89.9616 51.0431 89.7801L54.2656 87.9312C54.4291 87.8411 54.6116 87.7902 54.7984 87.7827C54.9853 87.7752 55.1713 87.8113 55.3416 87.888L62.326 91.8912C62.616 92.0496 62.5667 92.326 62.2505 92.5075L59.0252 94.3564C58.8622 94.4465 58.6802 94.4973 58.4938 94.5048C58.3074 94.5124 58.1219 94.4763 57.952 94.3996Z" fill="#2B303F"/>
<path d="M55.7215 98.4317L52.3454 96.5021C52.0699 96.3437 52.1018 96.0701 52.4208 95.8858L55.6432 94.0397C55.8063 93.9485 55.9887 93.8968 56.1757 93.8888C56.3627 93.8808 56.5489 93.9167 56.7193 93.9937L60.0983 95.9319C60.3739 96.0874 60.3391 96.3639 60.02 96.5482L56.7976 98.3943C56.6336 98.4835 56.4509 98.5333 56.2641 98.5398C56.0772 98.5463 55.8914 98.5093 55.7215 98.4317Z" fill="#2B303F"/>
<path d="M60.4987 101.177L57.1197 99.2412C56.8441 99.0828 56.8789 98.8063 57.198 98.6249L60.4204 96.7759C60.5839 96.6858 60.7664 96.6349 60.9533 96.6274C61.1401 96.6199 61.3262 96.656 61.4965 96.7327L64.8726 98.668C65.1627 98.8264 65.1134 99.1029 64.7972 99.2844L61.5719 101.133C61.4089 101.223 61.2269 101.274 61.0405 101.282C60.8541 101.289 60.6685 101.253 60.4987 101.177Z" fill="#2B303F"/>
<path d="M65.2729 103.904L61.888 101.977C61.598 101.819 61.6473 101.545 61.9664 101.361L65.1888 99.5148C65.3521 99.4242 65.5344 99.3729 65.7213 99.3649C65.9082 99.3569 66.0943 99.3924 66.2648 99.4687L69.6439 101.407C69.9339 101.565 69.8846 101.839 69.5656 102.023L66.3432 103.869C66.1799 103.958 65.998 104.007 65.8122 104.013C65.6263 104.019 65.4416 103.982 65.2729 103.904Z" fill="#2B303F"/>
<path d="M70.047 106.652L66.6709 104.716C66.3808 104.558 66.4301 104.281 66.7492 104.1L69.9716 102.251C70.1346 102.161 70.3166 102.11 70.503 102.103C70.6894 102.095 70.875 102.131 71.0448 102.208L74.4238 104.143C74.6994 104.301 74.6646 104.578 74.3455 104.759L71.1231 106.608C70.9596 106.698 70.7771 106.749 70.5902 106.757C70.4034 106.764 70.2173 106.728 70.047 106.652Z" fill="#2B303F"/>
<path d="M74.8241 109.39L71.4595 107.455C71.184 107.297 71.2188 107.02 71.5378 106.839L74.7602 104.99C74.9238 104.9 75.1063 104.849 75.2931 104.841C75.48 104.834 75.666 104.87 75.8363 104.947L79.2125 106.882C79.488 107.04 79.4561 107.317 79.137 107.498L75.9146 109.344C75.7498 109.438 75.5647 109.491 75.375 109.499C75.1852 109.507 74.9963 109.47 74.8241 109.39Z" fill="#2B303F"/>
<path d="M79.5983 112.126L76.2221 110.191C75.9466 110.032 75.9814 109.756 76.2975 109.575L79.5228 107.726C79.6858 107.635 79.8679 107.585 80.0543 107.577C80.2406 107.57 80.4262 107.606 80.596 107.682L83.9751 109.618C84.2506 109.776 84.2158 110.053 83.8968 110.234L80.6743 112.083C80.5108 112.173 80.3283 112.224 80.1415 112.231C79.9546 112.239 79.7686 112.203 79.5983 112.126Z" fill="#2B303F"/>
<path d="M84.3753 114.865L80.9963 112.93C80.7207 112.771 80.7555 112.495 81.0746 112.313L84.297 110.464C84.4605 110.374 84.643 110.323 84.8299 110.316C85.0167 110.308 85.2027 110.344 85.3731 110.421L88.7492 112.357C89.0247 112.515 88.9899 112.791 88.6738 112.973L85.4514 114.822C85.2878 114.912 85.1054 114.963 84.9185 114.97C84.7316 114.978 84.5456 114.942 84.3753 114.865Z" fill="#2B303F"/>
<path d="M89.1525 117.604L85.7763 115.666C85.5008 115.507 85.5356 115.234 85.8517 115.049L89.0771 113.203C89.2396 113.112 89.4216 113.06 89.6081 113.052C89.7946 113.044 89.9804 113.08 90.1502 113.157L93.5293 115.095C93.8048 115.251 93.77 115.527 93.451 115.712L90.2285 117.558C90.0653 117.648 89.8829 117.7 89.696 117.708C89.5092 117.716 89.323 117.68 89.1525 117.604Z" fill="#2B303F"/>
<path d="M93.9266 120.34L90.5475 118.405C90.272 118.246 90.3068 117.97 90.6258 117.788L93.8483 115.939C94.0118 115.849 94.1943 115.799 94.3811 115.791C94.568 115.784 94.754 115.82 94.9243 115.896L98.3005 117.832C98.576 117.99 98.5412 118.267 98.2251 118.448L94.9997 120.297C94.8367 120.387 94.6547 120.438 94.4683 120.445C94.2819 120.453 94.0964 120.417 93.9266 120.34Z" fill="#2B303F"/>
<path d="M98.7007 123.079L95.3245 121.141C95.049 120.985 95.0838 120.709 95.3999 120.524L98.6253 118.678C98.788 118.588 98.9699 118.536 99.1563 118.528C99.3427 118.52 99.5284 118.556 99.6984 118.632L103.075 120.57C103.35 120.729 103.315 121.002 102.996 121.187L99.7739 123.033C99.6112 123.124 99.4292 123.175 99.2428 123.183C99.0564 123.191 98.8707 123.155 98.7007 123.079Z" fill="#2B303F"/>
<path d="M103.478 125.815L100.099 123.879C99.8231 123.721 99.8579 123.444 100.177 123.263L103.399 121.414C103.563 121.324 103.745 121.273 103.932 121.266C104.119 121.258 104.305 121.294 104.475 121.371L107.852 123.306C108.127 123.465 108.092 123.741 107.776 123.923L104.551 125.772C104.388 125.862 104.206 125.912 104.019 125.92C103.833 125.927 103.648 125.891 103.478 125.815Z" fill="#2B303F"/>
<path d="M114.163 131.944L104.882 126.619C104.606 126.46 104.638 126.184 104.957 126.002L108.179 124.153C108.343 124.063 108.525 124.012 108.712 124.005C108.899 123.997 109.085 124.033 109.256 124.11L118.537 129.435C118.813 129.591 118.778 129.867 118.459 130.052L115.236 131.898C115.073 131.988 114.892 132.039 114.705 132.047C114.519 132.055 114.333 132.02 114.163 131.944Z" fill="#2B303F"/>
<path d="M50.9474 95.7016L46.3414 93.0607C46.0514 92.9023 46.1007 92.6258 46.4168 92.4444L49.6422 90.5983C49.8047 90.5071 49.9867 90.4554 50.1732 90.4474C50.3597 90.4394 50.5455 90.4753 50.7153 90.5522L55.3213 93.1932C55.5968 93.3516 55.562 93.6281 55.2459 93.8095L52.0263 95.6584C51.8626 95.7495 51.6796 95.8008 51.4921 95.8083C51.3046 95.8158 51.1179 95.7793 50.9474 95.7016Z" fill="#2B303F"/>
<path d="M132.865 121.221L65.0408 82.3412C64.7507 82.1857 64.8 81.9092 65.1191 81.7249L66.7317 80.8033C66.8945 80.7128 67.0764 80.6615 67.2628 80.6534C67.4492 80.6454 67.6349 80.681 67.8049 80.7572L135.629 119.637C135.905 119.796 135.87 120.069 135.551 120.254L133.941 121.184C133.777 121.273 133.595 121.323 133.408 121.329C133.221 121.336 133.035 121.299 132.865 121.221Z" fill="#2B303F"/>
<path d="M90.8492 125.642C90.7524 125.851 90.5867 126.022 90.3794 126.126L71.7177 136.825C71.4036 136.998 71.0529 137.096 70.6937 137.111C70.3346 137.125 69.977 137.056 69.6497 136.908L37.7446 118.623C37.6082 118.553 37.4983 118.441 37.4313 118.304C37.3153 118.016 37.4777 117.696 37.9012 117.454L56.5657 106.752C56.8799 106.579 57.2306 106.481 57.5897 106.466C57.9489 106.452 58.3064 106.521 58.6337 106.669L90.5389 124.954C90.6678 125.009 90.7712 125.111 90.8286 125.238C90.8861 125.365 90.8934 125.509 90.8492 125.642Z" fill="#B1B4C4"/>
<path d="M90.8492 125.642C90.7523 125.852 90.5866 126.022 90.3793 126.126L71.7177 136.825C71.4035 136.999 71.0528 137.097 70.6937 137.111C70.3345 137.126 69.977 137.056 69.6497 136.909L37.7445 118.624C37.6082 118.553 37.4983 118.441 37.4313 118.304C37.5302 118.097 37.6954 117.928 37.9012 117.823L56.5657 107.124C56.8797 106.95 57.2302 106.852 57.5893 106.837C57.9484 106.822 58.3061 106.891 58.6337 107.037L90.5388 125.325C90.6743 125.395 90.7832 125.506 90.8492 125.642Z" fill="#C3C6D1"/>
<path d="M138.028 118.272L70.2036 79.392C70.0543 79.2823 69.9327 79.1395 69.8486 78.9751C69.7646 78.8106 69.7202 78.6289 69.7192 78.4445V77.6525C69.7192 77.2867 69.9426 77.1197 70.2181 77.2781L138.043 116.158C138.195 116.266 138.319 116.407 138.406 116.571C138.492 116.735 138.539 116.917 138.542 117.103V117.895C138.527 118.263 138.304 118.43 138.028 118.272Z" fill="#2B303F"/>
<path d="M80.451 75.5533L73.7509 71.72C72.9127 71.2391 72.2311 69.9459 72.2311 68.84V61.7063C72.2311 60.5946 72.9127 60.0848 73.7509 60.5543L80.451 64.3991C81.2921 64.88 81.9708 66.1731 81.9708 67.2791V74.4128C81.9592 75.5245 81.2805 76.0343 80.451 75.5533Z" fill="#E9EAF2"/>
<path d="M80.4248 59.215L73.7363 55.3817C72.898 54.9007 72.2164 52.9337 72.2164 51.9718V43.6428C72.2164 42.5311 72.898 42.0214 73.7363 42.4908L80.4248 46.3241C81.2659 46.805 81.9446 48.0982 81.9446 49.2041V57.533C81.9446 58.5122 81.2659 59.6959 80.4248 59.215Z" fill="#E9EAF2"/>
<path d="M77.1183 53.6508C75.758 52.8704 74.65 50.9638 74.65 49.4028C74.65 47.8419 75.758 47.2054 77.1183 47.9859C78.4786 48.7664 79.5895 50.6729 79.5895 52.2339C79.5895 53.7948 78.4815 54.4313 77.1183 53.6508ZM77.1183 48.7116C76.1061 48.1356 75.2823 48.6051 75.2823 49.7657C75.3154 50.4 75.499 51.0176 75.818 51.5682C76.1371 52.1187 76.5826 52.5866 77.1183 52.9337C78.1335 53.5097 78.9572 53.0432 78.9572 51.8825C78.9242 51.2474 78.7405 50.6291 78.4209 50.078C78.1013 49.5269 77.6549 49.0587 77.1183 48.7116Z" fill="#134889"/>
<path d="M77.7971 52.4959L76.6775 50.7275V49.2559L77.3098 49.6187V50.7621L78.2147 52.1877L77.7971 52.4959Z" fill="#134889"/>
<path d="M80.4161 41.5981L73.7276 37.7649C72.8894 37.281 72.2078 35.1153 72.2078 34.1505V26.4839C72.2078 25.522 72.8894 25.1303 73.7276 25.6199L80.4161 29.4561C80.8586 29.7419 81.227 30.1275 81.4911 30.5814C81.7552 31.0353 81.9076 31.5448 81.9359 32.0682V39.7377C81.9359 40.6909 81.2572 42.0791 80.4161 41.5981Z" fill="#E9EAF2"/>
<path d="M77.0719 32.4076C76.6688 32.1772 76.3439 32.3644 76.3439 32.8281C76.3573 33.0791 76.4302 33.3234 76.5567 33.5411C76.6832 33.7588 76.8598 33.9438 77.0719 34.0809C77.4751 34.3113 77.8028 34.1241 77.8028 33.6633C77.7884 33.4118 77.7148 33.1672 77.5878 32.9491C77.4609 32.731 77.2842 32.5455 77.0719 32.4076ZM79.0181 32.6956L78.438 32.3615C78.344 32.2979 78.2761 32.2028 78.2466 32.0937L78.0958 31.486C78.0642 31.3771 77.9955 31.2824 77.9015 31.2182L76.2482 30.2706C76.167 30.2246 76.0829 30.2447 76.0568 30.3196L75.9059 30.7516C75.8984 30.769 75.887 30.7845 75.8725 30.7969C75.858 30.8093 75.8408 30.8181 75.8223 30.8229C75.8039 30.8276 75.7845 30.828 75.7658 30.8242C75.7471 30.8203 75.7296 30.8122 75.7145 30.8006L75.1344 30.4665C74.8676 30.311 74.65 30.4377 74.65 30.7545V33.2658C74.6592 33.433 74.7079 33.5957 74.792 33.7408C74.8761 33.8858 74.9934 34.0092 75.1344 34.101L79.0268 36.333C79.2937 36.4857 79.5141 36.3618 79.5141 36.045V33.525C79.5036 33.3565 79.4532 33.1927 79.3671 33.0471C79.2809 32.9015 79.1613 32.7781 79.0181 32.687V32.6956ZM77.0719 34.6482C76.7185 34.4187 76.4244 34.1098 76.2133 33.7466C76.0022 33.3834 75.88 32.9761 75.8566 32.5574C75.8566 31.7855 76.4019 31.4745 77.0719 31.8604C77.4261 32.0891 77.7209 32.3978 77.9321 32.7611C78.1433 33.1245 78.265 33.5323 78.2872 33.9513C78.2872 34.7116 77.7448 35.0255 77.0719 34.6396V34.6482ZM78.847 33.5452C78.7982 33.5137 78.7575 33.4712 78.7283 33.4211C78.6991 33.3711 78.6821 33.3149 78.6788 33.2572C78.6788 33.1478 78.7542 33.1046 78.847 33.1593C78.8964 33.1905 78.9376 33.2329 78.9673 33.2829C78.9971 33.333 79.0145 33.3893 79.0181 33.4473C79.0181 33.5481 78.9427 33.5913 78.847 33.5366V33.5452Z" fill="#134889"/>
<path d="M79.1835 68.5806C79.1835 69.8795 77.1329 71.5671 77.1329 71.5671C77.1329 71.5671 75.0793 67.5351 75.0793 66.2276C75.0793 64.9201 75.9988 64.4017 77.1329 65.0497C77.73 65.4369 78.2268 65.9584 78.5831 66.5718C78.9394 67.1853 79.1451 67.8734 79.1835 68.5806Z" fill="#134889"/>
<path d="M78.0811 68.947C78.6055 68.6464 78.606 67.6724 78.0822 66.7715C77.5584 65.8707 76.7086 65.3841 76.1842 65.6847C75.6598 65.9853 75.6594 66.9593 76.1832 67.8602C76.707 68.7611 77.5567 69.2477 78.0811 68.947Z" fill="#E9EAF2"/>
<path d="M127.766 86.0478L87.2728 62.8321C86.5883 62.4433 86.0372 61.3921 86.0372 60.4907V33.4676C86.0372 32.5662 86.5883 32.1515 87.2728 32.5431L127.766 55.7559C128.448 56.1476 128.999 57.1959 128.999 58.1003V85.1204C128.999 86.0247 128.448 86.4394 127.766 86.0478Z" fill="#E9EAF2"/>
<path d="M123.088 66.4032L91.7018 48.4119C90.9419 47.9741 90.3241 46.8049 90.3241 45.7997V43.7636C90.3241 42.7556 90.9419 42.2948 91.7018 42.7297L123.088 60.721C123.848 61.1559 124.463 62.3252 124.463 63.3332V65.3693C124.463 66.3773 123.848 66.8381 123.088 66.4032Z" fill="white"/>
<path d="M106.019 65.7724L91.7018 57.5644C90.9419 57.1296 90.3241 55.9603 90.3241 54.9523V52.9276C90.3241 51.9196 90.9419 51.4588 91.7018 51.8937L106.019 60.1017C106.778 60.5366 107.393 61.7059 107.393 62.7139V64.7356C107.393 65.7436 106.778 66.2073 106.019 65.7724Z" fill="#134889"/>
<path d="M136.099 91.9921C136.099 91.9921 120.834 95.3329 108.493 81.722C96.1513 68.1111 86.0837 69.8564 86.0837 69.8564V78.3524L136.099 107.023V91.9921Z" fill="url(#paint1_linear)"/>
<path d="M136.099 91.9921C136.099 91.9921 120.834 95.3329 108.493 81.722C96.1513 68.1111 86.0837 69.8564 86.0837 69.8564" stroke="#CCCEDD" stroke-width="1.06" stroke-miterlimit="10"/>
<path d="M145.247 97.6109L121.023 83.7235C119.5 82.8595 118.267 80.5123 118.267 78.4992V40.6531C118.267 38.6371 119.5 37.7155 121.023 38.5853L145.247 52.4755C146.767 53.3395 148 55.6867 148 57.6999V95.5517C148 97.5677 146.767 98.4835 145.247 97.6109Z" fill="#211B49"/>
<path d="M146.216 98.1641L147.046 97.758L146.486 96.6665L146.216 98.1641Z" fill="#211B49"/>
<path d="M118.72 38.6919C118.964 38.548 119.22 38.4256 119.485 38.3262L120.1 39.5329L118.72 38.6919Z" fill="#211B49"/>
<path d="M144.612 97.928L120.385 84.032C118.865 83.168 117.632 80.8208 117.632 78.8077V40.9703C117.632 38.9543 118.865 38.0298 120.385 38.9024L144.612 52.7927C146.132 53.6567 147.365 56.001 147.365 58.0141V95.8602C147.365 97.8733 146.132 98.8007 144.612 97.928Z" fill="black"/>
<path d="M124.79 46.7935L120.385 44.2677V42.6895L124.79 45.2152V46.7935Z" fill="#E9E9E9"/>
<path d="M144.337 57.9995L125.617 47.2658V45.6904L144.337 56.4213V57.9995Z" fill="#169CD6"/>
<path d="M124.79 51.8447L120.385 49.319V47.7407L124.79 50.2665V51.8447Z" fill="#E9E9E9"/>
<path d="M138.005 59.4196L125.617 52.3175V50.7393L138.005 57.8413V59.4196Z" fill="#9E9E9E"/>
<path d="M124.79 54.3677L120.385 51.8448V50.2666L124.79 52.7895V54.3677Z" fill="#E9E9E9"/>
<path d="M141.033 63.6816L125.617 54.8429V53.2646L141.033 62.1034V63.6816Z" fill="#74B8F6"/>
<path d="M124.79 56.8936L120.385 54.3678V52.7896L124.79 55.3153V56.8936Z" fill="#E9E9E9"/>
<path d="M136.355 63.5233L125.617 57.3688V55.7905L136.355 61.9451V63.5233Z" fill="#E9E9E9"/>
<path d="M124.79 49.3193L120.385 46.7936V45.2153L124.79 47.7411V49.3193Z" fill="#E9E9E9"/>
<path d="M134.977 55.1599L125.617 49.7916V48.2134L134.977 53.5788V55.1599Z" fill="#C9C9C9"/>
<path d="M124.79 59.4194L120.385 56.8937V55.3154L124.79 57.8412V59.4194Z" fill="#E9E9E9"/>
<path d="M131.122 63.0482L125.617 59.8917V58.3135L131.122 61.47V63.0482Z" fill="#169CD6"/>
<path d="M124.79 64.4678L120.385 61.9449V60.3667L124.79 62.8925V64.4678Z" fill="#E9E9E9"/>
<path d="M142.962 74.8847L125.617 64.943V63.3647L142.962 73.3065V74.8847Z" fill="#9E9E9E"/>
<path d="M124.79 66.9936L120.385 64.4679V62.8896L124.79 65.4154V66.9936Z" fill="#E9E9E9"/>
<path d="M130.847 70.4669L125.617 67.4689V65.8906L130.847 68.8887V70.4669Z" fill="#74B8F6"/>
<path d="M124.79 69.5195L120.385 66.9938V65.4155L124.79 67.9413V69.5195Z" fill="#E9E9E9"/>
<path d="M141.033 78.8306L125.617 69.9919V68.4165L141.033 77.2523V78.8306Z" fill="#E9E9E9"/>
<path d="M124.79 61.9453L120.385 59.4195V57.8413L124.79 60.3671V61.9453Z" fill="#E9E9E9"/>
<path d="M140.206 70.784L125.617 62.4176V60.8394L140.206 69.2058V70.784Z" fill="#C9C9C9"/>
<path d="M124.79 72.0454L120.385 69.5196V67.9414L124.79 70.4672V72.0454Z" fill="#E9E9E9"/>
<path d="M127.543 73.6236L125.617 72.5177V70.9395L127.543 72.0454V73.6236Z" fill="#169CD6"/>
<path d="M124.79 77.0938L120.385 74.5709V72.9927L124.79 75.5184V77.0938Z" fill="#E9E9E9"/>
<path d="M129.196 79.6195L125.617 77.569V75.9907L129.196 78.0413V79.6195Z" fill="#9E9E9E"/>
<path d="M124.79 79.6196L120.385 77.0939V75.5156L124.79 78.0414V79.6196Z" fill="#E9E9E9"/>
<path d="M134.977 85.4603L125.617 80.0948V78.5166L134.977 83.882V85.4603Z" fill="#74B8F6"/>
<path d="M124.79 82.1455L120.385 79.6197V78.0415L124.79 80.5673V82.1455Z" fill="#E9E9E9"/>
<path d="M140.482 91.1426L125.617 82.6178V81.0396L140.482 89.5643V91.1426Z" fill="#E9E9E9"/>
<path d="M124.79 74.5713L120.385 72.0455V70.4673L124.79 72.993V74.5713Z" fill="#E9E9E9"/>
<path d="M144.337 85.7773L125.617 75.0436V73.4653L144.337 84.1962V85.7773Z" fill="#C9C9C9"/>
<path d="M22.4764 69.0387L19.8311 67.6909L14.2883 70.8589C13.0324 71.5789 12.0115 70.9971 12.0115 69.5542V63.5581C12.0543 62.7735 12.2828 62.01 12.6784 61.3294C13.074 60.6489 13.6256 60.0706 14.2883 59.6413L47.2986 40.711C48.5545 39.991 49.5754 40.5757 49.5754 42.0157V48.032C49.5326 48.8166 49.3041 49.5801 48.9085 50.2606C48.5129 50.9411 47.9613 51.5195 47.2986 51.9488L25.1042 64.6611" fill="#B1B4C4"/>
<path d="M48.7489 40.4775L49.9961 40.9787L48.9403 42.0558L48.192 40.8663L48.7489 40.4775Z" fill="#B1B4C4"/>
<path d="M22.4764 69.0384L23.7904 69.5626L23.7933 68.4394L22.6302 68.209L22.4764 69.0384Z" fill="#B1B4C4"/>
<path d="M14.2072 71.6479C14.2565 71.7516 12.783 71.1526 12.7308 71.0719C12.6786 70.9913 14.5175 69.9199 14.5175 69.9199L14.2072 71.6479Z" fill="#B1B4C4"/>
<path d="M26.4182 65.1823L48.6125 52.4614C49.2748 52.0316 49.826 51.4531 50.2215 50.7727C50.6171 50.0923 50.8459 49.329 50.8894 48.5446V42.5398C50.8894 41.0998 49.8684 40.5238 48.6125 41.2322L15.5907 60.1625C14.9282 60.5921 14.3769 61.1706 13.9814 61.851C13.5858 62.5315 13.3572 63.2948 13.3138 64.0793V70.0841C13.3138 71.5241 14.3348 72.1001 15.5907 71.3887L21.1335 68.2207L23.7903 69.5714L26.4182 65.1823Z" fill="#E9EAF2"/>
<path d="M47.9281 46.4566L16.2753 64.6006V62.5126L47.9281 44.3657V46.4566Z" fill="#134889"/>
<path d="M36.9991 56.378L16.2753 68.258V66.1671L36.9991 54.2871V56.378Z" fill="#134889"/>
<defs>
<linearGradient id="paint0_linear" x1="105.177" y1="91.3852" x2="129.025" y2="49.5945" gradientUnits="userSpaceOnUse">
<stop offset="0.21" stop-color="white" stop-opacity="0"/>
<stop offset="1" stop-color="white" stop-opacity="0.2"/>
</linearGradient>
<linearGradient id="paint1_linear" x1="111.42" y1="77.0702" x2="104.976" y2="88.363" gradientUnits="userSpaceOnUse">
<stop stop-color="#E9EAF2" stop-opacity="0.8"/>
<stop offset="1" stop-color="#E9EAF2" stop-opacity="0"/>
</linearGradient>
</defs>
</svg>
