<svg width="24" height="24" viewBox="0 0 24 24" fill="none" xmlns="http://www.w3.org/2000/svg">
<circle cx="12" cy="12" r="12" fill="#00CFE8" fill-opacity="0.85"/>
<path d="M16.6428 9.50001H14.8571V7.35715C14.8571 7.1599 14.6972 7 14.5 7H7.35715C7.1599 7 7 7.1599 7 7.35715V15.5714C7 16.3604 7.63959 17 8.42858 17H15.5714C16.3604 17 17 16.3604 17 15.5714V9.85713C17 9.6599 16.8401 9.50001 16.6428 9.50001ZM9.85713 8.78571H12C12.1972 8.78571 12.3571 8.9456 12.3571 9.14286C12.3571 9.34011 12.1972 9.50001 12 9.50001H9.85713C9.65988 9.50001 9.49998 9.34011 9.49998 9.14286C9.49998 8.9456 9.6599 8.78571 9.85713 8.78571ZM13.0714 15.5714H8.78571C8.58845 15.5714 8.42856 15.4115 8.42856 15.2143C8.42856 15.017 8.58845 14.8571 8.78571 14.8571H13.0714C13.2687 14.8571 13.4286 15.017 13.4286 15.2143C13.4286 15.4115 13.2687 15.5714 13.0714 15.5714ZM13.0714 14.1428H8.78571C8.58845 14.1428 8.42856 13.9829 8.42856 13.7857C8.42856 13.5884 8.58845 13.4285 8.78571 13.4285H13.0714C13.2687 13.4285 13.4286 13.5884 13.4286 13.7857C13.4286 13.9829 13.2687 14.1428 13.0714 14.1428ZM13.0714 12.7143H8.78571C8.58845 12.7143 8.42856 12.5544 8.42856 12.3571C8.42856 12.1599 8.58845 12 8.78571 12H13.0714C13.2687 12 13.4286 12.1599 13.4286 12.3571C13.4286 12.5544 13.2687 12.7143 13.0714 12.7143ZM13.0714 11.2857H8.78571C8.58845 11.2857 8.42856 11.1258 8.42856 10.9286C8.42856 10.7313 8.58845 10.5714 8.78571 10.5714H13.0714C13.2687 10.5714 13.4286 10.7313 13.4286 10.9286C13.4286 11.1258 13.2687 11.2857 13.0714 11.2857ZM16.2857 15.5714C16.2857 15.9659 15.9659 16.2857 15.5714 16.2857C15.1769 16.2857 14.8571 15.9659 14.8571 15.5714V10.2143H16.2857V15.5714H16.2857Z" fill="white"/>
</svg>
