<svg width="80" height="80" viewBox="0 0 80 80" fill="none" xmlns="http://www.w3.org/2000/svg">
<path d="M24.109 61.3485C18.452 61.3485 14.9702 60.5268 13.0121 59.0892C11.4174 57.9253 11.7791 54.9816 13.5926 52.0379C16.6995 53.7184 20.2353 54.5702 23.8191 54.5013C27.0101 54.5013 29.1136 53.9541 29.1136 51.9685C29.1136 49.9143 27.2282 49.5042 22.7306 48.6825C16.9291 47.5864 12.7222 45.2586 12.7222 39.3712C12.7222 33.6193 17.944 29.9226 25.9225 29.9226C29.7732 29.8718 33.5955 30.547 37.1639 31.9082C36.5115 36.7697 35.2059 37.66 33.6104 37.66C31.4351 37.66 29.6942 36.5647 25.7054 36.5647C22.6588 36.5647 20.9906 37.3856 20.9906 39.0976C20.9906 41.1518 23.1667 41.4254 26.2851 41.9727C33.4658 43.2738 37.6 45.7381 37.6 51.6263C37.6 56.8978 34.1909 61.3485 24.109 61.3485Z" fill="black"/>
<path d="M40.8 29.7059C41.2396 20.9491 47.8318 18.0066 54.5699 18.0066C56.5521 17.9732 58.5343 18.067 60.5033 18.2873C60.5767 22.9106 59.9912 25.0124 58.0128 25.0124H54.9361C51.2013 25.0124 49.3698 26.5527 49.3698 30.5466V30.8968H58.2322C58.6726 36.9917 57.5008 37.5516 55.3031 37.5516H49.3698V62H40.8V29.7059Z" fill="black"/>
<path d="M68.0001 49.4286H55.2001V62H68.0001V49.4286Z" fill="#EE2060"/>
</svg>
