<svg width="80" height="80" viewBox="0 0 80 80" fill="none" xmlns="http://www.w3.org/2000/svg">
<path d="M12 20C12 15.5817 15.5817 12 20 12H60C64.4183 12 68 15.5817 68 20V60C68 64.4183 64.4183 68 60 68H20C15.5817 68 12 64.4183 12 60V20Z" fill="#FF5000"/>
<path fill-rule="evenodd" clip-rule="evenodd" d="M28.5539 27.6993C28.5539 27.7933 28.5539 27.9814 28.5539 28.0754C28.5539 38.0439 28.5539 48.1064 28.5539 58.0748C28.5539 58.3569 28.5539 58.545 28.4597 58.8271C28.1771 59.6735 27.4234 60.2378 26.4814 60.1437C25.6335 60.0497 24.9741 59.2974 24.8799 58.451C24.8799 58.3569 24.8799 58.2629 24.8799 58.1688C24.8799 46.2255 24.8799 34.3763 24.8799 22.4329C24.8799 22.2448 24.8799 22.0568 24.8799 21.8687C25.0683 21.1163 25.4451 20.6461 26.1988 20.4581C26.9524 20.27 27.6118 20.5521 28.0829 21.1163C28.6481 21.8687 29.2133 22.621 29.7786 23.3734C36.9382 33.1537 44.192 42.9341 51.3517 52.7144C51.3517 52.8085 51.4459 52.9025 51.5401 52.9025C51.5401 44.4387 51.5401 36.069 51.5401 27.6993C51.4459 27.7933 51.3517 27.7933 51.3517 27.8874C49.8444 29.8622 48.4313 31.7431 46.924 33.718C46.8298 33.812 46.7356 34.0001 46.6414 34.0941C45.9819 34.7524 44.9457 34.7524 44.2862 34.1882C43.5326 33.6239 43.3442 32.5895 43.8152 31.8371C43.9094 31.7431 43.9094 31.649 44.0036 31.555C46.5472 28.1695 49.0907 24.784 51.6343 21.3985C51.9169 21.0223 52.2937 20.6461 52.8589 20.4581C53.9894 20.1759 55.0257 21.0223 55.1199 22.1508C55.1199 22.2448 55.1199 22.3389 55.1199 22.4329C55.1199 34.3763 55.1199 46.2255 55.1199 58.1688C55.1199 58.451 55.1199 58.7331 55.0257 59.0152C54.5546 60.2378 52.9532 60.5199 52.1053 59.6735C51.9169 59.4854 51.6343 59.2033 51.4459 58.9212C43.9094 48.4825 36.2788 38.1379 28.7423 27.8874C28.6481 27.7933 28.6481 27.6993 28.5539 27.6993Z" fill="white"/>
</svg>
