<svg width="16" height="22" viewBox="0 0 16 22" fill="none" xmlns="http://www.w3.org/2000/svg">
<path fill-rule="evenodd" clip-rule="evenodd" d="M1.96052 4.35524C1.96052 4.40491 1.96052 4.50425 1.96052 4.55392C1.96052 9.81894 1.96052 15.1336 1.96052 20.3987C1.96052 20.5477 1.96052 20.647 1.91077 20.796C1.7615 21.243 1.36344 21.5411 0.86588 21.4914C0.418071 21.4417 0.069776 21.0444 0.0200195 20.5973C0.0200195 20.5477 0.0200195 20.498 0.0200195 20.4483C0.0200195 14.1402 0.0200195 7.88181 0.0200195 1.57372C0.0200195 1.47438 0.0200195 1.37504 0.0200195 1.2757C0.119532 0.878339 0.318558 0.629989 0.71661 0.530649C1.11466 0.431309 1.46296 0.580319 1.71174 0.878339C2.01028 1.2757 2.30882 1.67306 2.60736 2.07042C6.38885 7.2361 10.2201 12.4018 14.0016 17.5675C14.0016 17.6171 14.0513 17.6668 14.1011 17.6668C14.1011 13.1965 14.1011 8.77587 14.1011 4.35524C14.0513 4.40491 14.0016 4.40491 14.0016 4.45458C13.2055 5.49765 12.4591 6.49105 11.663 7.53412C11.6133 7.58379 11.5635 7.68313 11.5138 7.7328C11.1655 8.08049 10.6181 8.08049 10.2699 7.78247C9.8718 7.48445 9.77229 6.93808 10.0211 6.54072C10.0708 6.49105 10.0708 6.44138 10.1206 6.39171C11.464 4.60359 12.8074 2.81547 14.1509 1.02735C14.3001 0.828669 14.4992 0.629989 14.7977 0.530649C15.3948 0.381639 15.9421 0.828669 15.9918 1.42471C15.9918 1.47438 15.9918 1.52405 15.9918 1.57372C15.9918 7.88181 15.9918 14.1402 15.9918 20.4483C15.9918 20.5973 15.9918 20.7463 15.9421 20.8954C15.6933 21.5411 14.8474 21.6901 14.3996 21.243C14.3001 21.1437 14.1509 20.9947 14.0513 20.8457C10.0708 15.3323 6.04055 9.86861 2.06004 4.45458C2.01028 4.40491 2.01028 4.35524 1.96052 4.35524Z" fill="#FF5000"/>
</svg>
