<svg width="160" height="160" viewBox="0 0 160 160" fill="none" xmlns="http://www.w3.org/2000/svg">
<circle opacity="0.2" cx="80" cy="80" r="80" fill="#106BFF"/>
<g clip-path="url(#clip0)">
<path opacity="0.2" d="M86.7651 159L18.792 119.801L56.7884 98.166L124.761 137.366L86.7651 159Z" fill="#D6D8E5"/>
<path d="M76.479 124.181C75.4683 125.005 73.9737 124.25 73.8873 124.328C72.8565 125.359 71.2957 126.537 70.1439 127.435C69.5132 127.934 68.5284 128.587 68.7041 129.552C69.0237 131.257 71.7536 130.733 72.7845 130.212C73.8154 129.69 74.6533 128.824 75.6295 128.219C76.3235 127.787 77.0088 127.562 77.1154 126.684C77.2046 126.168 76.6575 124.152 76.479 124.181Z" fill="#38226D"/>
<path d="M77.1269 126.33C76.9916 127.171 76.3178 127.404 75.6267 127.833C74.6361 128.446 73.7636 129.336 72.7471 129.849C71.7939 130.33 69.4211 130.808 68.7531 129.59C69.1159 131.234 71.7968 130.719 72.819 130.203C73.8413 129.688 74.6879 128.815 75.6641 128.21C76.3581 127.778 77.0434 127.554 77.15 126.675C77.1553 126.559 77.1476 126.444 77.1269 126.33Z" fill="black"/>
<path d="M66.2132 118.268C65.2025 119.092 63.4315 118.191 63.3567 118.268C62.3023 119.333 61.188 120.335 60.0192 121.272C59.3886 121.768 58.4066 122.424 58.5794 123.386C58.8962 125.091 61.626 124.567 62.6569 124.046C63.6878 123.524 64.5287 122.658 65.502 122.053C66.1988 121.621 66.8813 121.396 66.9907 120.521C67.0598 119.996 66.3946 118.245 66.2132 118.268Z" fill="#38226D"/>
<path d="M66.9533 120.293C66.8208 121.134 66.1441 121.367 65.4559 121.796C64.4653 122.41 63.5928 123.3 62.5619 123.812C61.6116 124.293 59.2359 124.771 58.5679 123.553C58.9336 125.198 61.6145 124.682 62.6339 124.167C63.6533 123.651 64.5056 122.778 65.4789 122.174C66.1758 121.742 66.8583 121.517 66.9677 120.639C66.9742 120.523 66.9694 120.407 66.9533 120.293Z" fill="black"/>
<path d="M90.0103 91.7407C91.1304 98.7478 88.0176 101.363 83.9631 102.855C81.0604 103.923 76.8965 105.57 76.8965 105.57C76.8965 105.57 76.9541 107.108 76.9858 110.562C77.0146 113.6 76.6143 124.697 76.6143 124.697C76.6143 124.697 74.9384 125.561 73.5159 124.662C73.5159 124.662 71.886 116.16 71.5376 112.327C71.0682 107.129 70.2706 103.724 70.5384 102.607C70.7716 101.622 76.4531 98.8255 78.2557 97.3308L66.3514 101.32C66.5884 102.612 66.7041 103.923 66.697 105.236C66.5875 109.361 66.3601 118.291 66.3601 118.291C66.3601 118.291 64.7273 119.469 63.3336 118.315C63.3336 118.315 60.3388 100.634 60.7016 98.2927C61.0472 96.0722 71.5376 91.5334 73.3863 89.9695C73.7088 89.7073 74.083 89.5159 74.4843 89.4077C74.8857 89.2996 75.3053 89.2771 75.7159 89.3417L90.0103 91.7407Z" fill="black"/>
<path d="M85.4518 66.4917L92.3773 69.8815C92.3773 69.8815 96.138 71.2207 95.0841 77.5768C94.3181 82.1848 93.293 91.4239 93.293 91.4239L80.2714 90.1048L85.4518 66.4917Z" fill="#2B303F"/>
<path d="M85.8665 65.3599C85.8665 65.3599 85.6937 68.6978 85.7686 68.9944C85.8435 69.2911 87.3006 70.2674 87.7239 70.6187C88.1472 70.9701 85.4202 73.6629 84.0898 74.2735C82.7594 74.884 78.5523 73.2741 78.4775 71.2091C78.4026 69.1442 79.1974 67.4047 79.8453 67.3125C80.4932 67.2203 85.8665 65.3599 85.8665 65.3599Z" fill="#FFCEA9"/>
<path d="M73.7462 73.0668L71.3475 77.0642L68.1512 80.6642L70.5499 82.2626L73.7462 79.4633C73.7462 79.4633 78.8057 73.4642 78.4717 73.0668C78.1376 72.6693 73.7462 73.0668 73.7462 73.0668Z" fill="#FFCEA9"/>
<path d="M86.2467 69.5703C86.2467 69.5703 83.8249 73.1761 80.4471 73.5159C79.3817 72.4676 79.2953 68.7293 80.7581 67.5341C80.7581 67.5341 79.4047 66.4426 78.4775 66.6529C77.4817 67.2577 76.7404 68.2048 76.3926 69.3169C75.5322 71.7985 75.1283 74.4154 75.2005 77.041C75.2581 80.5834 75.2005 89.5345 75.2005 89.5345C75.2005 89.5345 75.7044 92.9559 78.7597 94.658C81.1941 96.0329 84.0608 96.4284 86.7765 95.7639C88.487 95.3665 89.1263 94.4074 89.7137 93.1719C89.5611 90.6893 88.5791 85.5802 88.9938 82.4612C89.4085 79.3421 90.065 77.0093 90.2349 74.4865C90.4048 71.9636 89.9038 72.0154 88.6396 71.114C87.8806 70.5418 87.0808 70.0259 86.2467 69.5703Z" fill="#F4F4F4"/>
<path d="M84.7207 155C85.6034 155 86.3191 154.586 86.3191 154.075C86.3191 153.565 85.6034 153.151 84.7207 153.151C83.8379 153.151 83.1223 153.565 83.1223 154.075C83.1223 154.586 83.8379 155 84.7207 155Z" fill="#2B303F"/>
<path d="M86.3219 122.611H83.1223V153.98H86.3219V122.611Z" fill="#2B303F"/>
<path d="M25.8365 119.872C26.7193 119.872 27.4349 119.458 27.4349 118.948C27.4349 118.437 26.7193 118.023 25.8365 118.023C24.9537 118.023 24.2381 118.437 24.2381 118.948C24.2381 119.458 24.9537 119.872 25.8365 119.872Z" fill="#2B303F"/>
<path d="M27.4378 87.4814H24.2381V118.85H27.4378V87.4814Z" fill="#2B303F"/>
<path d="M117.64 136.407C118.523 136.407 119.239 135.993 119.239 135.482C119.239 134.972 118.523 134.558 117.64 134.558C116.758 134.558 116.042 134.972 116.042 135.482C116.042 135.993 116.758 136.407 117.64 136.407Z" fill="#2B303F"/>
<path d="M119.242 106.417H116.042V135.387H119.242V106.417Z" fill="#2B303F"/>
<path d="M121.591 109.752L52.9844 70.1465L20.5226 88.8895L18.7949 87.8902V89.8802L89.1263 130.506L123.319 110.763V108.764L121.591 109.752Z" fill="#D3C4A9"/>
<path d="M89.1321 128.507L18.792 87.8904L52.9844 68.1479L123.325 108.765L89.1321 128.507Z" fill="#EFE3CA"/>
<path d="M82.3563 98.33C82.9495 98.042 83.3815 97.5927 84.2511 97.2413C84.8643 97.0511 85.4219 96.714 85.8752 96.2592C86.4684 95.6832 87.4417 93.4772 88.1357 91.3344C88.9564 88.8029 89.0975 85.3642 88.9535 83.881C88.6655 80.8743 87.5742 76.6637 87.3006 74.9328C87.027 73.202 87.5886 72.5136 88.3891 71.8743C89.3336 71.1255 90.6381 71.4567 91.3378 73.8903C92.236 77.2471 92.7566 80.6937 92.8899 84.1661C92.9191 86.742 92.5231 89.3051 91.7179 91.752C90.9894 94.0272 90.0391 95.6631 88.8239 97.7194C88.4899 98.2781 88.3833 98.7764 87.8765 99.9168C87.3697 101.057 86.5058 102.264 85.6707 102.866C84.8357 103.468 84.421 103.56 84.2309 103.442C83.9804 103.295 84.0322 103.024 84.3864 102.702C84.9895 102.232 85.5026 101.658 85.9011 101.005C85.9011 101.005 85.1582 101.751 84.6744 102.157C84.244 102.52 83.7676 102.824 83.2576 103.062C82.7595 103.281 82.0712 102.86 82.4225 102.526C82.7739 102.192 83.1338 102.028 83.8422 101.414C84.2193 101.092 84.5566 100.725 84.8472 100.323C84.3504 100.702 83.8247 101.042 83.2749 101.34C82.5032 101.734 82.1029 101.74 81.8351 101.728C81.5673 101.717 81.2592 101.351 81.7458 100.994C82.1864 100.674 82.8775 100.458 83.6233 99.7152C84.1647 99.1767 84.4728 98.7188 84.3202 98.7101C84.1676 98.7015 83.871 99.0384 83.2346 99.24C82.5982 99.4416 81.9186 99.2573 81.838 98.9088C81.7574 98.5604 81.7631 98.6237 82.3563 98.33Z" fill="#FFCEA9"/>
<path d="M78.3133 60.3861C78.7107 57.7941 80.5767 55.8299 83.2489 55.9797C84.323 56.0363 85.3522 56.4286 86.1915 57.1013C87.0308 57.774 87.6378 58.6932 87.9269 59.7293C88.216 60.7655 88.1727 61.8662 87.803 62.8764C87.4334 63.8865 86.756 64.7552 85.8665 65.3599C85.773 65.7521 85.6339 66.1319 85.4518 66.4917C84.5073 67.5976 81.6508 68.2802 80.8301 68.1621C79.7761 68.0123 79.2031 67.5717 78.7021 66.4197C77.8151 64.3864 78.0945 61.6562 78.3133 60.3861Z" fill="#FFCEA9"/>
<path d="M85.8665 65.3599L85.6218 63.0991C85.6218 63.0991 87.4676 58.3183 83.105 59.237C80.2254 59.8418 79.5026 60.101 78.6243 58.1714C77.7461 56.2418 80.8387 54.5023 84.5102 54.9833C85.7741 55.1159 86.942 55.7185 87.7826 56.6717C88.6231 57.6249 89.0749 58.8591 89.0485 60.1298C88.9535 61.5525 88.5734 64.4297 85.8665 65.3599Z" fill="#3A2C6D"/>
<path d="M93.3342 78.3345C93.3342 78.3345 90.9525 80.7018 88.1358 80.0192C87.7326 79.7456 86.765 74.2103 86.765 74.2103C86.765 74.2103 86.765 71.1431 89.1179 71.2237C91.4709 71.3044 93.3342 78.3345 93.3342 78.3345Z" fill="#EDEDED"/>
<path d="M55.8499 91.8676L65.3036 86.4244C65.3862 86.3764 65.4801 86.3511 65.5757 86.3511C65.6713 86.3511 65.7652 86.3764 65.8478 86.4244L82.4315 96.0004L72.7128 101.602L55.8499 91.8676Z" fill="#F4F4F4"/>
<path d="M73.1475 99.5944L73.8675 100.009C73.9251 100.044 73.9193 100.104 73.8502 100.142L73.1619 100.536C73.1268 100.555 73.0877 100.564 73.0481 100.564C73.0085 100.564 72.9694 100.555 72.9343 100.536L72.2115 100.121C72.1539 100.087 72.1625 100.029 72.2287 99.9889L72.9171 99.5915C72.9531 99.5742 72.9926 99.5654 73.0326 99.5659C73.0726 99.5664 73.1119 99.5762 73.1475 99.5944Z" fill="#2B303F"/>
<path d="M72.1367 99.0042L72.8596 99.4218C72.9172 99.4564 72.9114 99.514 72.8423 99.5543L72.1367 99.9604C72.1009 99.9781 72.0615 99.9874 72.0215 99.9874C71.9815 99.9874 71.9421 99.9781 71.9063 99.9604L71.1863 99.5428C71.1287 99.5111 71.1345 99.4506 71.2036 99.4103L71.8919 99.0157C71.9285 98.9935 71.9701 98.9808 72.0128 98.9788C72.0556 98.9768 72.0982 98.9855 72.1367 99.0042Z" fill="#2B303F"/>
<path d="M71.0943 98.4081L71.8143 98.8257C71.8748 98.8603 71.8661 98.9179 71.8143 98.9582L71.126 99.3556C71.0902 99.3734 71.0507 99.3826 71.0108 99.3826C70.9708 99.3826 70.9314 99.3734 70.8956 99.3556L70.1756 98.9409C70.1151 98.9064 70.1237 98.8459 70.1929 98.8084L70.8783 98.411C70.912 98.3952 70.9487 98.3868 70.986 98.3863C71.0232 98.3858 71.0602 98.3932 71.0943 98.4081Z" fill="#2B303F"/>
<path d="M70.0864 97.8261L70.8064 98.2437C70.8669 98.2782 70.8583 98.3358 70.7892 98.3762L70.1037 98.7736C70.0679 98.7912 70.0284 98.8003 69.9885 98.8003C69.9486 98.8003 69.9092 98.7912 69.8733 98.7736L69.1533 98.356C69.0928 98.3243 69.1015 98.2638 69.1677 98.2235L69.856 97.829C69.8915 97.8103 69.9308 97.8003 69.9709 97.7998C70.0109 97.7993 70.0505 97.8083 70.0864 97.8261Z" fill="#2B303F"/>
<path d="M69.0671 97.2385L69.7871 97.6532C69.8447 97.6878 69.8389 97.7483 69.7698 97.7857L69.0815 98.1831C69.0464 98.2016 69.0074 98.2112 68.9677 98.2112C68.9281 98.2112 68.8891 98.2016 68.854 98.1831L68.1311 97.7684C68.0735 97.7339 68.0821 97.6734 68.1484 97.6359L68.8367 97.2385C68.8723 97.2201 68.9118 97.2104 68.9519 97.2104C68.992 97.2104 69.0315 97.2201 69.0671 97.2385Z" fill="#2B303F"/>
<path d="M68.0448 96.6483L68.7677 97.0803C68.8253 97.1119 68.8166 97.1724 68.7504 97.2127L68.0621 97.6102C68.0263 97.6279 67.9868 97.6372 67.9469 97.6372C67.9069 97.6372 67.8675 97.6279 67.8317 97.6102L67.1117 97.1926C67.0541 97.1609 67.0598 97.1004 67.1289 97.0601L67.8173 96.6627C67.8514 96.6427 67.8898 96.6309 67.9293 96.6284C67.9688 96.6259 68.0084 96.6327 68.0448 96.6483Z" fill="#2B303F"/>
<path d="M67.0254 96.0608L67.7454 96.4755C67.8059 96.51 67.7973 96.5676 67.731 96.608L67.0427 97.0054C67.0071 97.0238 66.9676 97.0334 66.9275 97.0334C66.8874 97.0334 66.8479 97.0238 66.8123 97.0054L66.0923 96.5907C66.0318 96.5561 66.0405 96.4956 66.1096 96.4582L66.795 96.0608C66.8306 96.0423 66.8702 96.0327 66.9102 96.0327C66.9503 96.0327 66.9898 96.0423 67.0254 96.0608Z" fill="#2B303F"/>
<path d="M66.0061 95.4704L66.7261 95.888C66.7837 95.9196 66.7779 95.9801 66.7088 96.0204L66.0233 96.415C65.9877 96.4332 65.9482 96.4427 65.9081 96.4427C65.8681 96.4427 65.8286 96.4332 65.7929 96.415L65.0729 95.9974C65.0125 95.9628 65.0211 95.9052 65.0873 95.8649L65.7757 95.4675C65.8117 95.4502 65.8512 95.4414 65.8912 95.4419C65.9312 95.4424 65.9705 95.4522 66.0061 95.4704Z" fill="#2B303F"/>
<path d="M64.9866 94.883L65.7066 95.2978C65.7642 95.3323 65.7585 95.3899 65.6894 95.4302L65.001 95.8277C64.9659 95.8461 64.9269 95.8557 64.8873 95.8557C64.8476 95.8557 64.8086 95.8461 64.7735 95.8277L64.0506 95.413C63.993 95.3784 64.0017 95.3179 64.0679 95.2805L64.7562 94.883C64.7918 94.8646 64.8313 94.855 64.8714 94.855C64.9115 94.855 64.951 94.8646 64.9866 94.883Z" fill="#2B303F"/>
<path d="M63.9644 94.2926L64.6873 94.7102C64.7449 94.7419 64.7362 94.8023 64.67 94.8398L63.9817 95.2372C63.9458 95.2548 63.9064 95.2639 63.8665 95.2639C63.8265 95.2639 63.7871 95.2548 63.7513 95.2372L63.0313 94.8196C62.9737 94.7851 62.9794 94.7275 63.0486 94.6871L63.7369 94.2897C63.7724 94.2724 63.8115 94.2637 63.851 94.2642C63.8905 94.2647 63.9293 94.2744 63.9644 94.2926Z" fill="#2B303F"/>
<path d="M62.945 93.702L63.665 94.1196C63.7255 94.1542 63.7168 94.2118 63.6506 94.2521L62.9623 94.6495C62.9265 94.6673 62.8871 94.6765 62.8471 94.6765C62.8071 94.6765 62.7677 94.6673 62.7319 94.6495L62.0119 94.2348C61.9514 94.2002 61.96 94.1398 62.0292 94.1023L62.7146 93.7049C62.7502 93.6869 62.7895 93.6773 62.8295 93.6768C62.8694 93.6763 62.9089 93.6849 62.945 93.702Z" fill="#2B303F"/>
<path d="M61.9256 93.1147L62.6456 93.5294C62.7032 93.564 62.6975 93.6245 62.6283 93.6619L61.94 94.0594C61.9046 94.0769 61.8657 94.086 61.8263 94.086C61.7868 94.086 61.7479 94.0769 61.7125 94.0594L60.9925 93.6417C60.932 93.6072 60.9407 93.5496 60.9925 93.5093L61.6808 93.1118C61.7187 93.0921 61.7609 93.082 61.8036 93.0825C61.8463 93.083 61.8882 93.0941 61.9256 93.1147Z" fill="#2B303F"/>
<path d="M60.9071 92.5242L61.63 92.9418C61.6876 92.9764 61.6819 93.034 61.6127 93.0743L60.9244 93.4718C60.8891 93.4895 60.8502 93.4987 60.8107 93.4987C60.7712 93.4987 60.7322 93.4895 60.6969 93.4718L59.974 93.057C59.9164 93.0225 59.9222 92.962 59.9913 92.9246L60.6796 92.5271C60.7148 92.5092 60.7536 92.4995 60.7931 92.499C60.8325 92.4985 60.8716 92.5072 60.9071 92.5242Z" fill="#2B303F"/>
<path d="M59.3951 91.6517L60.6047 92.3516C60.6652 92.3861 60.6566 92.4466 60.6047 92.4841L59.9164 92.8815C59.8806 92.899 59.8412 92.9082 59.8012 92.9082C59.7613 92.9082 59.7219 92.899 59.686 92.8815L58.4591 92.1845C58.4015 92.15 58.4102 92.0895 58.4764 92.052L59.1647 91.6546C59.2004 91.6366 59.2397 91.627 59.2796 91.6265C59.3195 91.626 59.3591 91.6346 59.3951 91.6517Z" fill="#2B303F"/>
<path d="M72.6234 98.1486L73.3434 98.5662C73.401 98.5979 73.3952 98.6584 73.3261 98.6987L72.6378 99.0961C72.6025 99.1138 72.5635 99.1231 72.524 99.1231C72.4845 99.1231 72.4455 99.1138 72.4102 99.0961L71.6874 98.6785C71.6298 98.6468 71.6384 98.5864 71.7046 98.546L72.393 98.1486C72.4288 98.1308 72.4682 98.1216 72.5082 98.1216C72.5481 98.1216 72.5876 98.1308 72.6234 98.1486Z" fill="#2B303F"/>
<path d="M71.6011 97.5584L72.3211 97.976C72.3787 98.0106 72.3729 98.0682 72.3038 98.1085L71.6155 98.5203C71.5802 98.5381 71.5412 98.5473 71.5017 98.5473C71.4622 98.5473 71.4233 98.5381 71.388 98.5203L70.6651 98.1027C70.6075 98.071 70.6161 98.0106 70.6824 97.9703L71.3707 97.5757C71.4052 97.5554 71.4439 97.5433 71.4839 97.5403C71.5238 97.5373 71.5639 97.5435 71.6011 97.5584Z" fill="#2B303F"/>
<path d="M70.5789 96.9681L71.2989 97.3857C71.3565 97.4203 71.3507 97.4779 71.2816 97.5182L70.5961 97.9157C70.5603 97.9332 70.5209 97.9423 70.4809 97.9423C70.441 97.9423 70.4016 97.9332 70.3658 97.9157L69.6458 97.5009C69.5853 97.4664 69.5939 97.4059 69.6602 97.3685L70.3485 96.971C70.3841 96.953 70.4234 96.9434 70.4633 96.9429C70.5033 96.9424 70.5428 96.951 70.5789 96.9681Z" fill="#2B303F"/>
<path d="M69.5451 96.3806L70.2651 96.7953C70.3255 96.8298 70.3169 96.8874 70.2478 96.9278L69.5623 97.3252C69.5265 97.3428 69.4871 97.3519 69.4471 97.3519C69.4072 97.3519 69.3678 97.3428 69.3319 97.3252L68.6119 96.9105C68.5515 96.8759 68.5601 96.8154 68.6119 96.778L69.3003 96.3806C69.3377 96.3596 69.3798 96.3486 69.4227 96.3486C69.4655 96.3486 69.5077 96.3596 69.5451 96.3806Z" fill="#2B303F"/>
<path d="M68.5429 95.7931L69.2572 96.2165C69.3177 96.2511 69.309 96.3087 69.2399 96.349L68.5545 96.7464C68.5186 96.764 68.4792 96.7731 68.4393 96.7731C68.3993 96.7731 68.3599 96.764 68.3241 96.7464L67.6041 96.3288C67.5436 96.2971 67.5522 96.2367 67.6185 96.1963L68.3068 95.8018C68.3425 95.7813 68.3826 95.7697 68.4238 95.7682C68.4649 95.7667 68.5058 95.7753 68.5429 95.7931Z" fill="#2B303F"/>
<path d="M67.5294 95.2025L68.2494 95.6201C68.3098 95.6547 68.3012 95.7123 68.235 95.7526L67.5294 96.1501C67.4935 96.1676 67.4541 96.1767 67.4142 96.1767C67.3742 96.1767 67.3348 96.1676 67.299 96.1501L66.579 95.7353C66.5185 95.7008 66.5271 95.6403 66.5962 95.6029L67.2817 95.2054C67.3195 95.1846 67.3619 95.1734 67.4052 95.1729C67.4484 95.1724 67.491 95.1826 67.5294 95.2025Z" fill="#2B303F"/>
<path d="M66.4985 94.6148L67.2185 95.0295C67.2789 95.0641 67.2703 95.1217 67.2185 95.162L66.5301 95.5594C66.4943 95.5772 66.4549 95.5864 66.4149 95.5864C66.375 95.5864 66.3355 95.5772 66.2997 95.5594L65.5797 95.1447C65.5221 95.1102 65.5279 95.0497 65.597 95.0122L66.2825 94.6148C66.3162 94.5987 66.3531 94.5903 66.3905 94.5903C66.4278 94.5903 66.4647 94.5987 66.4985 94.6148Z" fill="#2B303F"/>
<path d="M65.4762 94.0246L66.1991 94.4393C66.2567 94.4739 66.248 94.5315 66.1818 94.5718L65.4935 94.9693C65.4579 94.9877 65.4183 94.9973 65.3783 94.9973C65.3382 94.9973 65.2987 94.9877 65.2631 94.9693L64.5431 94.5546C64.4855 94.52 64.4912 94.4595 64.5603 94.4221L65.2487 94.0246C65.2837 94.0062 65.3228 93.9966 65.3624 93.9966C65.402 93.9966 65.4411 94.0062 65.4762 94.0246Z" fill="#2B303F"/>
<path d="M64.4539 93.4343L65.1768 93.849C65.2344 93.8836 65.2257 93.9441 65.1595 93.9815L64.4712 94.3789C64.4356 94.3974 64.3961 94.407 64.356 94.407C64.3159 94.407 64.2764 94.3974 64.2408 94.3789L63.5208 93.9642C63.4632 93.9297 63.4689 93.8721 63.5381 93.8317L64.2264 93.4343C64.2615 93.4159 64.3005 93.4062 64.3401 93.4062C64.3798 93.4062 64.4188 93.4159 64.4539 93.4343Z" fill="#2B303F"/>
<path d="M63.4346 92.8439L64.1546 93.2586C64.2122 93.2932 64.2064 93.3537 64.1373 93.3911L63.449 93.7886C63.4139 93.807 63.3748 93.8166 63.3352 93.8166C63.2956 93.8166 63.2565 93.807 63.2214 93.7886L62.4986 93.3738C62.441 93.3393 62.4467 93.2817 62.5158 93.2413L63.2042 92.8439C63.24 92.8261 63.2794 92.8169 63.3194 92.8169C63.3593 92.8169 63.3988 92.8261 63.4346 92.8439Z" fill="#2B303F"/>
<path d="M62.4123 92.2534L63.1323 92.6681C63.1899 92.7027 63.1841 92.7632 63.115 92.8006L62.4267 93.1981C62.3913 93.2156 62.3524 93.2247 62.3129 93.2247C62.2734 93.2247 62.2345 93.2156 62.1992 93.1981L61.482 92.792C61.4244 92.7574 61.4331 92.6998 61.4993 92.6595L62.1876 92.2621C62.222 92.2438 62.2601 92.2336 62.299 92.2321C62.3379 92.2306 62.3766 92.2379 62.4123 92.2534Z" fill="#2B303F"/>
<path d="M61.391 91.6627L62.111 92.0803C62.1686 92.112 62.1628 92.1725 62.0937 92.2128L61.4054 92.6074C61.3702 92.6256 61.3312 92.635 61.2916 92.635C61.2521 92.635 61.213 92.6256 61.1779 92.6074L60.4579 92.1898C60.3974 92.1552 60.406 92.0976 60.4723 92.0573L61.1606 91.6599C61.1966 91.6425 61.2362 91.6338 61.2761 91.6343C61.3161 91.6348 61.3554 91.6445 61.391 91.6627Z" fill="#2B303F"/>
<path d="M73.6427 98.7389L74.8552 99.4388C74.9157 99.4733 74.9071 99.5309 74.8408 99.5713L74.1525 99.9601C74.1169 99.9785 74.0774 99.9881 74.0373 99.9881C73.9972 99.9881 73.9577 99.9785 73.9221 99.9601L72.7125 99.2775C72.6549 99.2429 72.6607 99.1853 72.7298 99.145L73.4181 98.7476C73.4523 98.729 73.4904 98.7185 73.5294 98.717C73.5684 98.7155 73.6071 98.723 73.6427 98.7389Z" fill="#2B303F"/>
<path d="M59.4441 91.6082L60.1641 92.0258C60.1973 92.0421 60.2337 92.0506 60.2707 92.0506C60.3076 92.0506 60.3441 92.0421 60.3772 92.0258L61.1059 91.6054C61.1184 91.6006 61.1292 91.5921 61.1369 91.581C61.1445 91.57 61.1486 91.5569 61.1486 91.5434C61.1486 91.53 61.1445 91.5169 61.1369 91.5058C61.1292 91.4948 61.1184 91.4863 61.1059 91.4815L61.0483 91.447C60.9936 91.4182 60.9936 91.3663 61.0483 91.3346L61.8172 90.8911C61.8777 90.8566 61.8777 90.8018 61.8172 90.7673L61.3593 90.5023C61.3263 90.4854 61.2898 90.4766 61.2528 90.4766C61.2157 90.4766 61.1792 90.4854 61.1462 90.5023L60.4262 90.917L60.2793 91.0034L60.1699 91.0668L60.0633 91.1273L59.4441 91.4844C59.3836 91.5247 59.3836 91.5794 59.4441 91.6082Z" fill="#2B303F"/>
<path d="M77.0983 97.3076L77.8183 97.7252C77.8759 97.7569 77.8701 97.8173 77.801 97.8577L77.1127 98.2522C77.0773 98.2697 77.0384 98.2788 76.9989 98.2788C76.9595 98.2788 76.9205 98.2697 76.8852 98.2522L76.1652 97.8346C76.1047 97.8001 76.1133 97.7425 76.1652 97.7021L76.8535 97.3047C76.8914 97.285 76.9335 97.2749 76.9762 97.2754C77.019 97.2759 77.0609 97.287 77.0983 97.3076Z" fill="#2B303F"/>
<path d="M76.0789 96.7201L76.8018 97.1377C76.8594 97.1694 76.8536 97.2299 76.7845 97.2702L76.0962 97.6561C76.061 97.6743 76.022 97.6838 75.9824 97.6838C75.9428 97.6838 75.9038 97.6743 75.8687 97.6561L75.1458 97.2385C75.0882 97.2039 75.0939 97.1464 75.1631 97.106L75.8514 96.7086C75.8876 96.6926 75.927 96.6853 75.9665 96.6873C76.006 96.6893 76.0445 96.7006 76.0789 96.7201Z" fill="#2B303F"/>
<path d="M75.0624 96.1329L75.7824 96.5505C75.8428 96.5822 75.8342 96.6427 75.7824 96.683L75.0796 97.0805C75.044 97.0987 75.0045 97.1082 74.9644 97.1082C74.9244 97.1082 74.8849 97.0987 74.8492 97.0805L74.1292 96.6628C74.0716 96.6312 74.0774 96.5707 74.1465 96.5304L74.8348 96.1329C74.8701 96.1152 74.9091 96.106 74.9486 96.106C74.9881 96.106 75.0271 96.1152 75.0624 96.1329Z" fill="#2B303F"/>
<path d="M66.4005 91.1302L67.1205 91.5478C67.181 91.5824 67.1724 91.64 67.1033 91.6803L66.4178 92.0777C66.382 92.0953 66.3425 92.1044 66.3026 92.1044C66.2627 92.1044 66.2233 92.0953 66.1874 92.0777L65.4674 91.6601C65.4069 91.6284 65.4156 91.568 65.4674 91.5276L66.1557 91.1331C66.193 91.112 66.235 91.1006 66.2778 91.1001C66.3206 91.0996 66.3628 91.11 66.4005 91.1302Z" fill="#2B303F"/>
<path d="M65.384 90.5428L66.104 90.9604C66.1616 90.995 66.1559 91.0526 66.0868 91.0929L65.3984 91.4904C65.3631 91.5081 65.3242 91.5173 65.2847 91.5173C65.2452 91.5173 65.2062 91.5081 65.1709 91.4904L64.448 91.0728C64.3904 91.0411 64.3991 90.9806 64.4653 90.9403L65.1536 90.5457C65.1893 90.5277 65.2286 90.5181 65.2685 90.5176C65.3084 90.5171 65.348 90.5257 65.384 90.5428Z" fill="#2B303F"/>
<path d="M64.3618 89.9554L65.0847 90.373C65.1423 90.4075 65.1336 90.4652 65.0674 90.5055L64.3791 90.9029C64.3433 90.9207 64.3038 90.9299 64.2639 90.9299C64.2239 90.9299 64.1845 90.9207 64.1487 90.9029L63.4287 90.4882C63.3711 90.4536 63.3768 90.3931 63.446 90.3557L64.1343 89.9583C64.1694 89.9403 64.2082 89.9307 64.2477 89.9302C64.2872 89.9297 64.3262 89.9383 64.3618 89.9554Z" fill="#2B303F"/>
<path d="M63.3481 89.3676L64.0681 89.7852C64.1286 89.8197 64.12 89.8773 64.0681 89.9177L63.3798 90.3151C63.344 90.3329 63.3046 90.3421 63.2646 90.3421C63.2247 90.3421 63.1852 90.3329 63.1494 90.3151L62.4294 89.9004C62.3689 89.8658 62.3776 89.8053 62.4467 89.7679L63.1321 89.3705C63.1659 89.3547 63.2026 89.3462 63.2398 89.3457C63.2771 89.3452 63.314 89.3527 63.3481 89.3676Z" fill="#2B303F"/>
<path d="M73.7839 95.3953L74.766 95.9713C74.8264 96.003 74.8178 96.0634 74.7487 96.1038L74.0632 96.5041C74.0274 96.5216 73.988 96.5308 73.948 96.5308C73.9081 96.5308 73.8687 96.5216 73.8328 96.5041L72.8507 95.9281C72.7903 95.8935 72.7989 95.833 72.868 95.7956L73.5535 95.3982C73.5888 95.3793 73.6282 95.3692 73.6683 95.3687C73.7084 95.3682 73.748 95.3773 73.7839 95.3953Z" fill="#2B303F"/>
<path d="M67.417 91.7177L68.3991 92.2937C68.4596 92.3282 68.451 92.3887 68.3847 92.4262L67.6964 92.8236C67.6608 92.842 67.6213 92.8517 67.5812 92.8517C67.5411 92.8517 67.5016 92.842 67.466 92.8236L66.4839 92.2476C66.4263 92.2159 66.4321 92.1554 66.5012 92.1151L67.1866 91.7206C67.2221 91.7019 67.2614 91.6919 67.3015 91.6914C67.3415 91.6909 67.3811 91.6999 67.417 91.7177Z" fill="#2B303F"/>
<path d="M68.6956 92.4724L73.4879 95.2372C73.5455 95.2717 73.5398 95.3322 73.4706 95.3697L72.7823 95.7671C72.7472 95.7855 72.7082 95.7951 72.6686 95.7951C72.6289 95.7951 72.5899 95.7855 72.5548 95.7671L67.7625 93.0023C67.7049 92.9677 67.7106 92.9073 67.7798 92.8698L68.4681 92.4724C68.5032 92.454 68.5422 92.4443 68.5818 92.4443C68.6215 92.4443 68.6605 92.454 68.6956 92.4724Z" fill="#2B303F"/>
<path d="M73.3346 97.4173L74.0546 97.8349C74.1122 97.8695 74.1065 97.9271 74.0374 97.9674L73.349 98.3648C73.3137 98.3826 73.2748 98.3918 73.2353 98.3918C73.1958 98.3918 73.1568 98.3826 73.1215 98.3648L72.3986 97.9443C72.341 97.9127 72.3468 97.8522 72.4159 97.8119L73.1042 97.4173C73.1401 97.3998 73.1795 97.3906 73.2194 97.3906C73.2594 97.3906 73.2988 97.3998 73.3346 97.4173Z" fill="#2B303F"/>
<path d="M72.3153 96.8295L73.0353 97.2443C73.0929 97.2788 73.0871 97.3393 73.018 97.3767L72.3297 97.7742C72.2943 97.7917 72.2554 97.8008 72.2159 97.8008C72.1764 97.8008 72.1375 97.7917 72.1021 97.7742L71.3793 97.3681C71.3217 97.3335 71.3303 97.2759 71.3965 97.2356L72.0849 96.8382C72.12 96.8191 72.1591 96.8083 72.199 96.8068C72.239 96.8053 72.2788 96.8131 72.3153 96.8295Z" fill="#2B303F"/>
<path d="M71.2959 96.2424L72.0159 96.6571C72.0735 96.6917 72.0677 96.7521 71.9986 96.7896L71.3131 97.187C71.2775 97.2055 71.238 97.2151 71.1979 97.2151C71.1578 97.2151 71.1183 97.2055 71.0827 97.187L70.3627 96.7723C70.3023 96.7377 70.3109 96.6773 70.3627 96.6398L71.0511 96.2424C71.0885 96.2214 71.1306 96.2104 71.1735 96.2104C71.2163 96.2104 71.2585 96.2214 71.2959 96.2424Z" fill="#2B303F"/>
<path d="M70.2764 95.6402L70.9965 96.0579C71.0569 96.0924 71.0483 96.15 70.9792 96.1903L70.2937 96.5878C70.2579 96.6053 70.2185 96.6144 70.1785 96.6144C70.1386 96.6144 70.0992 96.6053 70.0633 96.5878L69.3433 96.1731C69.2828 96.1385 69.2915 96.078 69.3433 96.0406L70.0317 95.6431C70.0691 95.6228 70.111 95.6118 70.1537 95.6113C70.1964 95.6108 70.2385 95.6208 70.2764 95.6402Z" fill="#2B303F"/>
<path d="M69.2571 95.0643L69.9771 95.4819C70.0376 95.5136 70.029 95.574 69.9627 95.6144L69.2744 96.0089C69.2387 96.0271 69.1993 96.0366 69.1592 96.0366C69.1192 96.0366 69.0797 96.0271 69.044 96.0089L68.324 95.5913C68.2635 95.5567 68.2722 95.4992 68.3413 95.4588L69.0267 95.0643C69.0626 95.0467 69.102 95.0376 69.1419 95.0376C69.1819 95.0376 69.2213 95.0467 69.2571 95.0643Z" fill="#2B303F"/>
<path d="M68.2377 94.4885L68.9577 94.9032C69.0182 94.9378 69.0096 94.9982 68.9433 95.0357L68.255 95.4331C68.2194 95.4516 68.1799 95.4612 68.1398 95.4612C68.0997 95.4612 68.0602 95.4516 68.0246 95.4331L67.3046 95.0184C67.247 94.9838 67.2528 94.9262 67.3219 94.8859L68.0102 94.4885C68.0453 94.4701 68.0843 94.4604 68.124 94.4604C68.1636 94.4604 68.2026 94.4701 68.2377 94.4885Z" fill="#2B303F"/>
<path d="M67.2183 93.8861L67.9412 94.3037C67.9988 94.3383 67.9902 94.3959 67.9239 94.4362L67.2414 94.8336C67.2056 94.8514 67.1662 94.8606 67.1262 94.8606C67.0862 94.8606 67.0468 94.8514 67.011 94.8336L66.291 94.4189C66.2334 94.3844 66.2391 94.3239 66.3083 94.2864L66.9966 93.889C67.031 93.8719 67.0688 93.8628 67.1071 93.8623C67.1455 93.8618 67.1835 93.87 67.2183 93.8861Z" fill="#2B303F"/>
<path d="M66.199 93.2989L66.9218 93.7165C66.9794 93.7482 66.9737 93.8087 66.9046 93.849L66.2162 94.2436C66.1811 94.2617 66.1421 94.2712 66.1025 94.2712C66.0629 94.2712 66.0239 94.2617 65.9887 94.2436L65.2658 93.826C65.2082 93.7943 65.214 93.7338 65.2831 93.6935L65.9714 93.2961C66.007 93.2788 66.046 93.27 66.0855 93.2705C66.125 93.271 66.1639 93.2808 66.199 93.2989Z" fill="#2B303F"/>
<path d="M65.1825 92.7116L65.9025 93.1263C65.9601 93.1608 65.9543 93.2213 65.8852 93.2588L65.1969 93.6562C65.1618 93.6746 65.1228 93.6842 65.0831 93.6842C65.0435 93.6842 65.0045 93.6746 64.9694 93.6562L64.2465 93.2415C64.1889 93.2069 64.1975 93.1493 64.2638 93.109L64.9521 92.7116C64.9879 92.6938 65.0273 92.6846 65.0673 92.6846C65.1073 92.6846 65.1467 92.6938 65.1825 92.7116Z" fill="#2B303F"/>
<path d="M64.1631 92.1238L64.8831 92.5385C64.9407 92.573 64.9349 92.6306 64.8658 92.671L64.1775 93.0684C64.1422 93.0861 64.1032 93.0954 64.0637 93.0954C64.0242 93.0954 63.9853 93.0861 63.95 93.0684L63.23 92.6537C63.1695 92.6191 63.1781 92.5586 63.2444 92.5212L63.9327 92.1238C63.9683 92.1053 64.0078 92.0957 64.0479 92.0957C64.088 92.0957 64.1275 92.1053 64.1631 92.1238Z" fill="#2B303F"/>
<path d="M63.1437 91.5336L63.8637 91.9512C63.9242 91.9858 63.9155 92.0434 63.8464 92.0837L63.161 92.4725C63.1251 92.49 63.0857 92.4991 63.0458 92.4991C63.0058 92.4991 62.9664 92.49 62.9306 92.4725L62.2106 92.0549C62.1501 92.0232 62.1587 91.9627 62.225 91.9224L62.9133 91.5278C62.9494 91.5105 62.9891 91.502 63.0292 91.503C63.0692 91.504 63.1085 91.5145 63.1437 91.5336Z" fill="#2B303F"/>
<path d="M62.1243 90.9457L62.8443 91.3604C62.9048 91.3949 62.8962 91.4554 62.827 91.4929L62.1416 91.8961C62.1057 91.9136 62.0663 91.9227 62.0264 91.9227C61.9865 91.9227 61.9471 91.9136 61.9112 91.8961L61.1912 91.4785C61.1307 91.4439 61.1394 91.3863 61.2085 91.346L61.8939 90.9485C61.9296 90.9305 61.9689 90.9209 62.0088 90.9204C62.0487 90.9199 62.0882 90.9286 62.1243 90.9457Z" fill="#2B303F"/>
<path d="M74.3511 98.0077L75.843 98.8717C75.9006 98.9062 75.8948 98.9667 75.8257 99.0042L75.1374 99.3843C75.102 99.4018 75.0631 99.411 75.0236 99.411C74.9841 99.411 74.9452 99.4018 74.9098 99.3843L73.418 98.5203C73.3604 98.4858 73.3662 98.4253 73.4353 98.3879L74.1236 97.9904C74.1601 97.9746 74.1999 97.9679 74.2395 97.9709C74.2791 97.9739 74.3175 97.9866 74.3511 98.0077Z" fill="#2B303F"/>
<path d="M74.8292 97.1381L75.5492 97.5556C75.6068 97.5902 75.601 97.6478 75.5319 97.6881L74.8436 98.0856C74.8083 98.1033 74.7693 98.1125 74.7298 98.1125C74.6903 98.1125 74.6513 98.1033 74.616 98.0856L73.8932 97.6708C73.8356 97.6363 73.8442 97.5758 73.9104 97.5384L74.5988 97.1409C74.6344 97.1229 74.6737 97.1133 74.7136 97.1128C74.7536 97.1123 74.7931 97.121 74.8292 97.1381Z" fill="#2B303F"/>
<path d="M73.8098 96.5504L74.5298 96.968C74.5874 96.9996 74.5816 97.0601 74.5125 97.1005L73.8242 97.4979C73.7889 97.5156 73.7499 97.5249 73.7104 97.5249C73.6709 97.5249 73.632 97.5156 73.5967 97.4979L72.8767 97.0803C72.8162 97.0486 72.8248 96.9881 72.891 96.9478L73.5765 96.5619C73.6116 96.5414 73.6511 96.5297 73.6917 96.5277C73.7323 96.5256 73.7728 96.5334 73.8098 96.5504Z" fill="#2B303F"/>
<path d="M72.7904 95.9629L73.5104 96.3776C73.5709 96.4122 73.5622 96.4726 73.4931 96.5101L72.8077 96.9075C72.7718 96.9251 72.7324 96.9342 72.6925 96.9342C72.6525 96.9342 72.6131 96.9251 72.5773 96.9075L71.8486 96.5043C71.7882 96.4698 71.7968 96.4122 71.863 96.3718L72.5514 95.9744C72.5874 95.9536 72.6279 95.9418 72.6695 95.9398C72.7111 95.9378 72.7525 95.9457 72.7904 95.9629Z" fill="#2B303F"/>
<path d="M71.771 95.3755L72.491 95.7903C72.5515 95.8248 72.5428 95.8853 72.491 95.9227L71.8027 96.3202C71.7671 96.3386 71.7276 96.3482 71.6875 96.3482C71.6474 96.3482 71.6079 96.3386 71.5723 96.3202L70.8523 95.9055C70.7947 95.8709 70.8004 95.8104 70.8695 95.773L71.555 95.3755C71.5887 95.3594 71.6256 95.3511 71.663 95.3511C71.7004 95.3511 71.7373 95.3594 71.771 95.3755Z" fill="#2B303F"/>
<path d="M70.7516 94.7762L71.4745 95.1938C71.5321 95.2284 71.5235 95.286 71.4572 95.3263L70.7689 95.7237C70.7331 95.7415 70.6937 95.7507 70.6537 95.7507C70.6137 95.7507 70.5743 95.7415 70.5385 95.7237L69.8185 95.309C69.7609 95.2744 69.7667 95.214 69.8358 95.1765L70.5241 94.7791C70.5593 94.7611 70.5981 94.7515 70.6375 94.751C70.677 94.7505 70.716 94.7591 70.7516 94.7762Z" fill="#2B303F"/>
<path d="M69.7351 94.2003L70.4551 94.618C70.5127 94.6496 70.5069 94.7101 70.4378 94.7504L69.7495 95.145C69.7143 95.1632 69.6753 95.1727 69.6357 95.1727C69.5962 95.1727 69.5571 95.1632 69.522 95.145L68.7991 94.7274C68.7415 94.6928 68.7473 94.6352 68.8164 94.5949L69.5047 94.1975C69.5407 94.1801 69.5803 94.1714 69.6202 94.1719C69.6602 94.1724 69.6995 94.1821 69.7351 94.2003Z" fill="#2B303F"/>
<path d="M68.7158 93.6242L69.4358 94.0389C69.4934 94.0735 69.4876 94.1339 69.4185 94.1714L68.7302 94.5688C68.6951 94.5872 68.656 94.5969 68.6164 94.5969C68.5768 94.5969 68.5377 94.5872 68.5027 94.5688L67.7827 94.1541C67.7222 94.1195 67.7308 94.0619 67.7971 94.0216L68.4854 93.6242C68.5212 93.6064 68.5606 93.5972 68.6006 93.5972C68.6405 93.5972 68.68 93.6064 68.7158 93.6242Z" fill="#2B303F"/>
<path d="M67.6964 93.0222L68.4164 93.4369C68.4769 93.4714 68.4682 93.529 68.3991 93.5694L67.7137 93.9668C67.678 93.9852 67.6385 93.9948 67.5985 93.9948C67.5584 93.9948 67.5189 93.9852 67.4833 93.9668L66.7633 93.5521C66.7028 93.5175 66.7114 93.457 66.7633 93.4196L67.4516 93.0222C67.489 93.0012 67.5311 92.9902 67.574 92.9902C67.6168 92.9902 67.659 93.0012 67.6964 93.0222Z" fill="#2B303F"/>
<path d="M66.6655 92.432L67.3855 92.8496C67.4459 92.8842 67.4373 92.9418 67.3855 92.9821L66.6971 93.3795C66.6613 93.3973 66.6219 93.4066 66.5819 93.4066C66.542 93.4066 66.5025 93.3973 66.4667 93.3795L65.7467 92.962C65.6863 92.9303 65.6949 92.8698 65.764 92.8295L66.4495 92.4349C66.4832 92.4191 66.5199 92.4107 66.5572 92.4102C66.5944 92.4097 66.6313 92.4171 66.6655 92.432Z" fill="#2B303F"/>
<path d="M65.6576 91.8443L66.3805 92.2619C66.4381 92.2936 66.4295 92.3541 66.3632 92.3916L65.6749 92.789C65.639 92.8066 65.5996 92.8157 65.5597 92.8157C65.5198 92.8157 65.4804 92.8066 65.4445 92.789L64.7245 92.3714C64.6669 92.3368 64.6727 92.2792 64.7418 92.2389L65.4301 91.8415C65.4656 91.8242 65.5047 91.8154 65.5442 91.8159C65.5837 91.8164 65.6226 91.8262 65.6576 91.8443Z" fill="#2B303F"/>
<path d="M64.6497 91.2569L65.3726 91.6716C65.4302 91.7062 65.4244 91.7667 65.3553 91.8041L64.6497 92.2016C64.6146 92.22 64.5756 92.2296 64.5359 92.2296C64.4963 92.2296 64.4573 92.22 64.4222 92.2016L63.6993 91.7868C63.6417 91.7523 63.6475 91.6947 63.7166 91.6544L64.4049 91.2569C64.4421 91.2354 64.4843 91.2241 64.5273 91.2241C64.5703 91.2241 64.6125 91.2354 64.6497 91.2569Z" fill="#2B303F"/>
<path d="M62.3604 89.9406L64.3419 91.0926C64.3995 91.1272 64.3937 91.1848 64.3246 91.2251L63.6363 91.6081C63.601 91.6259 63.562 91.6351 63.5225 91.6351C63.483 91.6351 63.444 91.6259 63.4087 91.6081L61.4273 90.4561C61.3668 90.4216 61.3755 90.3611 61.4417 90.3236L62.13 89.9262C62.1668 89.9099 62.2069 89.9028 62.247 89.9053C62.2871 89.9078 62.326 89.9199 62.3604 89.9406Z" fill="#2B303F"/>
<path d="M75.8456 97.7282L76.8306 98.3042C76.8882 98.3388 76.8795 98.3964 76.8133 98.4367L76.125 98.8342C76.0892 98.8519 76.0498 98.8612 76.0098 98.8612C75.9698 98.8612 75.9304 98.8519 75.8946 98.8342L74.9125 98.2582C74.8549 98.2236 74.8607 98.166 74.9298 98.1257L75.6181 97.7282C75.6532 97.7098 75.6922 97.7002 75.7319 97.7002C75.7715 97.7002 75.8105 97.7098 75.8456 97.7282Z" fill="#2B303F"/>
<path d="M58.3698 92.2449L72.8398 100.597C72.8974 100.631 72.8916 100.689 72.8225 100.729L72.4798 100.928C72.444 100.946 72.4046 100.955 72.3646 100.955C72.3247 100.955 72.2853 100.946 72.2495 100.928L57.7795 92.576C57.7219 92.5415 57.7305 92.481 57.7967 92.4436L58.1394 92.2449C58.175 92.2264 58.2145 92.2168 58.2546 92.2168C58.2947 92.2168 58.3342 92.2264 58.3698 92.2449Z" fill="#2B303F"/>
<path d="M75.3022 92.6165L75.2072 92.6712L72.7073 94.1141L68.2606 91.548L68.1685 91.4961L70.7633 89.9985L75.3022 92.6165Z" fill="#BFBFBF"/>
<path d="M75.2072 92.6711L72.7073 94.1139L68.2606 91.5479L70.7633 90.105L75.2072 92.6711Z" fill="#E5E5E5"/>
<path d="M82.4315 95.9861V96.2165C82.4316 96.3768 82.3896 96.5343 82.3098 96.6732C82.2299 96.8122 82.115 96.9278 81.9765 97.0085L73.162 102.097C73.0237 102.177 72.8667 102.219 72.7071 102.218C72.5475 102.218 72.3907 102.176 72.2521 102.097L56.3048 92.8814C56.1663 92.8008 56.0514 92.6852 55.9716 92.5462C55.8917 92.4072 55.8498 92.2497 55.8499 92.0894V91.8677L72.7128 101.602L82.4315 95.9861Z" fill="#E5E5E5"/>
<path d="M73.4238 79.7455L70.4664 78.0723C70.4664 78.0723 67.751 80.6643 67.751 80.7679C66.6584 82.0092 65.6493 83.3215 64.7302 84.6963C64.3588 85.2233 63.9585 85.5401 63.1378 86.4732C62.3171 87.4064 61.5828 88.6563 61.3611 89.6268C61.1394 90.5974 61.2142 90.9632 61.3928 91.0668C61.6174 91.2022 61.8362 91.0352 61.9889 90.6003C62.183 89.8801 62.4985 89.1983 62.9219 88.5843C62.9219 88.5843 62.5417 89.5289 62.3632 90.1078C62.2044 90.6157 62.1143 91.1427 62.0954 91.6745C62.0954 92.1785 62.7145 92.5385 62.8787 92.1065C63.0428 91.6745 63.0543 91.3001 63.3308 90.4448C63.4768 89.9841 63.6749 89.5416 63.9211 89.1257C63.7703 89.6982 63.6654 90.2818 63.6072 90.871C63.5467 91.6803 63.6936 92.0057 63.8001 92.2131C63.9067 92.4204 64.3501 92.5011 64.4826 91.951C64.6007 91.447 64.5344 90.7846 64.9117 89.84C65.1996 89.1516 65.4876 88.688 65.5394 88.8118C65.5912 88.9356 65.4156 89.3273 65.4761 89.935C65.5365 90.5427 65.9512 91.015 66.291 90.92C66.6308 90.8249 66.5617 90.8364 66.602 90.2201C66.6423 89.6038 66.8727 89.048 66.8554 88.1811C66.7982 87.5782 66.8881 86.9704 67.1174 86.4099C67.3737 85.7532 68.6206 84.2902 70.0258 82.8963L73.4238 79.7455Z" fill="#FFCEA9"/>
<path d="M72.4504 101.737C72.2999 101.796 72.1382 101.819 71.9772 101.807C71.8163 101.795 71.6601 101.746 71.5203 101.665L55.6422 92.4984C55.5048 92.4189 55.3865 92.31 55.2959 92.1796C55.2053 92.0492 55.1446 91.9004 55.1181 91.7438L53.3904 81.3758C53.3861 81.3173 53.3861 81.2586 53.3904 81.2001C53.3903 81.0572 53.4185 80.9157 53.4733 80.7837C53.5282 80.6517 53.6086 80.5319 53.71 80.4312L70.2101 89.9582C70.3131 90.0196 70.4011 90.1032 70.4679 90.2028C70.5346 90.3024 70.5783 90.4156 70.596 90.5342L72.4504 101.737Z" fill="#F4F4F4"/>
<path d="M72.7125 101.602L72.6031 101.665C72.5559 101.693 72.5069 101.717 72.4563 101.737L70.5759 90.5196C70.5582 90.401 70.5145 90.2878 70.4477 90.1882C70.381 90.0886 70.293 90.005 70.19 89.9436L53.6899 80.4166C53.7564 80.3517 53.8309 80.2955 53.9116 80.2495L70.4434 89.7938C70.5447 89.853 70.6318 89.9337 70.6985 90.0303C70.7652 90.1268 70.8098 90.2368 70.8293 90.3526L72.7125 101.602Z" fill="#E5E5E5"/>
<path d="M75.3534 73.7522C75.3534 73.7522 74.1092 73.6889 73.5966 72.9631C73.6916 71.7247 75.2785 67.0159 78.4695 66.6646C77.601 67.2743 76.9118 68.1057 76.4737 69.0722C75.8948 70.4806 75.3534 73.7522 75.3534 73.7522Z" fill="#EDEDED"/>
<path opacity="0.4" d="M39.1654 87.8668C40.2597 87.8668 41.1468 87.3549 41.1468 86.7234C41.1468 86.092 40.2597 85.5801 39.1654 85.5801C38.0711 85.5801 37.184 86.092 37.184 86.7234C37.184 87.3549 38.0711 87.8668 39.1654 87.8668Z" fill="#D6D8E5"/>
<path d="M39.4476 87.6539C40.5419 87.6539 41.429 87.142 41.429 86.5106C41.429 85.8791 40.5419 85.3672 39.4476 85.3672C38.3532 85.3672 37.4661 85.8791 37.4661 86.5106C37.4661 87.142 38.3532 87.6539 39.4476 87.6539Z" fill="#D6D8E5"/>
<path d="M36.7952 82.5996L37.4892 86.5913H41.4233L42.1001 82.6284L36.7952 82.5996Z" fill="#D6D8E5"/>
<path d="M39.4477 84.0829C40.9142 84.0829 42.103 83.3969 42.103 82.5507C42.103 81.7045 40.9142 81.0186 39.4477 81.0186C37.9811 81.0186 36.7923 81.7045 36.7923 82.5507C36.7923 83.3969 37.9811 84.0829 39.4477 84.0829Z" fill="#E4E6EF"/>
<path d="M39.4476 83.7458C38.8533 83.7591 38.2654 83.6203 37.7398 83.3426C37.3538 83.118 37.1321 82.83 37.1321 82.5506C37.1321 82.2713 37.3538 81.9746 37.7398 81.7586C38.27 81.4935 38.8547 81.3555 39.4476 81.3555C40.0405 81.3555 40.6252 81.4935 41.1554 81.7586C41.5442 81.9833 41.766 82.2713 41.766 82.5506C41.766 82.83 41.5442 83.1266 41.1554 83.3426C40.6299 83.6206 40.042 83.7595 39.4476 83.7458Z" fill="#28221C"/>
<path d="M40.591 81.3439C40.6288 80.8279 40.5468 80.3102 40.3515 79.8311C40.1561 79.352 39.8527 78.9245 39.4649 78.582C39.0772 78.9245 38.7738 79.352 38.5784 79.8311C38.3831 80.3102 38.3011 80.8279 38.3389 81.3439L36.8211 81.1999C37.4633 83.6134 39.4765 83.406 39.4765 83.406C39.6262 83.406 41.4925 83.5155 42.1174 81.1999L40.591 81.3439Z" fill="#99B524"/>
<path d="M39.465 83.4116C39.465 83.4116 39.3296 81.5309 36.8039 80.2666C36.8039 80.2666 36.2077 83.3885 39.465 83.4116Z" fill="#A6CE28"/>
<path d="M39.4473 83.4116C39.4473 83.4116 39.597 81.528 42.1084 80.2666C42.1084 80.2666 42.7045 83.3885 39.4473 83.4116Z" fill="#A6CE28"/>
<path opacity="0.4" d="M91.9572 114.348C93.3856 114.348 94.5435 113.681 94.5435 112.857C94.5435 112.033 93.3856 111.365 91.9572 111.365C90.5289 111.365 89.371 112.033 89.371 112.857C89.371 113.681 90.5289 114.348 91.9572 114.348Z" fill="#D6D8E5"/>
<path d="M94.7969 112.632V108.661L89.636 108.79V112.462C89.5381 112.906 89.7829 113.367 90.3704 113.706C90.9374 113.993 91.5638 114.143 92.1992 114.143C92.8345 114.143 93.461 113.993 94.028 113.706C94.5493 113.413 94.7998 113.03 94.7969 112.632Z" fill="#D6D8E5"/>
<path d="M92.2106 110.152C93.639 110.152 94.7969 109.484 94.7969 108.66C94.7969 107.836 93.639 107.168 92.2106 107.168C90.7823 107.168 89.6244 107.836 89.6244 108.66C89.6244 109.484 90.7823 110.152 92.2106 110.152Z" fill="#E4E6EF"/>
<path d="M94.3879 108.661C94.3879 108.905 94.1863 109.159 93.8349 109.363C93.3848 109.6 92.886 109.729 92.3777 109.741H92.2106C91.6456 109.751 91.0871 109.619 90.5863 109.358C90.2349 109.153 90.0333 108.9 90.0333 108.655C90.0333 108.41 90.2349 108.157 90.5863 107.955C91.0867 107.692 91.6455 107.56 92.2106 107.572H92.3777C92.8864 107.583 93.3855 107.713 93.8349 107.952C94.1863 108.162 94.3879 108.419 94.3879 108.661Z" fill="#28221C"/>
<path opacity="0.07" d="M94.3878 108.66C94.3878 108.905 94.1862 109.159 93.8349 109.363C93.3885 109.611 92.8865 109.74 92.3761 109.74C91.8658 109.74 91.3638 109.611 90.9174 109.363C90.566 109.159 90.3644 108.905 90.3644 108.66C90.3644 108.416 90.566 108.162 90.9174 107.961C91.3632 107.711 91.8654 107.581 92.3761 107.581C92.8869 107.581 93.3891 107.711 93.8349 107.961C94.1862 108.162 94.3878 108.419 94.3878 108.66Z" fill="white"/>
<path d="M94.419 110.507L93.869 110.187L93.604 110.343L93.869 110.498V110.599L94.3845 110.887L94.3701 110.982C94.4965 111.159 94.6101 111.345 94.7099 111.538L94.7301 111.52V112.802C94.7301 113.139 94.5314 113.024 94.4421 112.975L93.8661 112.644L93.6011 112.796L93.8661 112.952V113.053L94.4421 113.387C94.5012 113.421 94.564 113.449 94.6293 113.47L94.5947 113.631L94.8827 113.462C94.9473 113.407 94.9971 113.337 95.0278 113.258C95.0585 113.179 95.069 113.093 95.0584 113.009V111.67C95.0451 111.441 94.9808 111.217 94.8702 111.016C94.7596 110.815 94.6055 110.641 94.419 110.507Z" fill="#B0B4C1"/>
<path d="M94.18 113.551L93.604 113.217V112.805L94.18 113.139C94.2664 113.188 94.468 113.303 94.468 112.966V111.627C94.4579 111.512 94.4227 111.401 94.365 111.302C94.3072 111.202 94.2284 111.117 94.1339 111.051L93.6098 110.763V110.351L94.157 110.668C94.3487 110.801 94.508 110.975 94.6232 111.178C94.7383 111.381 94.8064 111.607 94.8223 111.84V113.179C94.8165 113.533 94.6494 113.822 94.18 113.551Z" fill="#BFC2D1"/>
<path d="M36.1647 44.7909C35.7126 43.6043 35.223 43.1521 34.2238 42.5099C33.2246 41.8677 30.7222 40.3787 28.5539 39.1259C26.3855 37.8731 23.8716 36.4533 22.8782 35.9579C22.19 35.6037 21.7436 35.4481 21.3837 35.6037L21.3203 35.6382L21.2829 35.6584L19.2009 36.7758L20.4075 37.6773C20.2727 38.7527 20.214 39.8364 20.2318 40.9201C20.2318 43.7166 20.4708 45.459 20.9373 46.6456C21.4038 47.8321 21.8818 48.2872 22.8753 48.9496C23.8688 49.612 26.3798 51.0808 28.5539 52.3336C30.1607 53.2638 31.9547 54.2776 33.1785 54.9457L33.4319 57.0741L35.7846 55.8242C35.9406 55.7334 36.0721 55.6059 36.1676 55.4526C36.6369 54.8075 36.8731 53.3387 36.8731 50.5566C36.8702 47.7198 36.6341 45.9889 36.1647 44.7909Z" fill="#DB302C"/>
<path d="M33.93 45.9918C33.4808 44.8024 32.9912 44.3502 31.992 43.708C30.9928 43.0657 28.4904 41.5768 26.3221 40.324C24.1537 39.0712 21.6398 37.6542 20.6464 37.156C19.6529 36.6577 19.1518 36.5339 18.7026 37.1992C18.2534 37.8644 18 39.3131 18 42.1211C18 44.9176 18.239 46.66 18.7026 47.8465C19.1662 49.0331 19.65 49.4881 20.6435 50.1505C21.6369 50.8129 24.148 52.2817 26.3221 53.5374C28.4962 54.7931 30.9957 56.1956 31.9949 56.7054C32.9941 57.2152 33.4808 57.3188 33.9329 56.6507C34.385 55.9825 34.6384 54.5368 34.6384 51.7403C34.6384 48.9208 34.4138 47.187 33.93 45.9918Z" fill="#F44336"/>
<path d="M24.241 49.3298V42.124L29.4394 48.7279L24.241 49.3298Z" fill="#FAFAFA"/>
<path d="M76.8188 30.1632C76.8188 24.9792 73.1848 18.695 68.7041 16.1059C66.5012 14.8358 64.5056 14.712 63.0428 15.4982L62.9938 15.527L62.9391 15.5587L61.292 16.5177L61.7009 16.7049C60.9954 17.687 60.5894 19.0694 60.5894 20.7945C60.5894 25.9785 64.2234 32.2627 68.7041 34.8489C70.0633 35.6352 71.3447 36.0009 72.4706 35.9548L72.4245 36.5798L74.4403 35.4278H74.4604L74.4892 35.4105C75.9261 34.535 76.8188 32.7264 76.8188 30.1632Z" fill="#499BCE"/>
<path d="M72.6058 36.4824C75.775 34.6525 75.7753 28.7191 72.6065 23.2298C69.4377 17.7405 64.2997 14.7741 61.1306 16.604C57.9614 18.434 57.9612 24.3674 61.1299 29.8567C64.2987 35.3459 69.4367 38.3124 72.6058 36.4824Z" fill="#55ACEE"/>
<path d="M71.5031 26.2753C71.1177 26.245 70.7405 26.1476 70.3887 25.9873C70.5912 25.9649 70.7821 25.8816 70.9363 25.7485C71.0906 25.6153 71.2008 25.4385 71.2525 25.2414C70.8351 25.2773 70.415 25.2193 70.0229 25.0715C69.6929 24.4479 69.2042 23.9224 68.6062 23.548C67.5292 22.9259 66.6653 23.427 66.6653 24.6654C66.6657 24.8462 66.683 25.0265 66.7172 25.204C65.1046 24.1816 63.6763 22.4622 62.7203 20.5557C62.5342 20.8452 62.4427 21.1853 62.4582 21.5291C62.4969 22.3872 62.7985 23.2127 63.3221 23.8936C62.9883 23.6802 62.6916 23.4137 62.4438 23.1045V23.1333C62.4749 23.7278 62.6276 24.3095 62.8926 24.8426C63.1576 25.3756 63.5292 25.8486 63.9844 26.2321C63.8051 26.1848 63.6334 26.1121 63.4747 26.0161C63.3463 25.9426 63.224 25.8588 63.109 25.7656C63.3695 26.8248 64.0153 27.7489 64.9203 28.3576C64.258 28.5736 63.42 28.4497 62.5129 27.9227C62.3574 27.8334 62.2019 27.7326 62.0493 27.6347C62.8518 28.7291 63.8627 29.654 65.0239 30.3563C68.5889 32.4184 70.5413 30.1317 70.5413 27.171C70.5413 27.0731 70.5413 26.9752 70.5413 26.883C70.9184 26.7891 71.2567 26.5797 71.5088 26.284L71.5031 26.2753Z" fill="#F1F2F2"/>
<path d="M124.332 39.892L112.653 33.1441C112.451 33.0028 112.219 32.9104 111.976 32.8744C111.733 32.8384 111.484 32.8598 111.25 32.9368H111.233C111.166 32.9665 111.102 33.0032 111.043 33.0462L109.177 34.1147L110.499 35.9492V47.8638C110.538 48.6134 110.753 49.3432 111.127 49.9938C111.502 50.6445 112.024 51.1974 112.653 51.6078L118.412 54.9342V48.3419L116.926 47.4779C116.824 47.4111 116.74 47.3213 116.679 47.2157C116.619 47.1101 116.584 46.9918 116.578 46.8702V44.7419C116.578 44.5172 116.736 44.4251 116.929 44.5374L118.409 45.4014V43.3508C118.409 40.9662 119.67 40.396 121.513 41.4587L123.025 42.3227C123.128 42.3897 123.214 42.4803 123.275 42.587C123.336 42.6937 123.371 42.8133 123.376 42.9361V44.7275C123.376 44.9521 123.221 45.0414 123.028 44.9291L122.101 44.3963C121.099 43.8203 120.906 44.2552 120.906 45.0616V46.8385L123.106 48.1201C123.214 48.1901 123.303 48.2865 123.364 48.4004C123.425 48.5143 123.456 48.6418 123.454 48.771L123.235 50.787C123.215 50.98 123.065 51.0462 122.887 50.9425L120.914 49.7905V56.38L123.316 57.7681L123.739 59.7265L125.85 58.5169L125.873 58.5025H125.89C126.265 58.2692 126.498 57.7969 126.498 57.123V43.6244C126.456 42.8758 126.238 42.1476 125.862 41.4991C125.485 40.8505 124.961 40.2999 124.332 39.892Z" fill="#384B7A"/>
<path d="M115.023 55.2795L121.896 59.251L123.028 45.8331L120.98 42.4721L114.375 38.564L112.972 41.3662C112.972 41.3662 113.082 47.5611 113.26 48.8542C113.439 50.1473 115.023 55.2795 115.023 55.2795Z" fill="white"/>
<path d="M122.34 41.0441L110.66 34.2962C109.471 33.6079 108.506 34.1666 108.506 35.5404V49.0245C108.545 49.7741 108.76 50.504 109.135 51.1546C109.509 51.8052 110.031 52.3582 110.66 52.7685L116.419 56.0949V49.5026L114.936 48.6386C114.834 48.572 114.749 48.4822 114.688 48.3767C114.627 48.2711 114.592 48.1527 114.585 48.0309V45.9026C114.585 45.678 114.743 45.5858 114.936 45.6981L116.419 46.5621V44.5087C116.419 42.1241 117.678 41.5538 119.52 42.6165L121.032 43.4805C121.133 43.5478 121.217 43.6378 121.277 43.7433C121.337 43.8489 121.372 43.967 121.378 44.0882V45.8796C121.378 46.1042 121.219 46.1935 121.027 46.0812L120.099 45.5484C119.097 44.9724 118.904 45.4073 118.904 46.2137V47.9906L121.104 49.2636C121.213 49.3335 121.302 49.43 121.363 49.5439C121.424 49.6578 121.455 49.7853 121.453 49.9145L121.234 51.9305C121.214 52.1205 121.064 52.1897 120.885 52.086L118.913 50.9484V57.5378L122.34 59.5164C123.529 60.2047 124.494 59.646 124.494 58.2722V44.7765C124.453 44.0289 124.237 43.3014 123.862 42.6529C123.488 42.0045 122.967 41.4533 122.34 41.0441Z" fill="#475993"/>
<path d="M144 99.3839C144 93.4166 139.81 86.1618 134.644 83.1753C132.127 81.7353 129.847 81.5538 128.165 82.4495L128.113 82.4812C128.014 82.5339 127.918 82.5916 127.825 82.654L125.879 83.806L126.42 84.0623C125.694 85.1798 125.283 86.7004 125.283 88.5695C125.283 94.5369 129.472 101.794 134.641 104.778C135.843 105.522 137.208 105.959 138.618 106.051L138.719 106.837L141.095 105.524C142.886 104.585 144 102.454 144 99.3839Z" fill="#134889"/>
<path d="M138.009 104.774C141.092 102.994 141.092 97.2231 138.01 91.884C134.928 86.5449 129.93 83.6595 126.848 85.4394C123.766 87.2192 123.765 92.9903 126.848 98.3294C129.93 103.669 134.927 106.554 138.009 104.774Z" fill="white"/>
<path d="M132.508 97.3683C133.539 97.9644 134.377 97.4806 134.377 96.2912C134.363 95.7843 134.243 95.286 134.026 94.8281C133.706 94.1004 133.179 93.4832 132.511 93.054C131.886 92.694 131.336 92.7315 130.993 93.08C130.744 93.3727 130.618 93.7505 130.642 94.134C130.676 94.7819 130.864 95.4124 131.188 95.9743C131.512 96.5362 131.964 97.0138 132.508 97.3683Z" fill="#A93BFF"/>
<path d="M136.588 94.9317V93.1231V92.8523L136.355 92.7198L134.788 91.8213L134.794 93.9035L136.588 94.9317Z" fill="#A93BFF"/>
<path d="M132.507 84.4367C127.362 81.4645 123.175 83.8837 123.175 89.8251C123.175 95.7666 127.362 103.021 132.507 105.993C137.653 108.966 141.84 106.546 141.84 100.605C141.84 94.6635 137.656 87.4088 132.507 84.4367ZM137.817 97.0222V102.039C137.817 103.347 136.896 103.88 135.764 103.226L129.254 99.4645C128.656 99.0749 128.159 98.5501 127.803 97.9327C127.446 97.3153 127.24 96.6226 127.2 95.9106V88.3909C127.2 87.0834 128.122 86.5506 129.254 87.2043L135.776 90.9656C136.373 91.3552 136.87 91.88 137.227 92.4974C137.583 93.1148 137.79 93.8075 137.829 94.5195L137.817 97.0222Z" fill="#A93BFF"/>
<path d="M135.413 96.8897C135.413 98.7387 134.109 99.4817 132.507 98.5688C130.906 97.6558 129.605 95.3864 129.605 93.5374C129.597 93.1486 129.67 92.7623 129.818 92.4027L128.234 91.4897V96.5038C128.253 96.8568 128.355 97.2004 128.532 97.5066C128.708 97.8129 128.955 98.0731 129.251 98.2664L135.776 102.031C136.352 102.353 136.792 102.091 136.792 101.455V96.4232L135.209 95.5102C135.342 95.9579 135.411 96.4225 135.413 96.8897Z" fill="#A93BFF"/>
</g>
<defs>
<clipPath id="clip0">
<rect x="18" y="15" width="126" height="144" rx="20" fill="white"/>
</clipPath>
</defs>
</svg>
