<svg width="255" height="343" viewBox="0 0 255 343" fill="none" xmlns="http://www.w3.org/2000/svg">
<g clip-path="url(#clip0)">
<path fill-rule="evenodd" clip-rule="evenodd" d="M174.87 -62.7854L99.041 121.126H158.079L238.318 -62.7854H174.87Z" fill="#169CD6"/>
<mask id="mask0" mask-type="alpha" maskUnits="userSpaceOnUse" x="22" y="109" width="203" height="220">
<path d="M22.6316 109.719H224.915V328.615H22.6316V109.719Z" fill="white"/>
</mask>
<g mask="url(#mask0)">
<path fill-rule="evenodd" clip-rule="evenodd" d="M84.4668 141.787V125.777C84.4668 123.174 86.6715 121.053 89.3808 121.053H158.166C160.875 121.053 163.08 123.174 163.08 125.777V141.787C150.997 136.884 137.714 134.172 123.773 134.172C109.833 134.172 96.5501 136.884 84.4668 141.787ZM174.873 147.475V125.777C174.873 116.922 167.378 109.719 158.166 109.719H89.3808C80.169 109.719 72.6751 116.922 72.6751 125.777V147.475C42.735 164.355 22.6316 195.618 22.6316 231.394C22.6316 285.088 67.9133 328.616 123.773 328.616C179.632 328.616 224.915 285.088 224.915 231.394C224.915 195.618 204.813 164.355 174.873 147.475Z" fill="url(#paint0_linear)"/>
</g>
<path fill-rule="evenodd" clip-rule="evenodd" d="M123.8 310.969C77.7209 310.969 40.2354 275.707 40.2354 232.363C40.2354 189.017 77.7209 153.755 123.8 153.755C169.879 153.755 207.367 189.017 207.367 232.363C207.367 275.707 169.879 310.969 123.8 310.969Z" fill="url(#paint1_linear)"/>
<path fill-rule="evenodd" clip-rule="evenodd" d="M141.666 259.766L125.173 253.116L108.616 259.62C105.453 260.863 101.838 259.413 100.541 256.381C100.173 255.52 100.021 254.588 100.098 253.661L101.536 236.316L89.9273 222.943C87.7408 220.424 88.0988 216.684 90.7269 214.588C91.4555 214.007 92.3137 213.594 93.2352 213.381L110.723 209.341L120.165 194.661C121.959 191.872 125.772 191.005 128.682 192.724C129.521 193.22 130.224 193.9 130.733 194.708L140.036 209.472L157.486 213.666C160.801 214.463 162.815 217.686 161.984 220.864C161.753 221.745 161.315 222.563 160.702 223.256L148.967 236.526L150.241 253.881C150.481 257.15 147.911 259.986 144.501 260.216C143.532 260.281 142.561 260.127 141.666 259.766Z" fill="#FFEFB9"/>
<path fill-rule="evenodd" clip-rule="evenodd" d="M0 -62.7854H70.472L160.942 124.092H94.7602L0 -62.7854Z" fill="#134889"/>
</g>
<defs>
<linearGradient id="paint0_linear" x1="172.714" y1="136.888" x2="81.4976" y2="312.789" gradientUnits="userSpaceOnUse">
<stop stop-color="#FFDE78"/>
<stop offset="1" stop-color="#FFBA3B"/>
</linearGradient>
<linearGradient id="paint1_linear" x1="181.369" y1="173.989" x2="88.769" y2="298.463" gradientUnits="userSpaceOnUse">
<stop stop-color="#FFD06D"/>
<stop offset="1" stop-color="#F99912"/>
</linearGradient>
<clipPath id="clip0">
<rect width="255" height="342.466" fill="white"/>
</clipPath>
</defs>
</svg>
