<svg width="80" height="80" viewBox="0 0 80 80" fill="none" xmlns="http://www.w3.org/2000/svg">
<path fill-rule="evenodd" clip-rule="evenodd" d="M50.022 21.8251L60.3234 35.3106L53.6356 50.8442L36.6463 52.9056L26.3448 39.4201L33.0327 23.8798L50.022 21.8251Z" fill="#6D6E71"/>
<path fill-rule="evenodd" clip-rule="evenodd" d="M45.2826 20.269L55.584 33.7479L48.8962 49.2882L31.9069 51.3496L21.6055 37.8641L28.2933 22.3238L45.2826 20.269Z" fill="#ED1C24"/>
<path fill-rule="evenodd" clip-rule="evenodd" d="M53.3053 25.243C52.1389 16.7979 48.8759 10.8132 44.2646 10.0751C36.9902 8.9114 28.9675 21.4128 26.4797 37.8907C23.992 54.3686 27.9292 68.7584 35.2441 69.9221C41.0352 70.8464 47.2242 63.1993 50.7973 51.855C47.2377 59.6218 41.5881 63.2592 37.5228 62.2285C34.5362 61.4704 32.5271 57.3609 31.9271 51.5158C31.487 46.4258 31.8073 41.2996 32.8777 36.3014C35.5744 23.3478 41.9858 13.8255 47.1972 15.1953C50.4737 16.0598 52.6985 22.7627 53.3053 25.243Z" fill="#AFB1B4"/>
<path fill-rule="evenodd" clip-rule="evenodd" d="M37.7655 26.2538C17.4997 28.3817 7.15109 36.8667 8.05449 43.0974C8.95788 49.3282 16.8795 52.0279 25.6842 53.0719C21.8886 52.0412 12.0861 48.9824 14.1288 43.9951C16.0165 39.3869 26.4191 34.6856 38.9453 33.2692C53.7772 31.5868 65.9461 35.3572 66.5866 40.7235C67.0787 44.8928 60.1212 48.4172 54.7076 50.5983C64.7663 47.5328 72.8632 42.6186 71.9261 36.1352C70.989 29.6518 59.71 23.9663 37.7655 26.2538Z" fill="#AFB1B4"/>
<path fill-rule="evenodd" clip-rule="evenodd" d="M37.7655 26.2537C37.1183 26.3202 36.4846 26.3933 35.8643 26.4731C36.6325 24.6009 37.557 22.7948 38.6285 21.0736L31.0642 21.9713C30.2135 23.836 29.4729 25.7476 28.8461 27.6967C27.727 27.9582 26.6506 28.2375 25.6168 28.5345L21.6055 37.8441C23.2995 37.0578 25.0424 36.3781 26.8236 35.8093C26.7023 36.4743 26.5809 37.1791 26.4798 37.8707C26.1966 39.7592 25.9944 41.6122 25.873 43.4298L31.9406 51.3296C31.5185 46.3018 31.8341 41.2403 32.8777 36.3014C33.0328 35.5699 33.1946 34.8517 33.3631 34.1402C35.1632 33.7811 37.0307 33.4753 38.9453 33.2691C44.4837 32.5821 50.0965 32.7458 55.584 33.7545L49.5164 25.7749C45.604 25.6707 41.689 25.8329 37.7992 26.2604L37.7655 26.2537Z" fill="white"/>
</svg>
