<svg width="56" height="56" viewBox="0 0 56 56" fill="none" xmlns="http://www.w3.org/2000/svg">
<path d="M28 29.3667L37.9003 39.2647L34.5987 42.5664L30.3333 38.301V51.3327H25.6667V38.2964L21.4013 42.5664L18.0997 39.2647L28 29.3667ZM28 4.66602C32.0063 4.66621 35.8728 6.13861 38.8644 8.80329C41.8561 11.468 43.7642 15.1391 44.226 19.1187C47.1293 19.9104 49.662 21.6973 51.3815 24.1669C53.1011 26.6366 53.898 29.632 53.6331 32.6296C53.3682 35.6272 52.0583 38.4364 49.9323 40.5663C47.8063 42.6961 44.9995 44.011 42.0023 44.2814V39.582C43.0761 39.4287 44.1085 39.063 45.0394 38.5063C45.9702 37.9496 46.7809 37.213 47.424 36.3396C48.0671 35.4662 48.5298 34.4735 48.785 33.4193C49.0403 32.3651 49.083 31.2707 48.9107 30.1998C48.7383 29.129 48.3544 28.1032 47.7813 27.1823C47.2082 26.2615 46.4575 25.464 45.5728 24.8364C44.6882 24.2089 43.6874 23.7639 42.6288 23.5273C41.5703 23.2908 40.4753 23.2674 39.4077 23.4587C39.7731 21.7574 39.7533 19.996 39.3498 18.3033C38.9463 16.6107 38.1693 15.0297 37.0757 13.6763C35.9821 12.3228 34.5996 11.2311 33.0294 10.4811C31.4593 9.73118 29.7412 9.34194 28.0012 9.34194C26.2611 9.34194 24.5431 9.73118 22.9729 10.4811C21.4027 11.2311 20.0202 12.3228 18.9266 13.6763C17.833 15.0297 17.056 16.6107 16.6525 18.3033C16.249 19.996 16.2292 21.7574 16.5947 23.4587C14.4659 23.0589 12.2654 23.5212 10.4775 24.7438C8.68949 25.9664 7.46043 27.8492 7.06066 29.978C6.66089 32.1068 7.12316 34.3072 8.34577 36.0952C9.56839 37.8832 11.4512 39.1122 13.58 39.512L14 39.582V44.2814C11.0027 44.0114 8.19561 42.6968 6.06931 40.5671C3.94301 38.4375 2.63276 35.6283 2.36757 32.6306C2.10238 29.6329 2.89912 26.6373 4.61852 24.1675C6.33793 21.6976 8.87065 19.9106 11.774 19.1187C12.2353 15.1389 14.1433 11.4675 17.135 8.8027C20.1268 6.13793 23.9936 4.6657 28 4.66602Z" fill="#3C7FBE"/>
</svg>
