<svg width="80" height="80" viewBox="0 0 80 80" fill="none" xmlns="http://www.w3.org/2000/svg">
<path d="M46.4263 15.532C47.0024 15.171 47.7015 14.8648 48.395 15.0617C49.0102 15.2913 49.2171 15.9913 49.206 16.5764C49.2115 23.8986 49.206 31.2208 49.206 38.543C56.2921 38.543 63.3726 38.5376 70.4587 38.543C71.0236 38.543 71.7059 38.7289 71.924 39.2922C72.1589 39.9648 71.801 40.6484 71.4934 41.2335C69.6366 44.5692 67.7014 47.8667 65.7328 51.1422C65.1511 51.9024 64.3793 52.6132 63.4062 52.8429C62.6008 53.0343 61.7619 53.0234 60.9397 53.0398C58.5907 53.0452 56.2417 53.0452 53.8872 53.0452C52.8637 53.0398 51.7115 53.089 50.9062 53.7835C50.235 54.4123 50.3189 55.424 50.5818 56.2169C51.1523 57.9121 52.2429 59.3722 53.0482 60.958C52.2149 60.4112 51.4151 59.8315 50.6433 59.2027C48.2552 57.1356 46.0684 54.8444 44.2227 52.3015C38.6858 44.7934 35.8167 35.612 35.2966 26.4196C35.2071 24.4017 36.0516 22.1979 37.8917 21.1425C40.7384 19.2778 43.5796 17.4076 46.4207 15.5374L46.4263 15.532Z" fill="#00C89E"/>
<path d="M8.07639 30.2147C8.36721 29.6132 9.11106 29.4273 9.73746 29.4382C14.0383 29.4382 18.3392 29.4382 22.6401 29.4382C23.384 29.4546 24.1726 29.4819 24.8437 29.8374C25.526 30.1983 26.0406 30.7834 26.5663 31.3248C28.1379 33.0692 29.7039 34.8191 31.2699 36.5635C31.3593 36.6565 31.5215 36.8588 31.6446 36.6838C32.5059 35.7706 33.328 34.8136 34.1837 33.8895C34.8996 38.3572 36.6669 42.6225 39.0551 46.4778C42.0976 51.3501 46.0964 55.6264 50.649 59.1918C51.4152 59.8207 52.2206 60.4003 53.0539 60.9472C53.5741 61.4995 54.0662 62.0791 54.564 62.6479C54.9387 63.0744 55.196 63.6869 54.9611 64.2337C54.7038 64.7805 54.0494 64.9993 53.4734 64.9938C49.1278 64.9993 44.7877 64.9938 40.4421 64.9938C39.715 64.9938 38.9488 64.9719 38.2833 64.6493C37.5842 64.2938 37.0472 63.7197 36.5215 63.1619C34.9779 61.4448 33.4343 59.7223 31.8907 57.9997C31.7732 57.863 31.6334 57.7482 31.4824 57.6552C29.8437 59.4488 28.2385 61.2698 26.611 63.0689C26.0741 63.6486 25.526 64.2501 24.8157 64.6329C24.1558 64.9719 23.3896 64.9993 22.6569 64.9993C18.3057 64.9993 13.96 64.9993 9.61441 64.9993C8.98802 65.0157 8.24417 64.7587 8.04842 64.1189C7.85827 63.4681 8.26095 62.8666 8.686 62.4072C13.1938 57.338 17.7128 52.2688 22.2486 47.2215C17.7072 42.1085 13.1211 37.0338 8.59093 31.9154C8.16587 31.467 7.84149 30.8162 8.08757 30.2092L8.07639 30.2147Z" fill="#002BBA"/>
</svg>
