<svg width="22" height="18" viewBox="0 0 22 18" fill="none" xmlns="http://www.w3.org/2000/svg">
<path d="M5.09826 17.0357C2.96341 17.0357 1.64946 16.7276 0.910494 16.1885C0.308693 15.752 0.445197 14.6481 1.1296 13.5442C2.30207 14.1744 3.63642 14.4938 4.98886 14.468C6.19309 14.468 6.98689 14.2628 6.98689 13.5182C6.98689 12.7479 6.27538 12.5941 4.57808 12.286C2.3887 11.8749 0.801113 11.002 0.801113 8.79422C0.801113 6.63727 2.77172 5.251 5.78265 5.251C7.2358 5.23197 8.67829 5.48516 10.0249 5.9956C9.77872 7.81866 9.286 8.15254 8.68388 8.15254C7.86298 8.15254 7.206 7.74181 5.70069 7.74181C4.55098 7.74181 3.92143 8.04964 3.92143 8.69163C3.92143 9.46196 4.74266 9.56456 5.91947 9.76979C8.62933 10.2577 10.1895 11.1818 10.1895 13.3899C10.1895 15.3667 8.90298 17.0357 5.09826 17.0357Z" fill="black"/>
<path d="M11.397 5.16899C11.5629 1.88522 14.0506 0.781758 16.5935 0.781758C17.3415 0.769251 18.0895 0.804428 18.8326 0.887052C18.8603 2.62077 18.6393 3.40896 17.8927 3.40896H16.7316C15.3222 3.40896 14.631 3.98656 14.631 5.48427V5.61559H17.9755C18.1417 7.9012 17.6995 8.11117 16.8701 8.11117H14.631V17.2793H11.397V5.16899Z" fill="black"/>
<path d="M21.662 12.5645H16.8315V17.2787H21.662V12.5645Z" fill="#EE2060"/>
</svg>
