<svg width="17" height="22" viewBox="0 0 17 22" fill="none" xmlns="http://www.w3.org/2000/svg">
<path fill-rule="evenodd" clip-rule="evenodd" d="M2.01727 4.35524C2.01727 4.40491 2.01727 4.50425 2.01727 4.55392C2.01727 9.81894 2.01727 15.1336 2.01727 20.3987C2.01727 20.5477 2.01727 20.647 1.9672 20.796C1.81698 21.243 1.4164 21.5411 0.915682 21.4914C0.465031 21.4417 0.114525 21.0444 0.0644531 20.5973C0.0644531 20.5477 0.0644531 20.498 0.0644531 20.4483C0.0644531 14.1402 0.0644531 7.88181 0.0644531 1.57372C0.0644531 1.47438 0.0644531 1.37504 0.0644531 1.2757C0.164598 0.878339 0.364887 0.629989 0.765465 0.530649C1.16604 0.431309 1.51655 0.580319 1.76691 0.878339C2.06734 1.2757 2.36778 1.67306 2.66821 2.07042C6.4737 7.2361 10.3293 12.4018 14.1348 17.5675C14.1348 17.6171 14.1848 17.6668 14.2349 17.6668C14.2349 13.1965 14.2349 8.77587 14.2349 4.35524C14.1848 4.40491 14.1348 4.40491 14.1348 4.45458C13.3336 5.49765 12.5825 6.49105 11.7814 7.53412C11.7313 7.58379 11.6812 7.68313 11.6311 7.7328C11.2806 8.08049 10.7298 8.08049 10.3793 7.78247C9.97876 7.48445 9.87862 6.93808 10.129 6.54072C10.1791 6.49105 10.1791 6.44138 10.2291 6.39171C11.5811 4.60359 12.933 2.81547 14.285 1.02735C14.4352 0.828669 14.6355 0.629989 14.9359 0.530649C15.5368 0.381639 16.0876 0.828669 16.1377 1.42471C16.1377 1.47438 16.1377 1.52405 16.1377 1.57372C16.1377 7.88181 16.1377 14.1402 16.1377 20.4483C16.1377 20.5973 16.1377 20.7463 16.0876 20.8954C15.8372 21.5411 14.986 21.6901 14.5353 21.243C14.4352 21.1437 14.285 20.9947 14.1848 20.8457C10.1791 15.3323 6.1232 9.86861 2.11742 4.45458C2.06734 4.40491 2.06734 4.35524 2.01727 4.35524Z" fill="#FF5000"/>
</svg>
