<svg width="22" height="18" viewBox="0 0 22 18" fill="none" xmlns="http://www.w3.org/2000/svg">
<path d="M13.1689 0.718597C13.3633 0.596788 13.5992 0.493435 13.8333 0.559876C14.0409 0.637391 14.1108 0.873626 14.107 1.0711C14.1089 3.54235 14.107 6.01359 14.107 8.48483C16.4986 8.48483 18.8882 8.48299 21.2798 8.48483C21.4704 8.48483 21.7007 8.54758 21.7743 8.73768C21.8536 8.96469 21.7328 9.19538 21.629 9.39286C21.0023 10.5187 20.3492 11.6316 19.6848 12.7371C19.4885 12.9936 19.228 13.2335 18.8996 13.311C18.6277 13.3756 18.3446 13.372 18.0671 13.3775C17.2744 13.3793 16.4816 13.3793 15.6869 13.3793C15.3415 13.3775 14.9526 13.3941 14.6808 13.6285C14.4543 13.8407 14.4826 14.1822 14.5713 14.4498C14.7639 15.0219 15.1319 15.5147 15.4038 16.0499C15.1225 15.8653 14.8526 15.6697 14.5921 15.4575C13.7861 14.7598 13.0481 13.9865 12.4252 13.1283C10.5564 10.5943 9.58811 7.4956 9.41257 4.39316C9.38237 3.71214 9.66739 2.96837 10.2884 2.61217C11.2492 1.98282 12.2081 1.35163 13.167 0.720442L13.1689 0.718597Z" fill="#00C89E"/>
<path d="M0.225732 5.67433C0.323886 5.47132 0.574934 5.40857 0.786343 5.41226C2.23789 5.41226 3.68944 5.41226 5.14099 5.41226C5.39204 5.4178 5.65819 5.42703 5.8847 5.54699C6.11498 5.6688 6.28864 5.86628 6.46607 6.04899C6.99648 6.63773 7.525 7.22832 8.05353 7.81706C8.08373 7.84844 8.13847 7.91672 8.17999 7.85766C8.47068 7.54945 8.74816 7.22647 9.03696 6.91457C9.27857 8.42241 9.87504 9.86197 10.681 11.1631C11.7079 12.8075 13.0575 14.2508 14.594 15.4541C14.8526 15.6663 15.1244 15.862 15.4057 16.0465C15.5812 16.2329 15.7473 16.4286 15.9153 16.6205C16.0418 16.7645 16.1286 16.9712 16.0493 17.1557C15.9625 17.3403 15.7416 17.4141 15.5472 17.4123C14.0806 17.4141 12.6158 17.4123 11.1492 17.4123C10.9038 17.4123 10.6452 17.4049 10.4206 17.296C10.1846 17.176 10.0034 16.9822 9.82596 16.794C9.30499 16.2145 8.78402 15.6331 8.26305 15.0518C8.22341 15.0056 8.17622 14.9669 8.12525 14.9355C7.57219 15.5408 7.03046 16.1554 6.48117 16.7626C6.29996 16.9583 6.11498 17.1613 5.87526 17.2905C5.65252 17.4049 5.39393 17.4141 5.14665 17.4141C3.67812 17.4141 2.21147 17.4141 0.744816 17.4141C0.533407 17.4196 0.282359 17.3329 0.216294 17.117C0.152116 16.8973 0.288022 16.6943 0.431478 16.5393C1.95287 14.8284 3.47803 13.1176 5.00886 11.4141C3.47614 9.68849 1.92833 7.97578 0.399389 6.24831C0.255933 6.09697 0.146453 5.87735 0.229507 5.67249L0.225732 5.67433Z" fill="#002BBA"/>
</svg>
